<svg xmlns="http://www.w3.org/2000/svg" xmlns:xlink="http://www.w3.org/1999/xlink" width="110" height="110" viewBox="0 0 110 110">
  <defs>
    <filter id="Trazado_982547" x="0" y="0" width="110" height="110" filterUnits="userSpaceOnUse">
      <feOffset dy="3" input="SourceAlpha"/>
      <feGaussianBlur stdDeviation="3" result="blur"/>
      <feFlood flood-opacity="0.161"/>
      <feComposite operator="in" in2="blur"/>
      <feComposite in="SourceGraphic"/>
    </filter>
  </defs>
  <g id="Grupo_1158890" data-name="Grupo 1158890" transform="translate(-801 -3805)">
    <g id="Grupo_1157405" data-name="Grupo 1157405" transform="translate(1 3016)">
      <g id="Grupo_1155792" data-name="Grupo 1155792" transform="translate(-1 -3894.666)">
        <g id="Grupo_1154703" data-name="Grupo 1154703" transform="translate(0 1465.666)">
          <g id="Grupo_1150789" data-name="Grupo 1150789" transform="translate(3 2320)">
            <g id="Grupo_1154212" data-name="Grupo 1154212" transform="translate(-236 -5809)">
              <g id="Grupo_1152583" data-name="Grupo 1152583" transform="translate(1043 6713)">
                <g id="Grupo_1146973" data-name="Grupo 1146973" transform="translate(0 0)">
                  <g id="Grupo_1146954" data-name="Grupo 1146954">
                    <g transform="matrix(1, 0, 0, 1, -9, -6)" filter="url(#Trazado_982547)">
                      <g id="Trazado_982547-2" data-name="Trazado 982547" transform="translate(9 6)" fill="#fceaf1">
                        <path d="M 46 90.49987030029297 C 39.99187850952148 90.49987030029297 34.16426849365234 89.32350921630859 28.67905426025391 87.00345611572266 C 23.38019943237305 84.76224517822266 18.62104034423828 81.55341339111328 14.53374671936035 77.46613311767578 C 10.44646644592285 73.37885284423828 7.237639904022217 68.61969757080078 4.996413230895996 63.32085418701172 C 2.676359891891479 57.83565521240234 1.5 52.008056640625 1.5 45.99993515014648 C 1.5 39.99181365966797 2.676359891891479 34.16421508789062 4.996413230895996 28.67901420593262 C 7.237639904022217 23.38017463684082 10.44646644592285 18.62101554870605 14.53374671936035 14.53373527526855 C 18.62104034423828 10.44645500183105 23.38019943237305 7.23762845993042 28.67905426025391 4.996415138244629 C 34.16426849365234 2.676361799240112 39.99187850952148 1.500001788139343 46 1.500001788139343 C 52.00812149047852 1.500001788139343 57.83573150634766 2.676361799240112 63.32094573974609 4.996415138244629 C 68.61979675292969 7.23762845993042 73.37895965576172 10.44645500183105 77.46625518798828 14.53373527526855 C 81.55353546142578 18.62101554870605 84.76235961914062 23.38017463684082 87.00358581542969 28.67901420593262 C 89.32363891601562 34.16421508789062 90.5 39.99181365966797 90.5 45.99993515014648 C 90.5 52.008056640625 89.32363891601562 57.83565521240234 87.00358581542969 63.32085418701172 C 84.76235961914062 68.61969757080078 81.55353546142578 73.37885284423828 77.46625518798828 77.46613311767578 C 73.37895965576172 81.55341339111328 68.61979675292969 84.76224517822266 63.32094573974609 87.00345611572266 C 57.83573150634766 89.32350921630859 52.00812149047852 90.49987030029297 46 90.49987030029297 Z" stroke="none"/>
                        <path d="M 46 2.999992370605469 C 40.1937141418457 2.999992370605469 34.56269836425781 4.136489868164062 29.26337051391602 6.377906799316406 C 24.14332580566406 8.543502807617188 19.54441070556641 11.64437866210938 15.59439849853516 15.59437561035156 C 11.64440155029297 19.54439544677734 8.54351806640625 24.14329528808594 6.377914428710938 29.26333618164062 C 4.136497497558594 34.56264877319336 3 40.19366455078125 3 45.99993515014648 C 3 51.80620574951172 4.136497497558594 57.43720626831055 6.377914428710938 62.73651885986328 C 8.54351806640625 67.8565673828125 11.64440155029297 72.45545959472656 15.59439849853516 76.40547943115234 C 19.54441070556641 80.35547637939453 24.14332580566406 83.45635223388672 29.26337051391602 85.6219482421875 C 34.56269836425781 87.86336517333984 40.1937141418457 88.99986267089844 46 88.99986267089844 C 51.8062858581543 88.99986267089844 57.43730163574219 87.86336517333984 62.73661422729492 85.6219482421875 C 67.85667419433594 83.45635223388672 72.45557403564453 80.35547637939453 76.40558624267578 76.40547943115234 C 80.35559844970703 72.45545959472656 83.45647430419922 67.8565673828125 85.6220703125 62.73651885986328 C 87.86350250244141 57.43720626831055 89 51.80620574951172 89 45.99993515014648 C 89 40.19366455078125 87.86350250244141 34.56264877319336 85.6220703125 29.26333618164062 C 83.45647430419922 24.14329528808594 80.35559844970703 19.54439544677734 76.40558624267578 15.59437561035156 C 72.45557403564453 11.64437866210938 67.85667419433594 8.543502807617188 62.73661422729492 6.377906799316406 C 57.43730163574219 4.136489868164062 51.8062858581543 2.999992370605469 46 2.999992370605469 M 46 -7.62939453125e-06 C 71.40509033203125 -7.62939453125e-06 92 20.59486389160156 92 45.99993515014648 C 92 71.40499114990234 71.40509033203125 91.99986267089844 46 91.99986267089844 C 20.59490203857422 91.99986267089844 0 71.40499114990234 0 45.99993515014648 C 0 20.59486389160156 20.59490203857422 -7.62939453125e-06 46 -7.62939453125e-06 Z" stroke="none" fill="#e93b81"/>
                      </g>
                    </g>
                  </g>
                </g>
              </g>
            </g>
          </g>
        </g>
      </g>
    </g>
    <g id="Layer_63" transform="translate(828 3833.493)">
      <g id="Grupo_1158889" data-name="Grupo 1158889" transform="translate(0 -4.493)">
        <g id="Grupo_1158718" data-name="Grupo 1158718" transform="translate(9.858 13.566)">
          <g id="Grupo_1158717" data-name="Grupo 1158717">
            <path id="Trazado_993840" data-name="Trazado 993840" d="M61.223,58.174a1.582,1.582,0,0,0-2.127-.141,8.674,8.674,0,0,1-10.553-.006,1.581,1.581,0,0,0-2.123.144l0,0a4.466,4.466,0,0,0-1.234,3.082V68.5a8.637,8.637,0,0,0,17.273,0V61.256A4.466,4.466,0,0,0,61.223,58.174Z" transform="translate(-45.184 -57.685)" fill="#f9d0b4"/>
          </g>
        </g>
        <g id="Grupo_1158720" data-name="Grupo 1158720" transform="translate(27.11 17.803)">
          <g id="Grupo_1158719" data-name="Grupo 1158719">
            <path id="Trazado_993841" data-name="Trazado 993841" d="M124.831,77.1a3.622,3.622,0,0,0-.554.044v6.538c0,.195-.009.387-.022.579a3.6,3.6,0,1,0,.576-7.161Z" transform="translate(-124.255 -77.104)" fill="#f9d0b4"/>
          </g>
        </g>
        <g id="Grupo_1158722" data-name="Grupo 1158722" transform="translate(5.698 17.803)">
          <g id="Grupo_1158721" data-name="Grupo 1158721">
            <path id="Trazado_993842" data-name="Trazado 993842" d="M30.277,83.687V77.149a3.607,3.607,0,1,0,.022,7.118h0C30.286,84.074,30.277,83.882,30.277,83.687Z" transform="translate(-26.117 -77.105)" fill="#f9d0b4"/>
          </g>
        </g>
        <g id="Grupo_1158724" data-name="Grupo 1158724" transform="translate(7.489 4.818)">
          <g id="Grupo_1158723" data-name="Grupo 1158723">
            <path id="Trazado_993843" data-name="Trazado 993843" d="M53.935,23.208a.534.534,0,0,1-.544-.512c-.066-4.813-5.562-5.716-11.035-4.772a9.676,9.676,0,0,0-8.032,9.534v3.611a3.583,3.583,0,0,1,1.815-.494,3.623,3.623,0,0,1,.554.044v-.71a4.466,4.466,0,0,1,1.234-3.082l0,0a1.581,1.581,0,0,1,2.123-.144,8.674,8.674,0,0,0,10.553.006,1.583,1.583,0,0,1,2.127.141,4.466,4.466,0,0,1,1.234,3.082v.71a3.569,3.569,0,0,1,2.388.461V28.116C56.356,23.807,54.8,23.208,53.935,23.208Z" transform="translate(-34.325 -17.591)" fill="#5b5d60"/>
          </g>
        </g>
        <g id="Grupo_1158726" data-name="Grupo 1158726" transform="translate(12.421 32.042)">
          <g id="Grupo_1158725" data-name="Grupo 1158725">
            <path id="Trazado_993844" data-name="Trazado 993844" d="M67.295,151.753a.642.642,0,0,1-.906.061l-1.935-1.69a.642.642,0,0,1-.061-.906l3.19-3.653a2.98,2.98,0,0,1-.6-1.792v-1.406a8.567,8.567,0,0,1-7.958,0v1.406a2.982,2.982,0,0,1-.6,1.792l3.19,3.653a.642.642,0,0,1-.061.906l-1.935,1.69a.642.642,0,0,1-.906-.061l-1.784-2.042,2.711,16.9h6.725l2.712-16.9Z" transform="translate(-56.931 -142.368)" fill="#dae6f1"/>
          </g>
        </g>
        <g id="Grupo_1158728" data-name="Grupo 1158728" transform="translate(0.545 35.786)">
          <g id="Grupo_1158727" data-name="Grupo 1158727">
            <path id="Trazado_993845" data-name="Trazado 993845" d="M13.885,160.068a.641.641,0,0,0-.836-.507L7.4,161.443a5.16,5.16,0,0,0-3.5,4.338l-1.4,12.837a1.275,1.275,0,0,0,1.268,1.413H17.087Z" transform="translate(-2.5 -159.528)" fill="#3a70bf"/>
          </g>
        </g>
        <g id="Grupo_1158730" data-name="Grupo 1158730" transform="translate(21.857 35.785)">
          <g id="Grupo_1158729" data-name="Grupo 1158729">
            <path id="Trazado_993846" data-name="Trazado 993846" d="M108.511,178.974V160.991l-4.292-1.431a.641.641,0,0,0-.836.507l-3.2,19.963h9.386A1.055,1.055,0,0,1,108.511,178.974Z" transform="translate(-100.18 -159.527)" fill="#3a70bf"/>
          </g>
        </g>
        <g id="Grupo_1158732" data-name="Grupo 1158732" transform="translate(35.295 0)">
          <g id="Grupo_1158731" data-name="Grupo 1158731">
            <circle id="Elipse_11728" data-name="Elipse 11728" cx="4.959" cy="4.959" r="4.959" transform="translate(0 9.164) rotate(-67.486)" fill="#5290db"/>
          </g>
        </g>
        <g id="Grupo_1158734" data-name="Grupo 1158734" transform="translate(45.391 11.54)">
          <g id="Grupo_1158733" data-name="Grupo 1158733">
            <circle id="Elipse_11729" data-name="Elipse 11729" cx="4.959" cy="4.959" r="4.959" fill="#5290db"/>
          </g>
        </g>
        <g id="Grupo_1158736" data-name="Grupo 1158736" transform="translate(35.298 20.036)">
          <g id="Grupo_1158735" data-name="Grupo 1158735" transform="translate(0 0)">
            <circle id="Elipse_11730" data-name="Elipse 11730" cx="4.959" cy="4.959" r="4.959" transform="translate(0 9.164) rotate(-67.486)" fill="#5290db"/>
          </g>
        </g>
        <g id="Grupo_1158738" data-name="Grupo 1158738" transform="translate(30.188 35.125)">
          <g id="Grupo_1158737" data-name="Grupo 1158737">
            <path id="Trazado_993847" data-name="Trazado 993847" d="M150.5,156.5H139.418a1.055,1.055,0,0,0-1.055,1.055v19.054a1.055,1.055,0,0,0,1.055,1.055h13.643a1.055,1.055,0,0,0,1.055-1.055V160.116Z" transform="translate(-138.363 -156.498)" fill="#edf4fc"/>
          </g>
        </g>
        <g id="Grupo_1158740" data-name="Grupo 1158740" transform="translate(19.725 34.551)">
          <g id="Grupo_1158739" data-name="Grupo 1158739">
            <path id="Trazado_993848" data-name="Trazado 993848" d="M95.069,154.026a.642.642,0,0,0-.906.061l-3.6,4.121a.642.642,0,0,0,.061.906l1.935,1.69a.642.642,0,0,0,.906-.061L95.25,158.7l.491-3.058a.641.641,0,0,1,.566-.536Z" transform="translate(-90.406 -153.868)" fill="#edf4fc"/>
          </g>
        </g>
        <g id="Grupo_1158742" data-name="Grupo 1158742" transform="translate(11.364 34.551)">
          <g id="Grupo_1158741" data-name="Grupo 1158741">
            <path id="Trazado_993849" data-name="Trazado 993849" d="M57.829,158.209l-3.6-4.121a.642.642,0,0,0-.906-.061l-1.238,1.081a.641.641,0,0,1,.566.536l.491,3.058,1.784,2.042a.642.642,0,0,0,.906.061l1.935-1.69A.642.642,0,0,0,57.829,158.209Z" transform="translate(-52.086 -153.868)" fill="#edf4fc"/>
          </g>
        </g>
        <g id="Grupo_1158744" data-name="Grupo 1158744" transform="translate(9.201 35.786)">
          <g id="Grupo_1158743" data-name="Grupo 1158743">
            <path id="Trazado_993850" data-name="Trazado 993850" d="M44.9,160.068a.641.641,0,0,0-.836-.507l-1.893.631v8.791a1.577,1.577,0,0,0,.872,1.411l1.049.524a.847.847,0,0,1,.359,1.172L43.211,174.3a1.577,1.577,0,0,0-.1,1.327l1.653,4.407H48.1Z" transform="translate(-42.172 -159.528)" fill="#5290db"/>
          </g>
        </g>
        <g id="Grupo_1158746" data-name="Grupo 1158746" transform="translate(21.857 35.786)">
          <g id="Grupo_1158745" data-name="Grupo 1158745">
            <path id="Trazado_993851" data-name="Trazado 993851" d="M104.218,159.561a.641.641,0,0,0-.836.507l-3.2,19.962h3.342l1.653-4.407a1.577,1.577,0,0,0-.1-1.327l-1.241-2.206a.846.846,0,0,1,.359-1.172l1.049-.524a1.577,1.577,0,0,0,.872-1.411v-8.791Z" transform="translate(-100.18 -159.528)" fill="#5290db"/>
          </g>
        </g>
        <g id="Grupo_1158748" data-name="Grupo 1158748" transform="translate(13.916 32.042)">
          <g id="Grupo_1158747" data-name="Grupo 1158747">
            <path id="Trazado_993852" data-name="Trazado 993852" d="M72.941,145.564a2.98,2.98,0,0,1-.6-1.792v-1.406a8.567,8.567,0,0,1-7.958,0v1.406a2.98,2.98,0,0,1-.6,1.792l3.19,3.653a.638.638,0,0,1,.146.535H69.6a.638.638,0,0,1,.146-.535Z" transform="translate(-63.784 -142.367)" fill="#f9d0b4"/>
          </g>
        </g>
        <g id="Grupo_1158750" data-name="Grupo 1158750" transform="translate(15.611 43.047)">
          <g id="Grupo_1158749" data-name="Grupo 1158749">
            <path id="Trazado_993853" data-name="Trazado 993853" d="M76.02,192.812H72.852l-1.3,13.241H77.32Z" transform="translate(-71.552 -192.812)" fill="#fc657e"/>
          </g>
        </g>
        <g id="Grupo_1158752" data-name="Grupo 1158752" transform="translate(15.908 39.427)">
          <g id="Grupo_1158751" data-name="Grupo 1158751">
            <path id="Trazado_993854" data-name="Trazado 993854" d="M76.95,176.587a.636.636,0,0,1-.207-.37H74.258a.637.637,0,0,1-.207.37l-1.138.994,1,2.256h3.168l1-2.257Z" transform="translate(-72.914 -176.217)" fill="#f98fa6"/>
          </g>
        </g>
        <g id="Grupo_1158754" data-name="Grupo 1158754" transform="translate(38.401 7.6)">
          <g id="Grupo_1158753" data-name="Grupo 1158753">
            <path id="Trazado_993855" data-name="Trazado 993855" d="M180.4,30.427a5.368,5.368,0,0,0-1.916,0,3.1,3.1,0,0,0-2.475,2.443,4.956,4.956,0,0,0,6.84-.111A3.1,3.1,0,0,0,180.4,30.427Z" transform="translate(-176.007 -30.341)" fill="#fc657e"/>
          </g>
        </g>
        <g id="Grupo_1158756" data-name="Grupo 1158756" transform="translate(39.787 3.706)">
          <g id="Grupo_1158755" data-name="Grupo 1158755" transform="translate(0 0)">
            <circle id="Elipse_11731" data-name="Elipse 11731" cx="1.868" cy="1.868" r="1.868" transform="translate(0 0.265) rotate(-4.069)" fill="#f9d0b4"/>
          </g>
        </g>
        <g id="Grupo_1158758" data-name="Grupo 1158758" transform="translate(46.988 17.615)">
          <g id="Grupo_1158757" data-name="Grupo 1158757">
            <path id="Trazado_993856" data-name="Trazado 993856" d="M219.756,76.329a5.368,5.368,0,0,0-1.916,0,3.1,3.1,0,0,0-2.475,2.443,4.956,4.956,0,0,0,6.84-.111A3.1,3.1,0,0,0,219.756,76.329Z" transform="translate(-215.365 -76.243)" fill="#f5c84c"/>
          </g>
        </g>
        <g id="Grupo_1158760" data-name="Grupo 1158760" transform="translate(48.481 13.852)">
          <g id="Grupo_1158759" data-name="Grupo 1158759">
            <circle id="Elipse_11732" data-name="Elipse 11732" cx="1.868" cy="1.868" r="1.868" fill="#f9d0b4"/>
          </g>
        </g>
        <g id="Grupo_1158762" data-name="Grupo 1158762" transform="translate(38.401 27.629)">
          <g id="Grupo_1158761" data-name="Grupo 1158761">
            <path id="Trazado_993857" data-name="Trazado 993857" d="M180.4,122.23a5.368,5.368,0,0,0-1.916,0,3.1,3.1,0,0,0-2.475,2.442,4.956,4.956,0,0,0,6.84-.111A3.1,3.1,0,0,0,180.4,122.23Z" transform="translate(-176.007 -122.144)" fill="#b2e26d"/>
          </g>
        </g>
        <g id="Grupo_1158764" data-name="Grupo 1158764" transform="translate(39.894 23.867)">
          <g id="Grupo_1158763" data-name="Grupo 1158763">
            <path id="Trazado_993858" data-name="Trazado 993858" d="M184.719,104.9a1.868,1.868,0,1,0,1.868,1.868A1.868,1.868,0,0,0,184.719,104.9Z" transform="translate(-182.851 -104.898)" fill="#f9d0b4"/>
          </g>
        </g>
        <g id="Grupo_1158766" data-name="Grupo 1158766" transform="translate(42.322 35.125)">
          <g id="Grupo_1158765" data-name="Grupo 1158765">
            <path id="Trazado_993859" data-name="Trazado 993859" d="M193.981,156.5v2.677a.941.941,0,0,0,.941.941H197.6Z" transform="translate(-193.981 -156.498)" fill="#dae6f1"/>
          </g>
        </g>
        <g id="Grupo_1158768" data-name="Grupo 1158768" transform="translate(52.056 36.238)">
          <g id="Grupo_1158767" data-name="Grupo 1158767">
            <path id="Trazado_993860" data-name="Trazado 993860" d="M241.716,162.8h-.524v-.5a.689.689,0,0,0-.7-.7.7.7,0,0,0-.7.676v.524h-.5a.689.689,0,0,0-.7.7.676.676,0,0,0,.7.7h.5v.5a.689.689,0,0,0,.7.7.7.7,0,0,0,.7-.676V164.2h.5a.689.689,0,0,0,.7-.7A.7.7,0,0,0,241.716,162.8Z" transform="translate(-238.595 -161.6)" fill="#87d147"/>
          </g>
        </g>
        <g id="Grupo_1158770" data-name="Grupo 1158770" transform="translate(50.357 44.07)">
          <g id="Grupo_1158769" data-name="Grupo 1158769">
            <path id="Trazado_993861" data-name="Trazado 993861" d="M231.548,197.5a.742.742,0,1,0,.742.742A.742.742,0,0,0,231.548,197.5Z" transform="translate(-230.806 -197.5)" fill="#f5c84c"/>
          </g>
        </g>
        <g id="Grupo_1158772" data-name="Grupo 1158772" transform="translate(34.118 14.289)">
          <g id="Grupo_1158771" data-name="Grupo 1158771">
            <path id="Trazado_993862" data-name="Trazado 993862" d="M159.162,62.347a1.7,1.7,0,0,1-1.353-1.331c0-.022-.065-.022-.065,0a1.7,1.7,0,0,1-1.353,1.331c-.022,0-.022.044,0,.065a1.7,1.7,0,0,1,1.353,1.331c0,.022.065.022.065,0a1.7,1.7,0,0,1,1.353-1.331C159.184,62.391,159.184,62.347,159.162,62.347Z" transform="translate(-156.375 -61)" fill="#70d6f9"/>
          </g>
        </g>
        <g id="Grupo_1158774" data-name="Grupo 1158774" transform="translate(5.448 3.162)">
          <g id="Grupo_1158773" data-name="Grupo 1158773">
            <path id="Trazado_993863" data-name="Trazado 993863" d="M25.711,10a.742.742,0,1,0,.742.742A.742.742,0,0,0,25.711,10Z" transform="translate(-24.969 -10)" fill="#fc657e"/>
          </g>
        </g>
        <g id="Grupo_1158776" data-name="Grupo 1158776" transform="translate(0 7.602)">
          <g id="Grupo_1158775" data-name="Grupo 1158775">
            <path id="Trazado_993864" data-name="Trazado 993864" d="M4,32.281a2.421,2.421,0,0,1-1.942-1.9c0-.044-.087-.044-.087,0a2.421,2.421,0,0,1-1.942,1.9c-.044,0-.044.065,0,.087a2.421,2.421,0,0,1,1.942,1.9c0,.044.087.044.087,0A2.421,2.421,0,0,1,4,32.368C4.047,32.346,4.047,32.281,4,32.281Z" transform="translate(0 -30.35)" fill="#f5c84c"/>
          </g>
        </g>
        <g id="Grupo_1158780" data-name="Grupo 1158780" transform="translate(9.313 13.019)">
          <g id="Grupo_1158779" data-name="Grupo 1158779">
            <g id="Grupo_1158778" data-name="Grupo 1158778">
              <g id="Grupo_1158777" data-name="Grupo 1158777">
                <path id="Trazado_993865" data-name="Trazado 993865" d="M59.664,55.837a2.123,2.123,0,0,0-2.858-.194,8.128,8.128,0,0,1-9.88-.006,2.123,2.123,0,0,0-2.857.2A4.99,4.99,0,0,0,42.685,59.3v7.248a9.182,9.182,0,0,0,18.364,0V59.3A4.991,4.991,0,0,0,59.664,55.837Zm.294,10.706a8.091,8.091,0,0,1-16.182,0V59.3a3.9,3.9,0,0,1,1.086-2.708,1.021,1.021,0,0,1,.742-.317,1.054,1.054,0,0,1,.65.226A9.219,9.219,0,0,0,57.48,56.5a1.036,1.036,0,0,1,1.4.089A3.9,3.9,0,0,1,59.958,59.3Z" transform="translate(-42.685 -55.178)"/>
              </g>
            </g>
          </g>
        </g>
        <g id="Grupo_1158782" data-name="Grupo 1158782" transform="translate(5.735 44.458)">
          <g id="Grupo_1158781" data-name="Grupo 1158781">
            <path id="Trazado_993866" data-name="Trazado 993866" d="M26.833,199.275a.545.545,0,0,0-.545.545v10.935a.545.545,0,0,0,1.091,0V199.82A.546.546,0,0,0,26.833,199.275Z" transform="translate(-26.288 -199.275)"/>
          </g>
        </g>
        <g id="Grupo_1158784" data-name="Grupo 1158784" transform="translate(26.849 17.257)">
          <g id="Grupo_1158783" data-name="Grupo 1158783">
            <path id="Trazado_993867" data-name="Trazado 993867" d="M123.9,74.6c-.092,0-.183,0-.273.009A.545.545,0,1,0,123.7,75.7c.066,0,.132-.007.2-.007a3.06,3.06,0,1,1,0,6.121c-.082,0-.162,0-.242-.011a.545.545,0,1,0-.1,1.086c.116.011.23.016.341.016a4.151,4.151,0,1,0,0-8.3Z" transform="translate(-123.062 -74.604)"/>
          </g>
        </g>
        <g id="Grupo_1158786" data-name="Grupo 1158786" transform="translate(5.153 17.257)">
          <g id="Grupo_1158785" data-name="Grupo 1158785">
            <path id="Trazado_993868" data-name="Trazado 993868" d="M28.01,81.8c-.08.007-.16.011-.242.011a3.06,3.06,0,1,1,0-6.121c.093,0,.189,0,.285.014a.545.545,0,0,0,.1-1.086c-.13-.013-.261-.019-.389-.019a4.151,4.151,0,1,0,0,8.3c.11,0,.225-.005.341-.016a.545.545,0,1,0-.1-1.086Z" transform="translate(-23.617 -74.604)"/>
          </g>
        </g>
        <g id="Grupo_1158788" data-name="Grupo 1158788" transform="translate(6.944 4.275)">
          <g id="Grupo_1158787" data-name="Grupo 1158787">
            <path id="Trazado_993869" data-name="Trazado 993869" d="M51.982,20.714a4.945,4.945,0,0,0-1.781-3.9c-1.954-1.622-5.559-2.123-9.891-1.376a10.2,10.2,0,0,0-8.484,10.071V29a.545.545,0,1,0,1.091,0v-3.49a9.112,9.112,0,0,1,7.579-9c4.018-.694,7.3-.278,9.009,1.14a3.907,3.907,0,0,1,1.388,3.1,1.082,1.082,0,0,0,1.089,1.05c1.192,0,1.875,1.59,1.875,4.362v2.868a.545.545,0,0,0,1.091,0V26.17C54.947,21.438,53.1,20.72,51.982,20.714Z" transform="translate(-31.825 -15.101)"/>
          </g>
        </g>
        <g id="Grupo_1158790" data-name="Grupo 1158790" transform="translate(13.463 31.648)">
          <g id="Grupo_1158789" data-name="Grupo 1158789">
            <path id="Trazado_993870" data-name="Trazado 993870" d="M62.758,140.563a.545.545,0,0,0-.545.545v1.254a2.428,2.428,0,0,1-.415,1.358.546.546,0,0,0,.906.609,3.515,3.515,0,0,0,.6-1.967v-1.254A.545.545,0,0,0,62.758,140.563Z" transform="translate(-61.705 -140.563)"/>
          </g>
        </g>
        <g id="Grupo_1158792" data-name="Grupo 1158792" transform="translate(21.928 31.682)">
          <g id="Grupo_1158791" data-name="Grupo 1158791">
            <path id="Trazado_993871" data-name="Trazado 993871" d="M102.025,143.86a2.428,2.428,0,0,1-.427-1.377v-1.22a.545.545,0,0,0-1.091,0v1.22a3.511,3.511,0,0,0,.618,1.993.545.545,0,0,0,.9-.616Z" transform="translate(-100.507 -140.718)"/>
          </g>
        </g>
        <g id="Grupo_1158794" data-name="Grupo 1158794" transform="translate(14.587 55.743)">
          <g id="Grupo_1158793" data-name="Grupo 1158793">
            <path id="Trazado_993872" data-name="Trazado 993872" d="M74.128,251H67.4a.545.545,0,0,0,0,1.091h6.725a.545.545,0,1,0,0-1.091Z" transform="translate(-66.858 -251)"/>
          </g>
        </g>
        <g id="Grupo_1158798" data-name="Grupo 1158798" transform="translate(0 35.24)">
          <g id="Grupo_1158797" data-name="Grupo 1158797">
            <g id="Grupo_1158796" data-name="Grupo 1158796">
              <g id="Grupo_1158795" data-name="Grupo 1158795">
                <path id="Trazado_993873" data-name="Trazado 993873" d="M15.671,177.99l-3.2-19.962a1.187,1.187,0,0,0-1.547-.938l-5.647,1.882a5.721,5.721,0,0,0-3.868,4.8L.011,176.6a1.821,1.821,0,0,0,1.81,2.017H15.133a.545.545,0,0,0,.538-.632Zm-13.85-.459a.73.73,0,0,1-.725-.808l1.4-12.837a4.627,4.627,0,0,1,3.128-3.879l5.647-1.882a.094.094,0,0,1,.08.009.1.1,0,0,1,.045.067l3.1,19.331Z" transform="translate(-0.001 -157.028)"/>
              </g>
            </g>
          </g>
        </g>
        <g id="Grupo_1158800" data-name="Grupo 1158800" transform="translate(21.311 35.24)">
          <g id="Grupo_1158799" data-name="Grupo 1158799">
            <path id="Trazado_993874" data-name="Trazado 993874" d="M107.61,177.529H98.864l3.1-19.331a.094.094,0,0,1,.045-.067.09.09,0,0,1,.08-.009l4.092,1.364a.546.546,0,0,0,.345-1.035l-4.092-1.364a1.187,1.187,0,0,0-1.548.938l-3.2,19.962a.545.545,0,0,0,.538.632h9.386a.545.545,0,0,0,0-1.091Z" transform="translate(-97.678 -157.026)"/>
          </g>
        </g>
        <g id="Grupo_1158807" data-name="Grupo 1158807" transform="translate(13.564 20.647)">
          <g id="Grupo_1158802" data-name="Grupo 1158802" transform="translate(2.171 5.474)">
            <g id="Grupo_1158801" data-name="Grupo 1158801">
              <path id="Trazado_993875" data-name="Trazado 993875" d="M77.7,115.356a.545.545,0,0,0-.768.068,2.691,2.691,0,0,1-3.844,0,.545.545,0,1,0-.836.7,3.775,3.775,0,0,0,5.516,0A.545.545,0,0,0,77.7,115.356Z" transform="translate(-72.12 -115.229)"/>
            </g>
          </g>
          <g id="Grupo_1158804" data-name="Grupo 1158804" transform="translate(7.793)">
            <g id="Grupo_1158803" data-name="Grupo 1158803">
              <path id="Trazado_993876" data-name="Trazado 993876" d="M99.046,90.14a1.16,1.16,0,1,0,1.16,1.16A1.16,1.16,0,0,0,99.046,90.14Z" transform="translate(-97.886 -90.14)"/>
            </g>
          </g>
          <g id="Grupo_1158806" data-name="Grupo 1158806">
            <g id="Grupo_1158805" data-name="Grupo 1158805">
              <path id="Trazado_993877" data-name="Trazado 993877" d="M63.328,90.14a1.16,1.16,0,1,0,1.16,1.16A1.16,1.16,0,0,0,63.328,90.14Z" transform="translate(-62.168 -90.14)"/>
            </g>
          </g>
        </g>
        <g id="Grupo_1158811" data-name="Grupo 1158811" transform="translate(36.258 0.98)">
          <g id="Grupo_1158810" data-name="Grupo 1158810">
            <g id="Grupo_1158809" data-name="Grupo 1158809">
              <g id="Grupo_1158808" data-name="Grupo 1158808">
                <path id="Trazado_993878" data-name="Trazado 993878" d="M171.69,0a5.5,5.5,0,1,0,5.5,5.5A5.511,5.511,0,0,0,171.69,0Zm0,9.917A4.413,4.413,0,1,1,176.1,5.5,4.418,4.418,0,0,1,171.69,9.917Z" transform="translate(-166.186)"/>
              </g>
            </g>
          </g>
        </g>
        <g id="Grupo_1158815" data-name="Grupo 1158815" transform="translate(44.845 10.995)">
          <g id="Grupo_1158814" data-name="Grupo 1158814">
            <g id="Grupo_1158813" data-name="Grupo 1158813">
              <g id="Grupo_1158812" data-name="Grupo 1158812">
                <path id="Trazado_993879" data-name="Trazado 993879" d="M211.047,45.9a5.5,5.5,0,1,0,5.5,5.5A5.511,5.511,0,0,0,211.047,45.9Zm0,9.917a4.413,4.413,0,1,1,4.413-4.414A4.418,4.418,0,0,1,211.047,55.818Z" transform="translate(-205.543 -45.901)"/>
              </g>
            </g>
          </g>
        </g>
        <g id="Grupo_1158819" data-name="Grupo 1158819" transform="translate(36.258 21.01)">
          <g id="Grupo_1158818" data-name="Grupo 1158818">
            <g id="Grupo_1158817" data-name="Grupo 1158817">
              <g id="Grupo_1158816" data-name="Grupo 1158816">
                <path id="Trazado_993880" data-name="Trazado 993880" d="M171.69,91.8a5.5,5.5,0,1,0,5.5,5.5A5.511,5.511,0,0,0,171.69,91.8Zm0,9.917a4.413,4.413,0,1,1,4.413-4.414A4.418,4.418,0,0,1,171.69,101.72Z" transform="translate(-166.186 -91.803)"/>
              </g>
            </g>
          </g>
        </g>
        <g id="Grupo_1158823" data-name="Grupo 1158823" transform="translate(29.642 34.579)">
          <g id="Grupo_1158822" data-name="Grupo 1158822">
            <g id="Grupo_1158821" data-name="Grupo 1158821">
              <g id="Grupo_1158820" data-name="Grupo 1158820">
                <path id="Trazado_993881" data-name="Trazado 993881" d="M152.547,157.775l-3.618-3.618a.545.545,0,0,0-.386-.16h-11.08a1.6,1.6,0,0,0-1.6,1.6v19.054a1.6,1.6,0,0,0,1.6,1.6h13.643a1.6,1.6,0,0,0,1.6-1.6V158.161a.545.545,0,0,0-.16-.386Zm-.931,16.876a.51.51,0,0,1-.51.51H137.464a.51.51,0,0,1-.51-.51V155.6a.51.51,0,0,1,.51-.51h10.854l3.3,3.3Z" transform="translate(-135.863 -153.997)"/>
              </g>
            </g>
          </g>
        </g>
        <g id="Grupo_1158825" data-name="Grupo 1158825" transform="translate(34.429 45.484)">
          <g id="Grupo_1158824" data-name="Grupo 1158824">
            <path id="Trazado_993882" data-name="Trazado 993882" d="M166.442,203.981h-8.1a.545.545,0,0,0,0,1.091h8.1a.545.545,0,0,0,0-1.091Z" transform="translate(-157.801 -203.981)"/>
          </g>
        </g>
        <g id="Grupo_1158827" data-name="Grupo 1158827" transform="translate(34.429 40.843)">
          <g id="Grupo_1158826" data-name="Grupo 1158826">
            <path id="Trazado_993883" data-name="Trazado 993883" d="M166.442,182.709h-8.1a.545.545,0,0,0,0,1.091h8.1a.545.545,0,0,0,0-1.091Z" transform="translate(-157.801 -182.709)"/>
          </g>
        </g>
        <g id="Grupo_1158829" data-name="Grupo 1158829" transform="translate(34.429 38.522)">
          <g id="Grupo_1158828" data-name="Grupo 1158828">
            <path id="Trazado_993884" data-name="Trazado 993884" d="M163.07,172.072h-4.723a.545.545,0,1,0,0,1.091h4.723a.545.545,0,0,0,0-1.091Z" transform="translate(-157.801 -172.072)"/>
          </g>
        </g>
        <g id="Grupo_1158831" data-name="Grupo 1158831" transform="translate(34.429 50.126)">
          <g id="Grupo_1158830" data-name="Grupo 1158830">
            <path id="Trazado_993885" data-name="Trazado 993885" d="M166.442,225.255h-8.1a.545.545,0,0,0,0,1.091h8.1a.545.545,0,0,0,0-1.091Z" transform="translate(-157.801 -225.255)"/>
          </g>
        </g>
        <g id="Grupo_1158833" data-name="Grupo 1158833" transform="translate(34.429 43.164)">
          <g id="Grupo_1158832" data-name="Grupo 1158832">
            <path id="Trazado_993886" data-name="Trazado 993886" d="M166.442,193.346h-8.1a.545.545,0,0,0,0,1.091h8.1a.545.545,0,0,0,0-1.091Z" transform="translate(-157.801 -193.346)"/>
          </g>
        </g>
        <g id="Grupo_1158835" data-name="Grupo 1158835" transform="translate(34.429 52.447)">
          <g id="Grupo_1158834" data-name="Grupo 1158834">
            <path id="Trazado_993887" data-name="Trazado 993887" d="M166.442,235.892h-8.1a.545.545,0,0,0,0,1.091h8.1a.545.545,0,0,0,0-1.091Z" transform="translate(-157.801 -235.892)"/>
          </g>
        </g>
        <g id="Grupo_1158837" data-name="Grupo 1158837" transform="translate(34.429 47.805)">
          <g id="Grupo_1158836" data-name="Grupo 1158836">
            <path id="Trazado_993888" data-name="Trazado 993888" d="M166.442,214.618h-8.1a.545.545,0,0,0,0,1.091h8.1a.545.545,0,0,0,0-1.091Z" transform="translate(-157.801 -214.618)"/>
          </g>
        </g>
        <g id="Grupo_1158839" data-name="Grupo 1158839" transform="translate(32.11 45.484)">
          <g id="Grupo_1158838" data-name="Grupo 1158838">
            <path id="Trazado_993889" data-name="Trazado 993889" d="M148,203.981h-.282a.545.545,0,1,0,0,1.091H148a.545.545,0,0,0,0-1.091Z" transform="translate(-147.173 -203.981)"/>
          </g>
        </g>
        <g id="Grupo_1158841" data-name="Grupo 1158841" transform="translate(32.11 40.843)">
          <g id="Grupo_1158840" data-name="Grupo 1158840">
            <path id="Trazado_993890" data-name="Trazado 993890" d="M148,182.709h-.282a.545.545,0,1,0,0,1.091H148a.545.545,0,0,0,0-1.091Z" transform="translate(-147.173 -182.709)"/>
          </g>
        </g>
        <g id="Grupo_1158843" data-name="Grupo 1158843" transform="translate(32.11 38.522)">
          <g id="Grupo_1158842" data-name="Grupo 1158842">
            <path id="Trazado_993891" data-name="Trazado 993891" d="M148,172.072h-.282a.545.545,0,1,0,0,1.091H148a.545.545,0,0,0,0-1.091Z" transform="translate(-147.173 -172.072)"/>
          </g>
        </g>
        <g id="Grupo_1158845" data-name="Grupo 1158845" transform="translate(32.11 50.126)">
          <g id="Grupo_1158844" data-name="Grupo 1158844">
            <path id="Trazado_993892" data-name="Trazado 993892" d="M148,225.255h-.282a.545.545,0,1,0,0,1.091H148a.545.545,0,0,0,0-1.091Z" transform="translate(-147.173 -225.255)"/>
          </g>
        </g>
        <g id="Grupo_1158847" data-name="Grupo 1158847" transform="translate(32.11 43.164)">
          <g id="Grupo_1158846" data-name="Grupo 1158846">
            <path id="Trazado_993893" data-name="Trazado 993893" d="M148,193.346h-.282a.545.545,0,1,0,0,1.091H148a.545.545,0,0,0,0-1.091Z" transform="translate(-147.173 -193.346)"/>
          </g>
        </g>
        <g id="Grupo_1158849" data-name="Grupo 1158849" transform="translate(32.11 52.447)">
          <g id="Grupo_1158848" data-name="Grupo 1158848">
            <path id="Trazado_993894" data-name="Trazado 993894" d="M148,235.892h-.282a.545.545,0,1,0,0,1.091H148a.545.545,0,0,0,0-1.091Z" transform="translate(-147.173 -235.892)"/>
          </g>
        </g>
        <g id="Grupo_1158851" data-name="Grupo 1158851" transform="translate(32.11 47.805)">
          <g id="Grupo_1158850" data-name="Grupo 1158850">
            <path id="Trazado_993895" data-name="Trazado 993895" d="M148,214.618h-.282a.545.545,0,1,0,0,1.091H148a.545.545,0,0,0,0-1.091Z" transform="translate(-147.173 -214.618)"/>
          </g>
        </g>
        <g id="Grupo_1158853" data-name="Grupo 1158853" transform="translate(19.179 34.006)">
          <g id="Grupo_1158852" data-name="Grupo 1158852">
            <path id="Trazado_993896" data-name="Trazado 993896" d="M94.655,152.695l-1.182-1.032a1.187,1.187,0,0,0-1.675.113L88.2,155.9a1.187,1.187,0,0,0,.113,1.675l1.935,1.69a1.189,1.189,0,0,0,1.676-.113l1.754-2.008a.545.545,0,1,0-.821-.718L91.1,158.431a.1.1,0,0,1-.136.009l-1.935-1.69a.1.1,0,0,1-.009-.136l3.6-4.121a.094.094,0,0,1,.066-.033.1.1,0,0,1,.07.024l1.182,1.032a.545.545,0,1,0,.717-.822Z" transform="translate(-87.905 -151.37)"/>
          </g>
        </g>
        <g id="Grupo_1158855" data-name="Grupo 1158855" transform="translate(10.859 34.005)">
          <g id="Grupo_1158854" data-name="Grupo 1158854">
            <path id="Trazado_993897" data-name="Trazado 993897" d="M56.429,155.9l-3.6-4.121a1.187,1.187,0,0,0-1.675-.113l-1.2,1.046a.545.545,0,0,0,.718.821l1.2-1.046a.087.087,0,0,1,.07-.024.1.1,0,0,1,.066.033l3.6,4.121a.1.1,0,0,1-.009.136l-1.935,1.69a.1.1,0,0,1-.136-.009l-1.765-2.021a.545.545,0,0,0-.821.718l1.765,2.021a1.189,1.189,0,0,0,1.675.113l1.935-1.69a1.187,1.187,0,0,0,.113-1.675Z" transform="translate(-49.771 -151.368)"/>
          </g>
        </g>
        <g id="Grupo_1158857" data-name="Grupo 1158857" transform="translate(8.656 36.134)">
          <g id="Grupo_1158856" data-name="Grupo 1158856">
            <path id="Trazado_993898" data-name="Trazado 993898" d="M43.244,180.893l-1.58-4.212a1.03,1.03,0,0,1,.067-.868l1.241-2.206a1.392,1.392,0,0,0-.591-1.928l-1.049-.524a1.026,1.026,0,0,1-.57-.923V161.67a.545.545,0,1,0-1.091,0v8.561a2.111,2.111,0,0,0,1.173,1.9l1.049.524a.3.3,0,0,1,.128.417l-1.241,2.206a2.117,2.117,0,0,0-.137,1.786l1.58,4.212a.545.545,0,1,0,1.021-.383Z" transform="translate(-39.672 -161.125)"/>
          </g>
        </g>
        <g id="Grupo_1158859" data-name="Grupo 1158859" transform="translate(24.708 36.08)">
          <g id="Grupo_1158858" data-name="Grupo 1158858">
            <path id="Trazado_993899" data-name="Trazado 993899" d="M116.329,160.875a.545.545,0,0,0-.545.545v8.616a1.026,1.026,0,0,1-.57.923l-1.048.524a1.392,1.392,0,0,0-.591,1.928l1.241,2.206a1.029,1.029,0,0,1,.067.868l-1.6,4.261a.545.545,0,1,0,1.021.383l1.6-4.261a2.118,2.118,0,0,0-.137-1.786l-1.241-2.206a.3.3,0,0,1,.128-.417l1.049-.524a2.111,2.111,0,0,0,1.173-1.9v-8.616A.545.545,0,0,0,116.329,160.875Z" transform="translate(-113.249 -160.875)"/>
          </g>
        </g>
        <g id="Grupo_1158861" data-name="Grupo 1158861" transform="translate(15.093 42.502)">
          <g id="Grupo_1158860" data-name="Grupo 1158860">
            <path id="Trazado_993900" data-name="Trazado 993900" d="M74.7,190.8a.546.546,0,0,0-.543-.492H70.994a.546.546,0,0,0-.543.492L69.179,203.77a.545.545,0,0,0,1.086.106L71.489,191.4h2.179l1.224,12.475a.546.546,0,0,0,.542.492l.054,0a.545.545,0,0,0,.49-.6Z" transform="translate(-69.176 -190.311)"/>
          </g>
        </g>
        <g id="Grupo_1158868" data-name="Grupo 1158868" transform="translate(15.439 38.881)">
          <g id="Grupo_1158863" data-name="Grupo 1158863" transform="translate(4.094 1.446)">
            <g id="Grupo_1158862" data-name="Grupo 1158862">
              <path id="Trazado_993901" data-name="Trazado 993901" d="M91.262,180.393a.545.545,0,0,0-.72.277l-.966,2.174a.545.545,0,1,0,1,.443l.966-2.174A.545.545,0,0,0,91.262,180.393Z" transform="translate(-89.529 -180.346)"/>
            </g>
          </g>
          <g id="Grupo_1158865" data-name="Grupo 1158865" transform="translate(0 1.537)">
            <g id="Grupo_1158864" data-name="Grupo 1158864">
              <path id="Trazado_993902" data-name="Trazado 993902" d="M72.734,183.169l-.926-2.083a.546.546,0,0,0-1,.443l.926,2.083a.545.545,0,0,0,.5.324.539.539,0,0,0,.221-.047.545.545,0,0,0,.277-.72Z" transform="translate(-70.764 -180.762)"/>
            </g>
          </g>
          <g id="Grupo_1158867" data-name="Grupo 1158867" transform="translate(1.488)">
            <g id="Grupo_1158866" data-name="Grupo 1158866">
              <path id="Trazado_993903" data-name="Trazado 993903" d="M80.2,173.717H78.129a.545.545,0,1,0,0,1.091H80.2a.545.545,0,1,0,0-1.091Z" transform="translate(-77.584 -173.717)"/>
            </g>
          </g>
        </g>
        <g id="Grupo_1158870" data-name="Grupo 1158870" transform="translate(37.885 7.055)">
          <g id="Grupo_1158869" data-name="Grupo 1158869">
            <path id="Trazado_993904" data-name="Trazado 993904" d="M181.5,30.569a3.666,3.666,0,0,0-2.853-2.631,5.93,5.93,0,0,0-2.112,0,3.656,3.656,0,0,0-2.877,2.715.545.545,0,1,0,1.058.264,2.563,2.563,0,0,1,2.014-1.906,4.828,4.828,0,0,1,1.72,0,2.568,2.568,0,0,1,2,1.847.546.546,0,0,0,1.052-.289Z" transform="translate(-173.643 -27.842)"/>
          </g>
        </g>
        <g id="Grupo_1158874" data-name="Grupo 1158874" transform="translate(39.349 3.292)">
          <g id="Grupo_1158873" data-name="Grupo 1158873" transform="translate(0 0)">
            <g id="Grupo_1158872" data-name="Grupo 1158872">
              <g id="Grupo_1158871" data-name="Grupo 1158871">
                <path id="Trazado_993905" data-name="Trazado 993905" d="M182.765,10.6a2.414,2.414,0,1,0,2.414,2.414,2.417,2.417,0,0,0-2.414-2.414Zm0,3.737a1.323,1.323,0,1,1,1.323-1.323A1.325,1.325,0,0,1,182.765,14.333Z" transform="translate(-180.351 -10.596)"/>
              </g>
            </g>
          </g>
        </g>
        <g id="Grupo_1158876" data-name="Grupo 1158876" transform="translate(46.483 17.07)">
          <g id="Grupo_1158875" data-name="Grupo 1158875">
            <path id="Trazado_993906" data-name="Trazado 993906" d="M220.872,76.383a3.629,3.629,0,0,0-2.827-2.544,5.93,5.93,0,0,0-2.112,0,3.662,3.662,0,0,0-2.864,2.666.545.545,0,1,0,1.055.279,2.568,2.568,0,0,1,2.005-1.871,4.829,4.829,0,0,1,1.72,0,2.542,2.542,0,0,1,1.978,1.786.546.546,0,1,0,1.045-.315Z" transform="translate(-213.05 -73.744)"/>
          </g>
        </g>
        <g id="Grupo_1158880" data-name="Grupo 1158880" transform="translate(47.935 13.307)">
          <g id="Grupo_1158879" data-name="Grupo 1158879">
            <g id="Grupo_1158878" data-name="Grupo 1158878">
              <g id="Grupo_1158877" data-name="Grupo 1158877">
                <path id="Trazado_993907" data-name="Trazado 993907" d="M222.122,56.5a2.414,2.414,0,1,0,2.414,2.414A2.417,2.417,0,0,0,222.122,56.5Zm0,3.737a1.323,1.323,0,1,1,1.323-1.323A1.325,1.325,0,0,1,222.122,60.234Z" transform="translate(-219.708 -56.497)"/>
              </g>
            </g>
          </g>
        </g>
        <g id="Grupo_1158882" data-name="Grupo 1158882" transform="translate(37.883 27.084)">
          <g id="Grupo_1158881" data-name="Grupo 1158881">
            <path id="Trazado_993908" data-name="Trazado 993908" d="M181.491,122.359a3.619,3.619,0,0,0-2.849-2.619,5.93,5.93,0,0,0-2.112,0,3.654,3.654,0,0,0-2.879,2.724.545.545,0,1,0,1.059.262,2.562,2.562,0,0,1,2.016-1.913,4.828,4.828,0,0,1,1.72,0,2.536,2.536,0,0,1,1.994,1.838.545.545,0,0,0,1.051-.292Z" transform="translate(-173.635 -119.645)"/>
          </g>
        </g>
        <g id="Grupo_1158886" data-name="Grupo 1158886" transform="translate(39.349 23.321)">
          <g id="Grupo_1158885" data-name="Grupo 1158885">
            <g id="Grupo_1158884" data-name="Grupo 1158884">
              <g id="Grupo_1158883" data-name="Grupo 1158883">
                <path id="Trazado_993909" data-name="Trazado 993909" d="M182.765,102.4a2.414,2.414,0,1,0,2.414,2.414A2.417,2.417,0,0,0,182.765,102.4Zm0,3.737a1.323,1.323,0,1,1,1.323-1.323A1.325,1.325,0,0,1,182.765,106.135Z" transform="translate(-180.351 -102.398)"/>
              </g>
            </g>
          </g>
        </g>
        <g id="Grupo_1158888" data-name="Grupo 1158888" transform="translate(41.777 34.934)">
          <g id="Grupo_1158887" data-name="Grupo 1158887">
            <path id="Trazado_993910" data-name="Trazado 993910" d="M195.331,158.888h-2.363a.4.4,0,0,1-.4-.4V156.17a.545.545,0,0,0-1.091,0v2.322a1.488,1.488,0,0,0,1.486,1.486h2.363a.545.545,0,1,0,0-1.091Z" transform="translate(-191.482 -155.625)"/>
          </g>
        </g>
      </g>
    </g>
  </g>
</svg>
