<svg xmlns="http://www.w3.org/2000/svg" xmlns:xlink="http://www.w3.org/1999/xlink" width="110" height="110" viewBox="0 0 110 110">
  <defs>
    <filter id="Trazado_982547" x="0" y="0" width="110" height="110" filterUnits="userSpaceOnUse">
      <feOffset dy="3" input="SourceAlpha"/>
      <feGaussianBlur stdDeviation="3" result="blur"/>
      <feFlood flood-opacity="0.161"/>
      <feComposite operator="in" in2="blur"/>
      <feComposite in="SourceGraphic"/>
    </filter>
  </defs>
  <g id="Grupo_1158894" data-name="Grupo 1158894" transform="translate(-10165 -3680)">
    <g id="Grupo_1157408" data-name="Grupo 1157408" transform="translate(9050 2890)">
      <g id="Grupo_1155793" data-name="Grupo 1155793" transform="translate(-0.999 -3894)">
        <g id="Grupo_1154704" data-name="Grupo 1154704" transform="translate(0 1466)">
          <g id="Grupo_1150790" data-name="Grupo 1150790" transform="translate(3 2320)">
            <g id="Grupo_1154214" data-name="Grupo 1154214" transform="translate(79 -5809)">
              <g id="Grupo_1152583" data-name="Grupo 1152583" transform="translate(1043 6713)">
                <g id="Grupo_1146973" data-name="Grupo 1146973" transform="translate(0 0)">
                  <g id="Grupo_1146954" data-name="Grupo 1146954">
                    <g transform="matrix(1, 0, 0, 1, -9, -6)" filter="url(#Trazado_982547)">
                      <g id="Trazado_982547-2" data-name="Trazado 982547" transform="translate(9 6)" fill="#fceaf1">
                        <path d="M 46 90.49987030029297 C 39.99187850952148 90.49987030029297 34.16426849365234 89.32350921630859 28.67905426025391 87.00345611572266 C 23.38019943237305 84.76224517822266 18.62104034423828 81.55341339111328 14.53374671936035 77.46613311767578 C 10.44646644592285 73.37885284423828 7.237639904022217 68.61969757080078 4.996413230895996 63.32085418701172 C 2.676359891891479 57.83565521240234 1.5 52.008056640625 1.5 45.99993515014648 C 1.5 39.99181365966797 2.676359891891479 34.16421508789062 4.996413230895996 28.67901420593262 C 7.237639904022217 23.38017463684082 10.44646644592285 18.62101554870605 14.53374671936035 14.53373527526855 C 18.62104034423828 10.44645500183105 23.38019943237305 7.23762845993042 28.67905426025391 4.996415138244629 C 34.16426849365234 2.676361799240112 39.99187850952148 1.500001788139343 46 1.500001788139343 C 52.00812149047852 1.500001788139343 57.83573150634766 2.676361799240112 63.32094573974609 4.996415138244629 C 68.61979675292969 7.23762845993042 73.37895965576172 10.44645500183105 77.46625518798828 14.53373527526855 C 81.55353546142578 18.62101554870605 84.76235961914062 23.38017463684082 87.00358581542969 28.67901420593262 C 89.32363891601562 34.16421508789062 90.5 39.99181365966797 90.5 45.99993515014648 C 90.5 52.008056640625 89.32363891601562 57.83565521240234 87.00358581542969 63.32085418701172 C 84.76235961914062 68.61969757080078 81.55353546142578 73.37885284423828 77.46625518798828 77.46613311767578 C 73.37895965576172 81.55341339111328 68.61979675292969 84.76224517822266 63.32094573974609 87.00345611572266 C 57.83573150634766 89.32350921630859 52.00812149047852 90.49987030029297 46 90.49987030029297 Z" stroke="none"/>
                        <path d="M 46 2.999992370605469 C 40.1937141418457 2.999992370605469 34.56269836425781 4.136489868164062 29.26337051391602 6.377906799316406 C 24.14332580566406 8.543502807617188 19.54441070556641 11.64437866210938 15.59439849853516 15.59437561035156 C 11.64440155029297 19.54439544677734 8.54351806640625 24.14329528808594 6.377914428710938 29.26333618164062 C 4.136497497558594 34.56264877319336 3 40.19366455078125 3 45.99993515014648 C 3 51.80620574951172 4.136497497558594 57.43720626831055 6.377914428710938 62.73651885986328 C 8.54351806640625 67.8565673828125 11.64440155029297 72.45545959472656 15.59439849853516 76.40547943115234 C 19.54441070556641 80.35547637939453 24.14332580566406 83.45635223388672 29.26337051391602 85.6219482421875 C 34.56269836425781 87.86336517333984 40.1937141418457 88.99986267089844 46 88.99986267089844 C 51.8062858581543 88.99986267089844 57.43730163574219 87.86336517333984 62.73661422729492 85.6219482421875 C 67.85667419433594 83.45635223388672 72.45557403564453 80.35547637939453 76.40558624267578 76.40547943115234 C 80.35559844970703 72.45545959472656 83.45647430419922 67.8565673828125 85.6220703125 62.73651885986328 C 87.86350250244141 57.43720626831055 89 51.80620574951172 89 45.99993515014648 C 89 40.19366455078125 87.86350250244141 34.56264877319336 85.6220703125 29.26333618164062 C 83.45647430419922 24.14329528808594 80.35559844970703 19.54439544677734 76.40558624267578 15.59437561035156 C 72.45557403564453 11.64437866210938 67.85667419433594 8.543502807617188 62.73661422729492 6.377906799316406 C 57.43730163574219 4.136489868164062 51.8062858581543 2.999992370605469 46 2.999992370605469 M 46 -7.62939453125e-06 C 71.40509033203125 -7.62939453125e-06 92 20.59486389160156 92 45.99993515014648 C 92 71.40499114990234 71.40509033203125 91.99986267089844 46 91.99986267089844 C 20.59490203857422 91.99986267089844 0 71.40499114990234 0 45.99993515014648 C 0 20.59486389160156 20.59490203857422 -7.62939453125e-06 46 -7.62939453125e-06 Z" stroke="none" fill="#e93b81"/>
                      </g>
                    </g>
                  </g>
                </g>
              </g>
            </g>
          </g>
        </g>
      </g>
    </g>
    <g id="promocion" transform="translate(10189 3702)">
      <path id="Trazado_993948" data-name="Trazado 993948" d="M144,412.1a4.1,4.1,0,0,0,4.1,4.1h26.658a4.1,4.1,0,0,0,4.1-4.1V408H144Zm0,0" transform="translate(-125.548 -355.71)" fill="#d6d6d4"/>
      <path id="Trazado_993949" data-name="Trazado 993949" d="M174.763,8H148.105a4.1,4.1,0,0,0-4.1,4.1v2.051h34.86V12.1A4.1,4.1,0,0,0,174.763,8Zm0,0" transform="translate(-125.548 -6.975)" fill="#d6d6d4"/>
      <path id="Trazado_993950" data-name="Trazado 993950" d="M144,56h34.86v45.113H144Zm0,0" transform="translate(-125.548 -48.823)" fill="#348fd9"/>
      <path id="Trazado_993951" data-name="Trazado 993951" d="M272,432h2.051v2.051H272Zm0,0" transform="translate(-237.143 -376.634)" fill="#b0b0ae"/>
      <path id="Trazado_993952" data-name="Trazado 993952" d="M211.415,173.336,181.34,203.411h30.075Zm0,0" transform="translate(-158.099 -151.121)" fill="#3086cd"/>
      <g id="Grupo_1158893" data-name="Grupo 1158893" transform="translate(25.633 17.43)">
        <path id="Trazado_993953" data-name="Trazado 993953" d="M220.51,184a1.026,1.026,0,0,0-.995.777l-.831,3.324H201.029a1.026,1.026,0,0,0-.995,1.274l2.051,8.2a1.025,1.025,0,0,0,.995.777h13.329a1.025,1.025,0,0,1,0,2.051H202.054v2.051h14.354a3.068,3.068,0,0,0,2.123-5.291l1.948-7.792.831-3.321h2.275V184Zm-2.852,8.2h-3.677l.256-2.051h3.933Zm-9.06,0-.256-2.051h3.828l-.256,2.051Zm3.059,2.051L211.4,196.3h-2.29l-.256-2.051Zm-5.383-4.1.256,2.051h-3.677l-.513-2.051Zm-2.4,6.152-.513-2.051h3.42l.256,2.051Zm9.589,0,.256-2.051h3.42l-.513,2.051Zm0,0" transform="translate(-200.003 -177.848)" fill="#2a71ad"/>
        <path id="Trazado_993954" data-name="Trazado 993954" d="M228.105,338.051A2.051,2.051,0,1,1,226.055,336,2.051,2.051,0,0,1,228.105,338.051Zm0,0" transform="translate(-220.928 -310.367)" fill="#2a71ad"/>
        <path id="Trazado_993955" data-name="Trazado 993955" d="M308.105,338.051A2.051,2.051,0,1,1,306.055,336,2.051,2.051,0,0,1,308.105,338.051Zm0,0" transform="translate(-290.675 -310.367)" fill="#2a71ad"/>
        <path id="Trazado_993956" data-name="Trazado 993956" d="M254.148,143.177a1.025,1.025,0,0,0,.725-.3l3.076-3.076-1.45-1.45-1.326,1.326V136h-2.051v3.677l-1.326-1.326-1.45,1.45,3.076,3.076a1.025,1.025,0,0,0,.725.3Zm0,0" transform="translate(-243.895 -136)" fill="#2a71ad"/>
      </g>
      <path id="Trazado_993957" data-name="Trazado 993957" d="M423.181,256.809v-20.46a10.256,10.256,0,0,0-2.537-6.752L416,224v32.81Zm0,0" transform="translate(-362.688 -195.291)" fill="#fec9a3"/>
      <path id="Trazado_993958" data-name="Trazado 993958" d="M309.493,280.972v-2.051a9.658,9.658,0,0,1-.844-10.826l.844-1.477-8.715-8.715a3.625,3.625,0,0,1,5.127-5.127l10.766,10.766v17.43Zm0,0" transform="translate(-261.303 -219.454)" fill="#fec9a3"/>
      <path id="Trazado_993959" data-name="Trazado 993959" d="M23.383,8l3.185,3.5,4.505-1.434,1.01,4.619L36.7,15.69l-1.434,4.505,3.5,3.185-3.5,3.185L36.7,31.069l-4.619,1.01L31.073,36.7l-4.505-1.434-3.185,3.495L20.2,35.264,15.694,36.7l-1.01-4.619-4.619-1.01L11.5,26.564,8,23.38,11.5,20.195,10.065,15.69l4.619-1.01,1.01-4.619L20.2,11.5Zm0,0" transform="translate(-6.978 -6.975)" fill="#ffb531"/>
      <path id="Trazado_993960" data-name="Trazado 993960" d="M82.344,92.6,92.6,82.344l1.45,1.45L83.794,94.047Zm0,0" transform="translate(-71.79 -71.791)" fill="#f35244"/>
      <path id="Trazado_993961" data-name="Trazado 993961" d="M67.08,86.152a3.076,3.076,0,1,1,3.076-3.076A3.075,3.075,0,0,1,67.08,86.152Zm0-4.1a1.025,1.025,0,1,0,1.025,1.025A1.025,1.025,0,0,0,67.08,82.051Zm0,0" transform="translate(-55.801 -69.747)" fill="#f35244"/>
      <path id="Trazado_993962" data-name="Trazado 993962" d="M147.08,134.152a3.076,3.076,0,1,1,3.076-3.076A3.075,3.075,0,0,1,147.08,134.152Zm0-4.1a1.025,1.025,0,1,0,1.025,1.025A1.025,1.025,0,0,0,147.08,130.051Zm0,0" transform="translate(-125.548 -111.595)" fill="#f35244"/>
      <path id="Trazado_993963" data-name="Trazado 993963" d="M185.225,0H158.567A5.1,5.1,0,0,0,156,.692l1.025,1.769a3.053,3.053,0,0,1,1.538-.411h26.658A3.076,3.076,0,0,1,188.3,5.126V6.152H168.82V8.2H188.3v31.36L181.336,32.6c-.033-.033-.073-.055-.1-.087l.889-3.554.828-3.324h2.275V23.582h-3.076a1.026,1.026,0,0,0-.995.777l-.831,3.324H162.668a1.026,1.026,0,0,0-.995,1.274l2.051,8.2a1.026,1.026,0,0,0,.995.777H173.9a4.579,4.579,0,0,0,.863,1.238l.813.813H163.694v2.051h13.93l5.3,5.3-.456.8a10.624,10.624,0,0,0,.709,11.685v1.7h2.051V59.467a1.026,1.026,0,0,0-.225-.641,8.586,8.586,0,0,1-.754-9.677l.844-1.477a1.025,1.025,0,0,0-.165-1.23l-8.715-8.715a2.6,2.6,0,0,1,3.677-3.677l10.766,10.766,1.45-1.449-1.75-1.754V5.126A5.133,5.133,0,0,0,185.225,0ZM173.041,35.885h-2.29l-.256-2.051h2.8Zm-2.8-4.1-.256-2.051h3.828l-.256,2.051Zm-2.323-2.051.256,2.051h-3.677l-.513-2.051Zm-2.4,6.152-.513-2.051h3.42l.256,2.051Zm10.382-4.1h-.281l.256-2.051h3.934l-.431,1.72a4.641,4.641,0,0,0-3.479.331Zm0,0" transform="translate(-136.01)"/>
      <path id="Trazado_993964" data-name="Trazado 993964" d="M136,272v21.531a5.132,5.132,0,0,0,5.127,5.126h22.557v-2.051H141.131a3.075,3.075,0,0,1-3.076-3.076v-3.076h23.582V288.4H138.055V272Zm0,0" transform="translate(-118.573 -237.14)"/>
      <path id="Trazado_993965" data-name="Trazado 993965" d="M272,432h2.051v2.051H272Zm0,0" transform="translate(-237.143 -376.634)"/>
      <path id="Trazado_993966" data-name="Trazado 993966" d="M435.423,247.84l-1.579,1.311,1.582,1.907a9.228,9.228,0,0,1,2.283,6.077v20.46h2.051v-20.46a11.266,11.266,0,0,0-2.769-7.406Zm0,0" transform="translate(-378.241 -216.076)"/>
      <path id="Trazado_993967" data-name="Trazado 993967" d="M228.105,338.051A2.051,2.051,0,1,1,226.055,336,2.051,2.051,0,0,1,228.105,338.051Zm0,0" transform="translate(-195.295 -292.937)"/>
      <path id="Trazado_993968" data-name="Trazado 993968" d="M308.105,338.051A2.051,2.051,0,1,1,306.055,336,2.051,2.051,0,0,1,308.105,338.051Zm0,0" transform="translate(-265.042 -292.937)"/>
      <path id="Trazado_993969" data-name="Trazado 993969" d="M253.123,136v3.677l-1.326-1.326-1.45,1.45,3.076,3.076a1.025,1.025,0,0,0,1.45,0l3.076-3.076-1.45-1.45-1.326,1.326V136Zm0,0" transform="translate(-218.262 -118.57)"/>
      <path id="Trazado_993970" data-name="Trazado 993970" d="M3.345,20,2.109,23.886A1.025,1.025,0,0,0,2.871,25.2l3.977.87.866,3.973a1.025,1.025,0,0,0,1.313.757l3.879-1.235,2.741,3.01a1.025,1.025,0,0,0,1.515,0L19.9,29.56l3.883,1.24a1.026,1.026,0,0,0,1.314-.758l.869-3.977,3.978-.87a1.025,1.025,0,0,0,.757-1.313L29.469,20l3.01-2.741a1.026,1.026,0,0,0,0-1.515L29.469,13,30.7,9.122a1.026,1.026,0,0,0-.762-1.31l-3.977-.869L25.1,2.97a1.025,1.025,0,0,0-1.309-.762L19.909,3.439,17.163.434a1.057,1.057,0,0,0-1.515,0l-2.741,3.01L9.023,2.208a1.025,1.025,0,0,0-1.309.762l-.87,3.973-3.973.869a1.026,1.026,0,0,0-.762,1.31L3.34,13,.334,15.746a1.026,1.026,0,0,0,0,1.515Zm1.867-5.925A1.026,1.026,0,0,0,5.5,13.009L4.409,9.575l3.52-.77a1.025,1.025,0,0,0,.781-.781l.766-3.515L12.91,5.6a1.031,1.031,0,0,0,1.069-.286l2.426-2.667,2.426,2.665A1.032,1.032,0,0,0,19.9,5.6l3.434-1.091.77,3.519a1.025,1.025,0,0,0,.781.781l3.519.77-1.093,3.434a1.025,1.025,0,0,0,.286,1.069L30.262,16.5,27.6,18.93A1.025,1.025,0,0,0,27.31,20L28.4,23.433l-3.52.77a1.024,1.024,0,0,0-.781.781L23.334,28.5,19.9,27.407a1.025,1.025,0,0,0-1.069.286l-2.426,2.668L13.979,27.7a1.024,1.024,0,0,0-.757-.334,1,1,0,0,0-.308.048L9.476,28.5l-.77-3.52a1.024,1.024,0,0,0-.781-.781l-3.516-.766L5.5,20a1.026,1.026,0,0,0-.286-1.069L2.548,16.5Zm0,0" transform="translate(0 -0.099)"/>
      <path id="Trazado_993971" data-name="Trazado 993971" d="M82.344,92.6,92.6,82.344l1.45,1.45L83.794,94.047Zm0,0" transform="translate(-71.79 -71.791)"/>
      <path id="Trazado_993972" data-name="Trazado 993972" d="M67.08,86.152A3.076,3.076,0,1,0,64,83.076,3.076,3.076,0,0,0,67.08,86.152Zm0-4.1a1.025,1.025,0,1,1-1.025,1.025A1.025,1.025,0,0,1,67.08,82.051Zm0,0" transform="translate(-55.801 -69.747)"/>
      <path id="Trazado_993973" data-name="Trazado 993973" d="M144,131.076A3.076,3.076,0,1,0,147.08,128,3.075,3.075,0,0,0,144,131.076Zm4.1,0a1.025,1.025,0,1,1-1.025-1.025A1.025,1.025,0,0,1,148.105,131.076Zm0,0" transform="translate(-125.548 -111.595)"/>
    </g>
  </g>
</svg>
