<svg xmlns="http://www.w3.org/2000/svg" xmlns:xlink="http://www.w3.org/1999/xlink" width="400" height="368" viewBox="0 0 400 368">
  <defs>
    <clipPath id="clip-path">
      <rect id="Rectángulo_409723" data-name="Rectángulo 409723" width="400" height="368" transform="translate(1020 2305)" fill="#fff" stroke="#707070" stroke-width="1" opacity="0.53"/>
    </clipPath>
    <filter id="Elipse_11720" x="51.364" y="4.915" width="352.674" height="352.674" filterUnits="userSpaceOnUse">
      <feOffset dy="3" input="SourceAlpha"/>
      <feGaussianBlur stdDeviation="3" result="blur"/>
      <feFlood flood-opacity="0.161"/>
      <feComposite operator="in" in2="blur"/>
      <feComposite in="SourceGraphic"/>
    </filter>
    <clipPath id="clip-path-2">
      <rect id="Rectángulo_409707" data-name="Rectángulo 409707" width="409.965" height="728.826" transform="translate(0)"/>
    </clipPath>
    <linearGradient id="linear-gradient" x1="-9.048" y1="3.568" x2="-8.253" y2="3.568" gradientUnits="objectBoundingBox">
      <stop offset="0" stop-color="#fff"/>
      <stop offset="0.941" stop-color="#f9f9f9"/>
    </linearGradient>
    <linearGradient id="linear-gradient-2" x1="-5.152" y1="1.723" x2="-4.357" y2="1.723" xlink:href="#linear-gradient"/>
    <linearGradient id="linear-gradient-3" x1="0.15" y1="0.217" x2="0.85" y2="0.95" xlink:href="#linear-gradient"/>
  </defs>
  <g id="Enmascarar_grupo_1098760" data-name="Enmascarar grupo 1098760" transform="translate(-1020 -2305)" clip-path="url(#clip-path)">
    <g id="Grupo_1158716" data-name="Grupo 1158716">
      <path id="Trazado_993838" data-name="Trazado 993838" d="M48.07,329.767C31.106,313.828,1.52,265.693,20.288,217.44s31.688-35.054,33.581-69.561,44.33-81.406,130.143-62.9,87.041-12.738,130.4-3.453,87.433,29.947,80.394,89.7,1.919,52.039,4.583,79.806-25.12,135.869-167.495,118.2S68.581,349.036,48.07,329.767Z" transform="translate(1136.382 2199.532) rotate(28)" fill="#f2bbe8" opacity="0.7"/>
      <g id="Grupo_1158715" data-name="Grupo 1158715" transform="translate(-11111.842 -977.574)">
        <g id="Grupo_1158714" data-name="Grupo 1158714" transform="translate(12143.256 3244.534)">
          <g transform="matrix(1, 0, 0, 1, -11.41, 38.04)" filter="url(#Elipse_11720)">
            <ellipse id="Elipse_11720-2" data-name="Elipse 11720" cx="167.337" cy="167.337" rx="167.337" ry="167.337" transform="translate(60.36 10.91)" fill="#fff"/>
          </g>
          <circle id="Elipse_11721" data-name="Elipse 11721" cx="152.942" cy="152.942" r="152.942" transform="translate(216.292 432.585) rotate(-135)" fill="#5865ff"/>
        </g>
        <g id="Grupo_1158713" data-name="Grupo 1158713" transform="translate(12103 2942.917)">
          <g id="Grupo_1158422" data-name="Grupo 1158422" transform="translate(5.308 54.973)" clip-path="url(#clip-path-2)">
            <g id="Grupo_1158421" data-name="Grupo 1158421" transform="translate(141.934 343.998)">
              <g id="Grupo_1158414" data-name="Grupo 1158414" transform="translate(10.614)">
                <ellipse id="Elipse_11709" data-name="Elipse 11709" cx="113.931" cy="120.295" rx="113.931" ry="120.295" fill="#000201"/>
              </g>
              <g id="Grupo_1158415" data-name="Grupo 1158415" transform="translate(2.123)">
                <ellipse id="Elipse_11710" data-name="Elipse 11710" cx="113.931" cy="120.295" rx="113.931" ry="120.295" fill="#f34919"/>
              </g>
              <g id="Grupo_1158416" data-name="Grupo 1158416" transform="translate(24.085 23.189)">
                <ellipse id="Elipse_11711" data-name="Elipse 11711" cx="91.968" cy="97.106" rx="91.968" ry="97.106" fill="#faf0e3"/>
              </g>
              <g id="Grupo_1158417" data-name="Grupo 1158417" transform="translate(51.538 52.176)">
                <ellipse id="Elipse_11712" data-name="Elipse 11712" cx="64.515" cy="68.119" rx="64.515" ry="68.119" fill="#f34919"/>
              </g>
              <g id="Grupo_1158418" data-name="Grupo 1158418" transform="translate(82.835 85.221)">
                <ellipse id="Elipse_11713" data-name="Elipse 11713" cx="33.218" cy="35.074" rx="33.218" ry="35.074" fill="#faf0e3"/>
              </g>
              <g id="Grupo_1158419" data-name="Grupo 1158419" transform="translate(0 102.253)">
                <path id="Trazado_993717" data-name="Trazado 993717" d="M418.516,1192.627l-9.436-13.679L373.7,1177.06l17.455,16.041-11.794,17.455,30.193-1.888Z" transform="translate(-373.699 -1177.06)" fill="#b7b8fb"/>
              </g>
              <g id="Grupo_1158420" data-name="Grupo 1158420" transform="translate(9.337 117.25)">
                <path id="Trazado_993718" data-name="Trazado 993718" d="M500.8,1219.173H399.6a1.278,1.278,0,1,1,0-2.557H500.8a1.278,1.278,0,1,1,0,2.557Z" transform="translate(-398.326 -1216.616)" fill="#0b0a10"/>
              </g>
            </g>
          </g>
          <g id="Grupo_1158432" data-name="Grupo 1158432" transform="translate(5.308 30.33)" clip-path="url(#clip-path-2)">
            <g id="Grupo_1158428" data-name="Grupo 1158428" transform="translate(95.398 510.428)">
              <g id="Grupo_1158424" data-name="Grupo 1158424" transform="translate(0 4.667)">
                <path id="Trazado_993719" data-name="Trazado 993719" d="M314.679,1469.323c14.464,11.4,35.108,9.316,46.108-4.646h0c11-13.962,8.192-34.518-6.272-45.915l-42.04-33.122,19.7-25.007,42.963,33.85c28.772,22.669,34.358,63.56,12.477,91.333h0c-21.881,27.772-62.944,31.91-91.717,9.241l-42.963-33.849,19.7-25.007Z" transform="translate(-252.185 -1359.881)" fill="#050004"/>
                <path id="Trazado_993720" data-name="Trazado 993720" d="M294.2,1494.414l-42.963-33.85a.752.752,0,0,1-.126-1.056l19.7-25.006a.753.753,0,0,1,1.056-.125l42.039,33.122a32.989,32.989,0,0,0,23.812,7.03,30.648,30.648,0,0,0,27.5-34.9,32.987,32.987,0,0,0-12.406-21.507L310.777,1385a.752.752,0,0,1-.125-1.056l19.7-25.006a.753.753,0,0,1,1.056-.126l42.963,33.849c29.052,22.89,34.7,64.336,12.6,92.389-13.71,17.4-34.927,25.625-56,23.9A68.374,68.374,0,0,1,294.2,1494.414Zm18.1-110.131,41.45,32.657a34.487,34.487,0,0,1,12.964,22.484,32.149,32.149,0,0,1-28.837,36.6,34.473,34.473,0,0,1-24.894-7.344l-41.448-32.657-18.773,23.825,42.372,33.385c28.4,22.376,69.07,18.288,90.661-9.115s16.05-67.9-12.35-90.278l-42.372-33.384Z" transform="translate(-250.953 -1358.649)" fill="#050004"/>
              </g>
              <g id="Grupo_1158425" data-name="Grupo 1158425" transform="translate(0.91)">
                <path id="Trazado_993721" data-name="Trazado 993721" d="M317.077,1457c14.464,11.4,35.108,9.316,46.108-4.646h0c11-13.962,8.192-34.518-6.272-45.915l-42.04-33.123,19.7-25.007,42.963,33.849c28.772,22.669,34.358,63.561,12.477,91.333h0c-21.881,27.772-62.945,31.91-91.717,9.241l-42.963-33.849,19.7-25.007Z" transform="translate(-254.583 -1347.564)" fill="#f38200"/>
                <path id="Trazado_993722" data-name="Trazado 993722" d="M296.6,1482.1l-42.963-33.85a.752.752,0,0,1-.125-1.056l19.7-25.006a.752.752,0,0,1,1.056-.125l42.041,33.122h0a32.99,32.99,0,0,0,23.812,7.03,30.649,30.649,0,0,0,27.5-34.9,32.987,32.987,0,0,0-12.406-21.507l-42.041-33.122a.752.752,0,0,1-.125-1.056l19.7-25.006a.755.755,0,0,1,1.055-.125l42.963,33.849c29.052,22.89,34.7,64.336,12.6,92.389-13.71,17.4-34.927,25.625-56,23.9A68.389,68.389,0,0,1,296.6,1482.1Zm18.1-110.135,41.45,32.657a34.488,34.488,0,0,1,12.964,22.484,32.15,32.15,0,0,1-28.837,36.6,34.474,34.474,0,0,1-24.894-7.344l-41.45-32.657-18.771,23.825,42.372,33.385c28.4,22.376,69.071,18.288,90.66-9.115s16.05-67.9-12.351-90.278l-42.372-33.384Z" transform="translate(-253.352 -1346.338)" fill="#050004"/>
              </g>
              <g id="Grupo_1158426" data-name="Grupo 1158426" transform="translate(60.47 0.001)">
                <path id="Trazado_993723" data-name="Trazado 993723" d="M432.739,1389.3l19.68-24.977-20.306-16-19.68,24.977Z" transform="translate(-411.682 -1347.57)" fill="url(#linear-gradient)"/>
                <path id="Trazado_993724" data-name="Trazado 993724" d="M431.045,1388.659l-20.305-16a.752.752,0,0,1-.125-1.056l19.68-24.979a.755.755,0,0,1,1.055-.125l20.305,16a.752.752,0,0,1,.125,1.056l-19.68,24.978a.75.75,0,0,1-.652.284A.8.8,0,0,1,431.045,1388.659Zm-.035-40.513-18.75,23.8,19.124,15.068,18.75-23.8Z" transform="translate(-410.453 -1346.342)" fill="#050004"/>
              </g>
              <g id="Grupo_1158427" data-name="Grupo 1158427" transform="translate(0.91 75.592)">
                <path id="Trazado_993725" data-name="Trazado 993725" d="M275.64,1588.689l19.68-24.98-20.306-16-19.68,24.98Z" transform="translate(-254.583 -1546.957)" fill="url(#linear-gradient-2)"/>
                <path id="Trazado_993726" data-name="Trazado 993726" d="M273.945,1588.044l-20.307-16a.752.752,0,0,1-.125-1.056l19.68-24.979a.752.752,0,0,1,.5-.281.762.762,0,0,1,.554.156l20.307,16a.752.752,0,0,1,.125,1.056L275,1587.919a.752.752,0,0,1-.5.281.731.731,0,0,1-.151,0A.719.719,0,0,1,273.945,1588.044Zm-.036-40.513-18.75,23.8,19.125,15.069,18.75-23.8Z" transform="translate(-253.352 -1545.724)" fill="#050004"/>
              </g>
            </g>
            <g id="Grupo_1158429" data-name="Grupo 1158429" transform="translate(54.327 571.541)">
              <path id="Trazado_993727" data-name="Trazado 993727" d="M144.6,1520.3l31.391-10.79-3.079,8.447,25.125-1.547L162.916,1528.3l2.189-8.166Z" transform="translate(-143.851 -1508.761)" fill="#ffd387"/>
              <path id="Trazado_993728" data-name="Trazado 993728" d="M161.172,1527.626a.754.754,0,0,1-.212-.743l1.935-7.214-19.517.155a.751.751,0,0,1-.25-1.462l31.39-10.788a.752.752,0,0,1,.95.967l-2.686,7.37,23.978-1.475a.761.761,0,0,1,.784.606.751.751,0,0,1-.5.856l-35.122,11.891a.754.754,0,0,1-.3.037A.771.771,0,0,1,161.172,1527.626Zm10.559-10.145a.774.774,0,0,1-.648-.3.756.756,0,0,1-.1-.706l2.539-6.968-25.541,8.779,15.894-.127a.781.781,0,0,1,.6.292.753.753,0,0,1,.132.655l-1.827,6.81,28.452-9.633Z" transform="translate(-142.621 -1507.535)" fill="#050004"/>
            </g>
            <g id="Grupo_1158430" data-name="Grupo 1158430" transform="translate(127.286 478.361)">
              <path id="Trazado_993729" data-name="Trazado 993729" d="M339.433,1263.74l18.058,25.519-8.449-.55,8.045,22.3-20.042-28.6,7.962-.182Z" transform="translate(-336.292 -1262.988)" fill="#ffd387"/>
              <path id="Trazado_993730" data-name="Trazado 993730" d="M355.24,1310.209l-20.043-28.6a.751.751,0,0,1,.6-1.182l6.974-.16-5.289-17.544a.752.752,0,0,1,1.333-.651l18.059,25.518a.751.751,0,0,1-.661,1.184l-7.307-.473,7.657,21.222a.751.751,0,0,1-1.322.685Zm-14.989-43.5,4.244,14.075a.751.751,0,0,1-.7.968l-6.558.15,16,22.834-6.133-17a.751.751,0,0,1,.755-1l6.879.446Z" transform="translate(-335.061 -1261.756)" fill="#050004"/>
            </g>
            <g id="Grupo_1158431" data-name="Grupo 1158431" transform="translate(52.837 494.007)">
              <path id="Trazado_993731" data-name="Trazado 993731" d="M140.673,1305l49.183,21.644-12.939,6.665,31.578,25.758-54.832-24.431,11.574-7.309Z" transform="translate(-139.921 -1304.251)" fill="#ffd387"/>
              <path id="Trazado_993732" data-name="Trazado 993732" d="M206.958,1358.527,152.125,1334.1a.751.751,0,0,1-.1-1.321l10.739-6.783-23.833-21.661a.751.751,0,0,1,.807-1.244l49.184,21.645a.752.752,0,0,1,.042,1.356l-11.919,6.138,30.689,25.031a.752.752,0,0,1-.536,1.331A.887.887,0,0,1,206.958,1358.527Zm-63.6-52.209,21.152,19.225a.752.752,0,0,1-.1,1.192l-10.387,6.56,48.4,21.564-27.211-22.193a.752.752,0,0,1,.13-1.251l11.538-5.943Z" transform="translate(-138.69 -1303.025)" fill="#050004"/>
            </g>
          </g>
          <g id="Grupo_1158437" data-name="Grupo 1158437" transform="translate(0)" clip-path="url(#clip-path-2)">
            <g id="Grupo_1158434" data-name="Grupo 1158434" transform="translate(270.243 606.883)">
              <path id="Trazado_993733" data-name="Trazado 993733" d="M788.077,1606.951v57.766H712.136v-57.766a6.193,6.193,0,0,1,6.2-6.2H781.88A6.191,6.191,0,0,1,788.077,1606.951Z" transform="translate(-712.136 -1600.754)" fill="#faf0e3"/>
              <path id="Trazado_993734" data-name="Trazado 993734" d="M788.077,1606.951v5.551H712.136v-5.551a6.193,6.193,0,0,1,6.2-6.2H781.88A6.191,6.191,0,0,1,788.077,1606.951Z" transform="translate(-712.136 -1600.754)" fill="#ffd387"/>
              <g id="Grupo_1158433" data-name="Grupo 1158433" transform="translate(53.88 4.363)">
                <path id="Trazado_993735" data-name="Trazado 993735" d="M858.021,1614.146a1.883,1.883,0,1,1-1.884-1.884A1.884,1.884,0,0,1,858.021,1614.146Z" transform="translate(-854.254 -1612.262)" fill="#f34919"/>
                <path id="Trazado_993736" data-name="Trazado 993736" d="M873.92,1614.146a1.883,1.883,0,1,1-1.883-1.884A1.883,1.883,0,0,1,873.92,1614.146Z" transform="translate(-864.125 -1612.262)" fill="#ffb3da"/>
                <path id="Trazado_993737" data-name="Trazado 993737" d="M890.387,1614.146a1.884,1.884,0,1,1-1.884-1.884A1.884,1.884,0,0,1,890.387,1614.146Z" transform="translate(-874.349 -1612.262)" fill="#b7b8fb"/>
              </g>
            </g>
            <g id="Grupo_1158436" data-name="Grupo 1158436" transform="translate(277.103 623.047)">
              <path id="Trazado_993738" data-name="Trazado 993738" d="M730.228,1659.8v35.023h64.979" transform="translate(-730.228 -1653.578)" fill="none" stroke="#0b0a10" stroke-linecap="round" stroke-linejoin="round" stroke-miterlimit="10" stroke-width="0.943"/>
              <rect id="Rectángulo_409710" data-name="Rectángulo 409710" width="8.91" height="23.964" transform="translate(11.214 14.441)" fill="#ffd387"/>
              <rect id="Rectángulo_409711" data-name="Rectángulo 409711" width="8.91" height="28.573" transform="translate(29.034 9.831)" fill="#f381d8"/>
              <rect id="Rectángulo_409712" data-name="Rectángulo 409712" width="8.91" height="32.874" transform="translate(47.467 5.531)" fill="#7c55ff"/>
              <g id="Grupo_1158435" data-name="Grupo 1158435" transform="translate(12.136)">
                <line id="Línea_1143" data-name="Línea 1143" y1="7.988" x2="35.639" transform="translate(0 1.384)" fill="none" stroke="#0b0a10" stroke-linecap="round" stroke-linejoin="round" stroke-miterlimit="10" stroke-width="0.943"/>
                <path id="Trazado_993739" data-name="Trazado 993739" d="M840.034,1643.39l7.681.921L842.031,1648" transform="translate(-810.54 -1643.39)" fill="none" stroke="#0b0a10" stroke-linecap="round" stroke-linejoin="round" stroke-miterlimit="10" stroke-width="0.943"/>
              </g>
            </g>
            <path id="Trazado_993740" data-name="Trazado 993740" d="M788.077,1606.951v57.766H712.136v-57.766a6.193,6.193,0,0,1,6.2-6.2H781.88A6.191,6.191,0,0,1,788.077,1606.951Z" transform="translate(-441.892 -993.871)" fill="none" stroke="#020202" stroke-miterlimit="10" stroke-width="0.5"/>
          </g>
          <g id="Grupo_1158441" data-name="Grupo 1158441" transform="translate(5.308 54.973)" clip-path="url(#clip-path-2)">
            <g id="Grupo_1158439" data-name="Grupo 1158439" transform="translate(54.611 367.892)">
              <g id="Grupo_1158438" data-name="Grupo 1158438">
                <path id="Trazado_993741" data-name="Trazado 993741" d="M225.179,984.143a11.542,11.542,0,0,0-11.57-11.514l-56.474.137a11.543,11.543,0,0,0-11.515,11.57l.091,37.38a11.543,11.543,0,0,0,11.57,11.514l12.133-.03,15.539,15.464,15.464-15.54,13.338-.033a11.542,11.542,0,0,0,11.514-11.57Z" transform="translate(-144.767 -971.775)" fill="#f381d8"/>
                <path id="Trazado_993742" data-name="Trazado 993742" d="M183.556,1048.12a.85.85,0,0,1-.6-.249l-15.29-15.215-11.778.028h-.032a12.4,12.4,0,0,1-12.4-12.367l-.09-37.38a12.4,12.4,0,0,1,12.367-12.426l56.474-.137h.031a12.412,12.412,0,0,1,12.4,12.366h0l.09,37.38a12.41,12.41,0,0,1-12.367,12.426l-12.984.032-15.214,15.288A.863.863,0,0,1,183.556,1048.12Zm-15.541-17.174a.856.856,0,0,1,.6.249l14.935,14.862,14.862-14.934a.855.855,0,0,1,.6-.252l13.338-.033a10.7,10.7,0,0,0,10.662-10.714l-.09-37.379a10.7,10.7,0,0,0-10.689-10.663h-.027l-56.474.137a10.687,10.687,0,0,0-10.662,10.714l.09,37.381a10.688,10.688,0,0,0,10.687,10.662h.028l12.132-.029h0Z" transform="translate(-143.369 -970.376)" fill="#050004"/>
              </g>
            </g>
            <g id="Grupo_1158440" data-name="Grupo 1158440" transform="translate(77.719 382.545)">
              <path id="Trazado_993743" data-name="Trazado 993743" d="M223.461,1011.94l3.974,8.053a1.183,1.183,0,0,0,.89.647l8.887,1.291a1.183,1.183,0,0,1,.656,2.017l-6.43,6.268a1.183,1.183,0,0,0-.34,1.046l1.518,8.851a1.182,1.182,0,0,1-1.716,1.247l-7.948-4.179a1.182,1.182,0,0,0-1.1,0l-7.948,4.179a1.182,1.182,0,0,1-1.716-1.247l1.518-8.851a1.183,1.183,0,0,0-.34-1.046l-6.43-6.268a1.183,1.183,0,0,1,.655-2.017l8.887-1.291a1.183,1.183,0,0,0,.89-.647l3.974-8.053A1.181,1.181,0,0,1,223.461,1011.94Z" transform="translate(-205.722 -1010.425)" fill="url(#linear-gradient-3)"/>
              <path id="Trazado_993744" data-name="Trazado 993744" d="M211.95,1040.949a2.041,2.041,0,0,1-2-2.384l1.518-8.85a.328.328,0,0,0-.093-.29l-6.43-6.269a2.035,2.035,0,0,1,1.128-3.473l8.885-1.292a.331.331,0,0,0,.249-.179l3.975-8.052a2.035,2.035,0,0,1,3.651,0l3.975,8.052a.331.331,0,0,0,.245.179l8.889,1.292a2.037,2.037,0,0,1,1.128,3.474l-6.43,6.268a.328.328,0,0,0-.095.289l1.52,8.852a2.037,2.037,0,0,1-2.956,2.146l-7.948-4.178a.321.321,0,0,0-.3,0l-7.951,4.178A2.011,2.011,0,0,1,211.95,1040.949Zm9.05-30.216a.315.315,0,0,0-.293.184l-3.975,8.053a2.03,2.03,0,0,1-1.535,1.113l-8.884,1.292a.328.328,0,0,0-.184.56l6.43,6.269a2.034,2.034,0,0,1,.587,1.8l-1.518,8.852a.314.314,0,0,0,.129.321.324.324,0,0,0,.347.025l7.95-4.178a2.031,2.031,0,0,1,1.895,0l7.946,4.178a.323.323,0,0,0,.347-.025.316.316,0,0,0,.13-.321l-1.518-8.851a2.036,2.036,0,0,1,.587-1.8l6.43-6.268a.33.33,0,0,0-.184-.561l-8.887-1.292a2.03,2.03,0,0,1-1.531-1.113l-3.975-8.053h0A.321.321,0,0,0,221,1010.733Z" transform="translate(-204.322 -1009.025)" fill="#050004"/>
            </g>
          </g>
          <g id="Grupo_1158507" data-name="Grupo 1158507" transform="translate(16.681 21.231)" clip-path="url(#clip-path-2)">
            <g id="Grupo_1158454" data-name="Grupo 1158454" transform="translate(29.812 604.037)">
              <g id="Grupo_1158444" data-name="Grupo 1158444" transform="translate(15.257)">
                <g id="Grupo_1158442" data-name="Grupo 1158442">
                  <path id="Trazado_993745" data-name="Trazado 993745" d="M406.541,1796.492a.965.965,0,0,1-.966-.966v-8.552a.966.966,0,1,1,1.932,0v8.552A.965.965,0,0,1,406.541,1796.492Z" transform="translate(-405.575 -1786.008)" fill="#000201"/>
                </g>
                <g id="Grupo_1158443" data-name="Grupo 1158443" transform="translate(0 21.964)">
                  <path id="Trazado_993746" data-name="Trazado 993746" d="M406.541,1854.423a.965.965,0,0,1-.966-.966v-8.55a.966.966,0,0,1,1.932,0v8.55A.965.965,0,0,1,406.541,1854.423Z" transform="translate(-405.575 -1843.941)" fill="#000201"/>
                </g>
              </g>
              <g id="Grupo_1158447" data-name="Grupo 1158447" transform="translate(0 15.258)">
                <g id="Grupo_1158445" data-name="Grupo 1158445" transform="translate(21.961)">
                  <path id="Trazado_993747" data-name="Trazado 993747" d="M432.774,1828.186h-8.552a.966.966,0,0,1,0-1.932h8.552a.966.966,0,0,1,0,1.932Z" transform="translate(-423.256 -1826.254)" fill="#000201"/>
                </g>
                <g id="Grupo_1158446" data-name="Grupo 1158446">
                  <path id="Trazado_993748" data-name="Trazado 993748" d="M374.849,1828.186H366.3a.966.966,0,1,1,0-1.932h8.552a.966.966,0,1,1,0,1.932Z" transform="translate(-365.331 -1826.254)" fill="#000201"/>
                </g>
              </g>
              <g id="Grupo_1158450" data-name="Grupo 1158450" transform="translate(4.47 4.469)">
                <g id="Grupo_1158448" data-name="Grupo 1158448" transform="translate(0 15.528)">
                  <line id="Línea_1144" data-name="Línea 1144" y1="6.043" x2="6.046" transform="translate(0.965 0.969)" fill="#000201"/>
                  <path id="Trazado_993749" data-name="Trazado 993749" d="M378.086,1846.734a.966.966,0,0,1-.683-1.649l6.047-6.047a.966.966,0,0,1,1.366,1.366l-6.047,6.046A.964.964,0,0,1,378.086,1846.734Z" transform="translate(-377.121 -1838.755)" fill="#000201"/>
                </g>
                <g id="Grupo_1158449" data-name="Grupo 1158449" transform="translate(15.527)">
                  <line id="Línea_1145" data-name="Línea 1145" y1="6.047" x2="6.047" transform="translate(0.966 0.964)" fill="#000201"/>
                  <path id="Trazado_993750" data-name="Trazado 993750" d="M419.042,1805.775a.966.966,0,0,1-.683-1.649l6.047-6.046a.966.966,0,0,1,1.366,1.366l-6.047,6.046A.965.965,0,0,1,419.042,1805.775Z" transform="translate(-418.077 -1797.797)" fill="#000201"/>
                </g>
              </g>
              <g id="Grupo_1158453" data-name="Grupo 1158453" transform="translate(4.47 4.469)">
                <g id="Grupo_1158451" data-name="Grupo 1158451">
                  <line id="Línea_1146" data-name="Línea 1146" x2="6.046" y2="6.047" transform="translate(0.965 0.964)" fill="#000201"/>
                  <path id="Trazado_993751" data-name="Trazado 993751" d="M384.133,1805.775a.961.961,0,0,1-.683-.283l-6.047-6.046a.966.966,0,0,1,1.366-1.366l6.047,6.046a.966.966,0,0,1-.683,1.649Z" transform="translate(-377.121 -1797.797)" fill="#000201"/>
                </g>
                <g id="Grupo_1158452" data-name="Grupo 1158452" transform="translate(15.527 15.528)">
                  <line id="Línea_1147" data-name="Línea 1147" x2="6.047" y2="6.043" transform="translate(0.966 0.969)" fill="#000201"/>
                  <path id="Trazado_993752" data-name="Trazado 993752" d="M425.089,1846.734a.962.962,0,0,1-.683-.283l-6.047-6.046a.966.966,0,0,1,1.366-1.366l6.047,6.047a.966.966,0,0,1-.683,1.649Z" transform="translate(-418.077 -1838.755)" fill="#000201"/>
                </g>
              </g>
            </g>
            <g id="Grupo_1158467" data-name="Grupo 1158467" transform="translate(168.023 323.715)">
              <g id="Grupo_1158457" data-name="Grupo 1158457" transform="translate(15.257)">
                <g id="Grupo_1158455" data-name="Grupo 1158455">
                  <path id="Trazado_993753" data-name="Trazado 993753" d="M483.723,864.337a.965.965,0,0,1-.966-.966v-8.552a.966.966,0,1,1,1.932,0v8.552A.965.965,0,0,1,483.723,864.337Z" transform="translate(-482.757 -853.853)" fill="#000201"/>
                </g>
                <g id="Grupo_1158456" data-name="Grupo 1158456" transform="translate(0 21.961)">
                  <path id="Trazado_993754" data-name="Trazado 993754" d="M483.723,922.261a.965.965,0,0,1-.966-.966v-8.55a.966.966,0,0,1,1.932,0v8.55A.965.965,0,0,1,483.723,922.261Z" transform="translate(-482.757 -911.779)" fill="#000201"/>
                </g>
              </g>
              <g id="Grupo_1158460" data-name="Grupo 1158460" transform="translate(0 15.256)">
                <g id="Grupo_1158458" data-name="Grupo 1158458" transform="translate(21.961)">
                  <path id="Trazado_993755" data-name="Trazado 993755" d="M509.957,896.025H501.4a.966.966,0,1,1,0-1.932h8.552a.966.966,0,0,1,0,1.932Z" transform="translate(-500.439 -894.093)" fill="#000201"/>
                </g>
                <g id="Grupo_1158459" data-name="Grupo 1158459">
                  <path id="Trazado_993756" data-name="Trazado 993756" d="M452.031,896.025h-8.552a.966.966,0,0,1,0-1.932h8.552a.966.966,0,0,1,0,1.932Z" transform="translate(-442.513 -894.093)" fill="#000201"/>
                </g>
              </g>
              <g id="Grupo_1158463" data-name="Grupo 1158463" transform="translate(4.47 4.469)">
                <g id="Grupo_1158461" data-name="Grupo 1158461" transform="translate(0 15.528)">
                  <line id="Línea_1148" data-name="Línea 1148" y1="6.047" x2="6.047" transform="translate(0.965 0.966)" fill="#000201"/>
                  <path id="Trazado_993757" data-name="Trazado 993757" d="M455.268,914.578a.966.966,0,0,1-.683-1.649l6.047-6.047A.966.966,0,0,1,462,908.248l-6.047,6.047A.965.965,0,0,1,455.268,914.578Z" transform="translate(-454.303 -906.599)" fill="#000201"/>
                </g>
                <g id="Grupo_1158462" data-name="Grupo 1158462" transform="translate(15.527)">
                  <line id="Línea_1149" data-name="Línea 1149" y1="6.047" x2="6.047" transform="translate(0.966 0.965)" fill="#000201"/>
                  <path id="Trazado_993758" data-name="Trazado 993758" d="M496.224,873.618a.966.966,0,0,1-.683-1.649l6.047-6.046a.966.966,0,0,1,1.366,1.366l-6.047,6.046A.963.963,0,0,1,496.224,873.618Z" transform="translate(-495.259 -865.641)" fill="#000201"/>
                </g>
              </g>
              <g id="Grupo_1158466" data-name="Grupo 1158466" transform="translate(4.47 4.469)">
                <g id="Grupo_1158464" data-name="Grupo 1158464">
                  <line id="Línea_1150" data-name="Línea 1150" x2="6.047" y2="6.047" transform="translate(0.965 0.965)" fill="#000201"/>
                  <path id="Trazado_993759" data-name="Trazado 993759" d="M461.315,873.618a.963.963,0,0,1-.683-.283l-6.047-6.046a.966.966,0,1,1,1.366-1.366L462,871.969a.966.966,0,0,1-.683,1.649Z" transform="translate(-454.303 -865.641)" fill="#000201"/>
                </g>
                <g id="Grupo_1158465" data-name="Grupo 1158465" transform="translate(15.527 15.528)">
                  <line id="Línea_1151" data-name="Línea 1151" x2="6.047" y2="6.047" transform="translate(0.966 0.966)" fill="#000201"/>
                  <path id="Trazado_993760" data-name="Trazado 993760" d="M502.271,914.578a.962.962,0,0,1-.683-.283l-6.047-6.047a.966.966,0,0,1,1.366-1.366l6.047,6.047a.966.966,0,0,1-.683,1.649Z" transform="translate(-495.259 -906.599)" fill="#000201"/>
                </g>
              </g>
            </g>
            <g id="Grupo_1158480" data-name="Grupo 1158480" transform="translate(11.147 455.068)">
              <g id="Grupo_1158470" data-name="Grupo 1158470" transform="translate(15.257)">
                <g id="Grupo_1158468" data-name="Grupo 1158468">
                  <path id="Trazado_993761" data-name="Trazado 993761" d="M69.936,1210.8a.966.966,0,0,1-.966-.966v-8.552a.966.966,0,0,1,1.932,0v8.552A.965.965,0,0,1,69.936,1210.8Z" transform="translate(-68.97 -1200.318)" fill="#000201"/>
                </g>
                <g id="Grupo_1158469" data-name="Grupo 1158469" transform="translate(0 21.96)">
                  <path id="Trazado_993762" data-name="Trazado 993762" d="M69.936,1268.724a.966.966,0,0,1-.966-.966v-8.55a.966.966,0,1,1,1.932,0v8.55A.963.963,0,0,1,69.936,1268.724Z" transform="translate(-68.97 -1258.241)" fill="#000201"/>
                </g>
              </g>
              <g id="Grupo_1158473" data-name="Grupo 1158473" transform="translate(0 15.258)">
                <g id="Grupo_1158471" data-name="Grupo 1158471" transform="translate(21.961)">
                  <path id="Trazado_993763" data-name="Trazado 993763" d="M96.17,1242.5H87.618a.966.966,0,0,1,0-1.932H96.17a.966.966,0,0,1,0,1.932Z" transform="translate(-86.652 -1240.564)" fill="#000201"/>
                </g>
                <g id="Grupo_1158472" data-name="Grupo 1158472">
                  <path id="Trazado_993764" data-name="Trazado 993764" d="M38.244,1242.5H29.692a.966.966,0,0,1,0-1.932h8.552a.966.966,0,0,1,0,1.932Z" transform="translate(-28.726 -1240.564)" fill="#000201"/>
                </g>
              </g>
              <g id="Grupo_1158476" data-name="Grupo 1158476" transform="translate(4.47 4.469)">
                <g id="Grupo_1158474" data-name="Grupo 1158474" transform="translate(0 15.528)">
                  <line id="Línea_1152" data-name="Línea 1152" y1="6.047" x2="6.047" transform="translate(0.965 0.965)" fill="#000201"/>
                  <path id="Trazado_993765" data-name="Trazado 993765" d="M41.481,1261.044a.966.966,0,0,1-.683-1.649l6.047-6.047a.966.966,0,0,1,1.366,1.366l-6.047,6.047A.965.965,0,0,1,41.481,1261.044Z" transform="translate(-40.516 -1253.065)" fill="#000201"/>
                </g>
                <g id="Grupo_1158475" data-name="Grupo 1158475" transform="translate(15.527)">
                  <line id="Línea_1153" data-name="Línea 1153" y1="6.047" x2="6.047" transform="translate(0.966 0.964)" fill="#000201"/>
                  <path id="Trazado_993766" data-name="Trazado 993766" d="M82.437,1220.085a.966.966,0,0,1-.683-1.649l6.047-6.046a.966.966,0,0,1,1.366,1.366l-6.047,6.046A.965.965,0,0,1,82.437,1220.085Z" transform="translate(-81.472 -1212.107)" fill="#000201"/>
                </g>
              </g>
              <g id="Grupo_1158479" data-name="Grupo 1158479" transform="translate(4.47 4.469)">
                <g id="Grupo_1158477" data-name="Grupo 1158477">
                  <line id="Línea_1154" data-name="Línea 1154" x2="6.047" y2="6.047" transform="translate(0.965 0.964)" fill="#000201"/>
                  <path id="Trazado_993767" data-name="Trazado 993767" d="M47.529,1220.085a.962.962,0,0,1-.683-.283l-6.047-6.046a.966.966,0,0,1,1.366-1.366l6.047,6.046a.966.966,0,0,1-.683,1.649Z" transform="translate(-40.517 -1212.107)" fill="#000201"/>
                </g>
                <g id="Grupo_1158478" data-name="Grupo 1158478" transform="translate(15.527 15.528)">
                  <line id="Línea_1155" data-name="Línea 1155" x2="6.047" y2="6.047" transform="translate(0.966 0.965)" fill="#000201"/>
                  <path id="Trazado_993768" data-name="Trazado 993768" d="M88.484,1261.044a.962.962,0,0,1-.683-.283l-6.047-6.047a.966.966,0,0,1,1.366-1.366l6.047,6.047a.966.966,0,0,1-.683,1.649Z" transform="translate(-81.472 -1253.065)" fill="#000201"/>
                </g>
              </g>
            </g>
            <g id="Grupo_1158493" data-name="Grupo 1158493" transform="translate(342.162 575.815)">
              <g id="Grupo_1158483" data-name="Grupo 1158483" transform="translate(15.257 0)">
                <g id="Grupo_1158481" data-name="Grupo 1158481">
                  <path id="Trazado_993769" data-name="Trazado 993769" d="M997.043,1525.292a.965.965,0,0,1-.966-.966v-8.552a.966.966,0,0,1,1.932,0v8.552A.967.967,0,0,1,997.043,1525.292Z" transform="translate(-996.077 -1514.808)" fill="#000201"/>
                </g>
                <g id="Grupo_1158482" data-name="Grupo 1158482" transform="translate(0 21.964)">
                  <path id="Trazado_993770" data-name="Trazado 993770" d="M997.043,1583.224a.965.965,0,0,1-.966-.966v-8.55a.966.966,0,0,1,1.932,0v8.55A.967.967,0,0,1,997.043,1583.224Z" transform="translate(-996.077 -1572.741)" fill="#000201"/>
                </g>
              </g>
              <g id="Grupo_1158486" data-name="Grupo 1158486" transform="translate(0 15.258)">
                <g id="Grupo_1158484" data-name="Grupo 1158484" transform="translate(21.959)">
                  <path id="Trazado_993771" data-name="Trazado 993771" d="M1023.272,1556.986h-8.552a.966.966,0,1,1,0-1.932h8.552a.966.966,0,0,1,0,1.932Z" transform="translate(-1013.754 -1555.054)" fill="#000201"/>
                </g>
                <g id="Grupo_1158485" data-name="Grupo 1158485">
                  <path id="Trazado_993772" data-name="Trazado 993772" d="M965.351,1556.986H956.8a.966.966,0,0,1,0-1.932h8.552a.966.966,0,1,1,0,1.932Z" transform="translate(-955.833 -1555.054)" fill="#000201"/>
                </g>
              </g>
              <g id="Grupo_1158489" data-name="Grupo 1158489" transform="translate(4.47 4.469)">
                <g id="Grupo_1158487" data-name="Grupo 1158487" transform="translate(0 15.528)">
                  <line id="Línea_1156" data-name="Línea 1156" y1="6.047" x2="6.046" transform="translate(0.965 0.965)" fill="#000201"/>
                  <path id="Trazado_993773" data-name="Trazado 993773" d="M968.588,1575.534a.966.966,0,0,1-.683-1.649l6.047-6.047a.966.966,0,0,1,1.366,1.366l-6.047,6.047A.963.963,0,0,1,968.588,1575.534Z" transform="translate(-967.623 -1567.555)" fill="#000201"/>
                </g>
                <g id="Grupo_1158488" data-name="Grupo 1158488" transform="translate(15.529)">
                  <line id="Línea_1157" data-name="Línea 1157" y1="6.043" x2="6.047" transform="translate(0.966 0.968)" fill="#000201"/>
                  <path id="Trazado_993774" data-name="Trazado 993774" d="M1009.548,1534.575a.966.966,0,0,1-.683-1.649l6.047-6.046a.966.966,0,0,1,1.366,1.366l-6.047,6.046A.969.969,0,0,1,1009.548,1534.575Z" transform="translate(-1008.583 -1526.597)" fill="#000201"/>
                </g>
              </g>
              <g id="Grupo_1158492" data-name="Grupo 1158492" transform="translate(4.47 4.469)">
                <g id="Grupo_1158490" data-name="Grupo 1158490">
                  <line id="Línea_1158" data-name="Línea 1158" x2="6.046" y2="6.043" transform="translate(0.965 0.968)" fill="#000201"/>
                  <path id="Trazado_993775" data-name="Trazado 993775" d="M974.636,1534.575a.962.962,0,0,1-.683-.283l-6.047-6.046a.966.966,0,0,1,1.366-1.366l6.047,6.046a.966.966,0,0,1-.684,1.649Z" transform="translate(-967.624 -1526.597)" fill="#000201"/>
                </g>
                <g id="Grupo_1158491" data-name="Grupo 1158491" transform="translate(15.525 15.528)">
                  <line id="Línea_1159" data-name="Línea 1159" x2="6.047" y2="6.047" transform="translate(0.969 0.965)" fill="#000201"/>
                  <path id="Trazado_993776" data-name="Trazado 993776" d="M1015.586,1575.534a.962.962,0,0,1-.683-.283l-6.047-6.047a.966.966,0,1,1,1.366-1.366l6.047,6.047a.966.966,0,0,1,0,1.366A.956.956,0,0,1,1015.586,1575.534Z" transform="translate(-1008.574 -1567.555)" fill="#000201"/>
                </g>
              </g>
            </g>
            <g id="Grupo_1158506" data-name="Grupo 1158506" transform="translate(325.938 364.413)">
              <g id="Grupo_1158496" data-name="Grupo 1158496" transform="translate(15.259)">
                <g id="Grupo_1158494" data-name="Grupo 1158494">
                  <path id="Trazado_993777" data-name="Trazado 993777" d="M1039.358,985.512a.965.965,0,0,1-.966-.966v-8.551a.966.966,0,1,1,1.932,0v8.551A.965.965,0,0,1,1039.358,985.512Z" transform="translate(-1038.392 -975.028)" fill="#000201"/>
                </g>
                <g id="Grupo_1158495" data-name="Grupo 1158495" transform="translate(0 21.964)">
                  <path id="Trazado_993778" data-name="Trazado 993778" d="M1039.358,1043.443a.965.965,0,0,1-.966-.966v-8.55a.966.966,0,1,1,1.932,0v8.55A.965.965,0,0,1,1039.358,1043.443Z" transform="translate(-1038.392 -1032.961)" fill="#000201"/>
                </g>
              </g>
              <g id="Grupo_1158499" data-name="Grupo 1158499" transform="translate(0 15.258)">
                <g id="Grupo_1158497" data-name="Grupo 1158497" transform="translate(21.963)">
                  <path id="Trazado_993779" data-name="Trazado 993779" d="M1065.592,1017.206h-8.552a.966.966,0,0,1,0-1.932h8.552a.966.966,0,0,1,0,1.932Z" transform="translate(-1056.074 -1015.274)" fill="#000201"/>
                </g>
                <g id="Grupo_1158498" data-name="Grupo 1158498">
                  <path id="Trazado_993780" data-name="Trazado 993780" d="M1007.662,1017.206H999.11a.966.966,0,0,1,0-1.932h8.552a.966.966,0,0,1,0,1.932Z" transform="translate(-998.144 -1015.274)" fill="#000201"/>
                </g>
              </g>
              <g id="Grupo_1158502" data-name="Grupo 1158502" transform="translate(4.469 4.469)">
                <g id="Grupo_1158500" data-name="Grupo 1158500" transform="translate(0 15.528)">
                  <line id="Línea_1160" data-name="Línea 1160" y1="6.047" x2="6.047" transform="translate(0.966 0.965)" fill="#000201"/>
                  <path id="Trazado_993781" data-name="Trazado 993781" d="M1010.9,1035.753a.966.966,0,0,1-.683-1.649l6.047-6.047a.966.966,0,0,1,1.366,1.366l-6.047,6.047A.956.956,0,0,1,1010.9,1035.753Z" transform="translate(-1009.933 -1027.775)" fill="#000201"/>
                </g>
                <g id="Grupo_1158501" data-name="Grupo 1158501" transform="translate(15.529)">
                  <line id="Línea_1161" data-name="Línea 1161" y1="6.045" x2="6.047" transform="translate(0.966 0.966)" fill="#000201"/>
                  <path id="Trazado_993782" data-name="Trazado 993782" d="M1051.858,994.795a.966.966,0,0,1-.683-1.649l6.047-6.046a.966.966,0,0,1,1.366,1.366l-6.047,6.046A.969.969,0,0,1,1051.858,994.795Z" transform="translate(-1050.893 -986.817)" fill="#000201"/>
                </g>
              </g>
              <g id="Grupo_1158505" data-name="Grupo 1158505" transform="translate(4.47 4.469)">
                <g id="Grupo_1158503" data-name="Grupo 1158503">
                  <line id="Línea_1162" data-name="Línea 1162" x2="6.047" y2="6.045" transform="translate(0.965 0.966)" fill="#000201"/>
                  <path id="Trazado_993783" data-name="Trazado 993783" d="M1016.946,994.795a.962.962,0,0,1-.683-.283l-6.047-6.046a.966.966,0,0,1,1.366-1.366l6.047,6.046a.966.966,0,0,1,0,1.366A.956.956,0,0,1,1016.946,994.795Z" transform="translate(-1009.934 -986.817)" fill="#000201"/>
                </g>
                <g id="Grupo_1158504" data-name="Grupo 1158504" transform="translate(15.529 15.528)">
                  <line id="Línea_1163" data-name="Línea 1163" x2="6.047" y2="6.047" transform="translate(0.965 0.965)" fill="#000201"/>
                  <path id="Trazado_993784" data-name="Trazado 993784" d="M1057.906,1035.753a.962.962,0,0,1-.683-.283l-6.047-6.047a.966.966,0,0,1,1.366-1.366l6.047,6.047a.966.966,0,0,1-.683,1.649Z" transform="translate(-1050.894 -1027.775)" fill="#000201"/>
                </g>
              </g>
            </g>
          </g>
        </g>
      </g>
      <circle id="Elipse_11717" data-name="Elipse 11717" cx="24.249" cy="24.249" r="24.249" transform="translate(1085.049 2678.402) rotate(-135)" fill="#f492c8"/>
      <circle id="Elipse_11723" data-name="Elipse 11723" cx="18.249" cy="18.249" r="18.249" transform="translate(1369.294 2652.03) rotate(-135)" fill="#f492c8"/>
      <circle id="Elipse_11725" data-name="Elipse 11725" cx="11.249" cy="11.249" r="11.249" transform="translate(1043.294 2389.061) rotate(-135)" fill="#f492c8"/>
      <circle id="Elipse_11726" data-name="Elipse 11726" cx="24.249" cy="24.249" r="24.249" transform="translate(1081.294 2377.537) rotate(-135)" fill="#f492c8"/>
      <circle id="Elipse_11727" data-name="Elipse 11727" cx="87.619" cy="87.619" r="87.619" transform="translate(1451.727 2433.77) rotate(-135)" fill="#f492c8"/>
    </g>
  </g>
</svg>
