<svg xmlns="http://www.w3.org/2000/svg" xmlns:xlink="http://www.w3.org/1999/xlink" width="110" height="110" viewBox="0 0 110 110">
  <defs>
    <filter id="Trazado_982547" x="0" y="0" width="110" height="110" filterUnits="userSpaceOnUse">
      <feOffset dy="3" input="SourceAlpha"/>
      <feGaussianBlur stdDeviation="3" result="blur"/>
      <feFlood flood-opacity="0.161"/>
      <feComposite operator="in" in2="blur"/>
      <feComposite in="SourceGraphic"/>
    </filter>
  </defs>
  <g id="Grupo_1158033" data-name="Grupo 1158033" transform="translate(-1115 -4339)">
    <g id="Grupo_1157017" data-name="Grupo 1157017" transform="translate(0 3549)">
      <g id="Grupo_1155793" data-name="Grupo 1155793" transform="translate(-0.999 -3894)">
        <g id="Grupo_1154704" data-name="Grupo 1154704" transform="translate(0 1466)">
          <g id="Grupo_1150790" data-name="Grupo 1150790" transform="translate(3 2320)">
            <g id="Grupo_1154214" data-name="Grupo 1154214" transform="translate(79 -5809)">
              <g id="Grupo_1152583" data-name="Grupo 1152583" transform="translate(1043 6713)">
                <g id="Grupo_1146973" data-name="Grupo 1146973" transform="translate(0 0)">
                  <g id="Grupo_1146954" data-name="Grupo 1146954">
                    <g transform="matrix(1, 0, 0, 1, -9, -6)" filter="url(#Trazado_982547)">
                      <g id="Trazado_982547-2" data-name="Trazado 982547" transform="translate(9 6)" fill="#fceaf1">
                        <path d="M 46 90.49987030029297 C 39.99187850952148 90.49987030029297 34.16426849365234 89.32350921630859 28.67905426025391 87.00345611572266 C 23.38019943237305 84.76224517822266 18.62104034423828 81.55341339111328 14.53374671936035 77.46613311767578 C 10.44646644592285 73.37885284423828 7.237639904022217 68.61969757080078 4.996413230895996 63.32085418701172 C 2.676359891891479 57.83565521240234 1.5 52.008056640625 1.5 45.99993515014648 C 1.5 39.99181365966797 2.676359891891479 34.16421508789062 4.996413230895996 28.67901420593262 C 7.237639904022217 23.38017463684082 10.44646644592285 18.62101554870605 14.53374671936035 14.53373527526855 C 18.62104034423828 10.44645500183105 23.38019943237305 7.23762845993042 28.67905426025391 4.996415138244629 C 34.16426849365234 2.676361799240112 39.99187850952148 1.500001788139343 46 1.500001788139343 C 52.00812149047852 1.500001788139343 57.83573150634766 2.676361799240112 63.32094573974609 4.996415138244629 C 68.61979675292969 7.23762845993042 73.37895965576172 10.44645500183105 77.46625518798828 14.53373527526855 C 81.55353546142578 18.62101554870605 84.76235961914062 23.38017463684082 87.00358581542969 28.67901420593262 C 89.32363891601562 34.16421508789062 90.5 39.99181365966797 90.5 45.99993515014648 C 90.5 52.008056640625 89.32363891601562 57.83565521240234 87.00358581542969 63.32085418701172 C 84.76235961914062 68.61969757080078 81.55353546142578 73.37885284423828 77.46625518798828 77.46613311767578 C 73.37895965576172 81.55341339111328 68.61979675292969 84.76224517822266 63.32094573974609 87.00345611572266 C 57.83573150634766 89.32350921630859 52.00812149047852 90.49987030029297 46 90.49987030029297 Z" stroke="none"/>
                        <path d="M 46 2.999992370605469 C 40.1937141418457 2.999992370605469 34.56269836425781 4.136489868164062 29.26337051391602 6.377906799316406 C 24.14332580566406 8.543502807617188 19.54441070556641 11.64437866210938 15.59439849853516 15.59437561035156 C 11.64440155029297 19.54439544677734 8.54351806640625 24.14329528808594 6.377914428710938 29.26333618164062 C 4.136497497558594 34.56264877319336 3 40.19366455078125 3 45.99993515014648 C 3 51.80620574951172 4.136497497558594 57.43720626831055 6.377914428710938 62.73651885986328 C 8.54351806640625 67.8565673828125 11.64440155029297 72.45545959472656 15.59439849853516 76.40547943115234 C 19.54441070556641 80.35547637939453 24.14332580566406 83.45635223388672 29.26337051391602 85.6219482421875 C 34.56269836425781 87.86336517333984 40.1937141418457 88.99986267089844 46 88.99986267089844 C 51.8062858581543 88.99986267089844 57.43730163574219 87.86336517333984 62.73661422729492 85.6219482421875 C 67.85667419433594 83.45635223388672 72.45557403564453 80.35547637939453 76.40558624267578 76.40547943115234 C 80.35559844970703 72.45545959472656 83.45647430419922 67.8565673828125 85.6220703125 62.73651885986328 C 87.86350250244141 57.43720626831055 89 51.80620574951172 89 45.99993515014648 C 89 40.19366455078125 87.86350250244141 34.56264877319336 85.6220703125 29.26333618164062 C 83.45647430419922 24.14329528808594 80.35559844970703 19.54439544677734 76.40558624267578 15.59437561035156 C 72.45557403564453 11.64437866210938 67.85667419433594 8.543502807617188 62.73661422729492 6.377906799316406 C 57.43730163574219 4.136489868164062 51.8062858581543 2.999992370605469 46 2.999992370605469 M 46 -7.62939453125e-06 C 71.40509033203125 -7.62939453125e-06 92 20.59486389160156 92 45.99993515014648 C 92 71.40499114990234 71.40509033203125 91.99986267089844 46 91.99986267089844 C 20.59490203857422 91.99986267089844 0 71.40499114990234 0 45.99993515014648 C 0 20.59486389160156 20.59490203857422 -7.62939453125e-06 46 -7.62939453125e-06 Z" stroke="none" fill="#e93b81"/>
                      </g>
                    </g>
                  </g>
                </g>
              </g>
            </g>
          </g>
        </g>
      </g>
    </g>
    <g id="_07-Advertisement" data-name="07-Advertisement" transform="translate(1140 4361)">
      <path id="Trazado_993227" data-name="Trazado 993227" d="M41.24,53.1l1.853,5.56H19l1.853-5.56Z" transform="translate(-1.393 -3.894)" fill="#848484"/>
      <path id="Trazado_993228" data-name="Trazado 993228" d="M23.784,55.88H38.31a4.065,4.065,0,0,1,3.857,2.78h.927L41.24,53.1H20.853L19,58.66h.927a4.065,4.065,0,0,1,3.857-2.78Z" transform="translate(-1.393 -3.894)" fill="#6e6e6e"/>
      <path id="Trazado_993229" data-name="Trazado 993229" d="M46.507,62.807H15A3.7,3.7,0,0,1,18.707,59.1H42.8A3.707,3.707,0,0,1,46.507,62.807Z" transform="translate(-1.1 -4.333)" fill="#9c9c9c"/>
      <path id="Trazado_993230" data-name="Trazado 993230" d="M21.5,45.1H40.96c0,3.707-3.707,3.707-3.707,3.707H25.207C21.5,48.807,21.5,45.1,21.5,45.1Z" transform="translate(-1.576 -3.307)" fill="#cfcfcf"/>
      <path id="Trazado_993231" data-name="Trazado 993231" d="M37.253,46.953H25.207A3.336,3.336,0,0,1,21.963,45.1H21.5s0,3.707,3.707,3.707H37.253s3.707,0,3.707-3.707h-.417A3.953,3.953,0,0,1,37.253,46.953Z" transform="translate(-1.576 -3.307)" fill="#adadad"/>
      <path id="Trazado_993232" data-name="Trazado 993232" d="M58.454,45.1v7.413H1V45.1H20s0,3.707,3.707,3.707H35.75s3.707,0,3.707-3.707Z" transform="translate(-0.073 -3.307)" fill="#e4e4e4"/>
      <path id="Trazado_993233" data-name="Trazado 993233" d="M58.454,9.1V42.46H1V9.1Z" transform="translate(-0.073 -0.667)" fill="#80dbff"/>
      <path id="Trazado_993234" data-name="Trazado 993234" d="M1,9.1H4.707v33.36H1Z" transform="translate(-0.073 -0.667)" fill="#19cffc"/>
      <path id="Trazado_993235" data-name="Trazado 993235" d="M1,45.1H4.707v7.413H1Z" transform="translate(-0.073 -3.307)" fill="#cfcfcf"/>
      <path id="Trazado_993236" data-name="Trazado 993236" d="M59,9.1h3.707v33.36H59Z" transform="translate(-4.326 -0.667)" fill="#19cffc"/>
      <path id="Trazado_993237" data-name="Trazado 993237" d="M59,45.1h3.707v7.413H59Z" transform="translate(-4.326 -3.307)" fill="#cfcfcf"/>
      <path id="Trazado_993238" data-name="Trazado 993238" d="M47,26h3.707V36.193H47Z" transform="translate(-3.446 -1.906)" fill="#ff9696"/>
      <path id="Trazado_993239" data-name="Trazado 993239" d="M48.853,31.56V26H47V36.193h3.707v-2.78A1.853,1.853,0,0,1,48.853,31.56Z" transform="translate(-3.446 -1.906)" fill="#ff475a"/>
      <path id="Trazado_993240" data-name="Trazado 993240" d="M39,29h3.707v7.413H39Z" transform="translate(-2.86 -2.126)" fill="#ffc170"/>
      <path id="Trazado_993241" data-name="Trazado 993241" d="M40.853,31.78V29H39v7.413h3.707v-2.78A1.853,1.853,0,0,1,40.853,31.78Z" transform="translate(-2.86 -2.126)" fill="#ffac5a"/>
      <ellipse id="Elipse_11677" data-name="Elipse 11677" cx="1.5" cy="2" rx="1.5" ry="2" transform="translate(32 8.307)" fill="#ffac5a"/>
      <circle id="Elipse_11678" data-name="Elipse 11678" cx="2" cy="2" r="2" transform="translate(39 8.307)" fill="#ffac5a"/>
      <circle id="Elipse_11679" data-name="Elipse 11679" cx="2" cy="2" r="2" transform="translate(46 8.307)" fill="#ffac5a"/>
      <path id="Trazado_993242" data-name="Trazado 993242" d="M56.8,2.853V17.68a1.859,1.859,0,0,1-1.853,1.853H39.193L34.56,24.167V19.534H30.853A1.859,1.859,0,0,1,29,17.68V2.853A1.859,1.859,0,0,1,30.853,1H54.947A1.859,1.859,0,0,1,56.8,2.853Zm-4.633,7.413a1.853,1.853,0,1,0-1.853,1.853,1.853,1.853,0,0,0,1.853-1.853Zm-7.413,0A1.853,1.853,0,1,0,42.9,12.12a1.853,1.853,0,0,0,1.853-1.853Zm-7.413,0a1.853,1.853,0,1,0-1.853,1.853,1.853,1.853,0,0,0,1.853-1.853Z" transform="translate(-2.126 -0.073)" fill="#f0f0f0"/>
      <g id="Grupo_1158032" data-name="Grupo 1158032" transform="translate(26.874 0.927)">
        <path id="Trazado_993243" data-name="Trazado 993243" d="M37.927,9A1.83,1.83,0,0,0,37,9.259a1.836,1.836,0,0,1,0,3.19,1.83,1.83,0,0,0,.927.259,1.853,1.853,0,0,0,0-3.707Z" transform="translate(-29.587 -1.587)" fill="#d9d9d9"/>
        <path id="Trazado_993244" data-name="Trazado 993244" d="M53.927,9A1.83,1.83,0,0,0,53,9.259a1.836,1.836,0,0,1,0,3.19,1.83,1.83,0,0,0,.927.259,1.853,1.853,0,0,0,0-3.707Z" transform="translate(-30.76 -1.587)" fill="#d9d9d9"/>
        <path id="Trazado_993245" data-name="Trazado 993245" d="M45,12.448a1.83,1.83,0,0,0,.927.259,1.853,1.853,0,0,0,0-3.707A1.83,1.83,0,0,0,45,9.259a1.836,1.836,0,0,1,0,3.19Z" transform="translate(-30.173 -1.587)" fill="#d9d9d9"/>
        <path id="Trazado_993246" data-name="Trazado 993246" d="M30.853,17.68V2.853A1.859,1.859,0,0,1,32.707,1H30.853A1.859,1.859,0,0,0,29,2.853V17.68a1.859,1.859,0,0,0,1.853,1.853h1.853a1.859,1.859,0,0,1-1.853-1.853Z" transform="translate(-29 -1)" fill="#d9d9d9"/>
        <path id="Trazado_993247" data-name="Trazado 993247" d="M36.853,21H35v4.633l1.853-1.853Z" transform="translate(-29.44 -2.466)" fill="#d9d9d9"/>
      </g>
      <path id="Trazado_993248" data-name="Trazado 993248" d="M58,40h1.853v1.853H58Z" transform="translate(-4.253 -2.933)" fill="#96e8ff"/>
      <path id="Trazado_993249" data-name="Trazado 993249" d="M58,24h1.853V36.973H58Z" transform="translate(-4.253 -1.76)" fill="#96e8ff"/>
      <path id="Trazado_993250" data-name="Trazado 993250" d="M53.607,36.973H36V35.12H52.68V24h1.853V36.047A.927.927,0,0,1,53.607,36.973Z" transform="translate(-2.64 -1.76)" fill="#6e6e6e"/>
      <path id="Trazado_993251" data-name="Trazado 993251" d="M54,40h1.853v1.853H54Z" transform="translate(-3.96 -2.933)" fill="#96e8ff"/>
      <path id="Trazado_993252" data-name="Trazado 993252" d="M29,40H50.314v1.853H29Z" transform="translate(-2.126 -2.933)" fill="#96e8ff"/>
      <path id="Trazado_993253" data-name="Trazado 993253" d="M5.853,16.633H4V12.927A.927.927,0,0,1,4.927,12H8.633v1.853H5.853Z" transform="translate(-0.293 -0.88)" fill="#96e8ff"/>
      <path id="Trazado_993254" data-name="Trazado 993254" d="M4,19H5.853v1.853H4Z" transform="translate(-0.293 -1.393)" fill="#96e8ff"/>
      <path id="Trazado_993255" data-name="Trazado 993255" d="M0,0H3.562V5.524H0Z" transform="translate(8.391 31.956) rotate(-22.153)" fill="#9c9c9c"/>
      <path id="Trazado_993256" data-name="Trazado 993256" d="M19.479,17.29l5.551,13.641-3.8.1L16.68,19.875Z" transform="translate(-1.223 -1.268)" fill="#9c9c9c"/>
      <path id="Trazado_993257" data-name="Trazado 993257" d="M22.292,14l6.941,17.051-1.649.667a1.818,1.818,0,0,1-2.344-1.029L19.688,17.049a1.814,1.814,0,0,1,.954-2.382Z" transform="translate(-1.433 -1.027)" fill="#ff7d81"/>
      <path id="Trazado_993258" data-name="Trazado 993258" d="M8.7,33.781l-.825.334a1.815,1.815,0,0,1-2.344-1.029l-1.39-3.41a1.821,1.821,0,0,1,.954-2.382l5.773-2.344,2.78,6.82L12,32.438Z" transform="translate(-0.293 -1.829)" fill="#ff7d81"/>
      <path id="Trazado_993259" data-name="Trazado 993259" d="M16.294,20.08l4.55,11.157-6.654.176-2.78-6.82Z" transform="translate(-0.837 -1.472)" fill="#f0f0f0"/>
      <path id="Trazado_993260" data-name="Trazado 993260" d="M19.38,26.526l2.048,5.021,3.8-.1-2.9-7.117a23.705,23.705,0,0,1-2.951,2.2Z" transform="translate(-1.421 -1.784)" fill="#848484"/>
      <path id="Trazado_993261" data-name="Trazado 993261" d="M25.26,21.28a21.169,21.169,0,0,1-2.695,2.826l2.9,7.117a1.818,1.818,0,0,0,2.344,1.029l1.649-.667Z" transform="translate(-1.655 -1.56)" fill="#ff475a"/>
      <path id="Trazado_993262" data-name="Trazado 993262" d="M4.779,31.448l.807,1.981a1.815,1.815,0,0,0,2.344,1.029l.825-.334,3.3-1.344,1.649-.667L12.69,29.625a37.283,37.283,0,0,1-7.911,1.823Z" transform="translate(-0.35 -2.172)" fill="#ff636e"/>
      <path id="Trazado_993263" data-name="Trazado 993263" d="M13.316,29.411,14.33,31.9l6.654-.176L18.935,26.7a27.976,27.976,0,0,1-5.619,2.711Z" transform="translate(-0.976 -1.958)" fill="#d9d9d9"/>
      <path id="Trazado_993264" data-name="Trazado 993264" d="M58.381,7.413H55.6V2.78A2.78,2.78,0,0,0,52.821,0H28.727a2.78,2.78,0,0,0-2.78,2.78V17.607a2.78,2.78,0,0,0,2.78,2.78h2.78v3.707a.927.927,0,0,0,1.582.655l4.362-4.362h15.37a2.78,2.78,0,0,0,2.78-2.78V9.267h1.853V40.774H1.853V9.267h22.24V7.413H.927A.927.927,0,0,0,0,8.34V49.114a.927.927,0,0,0,.927.927H18.174l-1.258,3.776a4.628,4.628,0,0,0-3.942,4.564.927.927,0,0,0,.927.927H45.407a.927.927,0,0,0,.927-.927,4.628,4.628,0,0,0-3.942-4.564L41.133,50.04H58.381a.927.927,0,0,0,.927-.927V8.34A.927.927,0,0,0,58.381,7.413ZM53.747,17.607a.927.927,0,0,1-.927.927H37.067a.927.927,0,0,0-.655.271L33.36,21.857v-2.4a.927.927,0,0,0-.927-.927H28.727a.927.927,0,0,1-.927-.927V2.78a.927.927,0,0,1,.927-.927H52.821a.927.927,0,0,1,.927.927ZM38.312,42.627a2.485,2.485,0,0,1-2.635,1.853H23.635a2.7,2.7,0,0,1-2.666-1.853Zm6.009,14.827H14.985A2.786,2.786,0,0,1,17.607,55.6H41.7a2.786,2.786,0,0,1,2.622,1.853Zm-3.907-3.707H18.892l1.236-3.707H39.179Zm-.568-5.56H1.853v-5.56H19.077a4.483,4.483,0,0,0,4.554,3.707H35.677a4.342,4.342,0,0,0,4.541-3.707H57.454v5.56Z"/>
      <path id="Trazado_993265" data-name="Trazado 993265" d="M58,40h1.853v1.853H58Z" transform="translate(-4.253 -2.933)"/>
      <path id="Trazado_993266" data-name="Trazado 993266" d="M58,24h1.853V36.973H58Z" transform="translate(-4.253 -1.76)"/>
      <path id="Trazado_993267" data-name="Trazado 993267" d="M42.487,27.707H38.78a.927.927,0,0,0-.927.927V35.12H36v1.853H53.607a.927.927,0,0,0,.927-.927V24H52.68V35.12H50.827V25.853a.927.927,0,0,0-.927-.927H46.193a.927.927,0,0,0-.927.927V35.12H43.413V28.633A.927.927,0,0,0,42.487,27.707Zm-2.78,7.413V29.56H41.56v5.56Zm7.413-8.34h1.853v8.34H47.12Z" transform="translate(-2.64 -1.76)"/>
      <path id="Trazado_993268" data-name="Trazado 993268" d="M54,40h1.853v1.853H54Z" transform="translate(-3.96 -2.933)"/>
      <path id="Trazado_993269" data-name="Trazado 993269" d="M29,40H50.314v1.853H29Z" transform="translate(-2.126 -2.933)"/>
      <path id="Trazado_993270" data-name="Trazado 993270" d="M21.936,13.577a.927.927,0,0,0-1.2-.509l-1.649.67a2.659,2.659,0,0,0-1.473,1.483,2.76,2.76,0,0,0-.161,1.436l-7.157,6.616L4.674,25.562A2.656,2.656,0,0,0,3.2,27.045a2.78,2.78,0,0,0,.01,2.1L4.6,32.552a2.78,2.78,0,0,0,1.459,1.51A2.693,2.693,0,0,0,7.15,34.3a2.636,2.636,0,0,0,.967-.185l1.735,4.263a.927.927,0,0,0,.859.577.908.908,0,0,0,.348-.069l3.3-1.341a.927.927,0,0,0,.509-1.2L13.132,32.08l.635-.259,9.742-.259a2.757,2.757,0,0,0,2.217,1.147,2.647,2.647,0,0,0,1-.2l1.649-.67a.927.927,0,0,0,.509-1.2Zm.729,16.146-1.824.048L16.781,19.8l1.339-1.24ZM6.8,32.368a.938.938,0,0,1-.489-.511l-1.39-3.411a.939.939,0,0,1-.006-.707.824.824,0,0,1,.452-.463l4.911-2,2.078,5.106-4.911,2a.824.824,0,0,1-.644-.015Zm5.993,3.8-1.581.643-1.384-3.4,1.581-.643Zm-.9-11.849,3.429-3.174,3.534,8.681-4.675.125Zm14.126,6.475a.888.888,0,0,1-1.136-.525L19.333,16.626a.941.941,0,0,1-.006-.708.816.816,0,0,1,.451-.463l.79-.322,6.248,15.336Z" transform="translate(-0.22 -0.953)"/>
      <path id="Trazado_993271" data-name="Trazado 993271" d="M35.78,8a2.78,2.78,0,1,0,2.78,2.78A2.78,2.78,0,0,0,35.78,8Zm0,3.707a.927.927,0,1,1,.927-.927A.927.927,0,0,1,35.78,11.707Z" transform="translate(-2.42 -0.587)"/>
      <path id="Trazado_993272" data-name="Trazado 993272" d="M43.78,8a2.78,2.78,0,1,0,2.78,2.78A2.78,2.78,0,0,0,43.78,8Zm0,3.707a.927.927,0,1,1,.927-.927A.927.927,0,0,1,43.78,11.707Z" transform="translate(-3.006 -0.587)"/>
      <path id="Trazado_993273" data-name="Trazado 993273" d="M51.78,8a2.78,2.78,0,1,0,2.78,2.78A2.78,2.78,0,0,0,51.78,8Zm0,3.707a.927.927,0,1,1,.927-.927A.927.927,0,0,1,51.78,11.707Z" transform="translate(-3.593 -0.587)"/>
      <path id="Trazado_993274" data-name="Trazado 993274" d="M5.853,13.853h2.78V12H4.927A.927.927,0,0,0,4,12.927v3.707H5.853Z" transform="translate(-0.293 -0.88)"/>
      <path id="Trazado_993275" data-name="Trazado 993275" d="M4,19H5.853v1.853H4Z" transform="translate(-0.293 -1.393)"/>
    </g>
  </g>
</svg>
