<svg xmlns="http://www.w3.org/2000/svg" xmlns:xlink="http://www.w3.org/1999/xlink" width="110" height="110" viewBox="0 0 110 110">
  <defs>
    <filter id="Trazado_982547" x="0" y="0" width="110" height="110" filterUnits="userSpaceOnUse">
      <feOffset dy="3" input="SourceAlpha"/>
      <feGaussianBlur stdDeviation="3" result="blur"/>
      <feFlood flood-opacity="0.161"/>
      <feComposite operator="in" in2="blur"/>
      <feComposite in="SourceGraphic"/>
    </filter>
  </defs>
  <g id="Grupo_1158036" data-name="Grupo 1158036" transform="translate(-1056 -4338)">
    <g id="Grupo_1157018" data-name="Grupo 1157018" transform="translate(256 3549)">
      <g id="Grupo_1155792" data-name="Grupo 1155792" transform="translate(-1 -3894.666)">
        <g id="Grupo_1154703" data-name="Grupo 1154703" transform="translate(0 1465.666)">
          <g id="Grupo_1150789" data-name="Grupo 1150789" transform="translate(3 2320)">
            <g id="Grupo_1154212" data-name="Grupo 1154212" transform="translate(-236 -5809)">
              <g id="Grupo_1152583" data-name="Grupo 1152583" transform="translate(1043 6713)">
                <g id="Grupo_1146973" data-name="Grupo 1146973" transform="translate(0 0)">
                  <g id="Grupo_1146954" data-name="Grupo 1146954">
                    <g transform="matrix(1, 0, 0, 1, -9, -6)" filter="url(#Trazado_982547)">
                      <g id="Trazado_982547-2" data-name="Trazado 982547" transform="translate(9 6)" fill="#fceaf1">
                        <path d="M 46 90.49987030029297 C 39.99187850952148 90.49987030029297 34.16426849365234 89.32350921630859 28.67905426025391 87.00345611572266 C 23.38019943237305 84.76224517822266 18.62104034423828 81.55341339111328 14.53374671936035 77.46613311767578 C 10.44646644592285 73.37885284423828 7.237639904022217 68.61969757080078 4.996413230895996 63.32085418701172 C 2.676359891891479 57.83565521240234 1.5 52.008056640625 1.5 45.99993515014648 C 1.5 39.99181365966797 2.676359891891479 34.16421508789062 4.996413230895996 28.67901420593262 C 7.237639904022217 23.38017463684082 10.44646644592285 18.62101554870605 14.53374671936035 14.53373527526855 C 18.62104034423828 10.44645500183105 23.38019943237305 7.23762845993042 28.67905426025391 4.996415138244629 C 34.16426849365234 2.676361799240112 39.99187850952148 1.500001788139343 46 1.500001788139343 C 52.00812149047852 1.500001788139343 57.83573150634766 2.676361799240112 63.32094573974609 4.996415138244629 C 68.61979675292969 7.23762845993042 73.37895965576172 10.44645500183105 77.46625518798828 14.53373527526855 C 81.55353546142578 18.62101554870605 84.76235961914062 23.38017463684082 87.00358581542969 28.67901420593262 C 89.32363891601562 34.16421508789062 90.5 39.99181365966797 90.5 45.99993515014648 C 90.5 52.008056640625 89.32363891601562 57.83565521240234 87.00358581542969 63.32085418701172 C 84.76235961914062 68.61969757080078 81.55353546142578 73.37885284423828 77.46625518798828 77.46613311767578 C 73.37895965576172 81.55341339111328 68.61979675292969 84.76224517822266 63.32094573974609 87.00345611572266 C 57.83573150634766 89.32350921630859 52.00812149047852 90.49987030029297 46 90.49987030029297 Z" stroke="none"/>
                        <path d="M 46 2.999992370605469 C 40.1937141418457 2.999992370605469 34.56269836425781 4.136489868164062 29.26337051391602 6.377906799316406 C 24.14332580566406 8.543502807617188 19.54441070556641 11.64437866210938 15.59439849853516 15.59437561035156 C 11.64440155029297 19.54439544677734 8.54351806640625 24.14329528808594 6.377914428710938 29.26333618164062 C 4.136497497558594 34.56264877319336 3 40.19366455078125 3 45.99993515014648 C 3 51.80620574951172 4.136497497558594 57.43720626831055 6.377914428710938 62.73651885986328 C 8.54351806640625 67.8565673828125 11.64440155029297 72.45545959472656 15.59439849853516 76.40547943115234 C 19.54441070556641 80.35547637939453 24.14332580566406 83.45635223388672 29.26337051391602 85.6219482421875 C 34.56269836425781 87.86336517333984 40.1937141418457 88.99986267089844 46 88.99986267089844 C 51.8062858581543 88.99986267089844 57.43730163574219 87.86336517333984 62.73661422729492 85.6219482421875 C 67.85667419433594 83.45635223388672 72.45557403564453 80.35547637939453 76.40558624267578 76.40547943115234 C 80.35559844970703 72.45545959472656 83.45647430419922 67.8565673828125 85.6220703125 62.73651885986328 C 87.86350250244141 57.43720626831055 89 51.80620574951172 89 45.99993515014648 C 89 40.19366455078125 87.86350250244141 34.56264877319336 85.6220703125 29.26333618164062 C 83.45647430419922 24.14329528808594 80.35559844970703 19.54439544677734 76.40558624267578 15.59437561035156 C 72.45557403564453 11.64437866210938 67.85667419433594 8.543502807617188 62.73661422729492 6.377906799316406 C 57.43730163574219 4.136489868164062 51.8062858581543 2.999992370605469 46 2.999992370605469 M 46 -7.62939453125e-06 C 71.40509033203125 -7.62939453125e-06 92 20.59486389160156 92 45.99993515014648 C 92 71.40499114990234 71.40509033203125 91.99986267089844 46 91.99986267089844 C 20.59490203857422 91.99986267089844 0 71.40499114990234 0 45.99993515014648 C 0 20.59486389160156 20.59490203857422 -7.62939453125e-06 46 -7.62939453125e-06 Z" stroke="none" fill="#e93b81"/>
                      </g>
                    </g>
                  </g>
                </g>
              </g>
            </g>
          </g>
        </g>
      </g>
    </g>
    <g id="_x34_1_x2C__Baby_x2C__Body_x2C__Flower_x2C__Shirt" transform="translate(1054 4316)">
      <g id="Grupo_1158035" data-name="Grupo 1158035" transform="translate(26 46)">
        <g id="Grupo_1158034" data-name="Grupo 1158034" transform="translate(1.348 2.696)">
          <path id="Trazado_993276" data-name="Trazado 993276" d="M378.022,66A2.022,2.022,0,1,1,376,68.022,2.022,2.022,0,0,1,378.022,66Z" transform="translate(-330.174 -66)" fill="#3c3b3d"/>
          <circle id="Elipse_11680" data-name="Elipse 11680" cx="3.5" cy="3.5" r="3.5" transform="translate(52.652 28.304)" fill="#3c3b3d"/>
          <path id="Trazado_993277" data-name="Trazado 993277" d="M38.7,356a2.7,2.7,0,1,1-2.7,2.7A2.695,2.695,0,0,1,38.7,356Z" transform="translate(-36 -316.913)" fill="#3c3b3d"/>
        </g>
        <path id="Trazado_993278" data-name="Trazado 993278" d="M94,111.774a4.833,4.833,0,0,0-2.038-1.78l-16.7-7.324a9.352,9.352,0,0,1-17.636,0l-15.887,7.3A4.846,4.846,0,0,0,39,114.3v.067a4.842,4.842,0,0,0,6.083,4.662l2.948-.775v30.686H85.769V118.259l2.925.775a4.824,4.824,0,0,0,5.3-7.259Z" transform="translate(-37.248 -95.032)" fill="#f89997"/>
        <path id="Trazado_993279" data-name="Trazado 993279" d="M202.064,267.19l-5.01,3.659,1.913,5.9-5.01-3.635-5.01,3.642,1.913-5.907-5.01-3.659h6.193l1.914-5.89,1.914,5.89Z" transform="translate(-164.305 -232.281)" fill="#fbec9b"/>
        <path id="Trazado_993280" data-name="Trazado 993280" d="M438.3,86.395a1.347,1.347,0,1,1-.953-.395A1.344,1.344,0,0,1,438.3,86.395Z" transform="translate(-380.74 -80.609)"/>
        <path id="Trazado_993281" data-name="Trazado 993281" d="M418.3,396.395a1.347,1.347,0,1,1-.953-.395A1.344,1.344,0,0,1,418.3,396.395Z" transform="translate(-363.435 -348.826)"/>
        <path id="Trazado_993282" data-name="Trazado 993282" d="M338.3,246.395a1.347,1.347,0,1,1-.953-.395A1.344,1.344,0,0,1,338.3,246.395Z" transform="translate(-294.218 -219.044)"/>
        <path id="Trazado_993283" data-name="Trazado 993283" d="M168.3,46.395a1.347,1.347,0,1,1-.953-.395A1.344,1.344,0,0,1,168.3,46.395Z" transform="translate(-147.131 -46)"/>
        <path id="Trazado_993284" data-name="Trazado 993284" d="M138.3,396.395a1.347,1.347,0,1,1-.953-.395A1.344,1.344,0,0,1,138.3,396.395Z" transform="translate(-121.174 -348.826)"/>
        <path id="Trazado_993285" data-name="Trazado 993285" d="M68.3,446.395a1.347,1.347,0,1,1-.953-.395A1.344,1.344,0,0,1,68.3,446.395Z" transform="translate(-60.609 -392.087)"/>
        <path id="Trazado_993286" data-name="Trazado 993286" d="M48.3,256.395a1.347,1.347,0,1,1-.953-.395A1.344,1.344,0,0,1,48.3,256.395Z" transform="translate(-43.304 -227.696)"/>
        <path id="Trazado_993287" data-name="Trazado 993287" d="M38.3,66.395A1.347,1.347,0,1,1,37.348,66,1.344,1.344,0,0,1,38.3,66.395Z" transform="translate(-34.652 -63.304)"/>
        <path id="Trazado_993288" data-name="Trazado 993288" d="M180.294,269.452a1.348,1.348,0,0,1-1.282-1.763l1.612-4.979-4.222-3.084a1.348,1.348,0,0,1,.8-2.436h5.214l1.611-4.959a1.348,1.348,0,0,1,2.564,0l1.611,4.959h5.214a1.348,1.348,0,0,1,.8,2.436l-4.222,3.084,1.612,4.972a1.348,1.348,0,0,1-2.074,1.506l-4.217-3.06-4.218,3.066a1.346,1.346,0,0,1-.793.257Zm1.033-9.567L183,261.109a1.348,1.348,0,0,1,.487,1.5l-.637,1.966,1.659-1.206a1.348,1.348,0,0,1,1.584,0l1.66,1.2-.636-1.964a1.348,1.348,0,0,1,.487-1.5l1.675-1.223h-2.063a1.348,1.348,0,0,1-1.282-.931l-.632-1.945-.632,1.945a1.348,1.348,0,0,1-1.282.931Z" transform="translate(-155.652 -223.629)"/>
        <path id="Trazado_993289" data-name="Trazado 993289" d="M234.348,150.726A1.348,1.348,0,0,1,233,149.378v-9.03a1.348,1.348,0,0,1,2.7,0v9.03A1.348,1.348,0,0,1,234.348,150.726Z" transform="translate(-205.1 -126.465)"/>
        <path id="Trazado_993290" data-name="Trazado 993290" d="M77.117,141.639H39.378a1.348,1.348,0,0,1-1.348-1.348V111.353l-1.257.33A6.183,6.183,0,0,1,29,105.718v-.067a6.222,6.222,0,0,1,3.489-5.547l.028-.013,15.887-7.3a1.348,1.348,0,0,1,1.834.776,8,8,0,0,0,15.094,0,1.348,1.348,0,0,1,1.812-.786l16.7,7.324.026.012a6.173,6.173,0,0,1-2.585,11.774h0a6.215,6.215,0,0,1-1.591-.209l-1.231-.326v28.934a1.348,1.348,0,0,1-1.348,1.348Zm-36.391-2.7H75.769V109.605a1.348,1.348,0,0,1,1.693-1.3l2.925.775a3.52,3.52,0,0,0,.9.119,3.478,3.478,0,0,0,1.463-6.627L67.3,95.794a10.7,10.7,0,0,1-19.021.021l-14.622,6.717a3.509,3.509,0,0,0-1.963,3.118v.067a3.487,3.487,0,0,0,3.488,3.478,3.523,3.523,0,0,0,.9-.119l2.95-.776a1.348,1.348,0,0,1,1.691,1.3Z" transform="translate(-28.596 -86.379)"/>
        <path id="Trazado_993291" data-name="Trazado 993291" d="M137.348,325.435A1.348,1.348,0,0,1,136,324.087v-6.739a1.348,1.348,0,0,1,2.7,0v6.739A1.348,1.348,0,0,1,137.348,325.435Z" transform="translate(-121.174 -279.609)"/>
        <path id="Trazado_993292" data-name="Trazado 993292" d="M337.348,289.478A1.348,1.348,0,0,1,336,288.13V277.348a1.348,1.348,0,0,1,2.7,0V288.13A1.348,1.348,0,0,1,337.348,289.478Z" transform="translate(-294.218 -245)"/>
        <path id="Trazado_993293" data-name="Trazado 993293" d="M30.043,354.087a4.043,4.043,0,1,1,4.043-4.043A4.048,4.048,0,0,1,30.043,354.087Zm0-5.391a1.348,1.348,0,1,0,1.348,1.348A1.349,1.349,0,0,0,30.043,348.7Z" transform="translate(-26 -305.566)"/>
        <path id="Trazado_993294" data-name="Trazado 993294" d="M369.37,62.739a3.37,3.37,0,1,1,3.37-3.37A3.373,3.373,0,0,1,369.37,62.739Zm0-4.043a.674.674,0,1,0,.674.674A.675.675,0,0,0,369.37,58.7Z" transform="translate(-320.174 -54.652)"/>
        <path id="Trazado_993295" data-name="Trazado 993295" d="M420.717,275.435a4.717,4.717,0,1,1,4.717-4.717A4.723,4.723,0,0,1,420.717,275.435Zm0-6.739a2.022,2.022,0,1,0,2.022,2.022A2.024,2.024,0,0,0,420.717,268.7Z" transform="translate(-363.435 -236.348)"/>
      </g>
    </g>
  </g>
</svg>
