<svg xmlns="http://www.w3.org/2000/svg" xmlns:xlink="http://www.w3.org/1999/xlink" width="110" height="110" viewBox="0 0 110 110">
  <defs>
    <filter id="Trazado_982547" x="0" y="0" width="110" height="110" filterUnits="userSpaceOnUse">
      <feOffset dy="3" input="SourceAlpha"/>
      <feGaussianBlur stdDeviation="3" result="blur"/>
      <feFlood flood-opacity="0.161"/>
      <feComposite operator="in" in2="blur"/>
      <feComposite in="SourceGraphic"/>
    </filter>
  </defs>
  <g id="Grupo_1158052" data-name="Grupo 1158052" transform="translate(-1056 -4754)">
    <g id="Grupo_1157020" data-name="Grupo 1157020" transform="translate(256 3965)">
      <g id="Grupo_1155792" data-name="Grupo 1155792" transform="translate(-1 -3894.666)">
        <g id="Grupo_1154703" data-name="Grupo 1154703" transform="translate(0 1465.666)">
          <g id="Grupo_1150789" data-name="Grupo 1150789" transform="translate(3 2320)">
            <g id="Grupo_1154212" data-name="Grupo 1154212" transform="translate(-236 -5809)">
              <g id="Grupo_1152583" data-name="Grupo 1152583" transform="translate(1043 6713)">
                <g id="Grupo_1146973" data-name="Grupo 1146973" transform="translate(0 0)">
                  <g id="Grupo_1146954" data-name="Grupo 1146954">
                    <g transform="matrix(1, 0, 0, 1, -9, -6)" filter="url(#Trazado_982547)">
                      <g id="Trazado_982547-2" data-name="Trazado 982547" transform="translate(9 6)" fill="#fceaf1">
                        <path d="M 46 90.49987030029297 C 39.99187850952148 90.49987030029297 34.16426849365234 89.32350921630859 28.67905426025391 87.00345611572266 C 23.38019943237305 84.76224517822266 18.62104034423828 81.55341339111328 14.53374671936035 77.46613311767578 C 10.44646644592285 73.37885284423828 7.237639904022217 68.61969757080078 4.996413230895996 63.32085418701172 C 2.676359891891479 57.83565521240234 1.5 52.008056640625 1.5 45.99993515014648 C 1.5 39.99181365966797 2.676359891891479 34.16421508789062 4.996413230895996 28.67901420593262 C 7.237639904022217 23.38017463684082 10.44646644592285 18.62101554870605 14.53374671936035 14.53373527526855 C 18.62104034423828 10.44645500183105 23.38019943237305 7.23762845993042 28.67905426025391 4.996415138244629 C 34.16426849365234 2.676361799240112 39.99187850952148 1.500001788139343 46 1.500001788139343 C 52.00812149047852 1.500001788139343 57.83573150634766 2.676361799240112 63.32094573974609 4.996415138244629 C 68.61979675292969 7.23762845993042 73.37895965576172 10.44645500183105 77.46625518798828 14.53373527526855 C 81.55353546142578 18.62101554870605 84.76235961914062 23.38017463684082 87.00358581542969 28.67901420593262 C 89.32363891601562 34.16421508789062 90.5 39.99181365966797 90.5 45.99993515014648 C 90.5 52.008056640625 89.32363891601562 57.83565521240234 87.00358581542969 63.32085418701172 C 84.76235961914062 68.61969757080078 81.55353546142578 73.37885284423828 77.46625518798828 77.46613311767578 C 73.37895965576172 81.55341339111328 68.61979675292969 84.76224517822266 63.32094573974609 87.00345611572266 C 57.83573150634766 89.32350921630859 52.00812149047852 90.49987030029297 46 90.49987030029297 Z" stroke="none"/>
                        <path d="M 46 2.999992370605469 C 40.1937141418457 2.999992370605469 34.56269836425781 4.136489868164062 29.26337051391602 6.377906799316406 C 24.14332580566406 8.543502807617188 19.54441070556641 11.64437866210938 15.59439849853516 15.59437561035156 C 11.64440155029297 19.54439544677734 8.54351806640625 24.14329528808594 6.377914428710938 29.26333618164062 C 4.136497497558594 34.56264877319336 3 40.19366455078125 3 45.99993515014648 C 3 51.80620574951172 4.136497497558594 57.43720626831055 6.377914428710938 62.73651885986328 C 8.54351806640625 67.8565673828125 11.64440155029297 72.45545959472656 15.59439849853516 76.40547943115234 C 19.54441070556641 80.35547637939453 24.14332580566406 83.45635223388672 29.26337051391602 85.6219482421875 C 34.56269836425781 87.86336517333984 40.1937141418457 88.99986267089844 46 88.99986267089844 C 51.8062858581543 88.99986267089844 57.43730163574219 87.86336517333984 62.73661422729492 85.6219482421875 C 67.85667419433594 83.45635223388672 72.45557403564453 80.35547637939453 76.40558624267578 76.40547943115234 C 80.35559844970703 72.45545959472656 83.45647430419922 67.8565673828125 85.6220703125 62.73651885986328 C 87.86350250244141 57.43720626831055 89 51.80620574951172 89 45.99993515014648 C 89 40.19366455078125 87.86350250244141 34.56264877319336 85.6220703125 29.26333618164062 C 83.45647430419922 24.14329528808594 80.35559844970703 19.54439544677734 76.40558624267578 15.59437561035156 C 72.45557403564453 11.64437866210938 67.85667419433594 8.543502807617188 62.73661422729492 6.377906799316406 C 57.43730163574219 4.136489868164062 51.8062858581543 2.999992370605469 46 2.999992370605469 M 46 -7.62939453125e-06 C 71.40509033203125 -7.62939453125e-06 92 20.59486389160156 92 45.99993515014648 C 92 71.40499114990234 71.40509033203125 91.99986267089844 46 91.99986267089844 C 20.59490203857422 91.99986267089844 0 71.40499114990234 0 45.99993515014648 C 0 20.59486389160156 20.59490203857422 -7.62939453125e-06 46 -7.62939453125e-06 Z" stroke="none" fill="#e93b81"/>
                      </g>
                    </g>
                  </g>
                </g>
              </g>
            </g>
          </g>
        </g>
      </g>
    </g>
    <g id="idea_5_" data-name="idea (5)" transform="translate(1070.856 4774)">
      <g id="Grupo_1158050" data-name="Grupo 1158050" transform="translate(9.938 0.924)">
        <path id="Trazado_993327" data-name="Trazado 993327" d="M224.72,46.325l-3.254,2.893V90.267l3.254,2.892h6.841V88.926a.869.869,0,0,1,.482-.78,22.048,22.048,0,0,0,12.284-19.773C244.326,56.2,232.946,46.325,224.72,46.325Z" transform="translate(-195.828 -41.482)" fill="#ffe177"/>
        <path id="Trazado_993328" data-name="Trazado 993328" d="M245.5,46.325l-.3.266a22.053,22.053,0,0,1,18.612,21.782c0,8.671-5.005,14.3-12.284,17.906a.87.87,0,0,0-.482.78v6.1h3.735V88.926a.869.869,0,0,1,.482-.78A22.051,22.051,0,0,0,245.5,46.325Z" transform="translate(-216.608 -41.482)" fill="#f9d45d"/>
        <path id="Trazado_993329" data-name="Trazado 993329" d="M207.086,412.932a1.938,1.938,0,0,0-1.938-1.938H190.775v11.63h10.342a1.872,1.872,0,0,0,1.872-1.872v-2h2.159a4.334,4.334,0,0,1,1.938-5.815Z" transform="translate(-168.958 -360.753)" fill="#808b95"/>
        <path id="Trazado_993330" data-name="Trazado 993330" d="M274.555,412.932a1.938,1.938,0,0,0-1.938-1.938h-3.735a4.334,4.334,0,0,0,1.938,5.815,1.938,1.938,0,0,1-1.938,1.938h-2.159v2a1.872,1.872,0,0,1-1.872,1.872h3.735a1.872,1.872,0,0,0,1.872-1.872v-2h2.159a4.334,4.334,0,0,1,1.938-5.815Z" transform="translate(-233.812 -360.753)" fill="#5e6b75"/>
        <g id="Grupo_1158047" data-name="Grupo 1158047" transform="translate(25.638 12.818)">
          <path id="Trazado_993331" data-name="Trazado 993331" d="M239.771,125.53a13.705,13.705,0,0,0,0-3.27l-3.347-1.19a10.4,10.4,0,0,0-.951-2.3L237,115.567a13.594,13.594,0,0,0-2.312-2.312l-3.209,1.525a10.4,10.4,0,0,0-2.3-.951l-1.19-3.347a13.707,13.707,0,0,0-3.27,0l-3.256,2.505v21.692l3.256,2.632a13.705,13.705,0,0,0,3.27,0l1.19-3.347a10.4,10.4,0,0,0,2.3-.951l3.208,1.525A13.6,13.6,0,0,0,237,132.224l-1.525-3.208a10.39,10.39,0,0,0,.951-2.3Z" transform="translate(-221.465 -110.383)" fill="#9dcffd"/>
          <path id="Trazado_993332" data-name="Trazado 993332" d="M224.721,167.836l-3.256,6.352,3.256,6.353c.53.138,5.923-1.143,5.923-6.353C230.645,169.2,225.252,167.7,224.721,167.836Z" transform="translate(-221.465 -160.676)" fill="#f0fcff"/>
          <path id="Trazado_993333" data-name="Trazado 993333" d="M247.623,166.382v.123a6.567,6.567,0,0,1,0,12.459v.123a6.565,6.565,0,1,0,0-12.705Z" transform="translate(-244.367 -159.222)" fill="#d7ecfe"/>
        </g>
        <g id="Grupo_1158048" data-name="Grupo 1158048" transform="translate(0 0.214)">
          <path id="Trazado_993334" data-name="Trazado 993334" d="M35.261,70.563a7.724,7.724,0,0,1-5.331-4.788,9.151,9.151,0,0,1-9.069-14.663A5.45,5.45,0,0,1,19,40.642a7.709,7.709,0,0,1,1.786-13.756,11.11,11.11,0,0,1-.061-1.163A10.977,10.977,0,0,1,31.707,14.746l.2,0a7.976,7.976,0,0,1,1.922-3.573,7.265,7.265,0,0,1,3.442-2.031c.27-.076,4.819,1.084,4.819,5.259V63.535C42.087,71.077,35.867,70.716,35.261,70.563Z" transform="translate(-15.526 -9.14)" fill="#fd8087"/>
        </g>
        <g id="Grupo_1158049" data-name="Grupo 1158049" transform="translate(10.619)">
          <path id="Trazado_993335" data-name="Trazado 993335" d="M100.875,464.073l-.051.011.059.012Z" transform="translate(-100.824 -407.224)" fill="#fe646f"/>
          <path id="Trazado_993336" data-name="Trazado 993336" d="M177.17,7.453a7.246,7.246,0,0,0-1.112.186q-.132.037-.267.08a5.481,5.481,0,0,1,3.684,5.179V62.031a7.265,7.265,0,0,1-5.423,7.028,7.722,7.722,0,0,0,1.9.235,7.262,7.262,0,0,0,7.262-7.262V12.9a5.469,5.469,0,0,0-6.04-5.445Z" transform="translate(-164.936 -7.422)" fill="#fe646f"/>
        </g>
      </g>
      <g id="Grupo_1158051" data-name="Grupo 1158051" transform="translate(9.144 0)">
        <path id="Trazado_993337" data-name="Trazado 993337" d="M145.827,157.125a.934.934,0,0,0,.914-.746,3.307,3.307,0,0,1,3.9-2.571.934.934,0,0,0,.376-1.829A5.177,5.177,0,0,0,144.911,156,.934.934,0,0,0,145.827,157.125Z" transform="translate(-127.992 -132.966)"/>
        <path id="Trazado_993338" data-name="Trazado 993338" d="M136.857,303.4a3.309,3.309,0,0,0,1.09,3.584,6.481,6.481,0,0,0-.471,6.12.934.934,0,0,0,1.708-.756,4.619,4.619,0,0,1,2.351-6.087.934.934,0,1,0-.756-1.708,6.459,6.459,0,0,0-1.607,1.016,1.438,1.438,0,0,1-.535-1.6.934.934,0,0,0-1.78-.566Z" transform="translate(-120.822 -265.06)"/>
        <path id="Trazado_993339" data-name="Trazado 993339" d="M54.184,10.714A.934.934,0,0,0,52.936,12.1,21.119,21.119,0,0,1,48.18,46.751a1.792,1.792,0,0,0-1,1.617v1.864H39.765V41.683a14.631,14.631,0,0,0,2.449-.088.934.934,0,0,0,.768-.614l1.033-2.9a11.35,11.35,0,0,0,1.6-.662L48.4,38.739a.934.934,0,0,0,.977-.108,14.543,14.543,0,0,0,2.471-2.471.934.934,0,0,0,.108-.977L50.629,32.4a11.342,11.342,0,0,0,.662-1.6l2.9-1.033A.934.934,0,0,0,54.809,29a14.646,14.646,0,0,0,0-3.493.933.933,0,0,0-.614-.768l-2.9-1.033a11.35,11.35,0,0,0-.662-1.6l1.323-2.783a.934.934,0,0,0-.108-.977,14.544,14.544,0,0,0-2.471-2.471.934.934,0,0,0-.977-.108l-2.783,1.323a11.348,11.348,0,0,0-1.6-.662l-1.033-2.9a.934.934,0,0,0-.768-.614,14.7,14.7,0,0,0-2.449-.087v-6.1a21.065,21.065,0,0,1,9.951,3,.934.934,0,1,0,.964-1.6A22.937,22.937,0,0,0,39.573,4.845a6.426,6.426,0,0,0-1.936-3.217C33.917-1.715,27.425.289,25.6,5.821A11.925,11.925,0,0,0,14.22,18.26a8.618,8.618,0,0,0-4.91,5.65.934.934,0,0,0,1.8.493,6.753,6.753,0,0,1,3.357-4.192,11.819,11.819,0,0,0,.66,2.109.934.934,0,0,0,1.722-.721A10.073,10.073,0,0,1,26.3,7.679a14.065,14.065,0,0,1,4.059.846.935.935,0,0,0,.361-1.8A11.8,11.8,0,0,0,27.567,5.9a6.364,6.364,0,0,1,5.324-4.013A4.538,4.538,0,0,1,37.9,6.4c0,55.831.217,49.906-.764,52.144-2.482,4.569-8.985,4.312-11.485-.163a10.037,10.037,0,0,0,2.61-1.335.934.934,0,0,0-1.083-1.522,8.217,8.217,0,1,1-9.351-13.513.934.934,0,1,0-1.045-1.547,10.125,10.125,0,0,0-1.907,1.67A4.427,4.427,0,0,1,13,41.411a4.52,4.52,0,0,1,2.524-8.261.934.934,0,1,0,0-1.867,6.358,6.358,0,0,0-1.972.312,6.767,6.767,0,0,1-2.445-3.614.934.934,0,0,0-1.8.491,8.625,8.625,0,0,0,2.444,4.044,6.39,6.39,0,0,0,1.934,11.266A10.1,10.1,0,0,0,23.774,58.819a8.687,8.687,0,0,0,7.688,4.91H44.712a2.809,2.809,0,0,0,2.806-2.806V59.852h1.225a2.875,2.875,0,0,0,2.118-4.81,2.87,2.87,0,0,0-1.814-4.794V48.406a22.987,22.987,0,0,0,5.138-37.692ZM39.765,21.67a5.631,5.631,0,1,1,0,11.168Zm1.656-6.959.992,2.788a.933.933,0,0,0,.628.586c2.035.57,2.192,1.255,2.948.9l2.673-1.271a12.664,12.664,0,0,1,1.349,1.349L48.74,21.733a.934.934,0,0,0,.03.859c1.031,1.831.673,2.44,1.452,2.717l2.788.992a12.788,12.788,0,0,1,0,1.908l-2.788.992c-.782.278-.419.881-1.452,2.717a.933.933,0,0,0-.03.859l1.271,2.673A12.688,12.688,0,0,1,48.662,36.8l-2.673-1.271c-.752-.358-.919.327-2.948.9a.933.933,0,0,0-.628.586L41.421,39.8a12.848,12.848,0,0,1-1.656.016v-5.1a7.5,7.5,0,1,0,0-14.926v-5.1a12.849,12.849,0,0,1,1.656.016ZM45.65,60.923a.939.939,0,0,1-.938.938h-7.94a8.263,8.263,0,0,0,1.761-2.009H45.65Zm4.1-7.82a1.006,1.006,0,0,1-1,1H46.37a.934.934,0,0,0,0,1.867h2.373a1,1,0,1,1,0,2.009H39.39a8.149,8.149,0,0,0,.363-2.009H42.3a.934.934,0,1,0,0-1.867H39.765V52.1h8.978a1.006,1.006,0,0,1,1,1Z" transform="translate(-9.144 0)"/>
        <path id="Trazado_993340" data-name="Trazado 993340" d="M455.626,219.168h-4.7a.934.934,0,1,0,0,1.867h4.7a.934.934,0,1,0,0-1.867Z" transform="translate(-395.108 -191.883)"/>
        <path id="Trazado_993341" data-name="Trazado 993341" d="M436.012,93.3l4.851-4.841a.934.934,0,1,0-1.319-1.322l-4.851,4.841a.934.934,0,0,0,1.319,1.322Z" transform="translate(-381.476 -76.047)"/>
        <path id="Trazado_993342" data-name="Trazado 993342" d="M440.682,315.636l-4.851-2.913a.934.934,0,0,0-.961,1.6l4.851,2.913a.934.934,0,0,0,.961-1.6Z" transform="translate(-381.474 -273.675)"/>
      </g>
    </g>
  </g>
</svg>
