<svg xmlns="http://www.w3.org/2000/svg" xmlns:xlink="http://www.w3.org/1999/xlink" width="400" height="475" viewBox="0 0 400 475">
  <defs>
    <clipPath id="clip-path">
      <rect id="Rectángulo_409689" data-name="Rectángulo 409689" width="400" height="475" transform="translate(-1562 2789)" fill="#fff" stroke="#707070" stroke-width="1" opacity="0.44"/>
    </clipPath>
    <clipPath id="clip-path-2">
      <path id="Trazado_992732" data-name="Trazado 992732" d="M281.911,237.863c10.455,43.585,7.933,81.483-5.633,84.647s-33.041-29.6-43.5-73.19-7.933-81.483,5.633-84.647S271.456,194.277,281.911,237.863Z" transform="translate(-226.331 -164.462)"/>
    </clipPath>
  </defs>
  <g id="Enmascarar_grupo_1098752" data-name="Enmascarar grupo 1098752" transform="translate(1562 -2789)" clip-path="url(#clip-path)">
    <path id="Trazado_991119" data-name="Trazado 991119" d="M51.8,357.385C32.965,339.685.112,286.232,20.953,232.65s35.189-38.926,37.29-77.245,49.227-90.4,144.519-69.852,96.656-14.145,144.8-3.835,97.091,33.255,89.275,99.609,2.131,57.788,5.089,88.622-27.895,150.878-186,131.254S74.58,378.783,51.8,357.385Z" transform="matrix(0.961, 0.276, -0.276, 0.961, -1565.008, 2791.166)" fill="#f2bbe8" opacity="0.7"/>
    <g id="Grupo_1158000" data-name="Grupo 1158000" transform="translate(-1742 1163)">
      <g id="Grupo_1157999" data-name="Grupo 1157999" transform="translate(33.594 1573)">
        <circle id="Elipse_11655" data-name="Elipse 11655" cx="75.519" cy="75.519" r="75.519" transform="translate(411.256 529.785) rotate(-135)" fill="#f492c8"/>
        <circle id="Elipse_11656" data-name="Elipse 11656" cx="105.563" cy="105.563" r="105.563" transform="translate(472.28)" fill="#f492c8"/>
        <circle id="Elipse_11657" data-name="Elipse 11657" cx="21.93" cy="21.93" r="21.93" transform="translate(488.693 499.518)" fill="#f492c8"/>
        <path id="Trazado_992710" data-name="Trazado 992710" d="M209.622,9.356a14.47,14.47,0,0,0,0-20.463,14.47,14.47,0,0,0-20.463,0,14.47,14.47,0,0,0,0,20.463A14.47,14.47,0,0,0,209.622,9.356Z" transform="translate(227.546 74.709)" fill="#f492c8"/>
        <path id="Trazado_992711" data-name="Trazado 992711" d="M104.726,404.14A9.528,9.528,0,1,0,99.593,416.6,9.529,9.529,0,0,0,104.726,404.14Z" transform="translate(412.594 32.716)" fill="#f492c8"/>
        <circle id="Elipse_11658" data-name="Elipse 11658" cx="191.799" cy="191.799" r="191.799" transform="translate(56.106 197.482)" fill="#fff"/>
        <circle id="Elipse_11659" data-name="Elipse 11659" cx="175.299" cy="175.299" r="175.299" transform="translate(247.91 637.192) rotate(-135)" fill="#5865ff"/>
        <g id="Grupo_1157469" data-name="Grupo 1157469" transform="translate(256.516 145.792)">
          <path id="Trazado_992712" data-name="Trazado 992712" d="M347.3,122.745h51.458a6.7,6.7,0,0,1,6.7,6.7V152.7a6.7,6.7,0,0,1-6.7,6.7H385.42l.733,8.553-8.8-8.8H347.969a6.7,6.7,0,0,1-6.7-6.527c-.163-6.47-.425-16.343-.665-22.953A6.694,6.694,0,0,1,347.3,122.745Z" transform="translate(-339.983 -122.127)" fill="#7c55ff"/>
          <path id="Trazado_992713" data-name="Trazado 992713" d="M386.859,169.539l-.82-9.571h12.666a7.327,7.327,0,0,0,7.319-7.318V129.392a7.328,7.328,0,0,0-7.319-7.319H347.248a7.313,7.313,0,0,0-7.315,7.576c.235,6.436.491,16.031.665,22.946a7.274,7.274,0,0,0,7.316,7.129h29.13ZM398.7,123.31a6.088,6.088,0,0,1,6.082,6.082V152.65a6.089,6.089,0,0,1-6.082,6.081H384.69l.646,7.537-7.782-7.781H347.912a6.043,6.043,0,0,1-6.08-5.924c-.175-6.918-.431-16.517-.665-22.959a6.075,6.075,0,0,1,6.079-6.295Z" transform="translate(-339.928 -122.073)"/>
        </g>
        <g id="Grupo_1157474" data-name="Grupo 1157474" transform="translate(264.482 153.212)">
          <g id="Grupo_1157470" data-name="Grupo 1157470">
            <path id="Trazado_992714" data-name="Trazado 992714" d="M385.283,142.3l7.918-12.159,8.342,12.017.142.142h-6.268v8.2h-3.582v-8.2Z" transform="translate(-385.283 -130.138)" fill="#fff"/>
          </g>
          <g id="Grupo_1157471" data-name="Grupo 1157471" transform="translate(40.874 2.649)">
            <path id="Trazado_992715" data-name="Trazado 992715" d="M348.3,137.671a4.516,4.516,0,0,1,2.864-4.191.743.743,0,0,1,.305-.052,1.658,1.658,0,0,1,.211.02,2.332,2.332,0,0,1,1.611-.431c2.717,0,4.559,2.611,4.559,5,0,2.853-2.716,4.559-5.075,4.559A4.725,4.725,0,0,1,348.3,137.671Zm4.611,2.611a2.33,2.33,0,0,0,2.515-2.148,2.532,2.532,0,0,0-2.368-2.8.891.891,0,0,0-.147.01,3.2,3.2,0,0,1-.4.022.669.669,0,0,1-.158-.011,2.533,2.533,0,0,0-1.643,2.284C350.714,138.808,351.525,140.282,352.914,140.282Z" transform="translate(-348.303 -133.017)" fill="#fff"/>
          </g>
          <g id="Grupo_1157472" data-name="Grupo 1157472" transform="translate(28.314 10.588)">
            <path id="Trazado_992716" data-name="Trazado 992716" d="M364.809,142.109a1.023,1.023,0,0,1,.3-.042,1.113,1.113,0,0,1,.2.022,2.276,2.276,0,0,1,1.621-.443c2.717,0,4.57,2.611,4.57,4.99,0,2.969-2.706,4.579-5.1,4.579a4.723,4.723,0,0,1-4.463-4.906A4.535,4.535,0,0,1,364.809,142.109Zm1.747,6.8a2.323,2.323,0,0,0,2.515-2.146,2.537,2.537,0,0,0-2.348-2.8.969.969,0,0,0-.167.011,2.969,2.969,0,0,1-.39.031.512.512,0,0,1-.178-.02,2.542,2.542,0,0,0-1.632,2.3C364.355,147.437,365.176,148.91,366.556,148.91Z" transform="translate(-361.945 -141.646)" fill="#fff"/>
          </g>
          <g id="Grupo_1157473" data-name="Grupo 1157473" transform="translate(35.156 2.07)">
            <path id="Trazado_992717" data-name="Trazado 992717" d="M355.9,134.746a3.392,3.392,0,0,1-.3-1.19,1.154,1.154,0,0,1,1.19-1.168c.927,0,1.221.979,1.454,1.853v-.011c5.422,14.161,5.506,14.3,5.591,14.413a1.306,1.306,0,0,1,.316.8,1.264,1.264,0,0,1-1.38,1.3c-.8,0-.948-.558-1.095-1.106v.011Z" transform="translate(-355.605 -132.388)" fill="#fff"/>
          </g>
        </g>
        <g id="Grupo_1157489" data-name="Grupo 1157489" transform="translate(188.889 155.944)">
          <g id="Grupo_1157488" data-name="Grupo 1157488" transform="translate(0 0)">
            <g id="Grupo_1157476" data-name="Grupo 1157476" transform="translate(0 133.161)">
              <path id="Trazado_992718" data-name="Trazado 992718" d="M480.582,316.695l-18.06,4.254c-8.823,2.078-17.771-3.858-19.986-13.258l-.834-3.544c-2.214-9.4,3.144-18.705,11.967-20.783l18.06-4.254Z" transform="translate(-440.034 -277.946)" fill="#000201"/>
              <path id="Trazado_992719" data-name="Trazado 992719" d="M462.69,321.982l18.061-4.254a1.163,1.163,0,0,0,.866-1.4l-8.852-37.585a1.164,1.164,0,0,0-1.4-.867L453.3,282.129a16.973,16.973,0,0,0-10.866,8.2,19.133,19.133,0,0,0-1.968,13.987l.835,3.543a19.117,19.117,0,0,0,8,11.636,17.516,17.516,0,0,0,6.475,2.653A16.65,16.65,0,0,0,462.69,321.982Zm16.393-6.255-16.928,3.987a14.659,14.659,0,0,1-11.558-2.161,16.81,16.81,0,0,1-7.024-10.23l-.835-3.543a16.815,16.815,0,0,1,1.72-12.29,14.664,14.664,0,0,1,9.381-7.092l16.928-3.987Z" transform="translate(-439.936 -277.844)" fill="#000201"/>
            </g>
            <g id="Grupo_1157477" data-name="Grupo 1157477" transform="translate(59.2 182.231)">
              <path id="Trazado_992720" data-name="Trazado 992720" d="M403.114,466.269h0c-8.526,2.008-17.339-4.438-19.685-14.4L360.49,354.48c-2.346-9.96,2.663-19.662,11.189-21.671h0c8.526-2.008,17.339,4.438,19.685,14.4L414.3,444.6C416.648,454.558,411.64,464.261,403.114,466.269Z" transform="translate(-358.744 -331.281)" fill="#000201"/>
              <path id="Trazado_992721" data-name="Trazado 992721" d="M403.287,467.3h0c9.137-2.153,14.544-12.5,12.055-23.071L392.4,346.841c-2.491-10.569-11.947-17.416-21.085-15.266a15.849,15.849,0,0,0-10.44,8.453,21.236,21.236,0,0,0-1.616,14.62L382.2,452.037a21.249,21.249,0,0,0,7.969,12.36,16.958,16.958,0,0,0,6.89,3.047A15.035,15.035,0,0,0,403.287,467.3ZM390.136,347.375l22.939,97.389c2.194,9.318-2.438,18.41-10.323,20.268a13.548,13.548,0,0,1-11.2-2.517,18.917,18.917,0,0,1-7.08-11.014L361.53,354.113a18.924,18.924,0,0,1,1.418-13.016,13.551,13.551,0,0,1,8.9-7.253,12.63,12.63,0,0,1,5.244-.114C383.091,334.849,388.429,340.131,390.136,347.375Zm12.906,118.8-.022,0Z" transform="translate(-358.65 -331.18)" fill="#000201"/>
            </g>
            <g id="Grupo_1157478" data-name="Grupo 1157478" transform="translate(42.608 161.088)">
              <path id="Trazado_992722" data-name="Trazado 992722" d="M422.517,342.225l-33.034,7.781a12.869,12.869,0,0,1-15.477-9.576l-1.734-7.364a12.868,12.868,0,0,1,9.576-15.476l33.034-7.781a12.869,12.869,0,0,1,15.477,9.576l1.734,7.364A12.869,12.869,0,0,1,422.517,342.225Z" transform="translate(-370.763 -308.3)" fill="#fff9f3"/>
              <path id="Trazado_992723" data-name="Trazado 992723" d="M389.646,351.039l33.034-7.781a14.032,14.032,0,0,0,10.441-16.879l-1.733-7.364a14.052,14.052,0,0,0-16.877-10.442l-33.035,7.78a14.052,14.052,0,0,0-10.441,16.879l1.735,7.365a14.008,14.008,0,0,0,16.877,10.442Zm39.476-31.488,1.733,7.364a11.716,11.716,0,0,1-8.709,14.075h0l-33.034,7.781a11.7,11.7,0,0,1-14.075-8.708L373.3,332.7a11.719,11.719,0,0,1,8.709-14.075l33.035-7.78a11.707,11.707,0,0,1,14.075,8.707Z" transform="translate(-370.658 -308.199)" fill="#000201"/>
            </g>
            <g id="Grupo_1157479" data-name="Grupo 1157479" transform="translate(9.044 98.988)">
              <path id="Trazado_992724" data-name="Trazado 992724" d="M466.976,320.969l-37.961,8.942c-18.546,4.368-37.354-8.108-42.007-27.866l-1.754-7.449c-4.654-19.758,6.609-39.317,25.154-43.686l37.961-8.941Z" transform="translate(-383.033 -240.802)" fill="#f381d8"/>
              <path id="Trazado_992725" data-name="Trazado 992725" d="M429.189,330.943,467.148,322a1.163,1.163,0,0,0,.866-1.4l-18.606-79a1.164,1.164,0,0,0-1.4-.867l-37.961,8.942A34.4,34.4,0,0,0,388.026,266.3a38.912,38.912,0,0,0-4,28.463l1.755,7.45c3.616,15.353,15.586,26.459,29.467,29.053A33.667,33.667,0,0,0,429.189,330.943ZM465.48,320l-36.826,8.674c-17.9,4.216-36.106-7.9-40.608-27l-1.754-7.45a36.6,36.6,0,0,1,3.753-26.764,32.085,32.085,0,0,1,20.536-15.518l36.828-8.675Z" transform="translate(-382.938 -240.701)" fill="#050004"/>
            </g>
            <g id="Grupo_1157480" data-name="Grupo 1157480" transform="translate(73.216 11.964)">
              <path id="Trazado_992726" data-name="Trazado 992726" d="M242.138,234.4h0l18.608,79h0c28.593-6.735,58.828-3.393,86.611,9.571l44.093,19.758L345.3,147.37l-29.924,39.811C296.3,211.184,270.73,227.668,242.138,234.4Z" transform="translate(-240.973 -146.213)" fill="#f8eee2"/>
              <path id="Trazado_992727" data-name="Trazado 992727" d="M392.09,343.53a1.163,1.163,0,0,0,.392-1.166L346.329,147a1.162,1.162,0,0,0-.9-.873,1.221,1.221,0,0,0-1.17.441l-29.906,39.786c-19.008,23.918-44.109,40.1-72.587,46.812a1.163,1.163,0,0,0-.866,1.4l18.606,79a1.164,1.164,0,0,0,1.4.867c28.484-6.712,58.171-3.425,85.868,9.5l44.093,19.758a1.187,1.187,0,0,0,.262.083A1.162,1.162,0,0,0,392.09,343.53ZM261.511,311.906l-18.074-76.743c28.526-6.987,53.661-23.345,72.766-47.383l28.431-37.824L389.671,340.6l-41.923-18.787a140.3,140.3,0,0,0-33.567-10.857A129.833,129.833,0,0,0,261.511,311.906Z" transform="translate(-240.872 -146.112)" fill="#000201"/>
            </g>
            <g id="Grupo_1157481" data-name="Grupo 1157481" transform="translate(73.216 11.964)">
              <path id="Trazado_992728" data-name="Trazado 992728" d="M242.138,234.4h0l18.608,79h0c28.593-6.735,58.828-3.393,86.611,9.571l44.093,19.758L345.3,147.37l-29.924,39.811C296.3,211.184,270.73,227.668,242.138,234.4Z" transform="translate(-240.973 -146.213)" fill="#f38200"/>
              <path id="Trazado_992729" data-name="Trazado 992729" d="M392.09,343.53a1.163,1.163,0,0,0,.392-1.166L346.329,147a1.162,1.162,0,0,0-.9-.873,1.221,1.221,0,0,0-1.17.441l-29.906,39.786c-19.008,23.918-44.109,40.1-72.587,46.812a1.163,1.163,0,0,0-.866,1.4l18.606,79a1.164,1.164,0,0,0,1.4.867c28.484-6.712,58.171-3.425,85.868,9.5l44.093,19.758a1.187,1.187,0,0,0,.262.083A1.162,1.162,0,0,0,392.09,343.53ZM261.511,311.906l-18.074-76.743c28.526-6.987,53.661-23.345,72.766-47.383l28.431-37.824L389.671,340.6l-41.923-18.787a140.3,140.3,0,0,0-33.567-10.857A129.833,129.833,0,0,0,261.511,311.906Z" transform="translate(-240.872 -146.112)" fill="#050004"/>
            </g>
            <g id="Grupo_1157482" data-name="Grupo 1157482" transform="translate(149.056)">
              <ellipse id="Elipse_11660" data-name="Elipse 11660" cx="103.307" cy="36.308" rx="103.307" ry="36.308" transform="translate(48.924 217.934) rotate(-103.697)" fill="#fff"/>
              <path id="Trazado_992730" data-name="Trazado 992730" d="M279.078,344.232c4.339-1.007,8.07-4,11.091-8.9,10.873-17.639,11.2-58.275.821-101.119-13.792-56.924-40.621-97.8-61.091-93.043-4.339,1.007-8.07,4-11.09,8.9-10.873,17.639-11.2,58.275-.821,101.119,12.422,51.269,35.423,89.514,54.82,93.136A15.164,15.164,0,0,0,279.078,344.232Zm9.646-109.473h0c10.245,42.279,10.027,82.2-.54,99.346-2.682,4.353-5.923,7-9.631,7.858a13.1,13.1,0,0,1-5.42.076c-18.2-3.4-40.846-41.733-52.88-91.4-10.245-42.279-10.027-82.2.54-99.345,2.682-4.353,5.923-7,9.631-7.858a13.109,13.109,0,0,1,5.423-.076C254.043,146.76,276.69,185.092,288.724,234.759Z" transform="translate(-194.74 -133.722)" fill="#000201"/>
            </g>
            <g id="Grupo_1157486" data-name="Grupo 1157486" transform="translate(176.205 28.846)">
              <path id="Trazado_992731" data-name="Trazado 992731" d="M281.911,237.863c10.455,43.585,7.933,81.483-5.633,84.647s-33.041-29.6-43.5-73.19-7.933-81.483,5.633-84.647S271.456,194.277,281.911,237.863Z" transform="translate(-226.331 -164.462)" fill="#000201"/>
              <g id="Grupo_1157483" data-name="Grupo 1157483" clip-path="url(#clip-path-2)">
                <path id="XMLID_00000178898668685982278900000014002242040172537008_" d="M307.3,245.389c10.179,42.433,7.724,79.33-5.484,82.41s-32.168-28.823-42.347-71.256-7.724-79.33,5.484-82.41S297.121,202.955,307.3,245.389Z" transform="translate(-276.261 -165.219)" fill="#000201"/>
              </g>
              <g id="Grupo_1157484" data-name="Grupo 1157484" clip-path="url(#clip-path-2)">
                <path id="Trazado_992733" data-name="Trazado 992733" d="M255.374,240.731l25.676-5.9c10.486-2.41,21.458,5.953,24.5,18.68h0c3.046,12.727-2.985,25-13.472,27.408l-25.676,5.9Z" transform="translate(-271.035 -170.056)" fill="#7c55ff"/>
                <path id="Trazado_992734" data-name="Trazado 992734" d="M266.565,287.854l25.675-5.9a18.526,18.526,0,0,0,11.53-8.528,26.843,26.843,0,0,0,2.818-20.286c-3.193-13.327-14.818-22.1-25.9-19.546l-25.677,5.9a1.168,1.168,0,0,0-.874,1.407l11.034,46.089a1.164,1.164,0,0,0,1.394.865Zm14.643-51.99c9.857-2.266,20.217,5.73,23.111,17.816A24.507,24.507,0,0,1,301.79,272.2a16.218,16.218,0,0,1-10.071,7.483l-24.55,5.643L256.677,241.5Z" transform="translate(-270.932 -169.955)" fill="#050004"/>
              </g>
              <g id="Grupo_1157485" data-name="Grupo 1157485" clip-path="url(#clip-path-2)">
                <path id="Trazado_992736" data-name="Trazado 992736" d="M255.249,258.82h0c-.923-4.889.212-9.656,2.623-12.43a18.245,18.245,0,0,1,4.405,9.178h0a20.2,20.2,0,0,1-1.4,12.408C258.238,266.429,256.056,263.094,255.249,258.82Z" transform="translate(-226.95 -171.014)" fill="#fff"/>
                <path id="Trazado_992737" data-name="Trazado 992737" d="M261.122,268.99a1.155,1.155,0,0,0,.709-.6,21.414,21.414,0,0,0,1.494-13.137,19.481,19.481,0,0,0-4.7-9.765,1.145,1.145,0,0,0-.87-.362,1.168,1.168,0,0,0-.853.4c-2.748,3.158-3.854,8.3-2.89,13.409h0c.842,4.453,3.154,8.171,6.189,9.946a1.191,1.191,0,0,0,.374.14A1.14,1.14,0,0,0,261.122,268.99ZM256.3,258.5a14.954,14.954,0,0,1,1.543-10.34,17.959,17.959,0,0,1,3.194,7.521,19.664,19.664,0,0,1-.749,10.411A13.2,13.2,0,0,1,256.3,258.5Z" transform="translate(-226.854 -170.912)" fill="#050004"/>
              </g>
            </g>
            <g id="Grupo_1157487" data-name="Grupo 1157487" transform="translate(73.218 96.772)">
              <path id="Trazado_992739" data-name="Trazado 992739" d="M383.882,239.558l18.237,79.566-7.93,1.394-18.653-78.742Z" transform="translate(-374.374 -238.393)" fill="#fff9f3"/>
              <path id="Trazado_992740" data-name="Trazado 992740" d="M394.284,321.564l7.931-1.395a1.168,1.168,0,0,0,.935-1.408L384.911,239.2a1.168,1.168,0,0,0-1.435-.867l-8.343,2.217a1.164,1.164,0,0,0-.834,1.395l18.652,78.743a1.164,1.164,0,0,0,.919.877A1.208,1.208,0,0,0,394.284,321.564Zm-11.376-80.672L400.6,318.087l-5.642.991-18.136-76.57Z" transform="translate(-374.267 -238.292)" fill="#000201"/>
            </g>
          </g>
        </g>
        <g id="Grupo_1157490" data-name="Grupo 1157490" transform="translate(441.442 166.447)">
          <path id="Trazado_992741" data-name="Trazado 992741" d="M206.148,145.79,191.31,183.183l-5.343-9.5-18.4,24.335,16.766-41.7,5.787,8.458Z" transform="translate(-166.404 -144.625)" fill="#ffd387"/>
          <path id="Trazado_992742" data-name="Trazado 992742" d="M168.4,198.622l17.327-22.916,4.469,7.946a1.164,1.164,0,0,0,2.1-.142l14.837-37.393a1.164,1.164,0,0,0-1.972-1.18L190.12,162.76l-4.925-7.194a1.166,1.166,0,0,0-2.042.224l-16.767,41.695a1.165,1.165,0,0,0,2.01,1.138Zm20.664-33.282a1.181,1.181,0,0,0,.9.506,1.164,1.164,0,0,0,.948-.413l11.416-13.528-11.3,28.478-4.143-7.368a1.166,1.166,0,0,0-1.946-.132l-13.13,17.364L184.5,158.681Z" transform="translate(-166.302 -144.524)" fill="#050004"/>
        </g>
        <g id="Grupo_1157491" data-name="Grupo 1157491" transform="translate(458.82 296.738)">
          <path id="Trazado_992743" data-name="Trazado 992743" d="M185.623,308.455,147.9,304.939l7.17-7.342-26.864-10.19,42.123,4.122L164.216,299Z" transform="translate(-127.042 -286.241)" fill="#ffd387"/>
          <path id="Trazado_992744" data-name="Trazado 992744" d="M147.69,306l37.722,3.515a1.165,1.165,0,0,0,.579-2.227l-20.006-8.839,5.145-6.284a1.165,1.165,0,0,0-.789-1.9l-42.123-4.122a1.166,1.166,0,0,0-.526,2.249l25.2,9.559-5.926,6.069a1.166,1.166,0,0,0,.62,1.96C147.617,305.99,147.653,306,147.69,306Zm20.255-13.624-4.734,5.783a1.165,1.165,0,0,0,.431,1.805l14.868,6.567-28.172-2.625,5.462-5.595a1.166,1.166,0,0,0-.42-1.9l-18.691-7.09Z" transform="translate(-126.94 -286.14)" fill="#050004"/>
        </g>
        <g id="Grupo_1157492" data-name="Grupo 1157492" transform="translate(435.906 217.921)">
          <path id="Trazado_992745" data-name="Trazado 992745" d="M181.834,213.164l-58.711,28.177,4.076-17.161-48.608,8.737,65.732-31.177-2.406,16.415Z" transform="translate(-77.425 -200.573)" fill="#ffd387"/>
          <path id="Trazado_992746" data-name="Trazado 992746" d="M123.527,242.29l58.712-28.177a1.165,1.165,0,0,0-.65-2.206l-38.4,4.8,2.184-14.9a1.166,1.166,0,0,0-1.653-1.223L77.989,231.761a1.166,1.166,0,0,0,.708,2.2l46.856-8.42-3.664,15.43a1.162,1.162,0,0,0,.918,1.415A1.178,1.178,0,0,0,123.527,242.29Zm3.363-19.357-40,7.189,55.866-26.5-2.09,14.259a1.166,1.166,0,0,0,1.3,1.326l32.823-4.1-50.066,24.026,3.51-14.784a1.165,1.165,0,0,0-.918-1.415A1.133,1.133,0,0,0,126.889,222.933Z" transform="translate(-77.324 -200.472)" fill="#050004"/>
        </g>
        <g id="Grupo_1157508" data-name="Grupo 1157508" transform="translate(353.807 405.805)">
          <g id="Grupo_1157498" data-name="Grupo 1157498" transform="translate(13.031)">
            <g id="Grupo_1157496" data-name="Grupo 1157496">
              <path id="Trazado_992747" data-name="Trazado 992747" d="M290.888,413.643a.825.825,0,0,0,.825-.825v-7.3a.825.825,0,0,0-1.651,0v7.3A.825.825,0,0,0,290.888,413.643Z" transform="translate(-290.063 -404.688)"/>
            </g>
            <g id="Grupo_1157497" data-name="Grupo 1157497" transform="translate(0 18.758)">
              <path id="Trazado_992748" data-name="Trazado 992748" d="M290.888,434.032a.825.825,0,0,0,.825-.825v-7.3a.825.825,0,1,0-1.651,0v7.3A.826.826,0,0,0,290.888,434.032Z" transform="translate(-290.063 -425.077)"/>
            </g>
          </g>
          <g id="Grupo_1157501" data-name="Grupo 1157501" transform="translate(0 13.03)">
            <g id="Grupo_1157499" data-name="Grupo 1157499">
              <path id="Trazado_992749" data-name="Trazado 992749" d="M297.112,420.5h7.3a.825.825,0,0,0,0-1.651h-7.3a.825.825,0,1,0,0,1.651Z" transform="translate(-296.287 -418.851)"/>
            </g>
            <g id="Grupo_1157500" data-name="Grupo 1157500" transform="translate(18.759)">
              <path id="Trazado_992750" data-name="Trazado 992750" d="M276.722,420.5h7.3a.825.825,0,0,0,0-1.651h-7.3a.825.825,0,0,0,0,1.651Z" transform="translate(-275.897 -418.851)"/>
            </g>
          </g>
          <g id="Grupo_1157504" data-name="Grupo 1157504" transform="translate(3.819 3.817)">
            <g id="Grupo_1157502" data-name="Grupo 1157502" transform="translate(13.264 13.264)">
              <line id="Línea_1034" data-name="Línea 1034" x1="5.165" y1="5.164" transform="translate(0.825 0.826)"/>
              <path id="Trazado_992751" data-name="Trazado 992751" d="M286.036,430.069a.825.825,0,0,0,.583-1.409l-5.165-5.165a.825.825,0,0,0-1.167,1.167l5.165,5.165A.818.818,0,0,0,286.036,430.069Z" transform="translate(-280.047 -423.253)"/>
            </g>
            <g id="Grupo_1157503" data-name="Grupo 1157503">
              <line id="Línea_1035" data-name="Línea 1035" x1="5.164" y1="5.165" transform="translate(0.825 0.825)"/>
              <path id="Trazado_992752" data-name="Trazado 992752" d="M300.453,415.651a.825.825,0,0,0,.583-1.409l-5.165-5.164a.825.825,0,1,0-1.167,1.167l5.165,5.164A.82.82,0,0,0,300.453,415.651Z" transform="translate(-294.463 -408.836)"/>
            </g>
          </g>
          <g id="Grupo_1157507" data-name="Grupo 1157507" transform="translate(3.819 3.817)">
            <g id="Grupo_1157505" data-name="Grupo 1157505" transform="translate(13.263)">
              <line id="Línea_1036" data-name="Línea 1036" x1="5.165" y2="5.165" transform="translate(0.826 0.825)"/>
              <path id="Trazado_992753" data-name="Trazado 992753" d="M280.872,415.651a.824.824,0,0,0,.583-.242l5.165-5.164a.825.825,0,0,0-1.167-1.167l-5.165,5.164a.825.825,0,0,0,.583,1.409Z" transform="translate(-280.047 -408.836)"/>
            </g>
            <g id="Grupo_1157506" data-name="Grupo 1157506" transform="translate(0 13.264)">
              <line id="Línea_1037" data-name="Línea 1037" x1="5.164" y2="5.164" transform="translate(0.825 0.826)"/>
              <path id="Trazado_992754" data-name="Trazado 992754" d="M295.288,430.069a.82.82,0,0,0,.583-.242l5.165-5.165a.825.825,0,0,0-1.167-1.167L294.7,428.66a.825.825,0,0,0,.583,1.409Z" transform="translate(-294.463 -423.253)"/>
            </g>
          </g>
        </g>
        <g id="Grupo_1157521" data-name="Grupo 1157521" transform="translate(478.169 471.804)">
          <g id="Grupo_1157511" data-name="Grupo 1157511" transform="translate(13.031)">
            <g id="Grupo_1157509" data-name="Grupo 1157509">
              <path id="Trazado_992755" data-name="Trazado 992755" d="M155.715,485.38a.825.825,0,0,0,.825-.825v-7.3a.825.825,0,0,0-1.651,0v7.3A.825.825,0,0,0,155.715,485.38Z" transform="translate(-154.89 -476.424)"/>
            </g>
            <g id="Grupo_1157510" data-name="Grupo 1157510" transform="translate(0 18.759)">
              <path id="Trazado_992756" data-name="Trazado 992756" d="M155.715,505.769a.825.825,0,0,0,.825-.825v-7.3a.825.825,0,1,0-1.651,0v7.3A.825.825,0,0,0,155.715,505.769Z" transform="translate(-154.89 -496.814)"/>
            </g>
          </g>
          <g id="Grupo_1157514" data-name="Grupo 1157514" transform="translate(0 13.032)">
            <g id="Grupo_1157512" data-name="Grupo 1157512">
              <path id="Trazado_992757" data-name="Trazado 992757" d="M161.939,492.24h7.305a.825.825,0,1,0,0-1.651h-7.305a.825.825,0,1,0,0,1.651Z" transform="translate(-161.114 -490.589)"/>
            </g>
            <g id="Grupo_1157513" data-name="Grupo 1157513" transform="translate(18.758)">
              <path id="Trazado_992758" data-name="Trazado 992758" d="M141.55,492.24h7.305a.825.825,0,0,0,0-1.651H141.55a.825.825,0,1,0,0,1.651Z" transform="translate(-140.725 -490.589)"/>
            </g>
          </g>
          <g id="Grupo_1157517" data-name="Grupo 1157517" transform="translate(3.818 3.819)">
            <g id="Grupo_1157515" data-name="Grupo 1157515" transform="translate(13.264 13.264)">
              <line id="Línea_1038" data-name="Línea 1038" x1="5.165" y1="5.165" transform="translate(0.825 0.825)"/>
              <path id="Trazado_992759" data-name="Trazado 992759" d="M150.864,501.807a.825.825,0,0,0,.583-1.409l-5.165-5.165a.825.825,0,0,0-1.167,1.167l5.165,5.165A.822.822,0,0,0,150.864,501.807Z" transform="translate(-144.874 -494.991)"/>
            </g>
            <g id="Grupo_1157516" data-name="Grupo 1157516">
              <line id="Línea_1039" data-name="Línea 1039" x1="5.165" y1="5.165" transform="translate(0.825 0.824)"/>
              <path id="Trazado_992760" data-name="Trazado 992760" d="M165.281,487.389a.825.825,0,0,0,.583-1.409l-5.165-5.164a.825.825,0,0,0-1.167,1.167l5.165,5.164A.825.825,0,0,0,165.281,487.389Z" transform="translate(-159.292 -480.574)"/>
            </g>
          </g>
          <g id="Grupo_1157520" data-name="Grupo 1157520" transform="translate(3.818 3.819)">
            <g id="Grupo_1157518" data-name="Grupo 1157518" transform="translate(13.264)">
              <line id="Línea_1040" data-name="Línea 1040" x1="5.165" y2="5.165" transform="translate(0.825 0.824)"/>
              <path id="Trazado_992761" data-name="Trazado 992761" d="M145.7,487.389a.82.82,0,0,0,.583-.242l5.165-5.164a.825.825,0,0,0-1.167-1.167l-5.165,5.164a.825.825,0,0,0,.583,1.409Z" transform="translate(-144.874 -480.574)"/>
            </g>
            <g id="Grupo_1157519" data-name="Grupo 1157519" transform="translate(0 13.264)">
              <line id="Línea_1041" data-name="Línea 1041" x1="5.165" y2="5.165" transform="translate(0.825 0.825)"/>
              <path id="Trazado_992762" data-name="Trazado 992762" d="M160.116,501.807a.822.822,0,0,0,.583-.242l5.165-5.165a.825.825,0,0,0-1.167-1.167l-5.165,5.165a.825.825,0,0,0,.583,1.409Z" transform="translate(-159.292 -494.991)"/>
            </g>
          </g>
        </g>
        <g id="Grupo_1157534" data-name="Grupo 1157534" transform="translate(191.761 152.915)">
          <g id="Grupo_1157524" data-name="Grupo 1157524" transform="translate(13.031)">
            <g id="Grupo_1157522" data-name="Grupo 1157522">
              <path id="Trazado_992763" data-name="Trazado 992763" d="M467.02,138.77a.825.825,0,0,0,.825-.825v-7.3a.825.825,0,1,0-1.651,0v7.3A.826.826,0,0,0,467.02,138.77Z" transform="translate(-466.195 -129.815)"/>
            </g>
            <g id="Grupo_1157523" data-name="Grupo 1157523" transform="translate(0 18.757)">
              <path id="Trazado_992764" data-name="Trazado 992764" d="M467.02,159.158a.825.825,0,0,0,.825-.825v-7.3a.825.825,0,1,0-1.651,0v7.3A.825.825,0,0,0,467.02,159.158Z" transform="translate(-466.195 -150.203)"/>
            </g>
          </g>
          <g id="Grupo_1157527" data-name="Grupo 1157527" transform="translate(0 13.03)">
            <g id="Grupo_1157525" data-name="Grupo 1157525">
              <path id="Trazado_992765" data-name="Trazado 992765" d="M473.243,145.629h7.306a.825.825,0,0,0,0-1.651h-7.306a.825.825,0,1,0,0,1.651Z" transform="translate(-472.418 -143.978)"/>
            </g>
            <g id="Grupo_1157526" data-name="Grupo 1157526" transform="translate(18.759)">
              <path id="Trazado_992766" data-name="Trazado 992766" d="M452.854,145.629h7.305a.825.825,0,0,0,0-1.651h-7.305a.825.825,0,0,0,0,1.651Z" transform="translate(-452.029 -143.978)"/>
            </g>
          </g>
          <g id="Grupo_1157530" data-name="Grupo 1157530" transform="translate(3.819 3.817)">
            <g id="Grupo_1157528" data-name="Grupo 1157528" transform="translate(13.263 13.264)">
              <line id="Línea_1042" data-name="Línea 1042" x1="5.165" y1="5.165" transform="translate(0.826 0.825)"/>
              <path id="Trazado_992767" data-name="Trazado 992767" d="M462.169,155.2a.825.825,0,0,0,.583-1.409l-5.165-5.165a.825.825,0,0,0-1.167,1.167l5.165,5.165A.82.82,0,0,0,462.169,155.2Z" transform="translate(-456.18 -148.38)"/>
            </g>
            <g id="Grupo_1157529" data-name="Grupo 1157529">
              <line id="Línea_1043" data-name="Línea 1043" x1="5.164" y1="5.165" transform="translate(0.825 0.825)"/>
              <path id="Trazado_992768" data-name="Trazado 992768" d="M476.585,140.778a.825.825,0,0,0,.583-1.409L472,134.2a.825.825,0,1,0-1.167,1.167L476,140.536A.82.82,0,0,0,476.585,140.778Z" transform="translate(-470.595 -133.963)"/>
            </g>
          </g>
          <g id="Grupo_1157533" data-name="Grupo 1157533" transform="translate(3.819 3.817)">
            <g id="Grupo_1157531" data-name="Grupo 1157531" transform="translate(13.263)">
              <line id="Línea_1044" data-name="Línea 1044" x1="5.165" y2="5.165" transform="translate(0.826 0.825)"/>
              <path id="Trazado_992769" data-name="Trazado 992769" d="M457,140.778a.824.824,0,0,0,.583-.242l5.165-5.164a.825.825,0,0,0-1.167-1.167l-5.165,5.164a.825.825,0,0,0,.583,1.409Z" transform="translate(-456.18 -133.963)"/>
            </g>
            <g id="Grupo_1157532" data-name="Grupo 1157532" transform="translate(0 13.264)">
              <line id="Línea_1045" data-name="Línea 1045" x1="5.164" y2="5.165" transform="translate(0.825 0.825)"/>
              <path id="Trazado_992770" data-name="Trazado 992770" d="M471.42,155.2a.82.82,0,0,0,.583-.242l5.165-5.165A.825.825,0,1,0,476,148.622l-5.165,5.165a.825.825,0,0,0,.583,1.409Z" transform="translate(-470.595 -148.38)"/>
            </g>
          </g>
        </g>
        <g id="Grupo_1157547" data-name="Grupo 1157547" transform="translate(175.026 440.518)">
          <g id="Grupo_1157537" data-name="Grupo 1157537" transform="translate(13.031)">
            <g id="Grupo_1157535" data-name="Grupo 1157535">
              <path id="Trazado_992771" data-name="Trazado 992771" d="M485.209,451.375a.825.825,0,0,0,.825-.825v-7.305a.825.825,0,0,0-1.651,0v7.305A.825.825,0,0,0,485.209,451.375Z" transform="translate(-484.384 -442.419)"/>
            </g>
            <g id="Grupo_1157536" data-name="Grupo 1157536" transform="translate(0 18.759)">
              <path id="Trazado_992772" data-name="Trazado 992772" d="M485.209,471.764a.825.825,0,0,0,.825-.825v-7.3a.825.825,0,0,0-1.651,0v7.3A.825.825,0,0,0,485.209,471.764Z" transform="translate(-484.384 -462.809)"/>
            </g>
          </g>
          <g id="Grupo_1157540" data-name="Grupo 1157540" transform="translate(0 13.032)">
            <g id="Grupo_1157538" data-name="Grupo 1157538">
              <path id="Trazado_992773" data-name="Trazado 992773" d="M491.433,458.235h7.305a.825.825,0,0,0,0-1.651h-7.305a.825.825,0,0,0,0,1.651Z" transform="translate(-490.608 -456.584)"/>
            </g>
            <g id="Grupo_1157539" data-name="Grupo 1157539" transform="translate(18.758)">
              <path id="Trazado_992774" data-name="Trazado 992774" d="M471.044,458.235h7.3a.825.825,0,0,0,0-1.651h-7.3a.825.825,0,0,0,0,1.651Z" transform="translate(-470.219 -456.584)"/>
            </g>
          </g>
          <g id="Grupo_1157543" data-name="Grupo 1157543" transform="translate(3.819 3.819)">
            <g id="Grupo_1157541" data-name="Grupo 1157541" transform="translate(13.263 13.264)">
              <line id="Línea_1046" data-name="Línea 1046" x1="5.164" y1="5.165" transform="translate(0.826 0.825)"/>
              <path id="Trazado_992775" data-name="Trazado 992775" d="M480.358,467.8a.825.825,0,0,0,.583-1.409l-5.165-5.165a.825.825,0,0,0-1.167,1.167l5.165,5.165A.824.824,0,0,0,480.358,467.8Z" transform="translate(-474.368 -460.986)"/>
            </g>
            <g id="Grupo_1157542" data-name="Grupo 1157542">
              <line id="Línea_1047" data-name="Línea 1047" x1="5.165" y1="5.165" transform="translate(0.824 0.824)"/>
              <path id="Trazado_992776" data-name="Trazado 992776" d="M494.774,453.384a.825.825,0,0,0,.583-1.409l-5.165-5.164a.825.825,0,0,0-1.167,1.167l5.165,5.164A.822.822,0,0,0,494.774,453.384Z" transform="translate(-488.784 -446.569)"/>
            </g>
          </g>
          <g id="Grupo_1157546" data-name="Grupo 1157546" transform="translate(3.819 3.819)">
            <g id="Grupo_1157544" data-name="Grupo 1157544" transform="translate(13.263)">
              <line id="Línea_1048" data-name="Línea 1048" x1="5.164" y2="5.165" transform="translate(0.826 0.824)"/>
              <path id="Trazado_992777" data-name="Trazado 992777" d="M475.193,453.384a.82.82,0,0,0,.583-.242l5.165-5.164a.825.825,0,0,0-1.167-1.167l-5.165,5.164a.825.825,0,0,0,.583,1.409Z" transform="translate(-474.368 -446.569)"/>
            </g>
            <g id="Grupo_1157545" data-name="Grupo 1157545" transform="translate(0 13.264)">
              <line id="Línea_1049" data-name="Línea 1049" x1="5.165" y2="5.165" transform="translate(0.824 0.825)"/>
              <path id="Trazado_992778" data-name="Trazado 992778" d="M489.609,467.8a.824.824,0,0,0,.583-.242l5.165-5.165a.825.825,0,0,0-1.167-1.167l-5.165,5.165a.825.825,0,0,0,.583,1.409Z" transform="translate(-488.784 -460.986)"/>
            </g>
          </g>
        </g>
        <g id="Grupo_1157560" data-name="Grupo 1157560" transform="translate(397.398 113.658)">
          <g id="Grupo_1157550" data-name="Grupo 1157550" transform="translate(13.031)">
            <g id="Grupo_1157548" data-name="Grupo 1157548">
              <path id="Trazado_992779" data-name="Trazado 992779" d="M70.141,320.569a.825.825,0,0,0,.825-.825v-7.3a.825.825,0,0,0-1.651,0v7.3A.825.825,0,0,0,70.141,320.569Z" transform="translate(-69.316 -311.614)"/>
            </g>
            <g id="Grupo_1157549" data-name="Grupo 1157549" transform="translate(0 18.758)">
              <path id="Trazado_992780" data-name="Trazado 992780" d="M70.141,340.958a.825.825,0,0,0,.825-.825v-7.3a.825.825,0,0,0-1.651,0v7.3A.825.825,0,0,0,70.141,340.958Z" transform="translate(-69.316 -332.003)"/>
            </g>
          </g>
          <g id="Grupo_1157553" data-name="Grupo 1157553" transform="translate(0 13.031)">
            <g id="Grupo_1157551" data-name="Grupo 1157551">
              <path id="Trazado_992781" data-name="Trazado 992781" d="M76.365,327.429H83.67a.825.825,0,0,0,0-1.651H76.365a.825.825,0,0,0,0,1.651Z" transform="translate(-75.54 -325.778)"/>
            </g>
            <g id="Grupo_1157552" data-name="Grupo 1157552" transform="translate(18.759)">
              <path id="Trazado_992782" data-name="Trazado 992782" d="M55.975,327.429H63.28a.825.825,0,0,0,0-1.651H55.975a.825.825,0,0,0,0,1.651Z" transform="translate(-55.15 -325.778)"/>
            </g>
          </g>
          <g id="Grupo_1157556" data-name="Grupo 1157556" transform="translate(3.819 3.818)">
            <g id="Grupo_1157554" data-name="Grupo 1157554" transform="translate(13.263 13.264)">
              <line id="Línea_1050" data-name="Línea 1050" x1="5.165" y1="5.165" transform="translate(0.826 0.825)"/>
              <path id="Trazado_992783" data-name="Trazado 992783" d="M65.29,337a.825.825,0,0,0,.583-1.409l-5.165-5.165a.825.825,0,1,0-1.167,1.167l5.165,5.165A.82.82,0,0,0,65.29,337Z" transform="translate(-59.3 -330.18)"/>
            </g>
            <g id="Grupo_1157555" data-name="Grupo 1157555">
              <line id="Línea_1051" data-name="Línea 1051" x1="5.165" y1="5.164" transform="translate(0.824 0.825)"/>
              <path id="Trazado_992784" data-name="Trazado 992784" d="M79.706,322.578a.825.825,0,0,0,.583-1.409l-5.165-5.164a.825.825,0,1,0-1.167,1.167l5.165,5.164A.824.824,0,0,0,79.706,322.578Z" transform="translate(-73.717 -315.763)"/>
            </g>
          </g>
          <g id="Grupo_1157559" data-name="Grupo 1157559" transform="translate(3.819 3.818)">
            <g id="Grupo_1157557" data-name="Grupo 1157557" transform="translate(13.263)">
              <line id="Línea_1052" data-name="Línea 1052" x1="5.165" y2="5.164" transform="translate(0.826 0.825)"/>
              <path id="Trazado_992785" data-name="Trazado 992785" d="M60.125,322.578a.824.824,0,0,0,.583-.242l5.165-5.164a.825.825,0,1,0-1.167-1.167l-5.165,5.164a.825.825,0,0,0,.583,1.409Z" transform="translate(-59.3 -315.763)"/>
            </g>
            <g id="Grupo_1157558" data-name="Grupo 1157558" transform="translate(0 13.264)">
              <line id="Línea_1053" data-name="Línea 1053" x1="5.165" y2="5.165" transform="translate(0.824 0.825)"/>
              <path id="Trazado_992786" data-name="Trazado 992786" d="M74.541,337a.82.82,0,0,0,.583-.242l5.165-5.165a.825.825,0,0,0-1.167-1.167l-5.165,5.165A.825.825,0,0,0,74.541,337Z" transform="translate(-73.717 -330.18)"/>
            </g>
          </g>
        </g>
      </g>
      <path id="Trazado_992921" data-name="Trazado 992921" d="M883.24,159.964l2.371-9.064a.439.439,0,0,1,.455-.327,35.361,35.361,0,0,0,14.638-2.015.438.438,0,0,1,.527.191l4.732,8.085a2.765,2.765,0,0,0,3.783.99l5.934-3.474a2.77,2.77,0,0,0,.988-3.783l-4.732-8.084a.435.435,0,0,1,.092-.553,35.374,35.374,0,0,0,8.922-11.778.438.438,0,0,1,.508-.238l9.065,2.371a2.768,2.768,0,0,0,3.375-1.975l1.74-6.652a2.765,2.765,0,0,0-1.976-3.375l-9.063-2.371a.446.446,0,0,1-.327-.455,35.205,35.205,0,0,0-2.014-14.638.435.435,0,0,1,.191-.527l8.084-4.732a2.769,2.769,0,0,0,.99-3.784l-3.474-5.933a2.765,2.765,0,0,0-3.783-.989l-8.083,4.732a.438.438,0,0,1-.553-.092,35.365,35.365,0,0,0-11.777-8.923.441.441,0,0,1-.238-.508L905.985,73a2.765,2.765,0,0,0-1.974-3.375l-6.652-1.74a2.77,2.77,0,0,0-3.375,1.976l-2.371,9.064a.439.439,0,0,1-.455.327,35.341,35.341,0,0,0-14.638,2.014.438.438,0,0,1-.527-.191l-4.731-8.085a2.768,2.768,0,0,0-3.783-.99l-5.934,3.474a2.765,2.765,0,0,0-.99,3.783l4.732,8.085a.437.437,0,0,1-.092.553,35.362,35.362,0,0,0-8.923,11.777.438.438,0,0,1-.507.238L846.7,97.539a2.766,2.766,0,0,0-3.375,1.975l-1.74,6.651a2.766,2.766,0,0,0,1.975,3.375l9.065,2.371a.442.442,0,0,1,.327.455,35.188,35.188,0,0,0,2.014,14.638.436.436,0,0,1-.191.527l-8.085,4.732a2.77,2.77,0,0,0-.99,3.783l3.474,5.933a2.765,2.765,0,0,0,3.783.99l8.085-4.731a.438.438,0,0,1,.553.092,35.346,35.346,0,0,0,11.777,8.922.439.439,0,0,1,.238.507l-2.371,9.065a2.77,2.77,0,0,0,1.976,3.375l6.65,1.74a2.766,2.766,0,0,0,3.375-1.976Zm1.376-26.442a19.035,19.035,0,1,1,14.329-2.625A19.065,19.065,0,0,1,884.617,133.522Z" transform="translate(-639.013 1547.76)" fill="#7081f9"/>
      <path id="Trazado_993134" data-name="Trazado 993134" d="M866.277,122.511l1.408-5.381a.261.261,0,0,1,.27-.194,20.992,20.992,0,0,0,8.69-1.2.26.26,0,0,1,.313.113l2.809,4.8a1.642,1.642,0,0,0,2.246.587l3.523-2.062a1.644,1.644,0,0,0,.587-2.246l-2.809-4.8a.258.258,0,0,1,.054-.328,21,21,0,0,0,5.3-6.992.26.26,0,0,1,.3-.141l5.381,1.408a1.643,1.643,0,0,0,2-1.173l1.033-3.949a1.641,1.641,0,0,0-1.173-2l-5.38-1.408a.265.265,0,0,1-.194-.27,20.9,20.9,0,0,0-1.2-8.69.258.258,0,0,1,.113-.313l4.8-2.809a1.644,1.644,0,0,0,.587-2.246L892.878,79.7a1.641,1.641,0,0,0-2.246-.587l-4.8,2.809a.26.26,0,0,1-.328-.054,20.994,20.994,0,0,0-6.992-5.3.262.262,0,0,1-.141-.3l1.407-5.381a1.641,1.641,0,0,0-1.172-2l-3.949-1.033a1.644,1.644,0,0,0-2,1.173L871.247,74.4a.261.261,0,0,1-.27.194,20.98,20.98,0,0,0-8.69,1.2.26.26,0,0,1-.313-.113l-2.809-4.8a1.643,1.643,0,0,0-2.246-.587L853.4,72.354a1.641,1.641,0,0,0-.587,2.246l2.809,4.8a.259.259,0,0,1-.054.328,20.993,20.993,0,0,0-5.3,6.992.26.26,0,0,1-.3.141l-5.381-1.408a1.642,1.642,0,0,0-2,1.173l-1.033,3.948a1.642,1.642,0,0,0,1.173,2l5.381,1.408a.262.262,0,0,1,.194.27,20.89,20.89,0,0,0,1.2,8.69.259.259,0,0,1-.113.313l-4.8,2.809a1.644,1.644,0,0,0-.587,2.246l2.062,3.522a1.641,1.641,0,0,0,2.246.587l4.8-2.809a.26.26,0,0,1,.328.054,20.984,20.984,0,0,0,6.992,5.3.26.26,0,0,1,.141.3l-1.408,5.381a1.644,1.644,0,0,0,1.173,2l3.948,1.033a1.642,1.642,0,0,0,2-1.173Zm.817-15.7a11.3,11.3,0,1,1,8.507-1.559A11.318,11.318,0,0,1,867.094,106.814Z" transform="translate(-539.013 1579.205)" fill="#7081f9"/>
      <path id="Trazado_993135" data-name="Trazado 993135" d="M860.161,109.009l1.06-4.053a.2.2,0,0,1,.2-.146,15.812,15.812,0,0,0,6.546-.9.2.2,0,0,1,.236.085l2.116,3.615a1.236,1.236,0,0,0,1.692.442l2.653-1.553a1.239,1.239,0,0,0,.442-1.692l-2.116-3.615a.194.194,0,0,1,.041-.247,15.818,15.818,0,0,0,3.99-5.267.2.2,0,0,1,.227-.106l4.053,1.06a1.238,1.238,0,0,0,1.509-.883l.778-2.974a1.236,1.236,0,0,0-.884-1.509l-4.053-1.06a.2.2,0,0,1-.146-.2,15.743,15.743,0,0,0-.9-6.546.2.2,0,0,1,.085-.236l3.615-2.116a1.238,1.238,0,0,0,.442-1.692L880.2,76.76a1.236,1.236,0,0,0-1.692-.442l-3.615,2.116a.2.2,0,0,1-.247-.041,15.813,15.813,0,0,0-5.266-3.99.2.2,0,0,1-.106-.227l1.06-4.053a1.236,1.236,0,0,0-.883-1.509l-2.975-.778a1.239,1.239,0,0,0-1.509.884l-1.06,4.053a.2.2,0,0,1-.2.146,15.8,15.8,0,0,0-6.546.9.2.2,0,0,1-.236-.085L854.8,70.118a1.238,1.238,0,0,0-1.692-.442l-2.654,1.553a1.236,1.236,0,0,0-.442,1.692l2.116,3.615a.2.2,0,0,1-.041.247,15.812,15.812,0,0,0-3.99,5.266.2.2,0,0,1-.227.106l-4.053-1.06a1.237,1.237,0,0,0-1.509.883l-.778,2.974a1.237,1.237,0,0,0,.883,1.509l4.053,1.06a.2.2,0,0,1,.146.2,15.735,15.735,0,0,0,.9,6.546.2.2,0,0,1-.085.236l-3.615,2.116a1.239,1.239,0,0,0-.443,1.692l1.553,2.653a1.236,1.236,0,0,0,1.692.442l3.615-2.116a.2.2,0,0,1,.247.041,15.806,15.806,0,0,0,5.266,3.99.2.2,0,0,1,.106.227l-1.06,4.053a1.239,1.239,0,0,0,.884,1.509l2.974.778a1.237,1.237,0,0,0,1.509-.883Zm.616-11.824a8.512,8.512,0,1,1,6.407-1.174A8.525,8.525,0,0,1,860.777,97.185Z" transform="translate(-319.633 1852.234)" fill="#7081f9"/>
    </g>
  </g>
</svg>
