<svg xmlns="http://www.w3.org/2000/svg" xmlns:xlink="http://www.w3.org/1999/xlink" width="1328" height="252" viewBox="0 0 1328 252">
  <defs>
    <clipPath id="clip-path">
      <rect id="Rectángulo_409719" data-name="Rectángulo 409719" width="88" height="58" transform="translate(-2291.2 1840)" fill="#f6b0cc" stroke="#707070" stroke-width="1" opacity="0.67"/>
    </clipPath>
    <clipPath id="clip-path-2">
      <rect id="Rectángulo_409718" data-name="Rectángulo 409718" width="258.682" height="258.682" fill="#f6b0cc"/>
    </clipPath>
    <clipPath id="clip-path-3">
      <rect id="Rectángulo_409721" data-name="Rectángulo 409721" width="62" height="49" transform="translate(0 0.017)" fill="#f6b0cc" stroke="#707070" stroke-width="1" opacity="0.6"/>
    </clipPath>
    <clipPath id="clip-path-4">
      <rect id="Rectángulo_409720" data-name="Rectángulo 409720" width="143.726" height="140.991" fill="#f6b0cc"/>
    </clipPath>
  </defs>
  <g id="Grupo_1158621" data-name="Grupo 1158621" transform="translate(-136 -2628)">
    <rect id="Fondo" width="1328" height="252" transform="translate(136 2628)" fill="#f8e6f8"/>
    <g id="Enmascarar_grupo_1098758" data-name="Enmascarar grupo 1098758" transform="translate(3025.2 788)" clip-path="url(#clip-path)">
      <g id="POST_1" transform="translate(-2305.365 2098.624) rotate(-90)">
        <g id="Grupo_1158618" data-name="Grupo 1158618" transform="translate(0 0)" opacity="0.41">
          <g id="Grupo_1158617" data-name="Grupo 1158617" opacity="0.67" clip-path="url(#clip-path-2)">
            <path id="Trazado_993835" data-name="Trazado 993835" d="M37.4,82.58l2.124-8.121a.393.393,0,0,1,.408-.293,31.681,31.681,0,0,0,13.115-1.8.392.392,0,0,1,.472.171l4.24,7.243a2.478,2.478,0,0,0,3.39.887l5.317-3.112a2.482,2.482,0,0,0,.886-3.39l-4.239-7.243a.389.389,0,0,1,.082-.5A31.7,31.7,0,0,0,71.191,55.87a.393.393,0,0,1,.455-.213l8.122,2.124a2.48,2.48,0,0,0,3.024-1.77l1.559-5.959a2.477,2.477,0,0,0-1.77-3.024L74.459,44.9a.4.4,0,0,1-.293-.408,31.543,31.543,0,0,0-1.8-13.115.39.39,0,0,1,.171-.472l7.243-4.239a2.481,2.481,0,0,0,.887-3.39L77.55,17.963a2.477,2.477,0,0,0-3.39-.887l-7.243,4.24a.393.393,0,0,1-.5-.082A31.688,31.688,0,0,0,55.87,13.24a.4.4,0,0,1-.213-.455l2.124-8.121A2.477,2.477,0,0,0,56.012,1.64L50.052.081a2.482,2.482,0,0,0-3.024,1.77L44.9,9.972a.393.393,0,0,1-.408.293,31.664,31.664,0,0,0-13.115,1.8.393.393,0,0,1-.472-.171L26.669,4.655a2.48,2.48,0,0,0-3.39-.887L17.963,6.881a2.477,2.477,0,0,0-.887,3.39l4.24,7.243a.392.392,0,0,1-.082.5,31.683,31.683,0,0,0-7.995,10.552.392.392,0,0,1-.455.213L4.664,26.65a2.478,2.478,0,0,0-3.024,1.77L.08,34.379A2.478,2.478,0,0,0,1.85,37.4l8.122,2.124a.4.4,0,0,1,.293.408,31.527,31.527,0,0,0,1.8,13.115.39.39,0,0,1-.171.472l-7.243,4.24a2.482,2.482,0,0,0-.887,3.39L6.88,66.468a2.477,2.477,0,0,0,3.39.887l7.243-4.239a.392.392,0,0,1,.5.082,31.669,31.669,0,0,0,10.552,7.994.393.393,0,0,1,.213.455l-2.124,8.122a2.482,2.482,0,0,0,1.77,3.024l5.959,1.559A2.478,2.478,0,0,0,37.4,82.58Zm1.233-23.691a17.055,17.055,0,1,1,12.839-2.352A17.082,17.082,0,0,1,38.635,58.889Z" transform="translate(201.464 16.232)" fill="#f6b0cc"/>
          </g>
        </g>
      </g>
    </g>
    <g id="Enmascarar_grupo_1098759" data-name="Enmascarar grupo 1098759" transform="translate(136 2830.983)" opacity="0.58" clip-path="url(#clip-path-3)">
      <g id="POST_4" transform="translate(0.142 -91.979)">
        <g id="Grupo_1158620" data-name="Grupo 1158620" transform="translate(0)">
          <g id="Grupo_1158619" data-name="Grupo 1158619" opacity="0.67" clip-path="url(#clip-path-4)">
            <path id="Trazado_993836" data-name="Trazado 993836" d="M39.068,1.981l2.219,8.686a.412.412,0,0,0,.426.313,32.377,32.377,0,0,1,13.7,1.931.406.406,0,0,0,.493-.183l4.429-7.747a2.583,2.583,0,0,1,1.579-1.225,2.52,2.52,0,0,1,1.962.277l5.553,3.329a2.69,2.69,0,0,1,.925,3.626l-4.428,7.746a.423.423,0,0,0,.086.53,33.835,33.835,0,0,1,8.35,11.287.407.407,0,0,0,.475.227L83.32,28.5A2.586,2.586,0,0,1,86.478,30.4l1.628,6.374a2.656,2.656,0,0,1-1.85,3.234l-8.482,2.272a.426.426,0,0,0-.306.436,34.487,34.487,0,0,1-1.885,14.027.423.423,0,0,0,.179.505l7.565,4.534a2.689,2.689,0,0,1,.926,3.626L81,71.092a2.576,2.576,0,0,1-1.578,1.225,2.523,2.523,0,0,1-1.962-.277L69.9,67.505a.4.4,0,0,0-.517.088,33.186,33.186,0,0,1-11.022,8.551.426.426,0,0,0-.222.486l2.218,8.686a2.686,2.686,0,0,1-.27,2.01,2.574,2.574,0,0,1-1.577,1.224l-6.225,1.668a2.587,2.587,0,0,1-3.159-1.894L46.9,79.638a.412.412,0,0,0-.426-.313,32.358,32.358,0,0,1-13.7-1.93.405.405,0,0,0-.493.183l-4.429,7.748a2.557,2.557,0,0,1-3.541.948l-5.553-3.329a2.628,2.628,0,0,1-1.2-1.616,2.689,2.689,0,0,1,.27-2.009l4.429-7.747a.425.425,0,0,0,.056-.229.42.42,0,0,0-.142-.3,33.817,33.817,0,0,1-8.35-11.286.407.407,0,0,0-.475-.227L4.872,61.8a2.518,2.518,0,0,1-1.962-.277,2.623,2.623,0,0,1-1.2-1.616L.084,53.535a2.705,2.705,0,0,1,.27-2.009A2.581,2.581,0,0,1,1.933,50.3l8.484-2.272a.423.423,0,0,0,.306-.437,34.461,34.461,0,0,1,1.885-14.027.422.422,0,0,0-.179-.5L4.862,28.525A2.69,2.69,0,0,1,3.936,24.9l3.251-5.686a2.581,2.581,0,0,1,1.578-1.225,2.522,2.522,0,0,1,1.962.277L18.293,22.8a.4.4,0,0,0,.517-.088,33.169,33.169,0,0,1,11.022-8.55.423.423,0,0,0,.222-.486L27.835,4.989a2.66,2.66,0,0,1,1.849-3.234L35.909.087a2.518,2.518,0,0,1,1.962.277A2.631,2.631,0,0,1,39.068,1.981ZM40.355,27.32a18.2,18.2,0,0,0-14.06,18.561,18.7,18.7,0,0,0,.384,3.1,17.841,17.841,0,0,0,21.156,14,18.4,18.4,0,0,0,5.931-33.151A17.359,17.359,0,0,0,40.355,27.32Z" transform="translate(-27.809 92.619)" fill="#f6b0cc"/>
          </g>
        </g>
      </g>
    </g>
    <path id="Trazado_993837" data-name="Trazado 993837" d="M-73.184,888.531l1.148-4.39a.213.213,0,0,1,.221-.158,17.127,17.127,0,0,0,7.09-.976.212.212,0,0,1,.255.092l2.292,3.916a1.332,1.332,0,0,0,.817.619,1.332,1.332,0,0,0,1.015-.14l2.874-1.682a1.342,1.342,0,0,0,.479-1.832l-2.292-3.915a.21.21,0,0,1,.044-.267,17.135,17.135,0,0,0,4.321-5.7.212.212,0,0,1,.246-.115l4.39,1.148a1.341,1.341,0,0,0,1.635-.957l.843-3.222a1.339,1.339,0,0,0-.957-1.635l-4.39-1.148a.216.216,0,0,1-.158-.22,17.053,17.053,0,0,0-.975-7.09.211.211,0,0,1,.092-.255l3.915-2.292a1.341,1.341,0,0,0,.479-1.833l-1.682-2.874a1.329,1.329,0,0,0-.817-.619,1.333,1.333,0,0,0-1.016.14l-3.915,2.292a.212.212,0,0,1-.268-.044,17.128,17.128,0,0,0-5.7-4.322.213.213,0,0,1-.115-.246l1.148-4.39a1.33,1.33,0,0,0-.14-1.016,1.328,1.328,0,0,0-.816-.619l-3.222-.843a1.341,1.341,0,0,0-1.635.957l-1.148,4.39a.213.213,0,0,1-.221.158,17.115,17.115,0,0,0-7.09.975.212.212,0,0,1-.255-.093l-2.292-3.915a1.341,1.341,0,0,0-1.832-.479l-2.874,1.682a1.331,1.331,0,0,0-.619.817,1.331,1.331,0,0,0,.14,1.016l2.292,3.916a.211.211,0,0,1,.029.116.211.211,0,0,1-.073.152,17.124,17.124,0,0,0-4.322,5.7.212.212,0,0,1-.246.115l-4.39-1.148a1.33,1.33,0,0,0-1.016.14,1.329,1.329,0,0,0-.619.817l-.843,3.221a1.339,1.339,0,0,0,.14,1.016,1.332,1.332,0,0,0,.817.619l4.39,1.148a.214.214,0,0,1,.158.22,17.041,17.041,0,0,0,.975,7.09.211.211,0,0,1-.092.255l-3.916,2.292a1.342,1.342,0,0,0-.479,1.832l1.682,2.874a1.332,1.332,0,0,0,.817.619,1.332,1.332,0,0,0,1.016-.14l3.916-2.292a.212.212,0,0,1,.268.044,17.118,17.118,0,0,0,5.7,4.321.212.212,0,0,1,.115.246L-79,887.011a1.342,1.342,0,0,0,.957,1.635l3.221.842a1.33,1.33,0,0,0,1.016-.14A1.329,1.329,0,0,0-73.184,888.531Zm.666-12.806a9.234,9.234,0,0,1-7.277-9.381,9.241,9.241,0,0,1,.2-1.568A9.23,9.23,0,0,1-68.647,857.7a9.233,9.233,0,0,1,7.078,10.949,9.158,9.158,0,0,1-4.009,5.806A9.162,9.162,0,0,1-72.518,875.725Z" transform="translate(860.766 1957.078)" fill="#f6b0cc" opacity="0.35"/>
    <path id="Trazado_993834" data-name="Trazado 993834" d="M-66.147,904.068l1.548-5.918a.287.287,0,0,1,.3-.214,23.086,23.086,0,0,0,9.557-1.315.286.286,0,0,1,.344.125l3.09,5.279a1.8,1.8,0,0,0,1.1.835,1.794,1.794,0,0,0,1.368-.189l3.874-2.268a1.809,1.809,0,0,0,.645-2.47l-3.089-5.278a.283.283,0,0,1,.06-.361,23.1,23.1,0,0,0,5.825-7.69.286.286,0,0,1,.331-.155L-35.275,886a1.807,1.807,0,0,0,2.2-1.29l1.136-4.343a1.805,1.805,0,0,0-1.29-2.2l-5.917-1.548a.291.291,0,0,1-.213-.3,22.988,22.988,0,0,0-1.315-9.557.284.284,0,0,1,.125-.344l5.278-3.089a1.808,1.808,0,0,0,.646-2.47l-2.268-3.874a1.792,1.792,0,0,0-1.1-.835,1.8,1.8,0,0,0-1.369.189l-5.278,3.09a.286.286,0,0,1-.361-.06,23.09,23.09,0,0,0-7.69-5.826.288.288,0,0,1-.155-.331l1.547-5.918a1.793,1.793,0,0,0-.189-1.37,1.791,1.791,0,0,0-1.1-.834l-4.343-1.136a1.808,1.808,0,0,0-2.2,1.29l-1.548,5.918a.287.287,0,0,1-.3.214,23.072,23.072,0,0,0-9.557,1.315.286.286,0,0,1-.344-.125l-3.09-5.278a1.808,1.808,0,0,0-2.47-.646l-3.874,2.268a1.794,1.794,0,0,0-.835,1.1,1.8,1.8,0,0,0,.189,1.369l3.09,5.278a.284.284,0,0,1,.039.156.284.284,0,0,1-.1.2,23.086,23.086,0,0,0-5.826,7.689.286.286,0,0,1-.331.155L-90,863.311a1.794,1.794,0,0,0-1.369.189,1.792,1.792,0,0,0-.835,1.1l-1.136,4.343a1.805,1.805,0,0,0,.189,1.369,1.8,1.8,0,0,0,1.1.835l5.919,1.548a.289.289,0,0,1,.213.3,22.971,22.971,0,0,0,1.315,9.557.285.285,0,0,1-.125.344l-5.278,3.09a1.808,1.808,0,0,0-.646,2.47l2.268,3.874a1.794,1.794,0,0,0,1.1.835,1.8,1.8,0,0,0,1.369-.189l5.278-3.089a.286.286,0,0,1,.361.06,23.075,23.075,0,0,0,7.69,5.825.286.286,0,0,1,.155.331l-1.548,5.918a1.808,1.808,0,0,0,1.29,2.2l4.342,1.136a1.793,1.793,0,0,0,1.369-.189A1.791,1.791,0,0,0-66.147,904.068Zm.9-17.263a12.448,12.448,0,0,1-9.809-12.646,12.462,12.462,0,0,1,.268-2.113A12.443,12.443,0,0,1-60.031,862.5a12.446,12.446,0,0,1,9.541,14.76,12.346,12.346,0,0,1-5.4,7.827A12.351,12.351,0,0,1-65.249,886.805Z" transform="translate(1490.403 1879.346)" fill="#f6b0cc" opacity="0.35"/>
  </g>
</svg>
