<svg xmlns="http://www.w3.org/2000/svg" xmlns:xlink="http://www.w3.org/1999/xlink" width="108" height="108" viewBox="0 0 108 108">
  <defs>
    <filter id="Trazado_982547" x="0" y="0" width="108" height="108" filterUnits="userSpaceOnUse">
      <feOffset dy="3" input="SourceAlpha"/>
      <feGaussianBlur stdDeviation="3" result="blur"/>
      <feFlood flood-opacity="0.161"/>
      <feComposite operator="in" in2="blur"/>
      <feComposite in="SourceGraphic"/>
    </filter>
  </defs>
  <g id="Grupo_1158003" data-name="Grupo 1158003" transform="translate(-161 -3955)">
    <g id="Grupo_1154108" data-name="Grupo 1154108" transform="translate(0 2503)">
      <g id="Grupo_1153117" data-name="Grupo 1153117" transform="translate(-93 939)">
        <g id="Grupo_1149598" data-name="Grupo 1149598" transform="translate(80 315)">
          <g id="Grupo_1148770" data-name="Grupo 1148770" transform="translate(-27 -2583)">
            <g id="Grupo_1146954" data-name="Grupo 1146954" transform="translate(-415 -1202)">
              <g transform="matrix(1, 0, 0, 1, 616, 3983)" filter="url(#Trazado_982547)">
                <g id="Trazado_982547-2" data-name="Trazado 982547" transform="translate(9 6)" fill="#ebfefd">
                  <path d="M 45 88.5 C 39.12687683105469 88.5 33.43022537231445 87.35007476806641 28.06830024719238 85.08217620849609 C 22.88852500915527 82.89131164550781 18.23629951477051 79.75458526611328 14.2408504486084 75.75914764404297 C 10.24541282653809 71.76370239257812 7.108687400817871 67.11147308349609 4.917825222015381 61.93170166015625 C 2.649924993515015 56.56977462768555 1.5 50.87312316894531 1.5 45 C 1.5 39.12687683105469 2.649924993515015 33.43022537231445 4.917825222015381 28.06830024719238 C 7.108687400817871 22.88852500915527 10.24541282653809 18.23629951477051 14.2408504486084 14.2408504486084 C 18.23629951477051 10.24541282653809 22.88852500915527 7.108687400817871 28.06830024719238 4.917825222015381 C 33.43022537231445 2.649924993515015 39.12687683105469 1.5 45 1.5 C 50.87312316894531 1.5 56.56977462768555 2.649924993515015 61.93170166015625 4.917825222015381 C 67.11147308349609 7.108687400817871 71.76370239257812 10.24541282653809 75.75914764404297 14.2408504486084 C 79.75458526611328 18.23629951477051 82.89131164550781 22.88852500915527 85.08217620849609 28.06830024719238 C 87.35007476806641 33.43022537231445 88.5 39.12687683105469 88.5 45 C 88.5 50.87312316894531 87.35007476806641 56.56977462768555 85.08217620849609 61.93170166015625 C 82.89131164550781 67.11147308349609 79.75458526611328 71.76370239257812 75.75914764404297 75.75914764404297 C 71.76370239257812 79.75458526611328 67.11147308349609 82.89131164550781 61.93170166015625 85.08217620849609 C 56.56977462768555 87.35007476806641 50.87312316894531 88.5 45 88.5 Z" stroke="none"/>
                  <path d="M 45 3 C 39.32871246337891 3 33.82865524291992 4.110054016113281 28.65262985229492 6.299339294433594 C 23.65165710449219 8.414573669433594 19.15968322753906 11.44334411621094 15.301513671875 15.301513671875 C 11.44334411621094 19.15968322753906 8.414573669433594 23.65165710449219 6.299339294433594 28.65262985229492 C 4.110054016113281 33.82865524291992 3 39.32871246337891 3 45 C 3 50.67128753662109 4.110054016113281 56.17134475708008 6.299339294433594 61.34737396240234 C 8.414573669433594 66.34834289550781 11.44334411621094 70.84031677246094 15.301513671875 74.698486328125 C 19.15968322753906 78.55665588378906 23.65165710449219 81.58542633056641 28.65262985229492 83.70066070556641 C 33.82865524291992 85.88994598388672 39.32871246337891 87 45 87 C 50.67128753662109 87 56.17134475708008 85.88994598388672 61.34737396240234 83.70066070556641 C 66.34834289550781 81.58542633056641 70.84031677246094 78.55665588378906 74.698486328125 74.698486328125 C 78.55665588378906 70.84031677246094 81.58542633056641 66.34834289550781 83.70066070556641 61.34737396240234 C 85.88994598388672 56.17134475708008 87 50.67128753662109 87 45 C 87 39.32871246337891 85.88994598388672 33.82865524291992 83.70066070556641 28.65262985229492 C 81.58542633056641 23.65165710449219 78.55665588378906 19.15968322753906 74.698486328125 15.301513671875 C 70.84031677246094 11.44334411621094 66.34834289550781 8.414573669433594 61.34737396240234 6.299339294433594 C 56.17134475708008 4.110054016113281 50.67128753662109 3 45 3 M 45 0 C 69.85281372070312 0 90 20.14718627929688 90 45 C 90 69.85281372070312 69.85281372070312 90 45 90 C 20.14718627929688 90 0 69.85281372070312 0 45 C 0 20.14718627929688 20.14718627929688 0 45 0 Z" stroke="none" fill="#268985"/>
                </g>
              </g>
            </g>
          </g>
        </g>
      </g>
    </g>
    <g id="_x31_0_x2C__Advertising_x2C__Digital_x2C__Marketing_x2C__Promotion" transform="translate(163.08 3949)">
      <g id="Grupo_1158002" data-name="Grupo 1158002" transform="translate(23.92 30)">
        <path id="Trazado_993137" data-name="Trazado 993137" d="M94.551,125H52.892a3.976,3.976,0,0,0-3.976,3.977c0,29.471,0,27.528.005,27.686a3.976,3.976,0,0,0,3.971,3.772H94.551a3.976,3.976,0,0,0,3.971-3.772c.008-.158.005,1.8.005-27.686A3.976,3.976,0,0,0,94.551,125Z" transform="translate(-45.963 -113.779)" fill="#555a66"/>
        <path id="Trazado_993138" data-name="Trazado 993138" d="M83.92,165v25.986h41.342V165Z" transform="translate(-76.833 -149.054)" fill="#f2f2f2"/>
        <path id="Trazado_993139" data-name="Trazado 993139" d="M79.711,425a3.544,3.544,0,0,1,0,7.087H32.464a3.544,3.544,0,1,1,0-7.087Z" transform="translate(-28.329 -378.343)" fill="#404651"/>
        <path id="Trazado_993140" data-name="Trazado 993140" d="M348.074,78.417l-2.711-2.276-.615-3.486h-3.539L338.5,70.38l-2.712,2.275h-3.539l-.615,3.486-.822.691h0l-1.888,1.585,1.769,3.065-.013.074-.6,3.411,3.326,1.211,1.769,3.065,3.326-1.211,2.825,1.029.5.182,1.769-3.065,1.864-.678,1.462-.533-.614-3.486Z" transform="translate(-292.894 -65.61)" fill="#f0582f"/>
        <path id="Trazado_993141" data-name="Trazado 993141" d="M301.578,35a2.658,2.658,0,1,1-2.658,2.658A2.658,2.658,0,0,1,301.578,35Z" transform="translate(-266.437 -34.409)" fill="#87c7ff"/>
        <path id="Trazado_993142" data-name="Trazado 993142" d="M80.692,75a1.772,1.772,0,1,1-1.772,1.772A1.772,1.772,0,0,1,80.692,75Z" transform="translate(-72.423 -69.685)" fill="#87c7ff"/>
        <path id="Trazado_993143" data-name="Trazado 993143" d="M184,307.13l.731,1.623-1.082.488-2.165.974h0l-.661.3-.731-1.624Z" transform="translate(-161.643 -274.396)" fill="#333940"/>
        <path id="Trazado_993144" data-name="Trazado 993144" d="M196.483,330.412a1.187,1.187,0,1,1-2.165.974l-.556-1.234-1.882-4.177h0l2.165-.974.921,2.045,1.217,2.7Z" transform="translate(-172.041 -290.155)" fill="#22282d"/>
        <path id="Trazado_993145" data-name="Trazado 993145" d="M212.836,320.463a1.12,1.12,0,0,1-.562,1.482l-1.142.515-.921-2.045,1.082-.488.06-.027A1.123,1.123,0,0,1,212.836,320.463Z" transform="translate(-188.206 -285.571)" fill="#f0582f"/>
        <path id="Trazado_993146" data-name="Trazado 993146" d="M257.528,181a1.187,1.187,0,0,1-2.165.974l-.081-.181L249.026,167.9a1.187,1.187,0,1,1,2.165-.974Z" transform="translate(-222.344 -150.139)" fill="#efc203"/>
        <path id="Trazado_993147" data-name="Trazado 993147" d="M149.057,238.85l3.412,7.577-1.083.488-3.909,1.76-.956.431-.7-1.564-2.086-4.63-.622-1.383Z" transform="translate(-129.031 -214.181)" fill="#efc203"/>
        <path id="Trazado_993148" data-name="Trazado 993148" d="M200.116,180.41l6.256,13.891-1.1.069-8.395.521-3.412-7.577,5.622-5.83Z" transform="translate(-173.434 -162.644)" fill="#f5ea0a"/>
        <path id="Trazado_993149" data-name="Trazado 993149" d="M134.243,273.24l2.086,4.63-.006,0-.391.176a2.539,2.539,0,1,1-2.086-4.63l.391-.176Z" transform="translate(-119.542 -244.509)" fill="#f5ea0a"/>
        <path id="Trazado_993150" data-name="Trazado 993150" d="M214.263,299.111l8.395-.521a11.149,11.149,0,0,1-7.691,7.867l-1.217-2.7,1.142-.515a1.121,1.121,0,1,0-.921-2.045l-.06.027-.731-1.623Z" transform="translate(-190.825 -266.864)" fill="#87c7ff"/>
        <path id="Trazado_993151" data-name="Trazado 993151" d="M124.528,182.215l-5.622,5.83-5.947,2.679.622,1.383-.006,0-.391.176a2.539,2.539,0,0,0,2.086,4.63l.391-.176.006,0,.7,1.564.956-.431.731,1.624.661-.3,1.882,4.177c-.2.011-.395.017-.594.017a11.075,11.075,0,1,1,0-22.15A10.937,10.937,0,0,1,124.528,182.215Z" transform="translate(-98.88 -163.377)" fill="#87c7ff"/>
        <g id="Grupo_1158001" data-name="Grupo 1158001" transform="translate(41.932 10.128)">
          <path id="Trazado_993152" data-name="Trazado 993152" d="M433.146,166.569a1.018,1.018,0,1,1-1.367.454A1.019,1.019,0,0,1,433.146,166.569Z" transform="translate(-425.439 -160.47)" fill="#f2f2f2"/>
          <path id="Trazado_993153" data-name="Trazado 993153" d="M397.134,116.766a1.012,1.012,0,0,1-.107.455l-3.283,6.549a1.018,1.018,0,0,1-1.82-.913l3.281-6.547a1.018,1.018,0,0,1,1.929.457Z" transform="translate(-390.293 -115.746)" fill="#f2f2f2"/>
          <path id="Trazado_993154" data-name="Trazado 993154" d="M380.391,120.579a1.018,1.018,0,1,1-1.367.454A1.018,1.018,0,0,1,380.391,120.579Z" transform="translate(-378.917 -119.912)" fill="#f2f2f2"/>
        </g>
        <path id="Trazado_993155" data-name="Trazado 993155" d="M373.92,425h6.5v2.362h-6.5Z" transform="translate(-332.578 -378.343)" fill="#22282d"/>
        <path id="Trazado_993156" data-name="Trazado 993156" d="M208.92,425h11.812v2.362H208.92Z" transform="translate(-187.068 -378.343)" fill="#22282d"/>
        <path id="Trazado_993157" data-name="Trazado 993157" d="M88.92,425h6.5v2.362h-6.5Z" transform="translate(-81.242 -378.343)" fill="#22282d"/>
        <path id="Trazado_993158" data-name="Trazado 993158" d="M459.806,35a.886.886,0,1,1-.886.886A.886.886,0,0,1,459.806,35Z" transform="translate(-407.538 -34.409)"/>
        <path id="Trazado_993159" data-name="Trazado 993159" d="M344.511,275a.591.591,0,1,1-.591.591A.591.591,0,0,1,344.511,275Z" transform="translate(-306.122 -246.061)"/>
        <path id="Trazado_993160" data-name="Trazado 993160" d="M344.511,295a.591.591,0,1,1-.591.591A.591.591,0,0,1,344.511,295Z" transform="translate(-306.122 -263.698)"/>
        <path id="Trazado_993161" data-name="Trazado 993161" d="M344.511,315a.591.591,0,1,1-.591.591A.591.591,0,0,1,344.511,315Z" transform="translate(-306.122 -281.336)"/>
        <path id="Trazado_993162" data-name="Trazado 993162" d="M344.511,335a.591.591,0,1,1-.591.591A.591.591,0,0,1,344.511,335Z" transform="translate(-306.122 -298.974)"/>
        <path id="Trazado_993163" data-name="Trazado 993163" d="M344.511,355a.591.591,0,1,1-.591.591A.591.591,0,0,1,344.511,355Z" transform="translate(-306.122 -316.611)"/>
        <path id="Trazado_993164" data-name="Trazado 993164" d="M269.806,85a.886.886,0,1,1-.886.886A.886.886,0,0,1,269.806,85Z" transform="translate(-239.981 -78.503)"/>
        <path id="Trazado_993165" data-name="Trazado 993165" d="M174.806,55a.886.886,0,1,1-.886.886A.886.886,0,0,1,174.806,55Z" transform="translate(-156.202 -52.047)"/>
        <path id="Trazado_993166" data-name="Trazado 993166" d="M34.806,90a.886.886,0,1,1-.886.886A.886.886,0,0,1,34.806,90Z" transform="translate(-32.739 -82.913)"/>
        <path id="Trazado_993167" data-name="Trazado 993167" d="M216.323,423.544H204.511a.591.591,0,0,1-.591-.591v-2.362a.591.591,0,1,1,1.181,0v1.772h10.631v-1.772a.591.591,0,1,1,1.181,0v2.362A.591.591,0,0,1,216.323,423.544Z" transform="translate(-182.659 -373.933)"/>
        <path id="Trazado_993168" data-name="Trazado 993168" d="M75.3,428.268H28.054a4.134,4.134,0,0,1,0-8.268h2.795a.591.591,0,0,1,0,1.181H28.054a2.953,2.953,0,0,0,0,5.906H75.3a2.953,2.953,0,0,0,0-5.906h-2.8a.591.591,0,0,1,0-1.181h2.8a4.134,4.134,0,1,1,0,8.268Z" transform="translate(-23.92 -373.933)"/>
        <path id="Trazado_993169" data-name="Trazado 993169" d="M91.007,423.544h-6.5a.591.591,0,0,1-.591-.591v-2.362a.591.591,0,1,1,1.181,0v1.772h5.315v-1.772a.591.591,0,1,1,1.181,0v2.362A.591.591,0,0,1,91.007,423.544Z" transform="translate(-76.833 -373.933)"/>
        <path id="Trazado_993170" data-name="Trazado 993170" d="M376.007,423.544h-6.5a.59.59,0,0,1-.591-.591v-2.362a.591.591,0,1,1,1.181,0v1.772h5.315v-1.772a.591.591,0,1,1,1.181,0v2.362A.591.591,0,0,1,376.007,423.544Z" transform="translate(-328.169 -373.933)"/>
        <path id="Trazado_993171" data-name="Trazado 993171" d="M223.9,302.636a.591.591,0,0,1-.162-1.159,10.551,10.551,0,0,0,7.282-7.448.591.591,0,1,1,1.143.3,11.738,11.738,0,0,1-8.1,8.286A.594.594,0,0,1,223.9,302.636Z" transform="translate(-199.757 -262.453)"/>
        <path id="Trazado_993172" data-name="Trazado 993172" d="M115.6,199.572a11.665,11.665,0,1,1,0-23.331,11.479,11.479,0,0,1,4.765,1.027.591.591,0,1,1-.487,1.076,10.306,10.306,0,0,0-4.278-.922,10.484,10.484,0,1,0,0,20.968c.183,0,.367-.005.562-.016a.591.591,0,0,1,.063,1.18c-.217.012-.422.017-.626.017Z" transform="translate(-94.47 -158.967)"/>
        <path id="Trazado_993173" data-name="Trazado 993173" d="M130.481,274.473a3.131,3.131,0,0,1-1.287-5.985l.391-.176a.591.591,0,0,1,.485,1.077l-.391.176a1.949,1.949,0,1,0,1.6,3.553l.391-.176a.591.591,0,0,1,.485,1.077l-.391.176A3.122,3.122,0,0,1,130.481,274.473Z" transform="translate(-115.133 -240.117)"/>
        <path id="Trazado_993174" data-name="Trazado 993174" d="M176.411,319.835a.591.591,0,0,1-.539-.348l-.731-1.624a.591.591,0,1,1,1.077-.485l.489,1.086.123-.055a.591.591,0,0,1,.485,1.077l-.661.3a.588.588,0,0,1-.242.052Z" transform="translate(-157.233 -283.126)"/>
        <path id="Trazado_993175" data-name="Trazado 993175" d="M187.469,306.395a.591.591,0,0,1-.243-1.129l2.708-1.219-.489-1.085a.591.591,0,1,1,1.077-.485l.731,1.623a.591.591,0,0,1-.3.781l-3.247,1.462A.588.588,0,0,1,187.469,306.395Z" transform="translate(-167.63 -269.984)"/>
        <path id="Trazado_993176" data-name="Trazado 993176" d="M213.6,318.648a.591.591,0,0,1-.243-1.129L214.5,317a.531.531,0,0,0,.314-.485.518.518,0,0,0-.047-.216.533.533,0,0,0-.7-.267l-.059.027a.591.591,0,1,1-.486-1.076l.06-.027a1.716,1.716,0,0,1,2.265.857,1.694,1.694,0,0,1,.152.7,1.714,1.714,0,0,1-1.01,1.562l-1.141.515A.591.591,0,0,1,213.6,318.648Z" transform="translate(-190.674 -281.167)"/>
        <path id="Trazado_993177" data-name="Trazado 993177" d="M164.79,262.2a.591.591,0,0,1-.243-1.129l1.728-.778a.591.591,0,1,1,.485,1.077l-1.728.778A.589.589,0,0,1,164.79,262.2Z" transform="translate(-147.629 -233.043)"/>
        <path id="Trazado_993178" data-name="Trazado 993178" d="M170.98,275.938a.591.591,0,0,1-.243-1.129l1.728-.778a.591.591,0,1,1,.485,1.077l-1.728.778a.587.587,0,0,1-.242.052Z" transform="translate(-153.088 -245.16)"/>
        <path id="Trazado_993179" data-name="Trazado 993179" d="M177.17,289.688a.591.591,0,0,1-.243-1.129l1.728-.778a.591.591,0,1,1,.485,1.077l-1.728.778A.587.587,0,0,1,177.17,289.688Z" transform="translate(-158.547 -257.285)"/>
        <path id="Trazado_993180" data-name="Trazado 993180" d="M190.992,328.265a1.782,1.782,0,0,1-1.622-1.048l-2.438-5.411a.591.591,0,1,1,1.088-.462l2.427,5.388a.6.6,0,1,0,1.088-.49l-2.438-5.411a.591.591,0,1,1,1.077-.485l2.438,5.412a1.779,1.779,0,0,1-1.62,2.509Z" transform="translate(-167.631 -285.742)"/>
        <path id="Trazado_993181" data-name="Trazado 993181" d="M243.468,219.843a.591.591,0,0,1-.54-.35l-3.378-7.563a.591.591,0,0,1,1.078-.482l3.378,7.563a.591.591,0,0,1-.539.832Z" transform="translate(-214.035 -189.707)"/>
        <path id="Trazado_993182" data-name="Trazado 993182" d="M230.871,237.495a.591.591,0,0,1-.543-.358l-1.591-3.714a.591.591,0,0,1,1.086-.465l1.591,3.714a.591.591,0,0,1-.543.823Z" transform="translate(-204.502 -208.669)"/>
        <path id="Trazado_993183" data-name="Trazado 993183" d="M142.112,245.288a.59.59,0,0,1-.538-.348l-3.412-7.577a.59.59,0,0,1,.3-.781L144.4,233.9a.591.591,0,1,1,.485,1.077l-5.409,2.436,2.927,6.5,5.409-2.436a.591.591,0,1,1,.485,1.077l-5.947,2.679A.593.593,0,0,1,142.112,245.288Z" transform="translate(-124.621 -209.772)"/>
        <path id="Trazado_993184" data-name="Trazado 993184" d="M192.463,191.072a.591.591,0,0,1-.538-.348l-3.412-7.577a.591.591,0,0,1,.113-.652l6.656-6.9a.591.591,0,0,1,.851.82l-6.379,6.615,3.081,6.841,9.092-.564a.591.591,0,1,1,.073,1.179l-9.5.589Z" transform="translate(-169.025 -158.235)"/>
        <path id="Trazado_993185" data-name="Trazado 993185" d="M252.032,178.858a1.782,1.782,0,0,1-1.622-1.048l-6.337-14.072a1.778,1.778,0,1,1,3.242-1.46l6.337,14.072a1.781,1.781,0,0,1-.891,2.351A1.762,1.762,0,0,1,252.032,178.858Zm-6.339-16.447a.6.6,0,0,0-.246.054.6.6,0,0,0-.3.788l6.337,14.071a.6.6,0,0,0,.545.352.589.589,0,0,0,.244-.053.6.6,0,0,0,.3-.79l-6.337-14.071A.6.6,0,0,0,245.694,162.411Z" transform="translate(-217.93 -145.729)"/>
        <path id="Trazado_993186" data-name="Trazado 993186" d="M120.852,187.167H79.511a.591.591,0,0,1-.591-.591V160.591a.591.591,0,0,1,.591-.591h30.7a.591.591,0,1,1,0,1.181H80.1v24.805h40.161V168.1a.591.591,0,1,1,1.181,0v18.481A.591.591,0,0,1,120.852,187.167Z" transform="translate(-72.423 -144.644)"/>
        <path id="Trazado_993187" data-name="Trazado 993187" d="M90.144,156.617H48.486a4.572,4.572,0,0,1-4.566-4.568V124.568A4.572,4.572,0,0,1,48.486,120H79.472a.591.591,0,0,1,0,1.181H48.486a3.39,3.39,0,0,0-3.385,3.386v27.482a3.39,3.39,0,0,0,3.385,3.386H90.144a3.39,3.39,0,0,0,3.386-3.386v-22.79a.591.591,0,0,1,1.181,0v22.79A4.573,4.573,0,0,1,90.144,156.617Z" transform="translate(-41.558 -109.369)"/>
        <path id="Trazado_993188" data-name="Trazado 993188" d="M330.761,85.424a.591.591,0,0,1-.512-.3l-1.662-2.879-3.124-1.137a.591.591,0,0,1-.38-.657l.577-3.274L324,74.3a.591.591,0,0,1,.132-.748l1.888-1.585.023-.018.636-.534.578-3.274a.591.591,0,0,1,.582-.488h3.324l2.547-2.137a.59.59,0,0,1,.759,0l2.547,2.137h3.324a.591.591,0,0,1,.582.488l.578,3.274,2.546,2.138a.591.591,0,0,1,.132.748l-1.662,2.879.577,3.274a.59.59,0,0,1-.38.657l-3.124,1.137-1.662,2.879a.59.59,0,0,1-.713.26l-3.125-1.137-3.124,1.137A.59.59,0,0,1,330.761,85.424Zm3.326-2.392a.592.592,0,0,1,.2.036l2.86,1.041,1.522-2.636a.59.59,0,0,1,.31-.26l2.861-1.041-.528-3a.59.59,0,0,1,.07-.4l1.522-2.636-2.331-1.958a.591.591,0,0,1-.2-.35l-.529-3H336.8a.591.591,0,0,1-.38-.138l-2.332-1.957L331.755,68.7a.591.591,0,0,1-.38.138h-3.043l-.529,3a.591.591,0,0,1-.2.349l-.822.691-.023.019L325.27,74.14l1.522,2.636a.591.591,0,0,1,.07.4l-.528,3,2.861,1.041a.591.591,0,0,1,.31.26l1.522,2.636,2.861-1.041a.592.592,0,0,1,.2-.036Z" transform="translate(-288.484 -61.2)"/>
        <path id="Trazado_993189" data-name="Trazado 993189" d="M375.52,118.689a1.615,1.615,0,0,1-.72-.171,1.609,1.609,0,1,1,.72.171Zm0-2.037a.428.428,0,0,0-.192.81.422.422,0,0,0,.191.046.427.427,0,0,0,.407-.562.431.431,0,0,0-.406-.294Z" transform="translate(-332.57 -105.375)"/>
        <path id="Trazado_993190" data-name="Trazado 993190" d="M428.274,164.677a1.613,1.613,0,0,1-.721-.171,1.609,1.609,0,0,1,.722-3.047,1.609,1.609,0,0,1,0,3.219Zm0-2.037a.429.429,0,1,0,.192.046.424.424,0,0,0-.192-.046Z" transform="translate(-379.093 -145.93)"/>
        <path id="Trazado_993191" data-name="Trazado 993191" d="M388.429,120.513a1.61,1.61,0,0,1-1.438-2.33l3.282-6.548a1.609,1.609,0,0,1,2.878,1.441l-3.283,6.549A1.6,1.6,0,0,1,388.429,120.513Zm3.283-8.585a.426.426,0,0,0-.383.236l-3.282,6.548a.428.428,0,0,0,.19.574.426.426,0,0,0,.574-.19l3.283-6.549a.421.421,0,0,0,.045-.19.428.428,0,0,0-.237-.384A.418.418,0,0,0,391.711,111.927Z" transform="translate(-343.955 -101.208)"/>
        <path id="Trazado_993192" data-name="Trazado 993192" d="M365.417,356.181h-5.906a.591.591,0,1,1,0-1.181h5.906a.591.591,0,0,1,0,1.181Z" transform="translate(-319.35 -316.611)"/>
        <path id="Trazado_993193" data-name="Trazado 993193" d="M365.417,336.181h-5.906a.591.591,0,1,1,0-1.181h5.906a.591.591,0,0,1,0,1.181Z" transform="translate(-319.35 -298.974)"/>
        <path id="Trazado_993194" data-name="Trazado 993194" d="M365.417,316.181h-5.906a.591.591,0,1,1,0-1.181h5.906a.591.591,0,0,1,0,1.181Z" transform="translate(-319.35 -281.336)"/>
        <path id="Trazado_993195" data-name="Trazado 993195" d="M365.417,296.181h-5.906a.591.591,0,1,1,0-1.181h5.906a.591.591,0,0,1,0,1.181Z" transform="translate(-319.35 -263.698)"/>
        <path id="Trazado_993196" data-name="Trazado 993196" d="M365.417,276.181h-5.906a.591.591,0,1,1,0-1.181h5.906a.591.591,0,0,1,0,1.181Z" transform="translate(-319.35 -246.061)"/>
        <path id="Trazado_993197" data-name="Trazado 993197" d="M297.168,36.5a3.248,3.248,0,1,1,3.248-3.248A3.252,3.252,0,0,1,297.168,36.5Zm0-5.315a2.067,2.067,0,1,0,2.067,2.067A2.07,2.07,0,0,0,297.168,31.181Z" transform="translate(-262.028 -30)"/>
        <path id="Trazado_993198" data-name="Trazado 993198" d="M76.282,74.725a2.362,2.362,0,1,1,2.362-2.362A2.365,2.365,0,0,1,76.282,74.725Zm0-3.544a1.181,1.181,0,1,0,1.181,1.181A1.183,1.183,0,0,0,76.282,71.181Z" transform="translate(-68.014 -65.275)"/>
      </g>
    </g>
  </g>
</svg>
