<svg xmlns="http://www.w3.org/2000/svg" xmlns:xlink="http://www.w3.org/1999/xlink" width="110" height="110" viewBox="0 0 110 110">
  <defs>
    <filter id="Trazado_982547" x="0" y="0" width="110" height="110" filterUnits="userSpaceOnUse">
      <feOffset dy="3" input="SourceAlpha"/>
      <feGaussianBlur stdDeviation="3" result="blur"/>
      <feFlood flood-opacity="0.161"/>
      <feComposite operator="in" in2="blur"/>
      <feComposite in="SourceGraphic"/>
    </filter>
  </defs>
  <g id="Grupo_1158891" data-name="Grupo 1158891" transform="translate(-1116 -3806)">
    <g id="Grupo_1157406" data-name="Grupo 1157406" transform="translate(1 3016)">
      <g id="Grupo_1155793" data-name="Grupo 1155793" transform="translate(-0.999 -3894)">
        <g id="Grupo_1154704" data-name="Grupo 1154704" transform="translate(0 1466)">
          <g id="Grupo_1150790" data-name="Grupo 1150790" transform="translate(3 2320)">
            <g id="Grupo_1154214" data-name="Grupo 1154214" transform="translate(79 -5809)">
              <g id="Grupo_1152583" data-name="Grupo 1152583" transform="translate(1043 6713)">
                <g id="Grupo_1146973" data-name="Grupo 1146973" transform="translate(0 0)">
                  <g id="Grupo_1146954" data-name="Grupo 1146954">
                    <g transform="matrix(1, 0, 0, 1, -9, -6)" filter="url(#Trazado_982547)">
                      <g id="Trazado_982547-2" data-name="Trazado 982547" transform="translate(9 6)" fill="#fceaf1">
                        <path d="M 46 90.49987030029297 C 39.99187850952148 90.49987030029297 34.16426849365234 89.32350921630859 28.67905426025391 87.00345611572266 C 23.38019943237305 84.76224517822266 18.62104034423828 81.55341339111328 14.53374671936035 77.46613311767578 C 10.44646644592285 73.37885284423828 7.237639904022217 68.61969757080078 4.996413230895996 63.32085418701172 C 2.676359891891479 57.83565521240234 1.5 52.008056640625 1.5 45.99993515014648 C 1.5 39.99181365966797 2.676359891891479 34.16421508789062 4.996413230895996 28.67901420593262 C 7.237639904022217 23.38017463684082 10.44646644592285 18.62101554870605 14.53374671936035 14.53373527526855 C 18.62104034423828 10.44645500183105 23.38019943237305 7.23762845993042 28.67905426025391 4.996415138244629 C 34.16426849365234 2.676361799240112 39.99187850952148 1.500001788139343 46 1.500001788139343 C 52.00812149047852 1.500001788139343 57.83573150634766 2.676361799240112 63.32094573974609 4.996415138244629 C 68.61979675292969 7.23762845993042 73.37895965576172 10.44645500183105 77.46625518798828 14.53373527526855 C 81.55353546142578 18.62101554870605 84.76235961914062 23.38017463684082 87.00358581542969 28.67901420593262 C 89.32363891601562 34.16421508789062 90.5 39.99181365966797 90.5 45.99993515014648 C 90.5 52.008056640625 89.32363891601562 57.83565521240234 87.00358581542969 63.32085418701172 C 84.76235961914062 68.61969757080078 81.55353546142578 73.37885284423828 77.46625518798828 77.46613311767578 C 73.37895965576172 81.55341339111328 68.61979675292969 84.76224517822266 63.32094573974609 87.00345611572266 C 57.83573150634766 89.32350921630859 52.00812149047852 90.49987030029297 46 90.49987030029297 Z" stroke="none"/>
                        <path d="M 46 2.999992370605469 C 40.1937141418457 2.999992370605469 34.56269836425781 4.136489868164062 29.26337051391602 6.377906799316406 C 24.14332580566406 8.543502807617188 19.54441070556641 11.64437866210938 15.59439849853516 15.59437561035156 C 11.64440155029297 19.54439544677734 8.54351806640625 24.14329528808594 6.377914428710938 29.26333618164062 C 4.136497497558594 34.56264877319336 3 40.19366455078125 3 45.99993515014648 C 3 51.80620574951172 4.136497497558594 57.43720626831055 6.377914428710938 62.73651885986328 C 8.54351806640625 67.8565673828125 11.64440155029297 72.45545959472656 15.59439849853516 76.40547943115234 C 19.54441070556641 80.35547637939453 24.14332580566406 83.45635223388672 29.26337051391602 85.6219482421875 C 34.56269836425781 87.86336517333984 40.1937141418457 88.99986267089844 46 88.99986267089844 C 51.8062858581543 88.99986267089844 57.43730163574219 87.86336517333984 62.73661422729492 85.6219482421875 C 67.85667419433594 83.45635223388672 72.45557403564453 80.35547637939453 76.40558624267578 76.40547943115234 C 80.35559844970703 72.45545959472656 83.45647430419922 67.8565673828125 85.6220703125 62.73651885986328 C 87.86350250244141 57.43720626831055 89 51.80620574951172 89 45.99993515014648 C 89 40.19366455078125 87.86350250244141 34.56264877319336 85.6220703125 29.26333618164062 C 83.45647430419922 24.14329528808594 80.35559844970703 19.54439544677734 76.40558624267578 15.59437561035156 C 72.45557403564453 11.64437866210938 67.85667419433594 8.543502807617188 62.73661422729492 6.377906799316406 C 57.43730163574219 4.136489868164062 51.8062858581543 2.999992370605469 46 2.999992370605469 M 46 -7.62939453125e-06 C 71.40509033203125 -7.62939453125e-06 92 20.59486389160156 92 45.99993515014648 C 92 71.40499114990234 71.40509033203125 91.99986267089844 46 91.99986267089844 C 20.59490203857422 91.99986267089844 0 71.40499114990234 0 45.99993515014648 C 0 20.59486389160156 20.59490203857422 -7.62939453125e-06 46 -7.62939453125e-06 Z" stroke="none" fill="#e93b81"/>
                      </g>
                    </g>
                  </g>
                </g>
              </g>
            </g>
          </g>
        </g>
      </g>
    </g>
    <g id="media-monitor-screen-Digital_Marketing" data-name="media-monitor-screen-Digital Marketing" transform="translate(1139 3826.001)">
      <path id="Trazado_993911" data-name="Trazado 993911" d="M5,16H59a2,2,0,0,1,2,2V48H3V18a2,2,0,0,1,2-2Z" fill="#3780ea"/>
      <path id="Trazado_993912" data-name="Trazado 993912" d="M7,28H33V44H7Z" fill="#896ff7"/>
      <path id="Trazado_993913" data-name="Trazado 993913" d="M42,57v4H22V57H42Z" fill="#e8e5fb"/>
      <path id="Trazado_993914" data-name="Trazado 993914" d="M29,51h6v6H29Z" fill="#8e95a3"/>
      <path id="Trazado_993915" data-name="Trazado 993915" d="M61,49v1a2.006,2.006,0,0,1-2,2H5a2.006,2.006,0,0,1-2-2V48H61Z" fill="#e8e5fb"/>
      <path id="Trazado_993916" data-name="Trazado 993916" d="M22,14l-6,3V11Z" fill="#ec455a"/>
      <path id="Trazado_993917" data-name="Trazado 993917" d="M8,16V6H28V22H8Zm8,1,6-3-6-3Z" fill="#78b9eb"/>
      <path id="Trazado_993918" data-name="Trazado 993918" d="M33,28,20,36,7,28Z" fill="#b9b1f1"/>
      <path id="Trazado_993919" data-name="Trazado 993919" d="M36,7h7v8H36Z" fill="#e8e5fb"/>
      <path id="Trazado_993920" data-name="Trazado 993920" d="M41,15l-1,7H37V15Z" fill="#c7bec5"/>
      <path id="Trazado_993921" data-name="Trazado 993921" d="M59.41,9.59A1.955,1.955,0,0,1,60,11a2.006,2.006,0,0,1-2,2H56V9h2a1.955,1.955,0,0,1,1.41.59Z" fill="#ec455a"/>
      <path id="Trazado_993922" data-name="Trazado 993922" d="M56,3V19L43,15V7Z" fill="#f6cc4f"/>
      <path id="Trazado_993923" data-name="Trazado 993923" d="M33,9h3v4H33Z" fill="#ec455a"/>
      <path id="Trazado_993924" data-name="Trazado 993924" d="M37,26H55V38H37Z" fill="#9e2849"/>
      <path id="Trazado_993925" data-name="Trazado 993925" d="M57,30V42H40V30H57Z" fill="#ec455a"/>
      <path id="Trazado_993926" data-name="Trazado 993926" d="M59,15H57V14h1a3,3,0,1,0,0-6H57V3a.968.968,0,0,0-.41-.8.991.991,0,0,0-.88-.16L42.85,6H36a1,1,0,0,0-1,1V8H33a1,1,0,0,0-1,1v4a1,1,0,0,0,1,1h2v1H29V6a1,1,0,0,0-1-1H8A1,1,0,0,0,7,6v9H5a3.009,3.009,0,0,0-3,3V50a3.009,3.009,0,0,0,3,3H28v3H22a1,1,0,0,0-1,1v4a1,1,0,0,0,1,1H42a1,1,0,0,0,1-1V57a1,1,0,0,0-1-1H36V53H59a3.009,3.009,0,0,0,3-3V18a3.009,3.009,0,0,0-3-3Zm-2-5h1a1,1,0,0,1,0,2H57ZM44,7.74,55,4.35v13.3L44,14.26ZM37,8h5v6H37Zm2.85,8-.72,5H38V16ZM34,12V10h1v2ZM9,7H27V21H9ZM41,58v2H23V58ZM30,56V53h4v3Zm30-6a1,1,0,0,1-1,1H5a1,1,0,0,1-1-1V49H60Zm0-3H4V18a1,1,0,0,1,1-1H7v5a1,1,0,0,0,1,1H28a1,1,0,0,0,1-1V17h7v5a1,1,0,0,0,1,1h3a1,1,0,0,0,.99-.86L41.87,16h.98l12.86,3.96A.925.925,0,0,0,56,20a1.015,1.015,0,0,0,1-1V17h2a1,1,0,0,1,1,1Z"/>
      <path id="Trazado_993927" data-name="Trazado 993927" d="M7,45H33a1,1,0,0,0,1-1V28a1,1,0,0,0-1-1H7a1,1,0,0,0-1,1V44A1,1,0,0,0,7,45Zm1-2V29.789l11.476,7.063a1,1,0,0,0,1.048,0L32,29.789V43Zm2.533-14H29.467L20,34.826Z"/>
      <path id="Trazado_993928" data-name="Trazado 993928" d="M37,39h2v3a1,1,0,0,0,1,1H57a1,1,0,0,0,1-1V30a1,1,0,0,0-1-1H56V26a1,1,0,0,0-1-1H37a1,1,0,0,0-1,1V38A1,1,0,0,0,37,39Zm19,2H41V31H56ZM38,27H54v2H40a1,1,0,0,0-1,1v7H38Z"/>
      <path id="Trazado_993929" data-name="Trazado 993929" d="M43,33h2v2H43Z"/>
      <path id="Trazado_993930" data-name="Trazado 993930" d="M47,33h7v2H47Z"/>
      <path id="Trazado_993931" data-name="Trazado 993931" d="M43,37h4v2H43Z"/>
      <path id="Trazado_993932" data-name="Trazado 993932" d="M49,37h5v2H49Z"/>
      <path id="Trazado_993933" data-name="Trazado 993933" d="M15.474,17.851a1,1,0,0,0,.973.044l6-3a1,1,0,0,0,0-1.79l-6-3A1,1,0,0,0,15,11v6A1,1,0,0,0,15.474,17.851ZM17,12.618,19.764,14,17,15.382Z"/>
    </g>
  </g>
</svg>
