<svg xmlns="http://www.w3.org/2000/svg" xmlns:xlink="http://www.w3.org/1999/xlink" width="579" height="363" viewBox="0 0 579 363">
  <defs>
    <clipPath id="clip-path">
      <rect id="Rect치ngulo_409699" data-name="Rect치ngulo 409699" width="579" height="363" transform="translate(-2091.529 2410.608)" fill="#fff" stroke="#707070" stroke-width="1" opacity="0.33"/>
    </clipPath>
    <filter id="Elipse_11693" x="92.631" y="34.762" width="391.084" height="391.084" filterUnits="userSpaceOnUse">
      <feOffset dy="3" input="SourceAlpha"/>
      <feGaussianBlur stdDeviation="3" result="blur"/>
      <feFlood flood-opacity="0.161"/>
      <feComposite operator="in" in2="blur"/>
      <feComposite in="SourceGraphic"/>
    </filter>
    <clipPath id="clip-path-2">
      <rect id="Rect치ngulo_409695" data-name="Rect치ngulo 409695" width="890.193" height="427.977"/>
    </clipPath>
    <clipPath id="clip-path-3">
      <path id="Trazado_993445" data-name="Trazado 993445" d="M161.077,160.887c-2.766,14.884-1.254,27.622,3.377,28.453s10.628-10.562,13.394-25.446,1.254-27.622-3.377-28.453S163.843,146,161.077,160.887Z" transform="translate(-159.693 -135.398)"/>
    </clipPath>
    <linearGradient id="linear-gradient" x1="75.343" y1="24.587" x2="76.121" y2="24.587" gradientUnits="objectBoundingBox">
      <stop offset="0" stop-color="#fff"/>
      <stop offset="0.941" stop-color="#f9f9f9"/>
    </linearGradient>
    <linearGradient id="linear-gradient-2" x1="79.422" y1="26.2" x2="80.199" y2="26.2" xlink:href="#linear-gradient"/>
    <linearGradient id="linear-gradient-3" x1="0.15" y1="0.217" x2="0.85" y2="0.949" xlink:href="#linear-gradient"/>
  </defs>
  <g id="Enmascarar_grupo_1098756" data-name="Enmascarar grupo 1098756" transform="translate(2091.529 -2410.608)" clip-path="url(#clip-path)">
    <g id="Grupo_1158384" data-name="Grupo 1158384" transform="translate(-2108.294 2396.796)">
      <g id="Grupo_1158382" data-name="Grupo 1158382" transform="translate(63.816 0)">
        <g transform="matrix(1, 0, 0, 1, -47.05, 13.81)" filter="url(#Elipse_11693)">
          <circle id="Elipse_11693-2" data-name="Elipse 11693" cx="186.542" cy="186.542" r="186.542" transform="translate(101.63 40.76)" fill="#fff"/>
        </g>
        <circle id="Elipse_11694" data-name="Elipse 11694" cx="170.496" cy="170.496" r="170.496" transform="translate(0 241.115) rotate(-45)" fill="#ffb3da"/>
      </g>
      <g id="Grupo_1158383" data-name="Grupo 1158383" transform="translate(0 7.352)">
        <g id="Grupo_1158120" data-name="Grupo 1158120" transform="translate(24.382 79.548)">
          <g id="Grupo_1158060" data-name="Grupo 1158060" transform="translate(138.266 94.945)">
            <path id="Trazado_993373" data-name="Trazado 993373" d="M222.073,355.83,217.55,203.558H439.172V355.075l-216.769.471" transform="translate(-193.711 -203.558)" fill="#0b0a10"/>
            <path id="Trazado_993374" data-name="Trazado 993374" d="M430.613,349.735H232.971l-4.429-136.064H432.827Z" transform="translate(-195.28 -205.002)" fill="#ffb3da"/>
            <g id="Grupo_1158059" data-name="Grupo 1158059" transform="translate(0 151.517)">
              <g id="Grupo_1158058" data-name="Grupo 1158058">
                <path id="Trazado_993375" data-name="Trazado 993375" d="M189.74,424.882H464.506l-29.3-44.569H217.726Z" transform="translate(-189.74 -380.313)" fill="#b7b8fb"/>
                <path id="Trazado_993376" data-name="Trazado 993376" d="M189.74,424.882H464.506l-29.3-44.569H217.726Z" transform="translate(-189.74 -380.313)" fill="#0b0a10" opacity="0.68"/>
              </g>
              <path id="Trazado_993377" data-name="Trazado 993377" d="M226.093,387.128H433.581l4.335,4.9H221.947Z" transform="translate(-194.339 -381.286)" fill="none" stroke="#fff" stroke-linecap="round" stroke-linejoin="round" stroke-miterlimit="10" stroke-width="0.306"/>
              <path id="Trazado_993378" data-name="Trazado 993378" d="M217.549,399.894H439.883l4.644,5.251H214.142Z" transform="translate(-193.224 -383.109)" fill="none" stroke="#fff" stroke-linecap="round" stroke-linejoin="round" stroke-miterlimit="10" stroke-width="0.328"/>
              <path id="Trazado_993379" data-name="Trazado 993379" d="M270.147,414.829h125.49l2.621,5.936H268.224Z" transform="translate(-200.946 -385.241)" fill="none" stroke="#fff" stroke-linecap="round" stroke-linejoin="round" stroke-miterlimit="10" stroke-width="0.262"/>
            </g>
          </g>
          <g id="Grupo_1158119" data-name="Grupo 1158119" transform="translate(0 0)">
            <g id="Grupo_1158085" data-name="Grupo 1158085" transform="translate(178.65 13.075)">
              <g id="Grupo_1158070" data-name="Grupo 1158070" transform="translate(0 11.108)">
                <g id="Grupo_1158068" data-name="Grupo 1158068" transform="translate(193.303)">
                  <g id="Grupo_1158061" data-name="Grupo 1158061" transform="translate(0 44.277)">
                    <path id="Trazado_993380" data-name="Trazado 993380" d="M488.023,190.984c14.862,4.155,27.81,4.3,28.92.331s-10.037-10.56-24.9-14.715-27.81-4.3-28.92-.331S473.161,186.829,488.023,190.984Z" transform="translate(-462.45 -172.765)" fill="#050004"/>
                    <path id="Trazado_993381" data-name="Trazado 993381" d="M508,194.692c-.157,0-.312,0-.466,0a90.881,90.881,0,0,1-38.352-10.721c-3.506-2.072-7.52-5.136-6.73-7.962,1.409-5.046,16.33-3.807,29.655-.082s26.72,10.4,25.311,15.449C516.657,194.092,511.979,194.692,508,194.692Zm-19.916-4.385a79.437,79.437,0,0,0,19.464,3.191c5.03.072,8.278-.857,8.722-2.446.875-3.13-8.966-9.642-24.486-13.98s-27.312-3.875-28.186-.743c-.444,1.589,1.87,4.062,6.189,6.615a79.508,79.508,0,0,0,18.3,7.364Z" transform="translate(-462.351 -172.662)" fill="#fff"/>
                  </g>
                  <g id="Grupo_1158067" data-name="Grupo 1158067" transform="translate(5.826)">
                    <g id="Grupo_1158066" data-name="Grupo 1158066">
                      <g id="Grupo_1158062" data-name="Grupo 1158062" transform="translate(23.724 7.137)">
                        <path id="Trazado_993382" data-name="Trazado 993382" d="M499.107,148.568a2.1,2.1,0,0,1-1.354-1.054l-.236-.437a44.3,44.3,0,0,0,3.172-5.81c1.37-3.132,2.435-6.481,4.717-9.106,1.459-1.678,5.188-3.432,6.775-.732.007.011.01.024.016.035a112.545,112.545,0,0,1-8.723,17.7A23.274,23.274,0,0,1,499.107,148.568Z" transform="translate(-496.921 -129.435)" fill="#fff"/>
                        <path id="Trazado_993383" data-name="Trazado 993383" d="M503.373,149.665h-.026a23.557,23.557,0,0,1-4.476-.616h0a2.691,2.691,0,0,1-1.743-1.351l-.235-.435a.594.594,0,0,1,.02-.6,42.807,42.807,0,0,0,3.13-5.73c.28-.642.548-1.293.817-1.945a25.563,25.563,0,0,1,4-7.315,6.831,6.831,0,0,1,5.14-2.318,3.267,3.267,0,0,1,2.6,1.675.747.747,0,0,1,.058.555,111.864,111.864,0,0,1-8.774,17.8A.6.6,0,0,1,503.373,149.665ZM498.106,147l.071.132a1.521,1.521,0,0,0,.967.757h0a22.326,22.326,0,0,0,3.907.569,111.227,111.227,0,0,0,8.379-17.029,2.023,2.023,0,0,0-1.544-.888,5.635,5.635,0,0,0-4.133,1.913,24.676,24.676,0,0,0-3.793,6.985c-.272.66-.544,1.318-.827,1.969A43.1,43.1,0,0,1,498.106,147Z" transform="translate(-496.822 -129.336)" fill="#050004"/>
                      </g>
                      <g id="Grupo_1158063" data-name="Grupo 1158063" transform="translate(29.679 5.61)">
                        <path id="Trazado_993384" data-name="Trazado 993384" d="M504.465,148.914a112.473,112.473,0,0,0,8.723-17.7c.035-.088.07-.174.1-.262.832-2.134,2.194-2.739,3.527-2.7a4.41,4.41,0,0,1,4.017,3.2,60.259,60.259,0,0,1-8.366,16.212A20.175,20.175,0,0,1,504.465,148.914Z" transform="translate(-503.868 -127.653)" fill="#fff"/>
                        <path id="Trazado_993385" data-name="Trazado 993385" d="M505.267,149.429c-.309,0-.618-.006-.928-.02a.595.595,0,0,1-.479-.91,110.56,110.56,0,0,0,8.673-17.606l.105-.263c1.019-2.615,2.827-3.12,4.1-3.073a4.992,4.992,0,0,1,4.566,3.61.6.6,0,0,1,0,.357,60.208,60.208,0,0,1-8.444,16.372.6.6,0,0,1-.284.222A20.77,20.77,0,0,1,505.267,149.429Zm11.326-20.684c-1.306,0-2.237.759-2.844,2.32l-.106.265a114.662,114.662,0,0,1-8.224,16.908,19.588,19.588,0,0,0,6.569-1.172,59.038,59.038,0,0,0,8.124-15.71,3.791,3.791,0,0,0-3.409-2.609Z" transform="translate(-503.768 -127.554)" fill="#050004"/>
                      </g>
                      <g id="Grupo_1158064" data-name="Grupo 1158064" transform="translate(37.684 3.544)">
                        <path id="Trazado_993386" data-name="Trazado 993386" d="M513.8,147.313a60.288,60.288,0,0,0,8.366-16.212c.111-.357.222-.712.324-1.076a5.875,5.875,0,0,1,2.37-3.433c3.254-2.087,6.2.774,6.2.774a3.647,3.647,0,0,1,.423.888C528.989,133.73,523.287,143.766,513.8,147.313Z" transform="translate(-513.207 -125.241)" fill="#fff"/>
                        <path id="Trazado_993387" data-name="Trazado 993387" d="M513.7,147.811a.6.6,0,0,1-.492-.932,59.116,59.116,0,0,0,8.29-16.051l.061-.2c.088-.285.177-.572.258-.864a6.481,6.481,0,0,1,2.621-3.773,5.663,5.663,0,0,1,6.932.85,3.971,3.971,0,0,1,.571,1.121.6.6,0,0,1-.021.441c-2.587,5.685-8.369,15.762-18.012,19.369A.59.59,0,0,1,513.7,147.811Zm13.573-21.485a4,4,0,0,0-2.192.669,5.3,5.3,0,0,0-2.117,3.093c-.085.3-.176.6-.267.892l-.062.2a56.649,56.649,0,0,1-7.309,14.689c8.035-3.921,13.025-12.564,15.408-17.734a2.573,2.573,0,0,0-.271-.525A5.218,5.218,0,0,0,527.277,126.326Z" transform="translate(-513.108 -125.143)" fill="#050004"/>
                      </g>
                      <g id="Grupo_1158065" data-name="Grupo 1158065">
                        <path id="Trazado_993388" data-name="Trazado 993388" d="M479.185,153.6a8.04,8.04,0,0,0,.281-4.328l-2.859-13.5a5.32,5.32,0,0,1,1.9-5.268,5.065,5.065,0,0,1,7.58,1.515l7.482,13.871.236.437a2.109,2.109,0,0,0,1.354,1.054,23.207,23.207,0,0,0,4.366.6,20.211,20.211,0,0,0,8.006-1.256c9.484-3.548,15.186-13.583,17.678-19.058.244-.537.459-1.032.643-1.471a7.171,7.171,0,0,1,4.877-4.332c2.248-.519,4.958.053,6.813,4.421,3.71,8.735-21.848,35.359-21.848,35.359l-6.817,32.376c-6.083,9.717-39.032-13.852-39.032-13.852Z" transform="translate(-469.246 -121.108)" fill="#fff"/>
                        <path id="Trazado_993389" data-name="Trazado 993389" d="M503.615,196.864c-11.28,0-33.237-15.606-34.219-16.311a.6.6,0,0,1-.215-.681l9.344-26.568h0a7.421,7.421,0,0,0,.26-4.007l-2.859-13.5a5.879,5.879,0,0,1,2.11-5.857,5.66,5.66,0,0,1,8.471,1.693l7.72,14.314a1.521,1.521,0,0,0,.967.757,22.36,22.36,0,0,0,4.255.585,19.8,19.8,0,0,0,7.772-1.218c9.24-3.457,14.833-13.229,17.344-18.746.239-.53.453-1.02.634-1.454a7.773,7.773,0,0,1,5.294-4.683c2.266-.523,5.416-.124,7.494,4.769,3.728,8.774-19.725,33.656-21.847,35.88l-6.782,32.211a.581.581,0,0,1-.078.195,5.492,5.492,0,0,1-3.775,2.455A9.814,9.814,0,0,1,503.615,196.864Zm-33.161-17.023c3.132,2.191,25.492,17.53,34.818,15.683a4.3,4.3,0,0,0,2.941-1.833l6.8-32.27a.592.592,0,0,1,.153-.29c.252-.263,25.242-26.437,21.728-34.714-1.408-3.316-3.468-4.687-6.13-4.073a6.58,6.58,0,0,0-4.462,3.981c-.183.443-.4.945-.649,1.487-2.587,5.686-8.369,15.762-18.012,19.37a20.869,20.869,0,0,1-8.24,1.293,23.593,23.593,0,0,1-4.477-.616,2.691,2.691,0,0,1-1.742-1.351L485.461,132.2a4.468,4.468,0,0,0-6.685-1.33,4.7,4.7,0,0,0-1.684,4.677l2.859,13.5a8.618,8.618,0,0,1-.3,4.65Z" transform="translate(-469.146 -121.009)" fill="#050004"/>
                      </g>
                    </g>
                  </g>
                </g>
                <path id="Trazado_993390" data-name="Trazado 993390" d="M482.2,191.509c-24.586,4.546-43.972-9.138-49.5-13.592a1.38,1.38,0,0,0-2.19.7l-14.736,50.519a45.239,45.239,0,0,0-33.25-14.67l-11.607-.114-79.181.667-.011-.042-2.091.051-.694,0-.01.015-6.376.156c-14.92.365-28.342,11.559-32.427,28.137q-.247,1-.449,2.029L236.85,346.244l39.6.135,25.963.134,104.068-.333-.124-15.7c18.939,1.78,37.826-6.446,48.593-22.455a53.187,53.187,0,0,0,8.071-19.53l21.28-94.806A1.816,1.816,0,0,0,482.2,191.509Z" transform="translate(-236.85 -129.091)" fill="#5865ff" stroke="#020202" stroke-miterlimit="10" stroke-width="1"/>
                <g id="Grupo_1158069" data-name="Grupo 1158069" transform="translate(168.688 69.707)">
                  <path id="Trazado_993391" data-name="Trazado 993391" d="M434.233,275.795a.6.6,0,0,1-.578-.745l9.878-38.414a.6.6,0,0,1,1.154.3l-9.878,38.414A.6.6,0,0,1,434.233,275.795Z" transform="translate(-433.636 -207.162)" fill="#020202"/>
                  <path id="Trazado_993392" data-name="Trazado 993392" d="M509.219,215.8a62.024,62.024,0,0,1-29.089-7.663.6.6,0,0,1,.563-1.05c18.575,9.953,33.821,7.181,33.974,7.152a.6.6,0,0,1,.224,1.17A34.072,34.072,0,0,1,509.219,215.8Z" transform="translate(-440.23 -202.996)" fill="#fff"/>
                  <path id="Trazado_993393" data-name="Trazado 993393" d="M512.434,208.439H512.4A3.057,3.057,0,0,1,510.3,203.2a3.057,3.057,0,1,1,2.139,5.242Zm0-4.922a1.864,1.864,0,1,0,1.332.56A1.862,1.862,0,0,0,512.434,203.517Z" transform="translate(-444.45 -202.327)" fill="#fff"/>
                </g>
              </g>
              <g id="Grupo_1158079" data-name="Grupo 1158079" transform="translate(62.55)">
                <g id="Grupo_1158071" data-name="Grupo 1158071">
                  <path id="Trazado_993394" data-name="Trazado 993394" d="M312.362,134.425a12.982,12.982,0,0,0-.519,12.464l4.934,10.451-.235.049s5.147,26.992,17.955,19.9a16.369,16.369,0,0,0,5.334-4.683,28.925,28.925,0,0,0,39.889-26.052,4.426,4.426,0,0,0,3.416-2,13.252,13.252,0,0,0-7.946-23.143c-5.763-6.285-9.532-12.8-20.94-12.665a15.274,15.274,0,0,0-12.623,6.5c-.03.045-.036.108-.078.141-.5.393-6.073.369-6.842.489-5.528.856-12.638,2.26-15.931,7.251a18.441,18.441,0,0,0-2.547,7.441A12.207,12.207,0,0,0,312.362,134.425Z" transform="translate(-309.916 -108.151)" fill="#050004"/>
                  <path id="Trazado_993395" data-name="Trazado 993395" d="M330.246,178.976a7.431,7.431,0,0,1-3.187-.726c-7.843-3.678-11.066-20.151-11.2-20.849l-.11-.576.069-.014-4.611-9.767a13.637,13.637,0,0,1,.555-13.038h0a12.937,12.937,0,0,1,3.824-3.887,19.055,19.055,0,0,1,2.6-7.411c3.217-4.878,9.753-6.493,16.337-7.512.282-.044.947-.065,2.1-.1a39.9,39.9,0,0,0,4.415-.273,15.879,15.879,0,0,1,13.112-6.769c10.1-.134,14.442,4.908,19.059,10.228.7.812,1.42,1.636,2.169,2.458a13.146,13.146,0,0,1,1.654.235,13.889,13.889,0,0,1,6.487,23.858,4.749,4.749,0,0,1-3.311,2.117,29.4,29.4,0,0,1-29.5,28.317h-.027a29.313,29.313,0,0,1-10.742-2.035,17.034,17.034,0,0,1-5.247,4.482A9.17,9.17,0,0,1,330.246,178.976Zm-13.1-21.226c.644,2.95,3.9,16.368,10.415,19.421a6.83,6.83,0,0,0,6.547-.5,15.858,15.858,0,0,0,5.143-4.514l.275-.375.43.177a28.143,28.143,0,0,0,10.718,2.117h.026a28.217,28.217,0,0,0,28.324-27.634l.013-.488.482-.083a3.872,3.872,0,0,0,2.99-1.689l.13-.167a12.66,12.66,0,0,0-7.592-22.107l-.236-.017-.16-.175c-.814-.887-1.587-1.779-2.348-2.655-4.624-5.327-8.594-9.924-18.146-9.818a14.684,14.684,0,0,0-12.136,6.241.536.536,0,0,1-.2.276c-.39.309-1.4.411-5.167.524-.852.026-1.732.051-1.954.087-6.313.977-12.562,2.5-15.525,6.991a17.714,17.714,0,0,0-2.456,7.2l-.042.27-.233.145a11.7,11.7,0,0,0-3.678,3.662h0a12.438,12.438,0,0,0-.483,11.89l5.256,11.134Z" transform="translate(-309.819 -108.051)" fill="#050004"/>
                </g>
                <g id="Grupo_1158073" data-name="Grupo 1158073" transform="translate(4.405 23.21)">
                  <path id="Trazado_993396" data-name="Trazado 993396" d="M327.011,162.4c-.162.037-.32.083-.478.128C326.691,162.479,326.851,162.438,327.011,162.4Z" transform="translate(-316.61 -139.021)" fill="none"/>
                  <path id="Trazado_993397" data-name="Trazado 993397" d="M325.6,162.812c-.225.081-.448.164-.666.259C325.154,162.978,325.376,162.893,325.6,162.812Z" transform="translate(-316.382 -139.08)" fill="none"/>
                  <g id="Grupo_1158072" data-name="Grupo 1158072">
                    <path id="Trazado_993398" data-name="Trazado 993398" d="M379.1,144.415c-4.966-7.579-5.723-7.94-.514.263a21.254,21.254,0,0,1-28.922-8.856,15.508,15.508,0,0,1-13.946,19.332l.031,3.256a13.194,13.194,0,0,1-.331,3.048,11.494,11.494,0,0,0-8.663-3.072,10.052,10.052,0,0,0-1.3.219c-.161.04-.321.081-.478.128-.238.066-.472.144-.7.227s-.447.166-.666.259a11.546,11.546,0,0,0-2.305,1.33l-.013-.042a12.908,12.908,0,0,0,10.29,23.215l.536.4,1.648,45.763,34.782-2.968c-.741-8.682-2.306-26.118-2.308-26.139.016-.077,2.128-.68,4.753-1.4l.184-.051a19.733,19.733,0,0,0,14.3-21.337c-.858-7.283-1.683-14.649-1.741-16.526C383.555,155.555,382.382,149.419,379.1,144.415Z" transform="translate(-315.056 -135.226)" fill="#fff"/>
                    <path id="Trazado_993399" data-name="Trazado 993399" d="M333.666,230.378a.6.6,0,0,1-.595-.574l-1.638-45.477-.088-.065a13.5,13.5,0,0,1-10.49-24.348.609.609,0,0,1,.188-.086,12.266,12.266,0,0,1,2.23-1.258c.236-.1.468-.189.7-.273s.494-.17.747-.24c.156-.046.325-.089.493-.131a10.551,10.551,0,0,1,1.39-.234,11.9,11.9,0,0,1,8.318,2.568,12.506,12.506,0,0,0,.135-1.945l-.031-3.255a.6.6,0,0,1,.553-.6,15.009,15.009,0,0,0,12.9-9.555,14.848,14.848,0,0,0,.513-9.036.6.6,0,0,1,1.1-.425,20.655,20.655,0,0,0,27.543,8.9c-3.723-5.875-3.619-5.942-3.037-6.318s.7-.459,4.9,5.959h0c2.921,4.458,4.512,10.3,4.731,17.354.048,1.54.648,7.237,1.737,16.475A20.21,20.21,0,0,1,371.236,199.8l-.185.051c-2.651.729-3.79,1.066-4.277,1.222.249,2.778,1.6,17.828,2.267,25.693a.6.6,0,0,1-.543.645l-34.781,2.967Zm-2.183-47.353a.591.591,0,0,1,.356.118l.536.4a.6.6,0,0,1,.239.456l1.626,45.137,33.563-2.863c-.715-8.35-2.086-23.643-2.242-25.38l-.015-.165a.616.616,0,0,1,.01-.173c.1-.455.1-.455,5.178-1.853l.343.525-.159-.573a19.026,19.026,0,0,0,13.87-20.694c-1.108-9.4-1.7-14.982-1.744-16.577-.2-6.6-1.634-12.075-4.25-16.29l-.022.013a21.839,21.839,0,0,1-28.149-6.54,15.972,15.972,0,0,1-1.031,6.768A16.2,16.2,0,0,1,336.224,155.6l.026,2.705a13.879,13.879,0,0,1-.345,3.185.6.6,0,0,1-.4.435.589.589,0,0,1-.577-.118,10.819,10.819,0,0,0-8.216-2.927,9.414,9.414,0,0,0-1.223.206c-.14.035-.291.074-.441.118-.234.065-.453.138-.673.217s-.427.159-.636.247a10.978,10.978,0,0,0-2.179,1.258.577.577,0,0,1-.219.1,12.317,12.317,0,0,0,10.005,22.013A.627.627,0,0,1,331.482,183.025Z" transform="translate(-314.957 -135.127)" fill="#050004"/>
                  </g>
                  <path id="Trazado_993400" data-name="Trazado 993400" d="M361.238,212.6a26.559,26.559,0,0,1-12.641-3.112c6.349,12.078,23.465,13.051,23.465,13.051l-1.015-11.9A26.574,26.574,0,0,1,361.238,212.6Z" transform="translate(-319.76 -145.745)" fill="#050004"/>
                </g>
                <g id="Grupo_1158076" data-name="Grupo 1158076" transform="translate(42.627 35.987)">
                  <path id="Trazado_993401" data-name="Trazado 993401" d="M373.419,164.724a1.944,1.944,0,1,1-1.684-2.173A1.944,1.944,0,0,1,373.419,164.724Z" transform="translate(-360.974 -151.817)" fill="#050004"/>
                  <path id="Trazado_993402" data-name="Trazado 993402" d="M392.865,164.774a1.724,1.724,0,1,1-1.493-1.927A1.726,1.726,0,0,1,392.865,164.774Z" transform="translate(-363.813 -151.86)" fill="#050004"/>
                  <g id="Grupo_1158074" data-name="Grupo 1158074" transform="translate(2.624 0.78)">
                    <path id="Trazado_993403" data-name="Trazado 993403" d="M372.2,153.841a5.381,5.381,0,0,1-2.154.588c-.788.106-1.576.233-2.258.367s-1.462.315-2.23.514a5.34,5.34,0,0,1-2.212.268c-.634-.132-1.012-.8-.489-1.8a6.159,6.159,0,0,1,4.266-2.684,5.977,5.977,0,0,1,4.907.884C372.862,152.716,372.742,153.476,372.2,153.841Z" transform="translate(-362.606 -150.942)" fill="#050004"/>
                  </g>
                  <g id="Grupo_1158075" data-name="Grupo 1158075" transform="translate(23.475)">
                    <path id="Trazado_993404" data-name="Trazado 993404" d="M387.315,152.607a4.777,4.777,0,0,0,1.912.52c.7.093,1.4.2,2,.324s1.3.278,1.98.454a4.746,4.746,0,0,0,1.963.237c.562-.118.9-.706.433-1.6a5.465,5.465,0,0,0-3.785-2.378,5.3,5.3,0,0,0-4.352.788C386.724,151.611,386.832,152.285,387.315,152.607Z" transform="translate(-386.931 -150.032)" fill="#050004"/>
                  </g>
                  <path id="Trazado_993405" data-name="Trazado 993405" d="M378.25,175.626a.6.6,0,0,1-.036-1.191l3.209-.2a3.57,3.57,0,0,0,3.168-4.693l-3.905-11.687a.6.6,0,1,1,1.13-.379l3.905,11.688a4.76,4.76,0,0,1-4.225,6.26l-3.209.2A.261.261,0,0,1,378.25,175.626Z" transform="translate(-362.131 -151.037)" fill="#050004"/>
                  <path id="Trazado_993406" data-name="Trazado 993406" d="M374.572,183.785h-.035c-7.73-.455-7.811-5.6-7.811-5.657a.6.6,0,0,1,.6-.594h0a.6.6,0,0,1,.595.593c0,.174.133,4.083,6.69,4.469a.6.6,0,0,1-.035,1.19Z" transform="translate(-360.571 -153.959)" fill="#050004"/>
                  <path id="Trazado_993407" data-name="Trazado 993407" d="M393.491,172.4a7.632,7.632,0,1,1,1.21-.1A7.639,7.639,0,0,1,393.491,172.4Zm.007-14.063a6.436,6.436,0,1,0,6.351,5.418A6.459,6.459,0,0,0,393.5,158.338Z" transform="translate(-363.304 -151.048)" fill="#d0c1ff"/>
                  <path id="Trazado_993408" data-name="Trazado 993408" d="M368.22,174.1a8.719,8.719,0,1,1,1.395-.111A8.816,8.816,0,0,1,368.22,174.1Zm.024-16.2a7.5,7.5,0,1,0,7.4,6.317A7.5,7.5,0,0,0,368.244,157.9Z" transform="translate(-359.546 -150.985)" fill="#d0c1ff"/>
                  <path id="Trazado_993409" data-name="Trazado 993409" d="M379.239,166.231a.6.6,0,0,1-.336-1.088c4.109-2.806,6.88-.268,6.908-.242a.6.6,0,0,1-.815.869c-.1-.089-2.141-1.883-5.422.357A.6.6,0,0,1,379.239,166.231Z" transform="translate(-362.272 -152.001)" fill="#d0c1ff"/>
                </g>
                <g id="Grupo_1158078" data-name="Grupo 1158078" transform="translate(13.763 55.405)">
                  <g id="Grupo_1158077" data-name="Grupo 1158077">
                    <path id="Trazado_993410" data-name="Trazado 993410" d="M327.763,180.18a.6.6,0,0,1-.4-1.035l2.559-2.35-3.821-3.05a.6.6,0,1,1,.744-.931l4.364,3.484a.6.6,0,0,1,.032.9l-3.071,2.819A.592.592,0,0,1,327.763,180.18Z" transform="translate(-325.874 -172.684)" fill="#050004"/>
                  </g>
                </g>
              </g>
              <g id="Grupo_1158084" data-name="Grupo 1158084" transform="translate(79.494 92.196)">
                <g id="Grupo_1158080" data-name="Grupo 1158080" transform="translate(0.003 0.194)">
                  <path id="Trazado_993411" data-name="Trazado 993411" d="M373.946,351.883H330.282V216.524L352.4,229.259l21.546-12.735Z" transform="translate(-329.687 -215.929)" fill="#f7bb63"/>
                  <path id="Trazado_993412" data-name="Trazado 993412" d="M373.847,352.379H330.184a.6.6,0,0,1-.6-.6V216.425a.6.6,0,0,1,.893-.516L352.3,228.47l21.247-12.557a.6.6,0,0,1,.6,0,.6.6,0,0,1,.3.518V351.784A.6.6,0,0,1,373.847,352.379Zm-43.068-1.191h42.473V217.469l-20.647,12.2a.6.6,0,0,1-.6,0l-21.225-12.22V351.188Z" transform="translate(-329.588 -215.83)" fill="#050004"/>
                </g>
                <g id="Grupo_1158081" data-name="Grupo 1158081" opacity="0.63">
                  <path id="Trazado_993413" data-name="Trazado 993413" d="M373.444,352.347H330.181a.6.6,0,0,1-.6-.6V216.2a.6.6,0,0,1,.3-.517.6.6,0,0,1,.6,0l21.611,12.577,21.046-12.574a.6.6,0,0,1,.9.512V351.75A.6.6,0,0,1,373.444,352.347Zm-42.667-1.191h42.071V217.25L352.4,229.465a.6.6,0,0,1-.605,0l-21.019-12.232V351.156Z" transform="translate(-329.585 -215.604)" fill="#000201"/>
                </g>
                <path id="Trazado_993414" data-name="Trazado 993414" d="M333.515,244.439a.6.6,0,0,1-.3-1.111l19.346-11.21a.6.6,0,0,1,.6,0L372.5,243.251a.6.6,0,0,1-.594,1.034l-19.048-10.962-19.05,11.038A.61.61,0,0,1,333.515,244.439Z" transform="translate(-330.061 -217.95)" fill="#050004"/>
                <g id="Grupo_1158082" data-name="Grupo 1158082" transform="translate(9.097 26.601)">
                  <path id="Trazado_993415" data-name="Trazado 993415" d="M348.606,250.086l-7.679,53.993a3.323,3.323,0,0,0,.22,1.744l10.389,24.786a2.535,2.535,0,0,0,4.782.037L367.1,305.83a3.318,3.318,0,0,0,.237-1.766l-7.457-54.206a2.755,2.755,0,0,0-2.716-2.525l-6.031.243A2.782,2.782,0,0,0,348.606,250.086Z" transform="translate(-340.297 -246.734)" fill="#fff"/>
                  <path id="Trazado_993416" data-name="Trazado 993416" d="M353.836,332.816h-.019a3.217,3.217,0,0,1-2.93-2.077L340.5,305.953a3.9,3.9,0,0,1-.261-2.058l7.679-53.993h0a3.384,3.384,0,0,1,3.089-3.023l6.031-.244a3.374,3.374,0,0,1,3.329,3.041l7.457,54.207a3.9,3.9,0,0,1-.281,2.085l-10.776,24.816A3.208,3.208,0,0,1,353.836,332.816Zm-4.74-82.745-7.679,53.993a2.7,2.7,0,0,0,.179,1.43l10.389,24.786a2.021,2.021,0,0,0,1.839,1.346h.012a2.012,2.012,0,0,0,1.835-1.316l10.777-24.816a2.7,2.7,0,0,0,.195-1.447l-7.457-54.206a2.177,2.177,0,0,0-2.1-2.012l-6.031.244A2.194,2.194,0,0,0,349.1,250.071Z" transform="translate(-340.198 -246.635)" fill="#050004"/>
                </g>
                <g id="Grupo_1158083" data-name="Grupo 1158083" transform="translate(11.469 14.088)">
                  <path id="Trazado_993417" data-name="Trazado 993417" d="M343.659,238.953,348.9,245.6a7.109,7.109,0,0,0,11.1.086l5.391-6.631-10.994-6.327Z" transform="translate(-343.064 -232.137)" fill="#fff"/>
                  <path id="Trazado_993418" data-name="Trazado 993418" d="M354.385,248.81h-.061a7.67,7.67,0,0,1-5.992-2.937l-5.239-6.652a.595.595,0,0,1,.17-.884L354,232.118a.6.6,0,0,1,.6,0l10.995,6.327a.6.6,0,0,1,.165.892l-5.391,6.631A7.668,7.668,0,0,1,354.385,248.81Zm-9.932-9.786,4.814,6.112a6.512,6.512,0,0,0,10.168.079l4.95-6.087L354.3,233.321Z" transform="translate(-342.965 -232.038)" fill="#050004"/>
                </g>
              </g>
            </g>
            <g id="Grupo_1158115" data-name="Grupo 1158115" transform="translate(103.217 27.312)">
              <g id="Grupo_1158114" data-name="Grupo 1158114" transform="translate(0)">
                <g id="Grupo_1158091" data-name="Grupo 1158091" transform="translate(48.811 65.354)">
                  <g id="Grupo_1158086" data-name="Grupo 1158086" transform="translate(0 46.795)">
                    <path id="Trazado_993419" data-name="Trazado 993419" d="M230,271.833c-12,2.858-22.457,2.076-23.367-1.744s8.076-9.236,20.071-12.093,22.457-2.077,23.367,1.744S242,268.976,230,271.833Z" transform="translate(-205.905 -255.601)" fill="#000201"/>
                    <path id="Trazado_993420" data-name="Trazado 993420" d="M231.649,271.964c-.535.141-1.067.274-1.6.4-10.841,2.583-22.994,2.677-24.167-2.236s9.733-10.3,20.562-12.892,22.994-2.676,24.166,2.236C251.72,264.145,241.931,269.252,231.649,271.964Zm-6.542-13.024c-11.465,3.023-18.612,8.048-17.936,10.882.707,2.968,10.149,4.212,22.568,1.253h0c12.406-2.959,20.286-8.327,19.58-11.295s-10.149-4.212-22.568-1.253Q225.915,258.728,225.107,258.94Z" transform="translate(-205.794 -255.488)" fill="#000201"/>
                  </g>
                  <g id="Grupo_1158087" data-name="Grupo 1158087" transform="translate(4.358)">
                    <path id="Trazado_993421" data-name="Trazado 993421" d="M216.35,250.884c-4.169-5.9-6.225-13.371-3.914-20.409l4.121.981s2.516-11.344,2.2-19.377c1.2-2.885,12.307,1.4,12.307,1.4l-2.156-4.267a8.152,8.152,0,0,1-.833-4.653c.155-1.682,1.668-3.354,3.323-3.018,1.629.331,5.359,6.49,6.475,7.912,6.712,8.558,8.047,20.621,8.269,31.156.118,5.614,9.286,62.5,8.623,65.149-4,16-25.54,18.824-33.527,4.392h0a41.741,41.741,0,0,1-2.418-8.93c-.638-4.116,1.909-41.9,1.87-43.163a7.7,7.7,0,0,0-2.207-4.589C217.748,252.59,216.963,251.75,216.35,250.884Z" transform="translate(-210.963 -200.985)" fill="#fff"/>
                    <path id="Trazado_993422" data-name="Trazado 993422" d="M241.959,319.3a19.981,19.981,0,0,1-2.484.487,18.347,18.347,0,0,1-18.771-9.478,42.153,42.153,0,0,1-2.477-9.1c-.478-3.082.782-24.43,1.458-35.9.232-3.919.414-7.015.4-7.327-.048-1.533-.87-2.818-2.088-4.275-.22-.265-.446-.525-.67-.784-.513-.594-1.045-1.21-1.486-1.832h0c-4.7-6.651-6.152-14.256-3.983-20.865a.517.517,0,0,1,.608-.34l3.609.859c.477-2.294,2.352-11.82,2.08-18.734a.512.512,0,0,1,.039-.218c1.149-2.756,8.906-.375,12.292.817l-1.57-3.107a9.642,9.642,0,0,1-1.444-5.08,4.207,4.207,0,0,1,1.627-2.907,2.885,2.885,0,0,1,2.31-.568c1.327.27,3.309,3.049,5.574,6.38.5.742.939,1.383,1.2,1.718,7.027,8.961,8.168,21.521,8.378,31.462.052,2.494,1.935,15.381,3.928,29.025,3.062,20.962,5.042,34.812,4.68,36.26A18.3,18.3,0,0,1,241.959,319.3Zm-25.273-68.8c.412.583.9,1.152,1.424,1.755.227.264.457.529.681.8a8.2,8.2,0,0,1,2.326,4.9c.01.344-.124,2.651-.406,7.42-.675,11.431-1.93,32.706-1.469,35.68a41.365,41.365,0,0,0,2.388,8.82,17.662,17.662,0,0,0,32.551-4.328c.337-1.383-2.455-20.5-4.7-35.862-2-13.677-3.885-26.6-3.939-29.152-.206-9.782-1.318-22.127-8.158-30.849-.285-.363-.708-.986-1.245-1.775-1.267-1.864-3.9-5.743-4.927-5.951a1.875,1.875,0,0,0-1.493.387,5.5,5.5,0,0,0-1.908,2.681c-.145,1.587,1.366,5.106,2.027,6.414l.7,1.659a12.538,12.538,0,0,1,1.143,2.507c-.143.157-.316-.7-.516-.774-4.565-1.735-11.07-4.247-11.974-2.727.282,8-2.192,19.265-2.218,19.377a.513.513,0,0,1-.621.389L212.7,231c-1.859,6.191-.418,13.27,3.986,19.5Z" transform="translate(-210.878 -200.899)" fill="#050004"/>
                  </g>
                  <g id="Grupo_1158089" data-name="Grupo 1158089" transform="translate(0.12 49.612)">
                    <path id="Trazado_993423" data-name="Trazado 993423" d="M210.73,336.661a58.694,58.694,0,0,0,3.394,12.53c11.206,20.248,41.422,16.289,47.041-6.162.791-3.16-8.378-61.263-11.253-83.482l-3.15,2.326a52.824,52.824,0,0,1-40.026,9.612h0C208.234,273.314,209.835,330.886,210.73,336.661Z" transform="translate(-206.049 -258.885)" fill="#5865ff"/>
                    <g id="Grupo_1158088" data-name="Grupo 1158088" opacity="0.24">
                      <path id="Trazado_993424" data-name="Trazado 993424" d="M243.185,361.989a27.793,27.793,0,0,1-3.479.682A25.684,25.684,0,0,1,213.43,349.4a59.148,59.148,0,0,1-3.469-12.75h0c-.365-2.356-.833-12.9-1.374-25.121-.714-16.112-1.693-38.179-2.512-39.784a.626.626,0,0,1-.045-.729.672.672,0,0,1,.7-.3,52.433,52.433,0,0,0,39.523-9.491L249.4,258.9a.671.671,0,0,1,.653-.076.661.661,0,0,1,.4.525c1.011,7.828,2.79,20,4.673,32.89,4.294,29.4,7.071,48.817,6.565,50.838A25.617,25.617,0,0,1,243.185,361.989Zm-35.663-89.8c.714,3.75,1.345,15.767,2.389,39.287.517,11.67,1.006,22.693,1.359,24.976h0a58.132,58.132,0,0,0,3.355,12.388,24.838,24.838,0,0,0,45.78-6.08c.481-1.918-3.44-28.759-6.589-50.325-1.8-12.3-3.5-23.943-4.531-31.795L247.04,262.3A53.785,53.785,0,0,1,207.523,272.186Zm3.093,64.365.012,0Z" transform="translate(-205.935 -258.774)" fill="#050004"/>
                    </g>
                    <path id="Trazado_993425" data-name="Trazado 993425" d="M243.185,361.989a27.793,27.793,0,0,1-3.479.682A25.684,25.684,0,0,1,213.43,349.4a59.148,59.148,0,0,1-3.469-12.75h0c-.365-2.356-.833-12.9-1.374-25.121-.714-16.112-1.693-38.179-2.512-39.784a.626.626,0,0,1-.045-.729.672.672,0,0,1,.7-.3,52.433,52.433,0,0,0,39.523-9.491L249.4,258.9a.671.671,0,0,1,.653-.076.661.661,0,0,1,.4.525c1.011,7.828,2.79,20,4.673,32.89,4.294,29.4,7.071,48.817,6.565,50.838A25.617,25.617,0,0,1,243.185,361.989Zm-35.663-89.8c.714,3.75,1.345,15.767,2.389,39.287.517,11.67,1.006,22.693,1.359,24.976h0a58.132,58.132,0,0,0,3.355,12.388,24.838,24.838,0,0,0,45.78-6.08c.481-1.918-3.44-28.759-6.589-50.325-1.8-12.3-3.5-23.943-4.531-31.795L247.04,262.3A53.785,53.785,0,0,1,207.523,272.186Zm3.093,64.365.012,0Z" transform="translate(-205.935 -258.774)" fill="#050004"/>
                  </g>
                  <g id="Grupo_1158090" data-name="Grupo 1158090" transform="translate(1.138 3.55)">
                    <path id="Trazado_993426" data-name="Trazado 993426" d="M231.525,218.761l-11.518,15.09-12.084-18.62,1.042-9.219,18.582,4.794Z" transform="translate(-207.236 -205.18)" fill="#111"/>
                    <path id="Trazado_993427" data-name="Trazado 993427" d="M219.849,234.863l-12.727-19.608,1.156-10.214,19.614,5.061,4.3,8.594Zm-11.355-19.931,11.442,17.63,10.7-14.013-3.659-7.314-17.551-4.53Z" transform="translate(-207.122 -205.041)" fill="#000201"/>
                  </g>
                </g>
                <g id="Grupo_1158093" data-name="Grupo 1158093" transform="translate(67.485 62.221)">
                  <g id="Grupo_1158092" data-name="Grupo 1158092">
                    <path id="Trazado_993428" data-name="Trazado 993428" d="M232.043,210.8s-1.577-3.377-2.261-4.788a9.392,9.392,0,0,1-1.325-4.762c.144-1.667,1.576-3.323,3.147-2.987,1.546.331,5.092,6.444,6.151,7.856" transform="translate(-227.701 -197.383)" fill="#fff"/>
                    <path id="Trazado_993429" data-name="Trazado 993429" d="M231.636,211.829s-1.752-3.709-2.512-5.258-1.7-3.479-1.522-5.519a4.581,4.581,0,0,1,1.706-3.14,2.945,2.945,0,0,1,2.409-.611c1.388.29,3.479,3.316,5.869,6.942.536.811,1,1.511,1.276,1.878a.526.526,0,0,1-.085.723.489.489,0,0,1-.7-.087c-.3-.4-.748-1.075-1.316-1.936-1.344-2.038-4.14-6.281-5.242-6.511a1.981,1.981,0,0,0-1.614.429,3.56,3.56,0,0,0-1.306,2.408c-.155,1.745.717,3.527,1.42,4.958.762,1.554,2.519,5.272,2.519,5.272Z" transform="translate(-227.578 -197.244)" fill="#050004"/>
                  </g>
                  <path id="Trazado_993430" data-name="Trazado 993430" d="M236.458,223.126a.419.419,0,0,1-.065.013.5.5,0,0,1-.559-.446c-.392-3.161-3.786-9.207-3.821-9.267a.525.525,0,0,1,.181-.7.5.5,0,0,1,.684.186c.144.255,3.53,6.287,3.947,9.654A.516.516,0,0,1,236.458,223.126Z" transform="translate(-228.202 -199.444)" fill="#000201"/>
                </g>
                <g id="Grupo_1158108" data-name="Grupo 1158108">
                  <g id="Grupo_1158107" data-name="Grupo 1158107">
                    <g id="Grupo_1158106" data-name="Grupo 1158106">
                      <g id="Grupo_1158094" data-name="Grupo 1158094" transform="translate(76.001 41.63)">
                        <path id="Trazado_993431" data-name="Trazado 993431" d="M237.972,186.513l6.166,1.12a5.734,5.734,0,0,0,6.51-4.82l.219-1.21a5.733,5.733,0,0,0-4.4-6.8l-6.166-1.12Z" transform="translate(-237.579 -173.288)" fill="#000201"/>
                        <path id="Trazado_993432" data-name="Trazado 993432" d="M244,187.954l-6.166-1.12a.393.393,0,0,1-.316-.458l2.33-12.832a.392.392,0,0,1,.163-.253.4.4,0,0,1,.295-.063l6.166,1.12a5.733,5.733,0,0,1,3.808,2.576,6.463,6.463,0,0,1,.908,4.684l-.22,1.21a6.458,6.458,0,0,1-2.5,4.065,5.913,5.913,0,0,1-2.138,1.008A5.666,5.666,0,0,1,244,187.954Zm-5.639-1.824,5.779,1.049a4.952,4.952,0,0,0,3.861-.93,5.677,5.677,0,0,0,2.191-3.573l.22-1.21a5.68,5.68,0,0,0-.795-4.116,4.949,4.949,0,0,0-3.288-2.228l-5.779-1.049Z" transform="translate(-237.513 -173.223)" fill="#000201"/>
                      </g>
                      <g id="Grupo_1158095" data-name="Grupo 1158095" transform="translate(53.01 58.934)">
                        <path id="Trazado_993433" data-name="Trazado 993433" d="M215.422,239.506h0c2.91.529,5.771-1.8,6.388-5.2l6.037-33.249c.617-3.4-1.241-6.585-4.152-7.114h0c-2.91-.529-5.771,1.8-6.388,5.2l-6.037,33.249C210.651,235.793,212.51,238.977,215.422,239.506Z" transform="translate(-210.758 -193.475)" fill="#000201"/>
                        <path id="Trazado_993434" data-name="Trazado 993434" d="M215.285,239.828h0c-3.119-.567-5.124-3.964-4.469-7.572l6.037-33.249c.656-3.609,3.725-6.083,6.846-5.517a5.355,5.355,0,0,1,3.669,2.669,7.171,7.171,0,0,1,.8,4.9l-6.037,33.249a7.175,7.175,0,0,1-2.472,4.308,5.72,5.72,0,0,1-2.271,1.148A5.066,5.066,0,0,1,215.285,239.828Zm2.343-40.68L211.59,232.4c-.578,3.181,1.144,6.167,3.835,6.656a4.571,4.571,0,0,0,3.735-1.045,6.388,6.388,0,0,0,2.2-3.839l6.037-33.249a6.392,6.392,0,0,0-.705-4.365,4.579,4.579,0,0,0-3.13-2.291,4.259,4.259,0,0,0-1.771.053A5.92,5.92,0,0,0,217.628,199.148Zm-2.279,40.294.008,0Z" transform="translate(-210.692 -193.41)" fill="#000201"/>
                      </g>
                      <g id="Grupo_1158096" data-name="Grupo 1158096" transform="translate(54.682 52.054)">
                        <path id="Trazado_993435" data-name="Trazado 993435" d="M216.673,196.981l11.278,2.048a4.347,4.347,0,0,0,5.053-3.5l.457-2.514a4.348,4.348,0,0,0-3.5-5.053l-11.278-2.048a4.348,4.348,0,0,0-5.053,3.5l-.457,2.514A4.347,4.347,0,0,0,216.673,196.981Z" transform="translate(-212.709 -185.449)" fill="#fff9f3"/>
                        <path id="Trazado_993436" data-name="Trazado 993436" d="M227.815,199.35,216.537,197.3a4.739,4.739,0,0,1-3.816-5.511l.456-2.514a4.745,4.745,0,0,1,5.51-3.816l11.278,2.048a4.746,4.746,0,0,1,3.816,5.511l-.457,2.514a4.73,4.73,0,0,1-5.51,3.816Zm-13.865-9.932-.456,2.514a3.958,3.958,0,0,0,3.183,4.6h0l11.278,2.048a3.953,3.953,0,0,0,4.6-3.183l.457-2.514a3.959,3.959,0,0,0-3.183-4.6l-11.278-2.048a3.955,3.955,0,0,0-4.6,3.183Z" transform="translate(-212.643 -185.384)" fill="#000201"/>
                      </g>
                      <g id="Grupo_1158097" data-name="Grupo 1158097" transform="translate(58.44 30.849)">
                        <path id="Trazado_993437" data-name="Trazado 993437" d="M217.486,188.075l12.96,2.353c6.331,1.15,12.458-3.387,13.683-10.132l.462-2.543c1.225-6.745-2.915-13.146-9.247-14.3l-12.96-2.353Z" transform="translate(-217.093 -160.711)" fill="#f381d8"/>
                        <path id="Trazado_993438" data-name="Trazado 993438" d="M230.31,190.751,217.35,188.4a.393.393,0,0,1-.316-.458l4.9-26.971a.392.392,0,0,1,.163-.253.4.4,0,0,1,.295-.064l12.96,2.354a11.619,11.619,0,0,1,7.718,5.223,13.145,13.145,0,0,1,1.846,9.531l-.462,2.543a12.854,12.854,0,0,1-9.432,10.313A11.407,11.407,0,0,1,230.31,190.751Zm-12.432-3.058,12.573,2.283c6.111,1.11,12.04-3.294,13.226-9.815l.462-2.543a12.36,12.36,0,0,0-1.733-8.962,10.839,10.839,0,0,0-7.2-4.876L222.635,161.5Z" transform="translate(-217.027 -160.646)" fill="#050004"/>
                      </g>
                      <g id="Grupo_1158098" data-name="Grupo 1158098" transform="translate(14.866 3.295)">
                        <path id="Trazado_993439" data-name="Trazado 993439" d="M215.125,156.514h0l-4.9,26.971h0a44.7,44.7,0,0,0-29.046,4.74l-14.527,7.434,12.158-66.7L189.6,141.864A44.692,44.692,0,0,0,215.125,156.514Z" transform="translate(-166.26 -128.568)" fill="#f8eee2"/>
                        <path id="Trazado_993440" data-name="Trazado 993440" d="M166.354,195.909a.4.4,0,0,1-.153-.387l12.158-66.7a.393.393,0,0,1,.286-.31.412.412,0,0,1,.4.129l10.781,12.9a44.092,44.092,0,0,0,25.3,14.522.393.393,0,0,1,.316.458l-4.9,26.971a.392.392,0,0,1-.163.253.387.387,0,0,1-.295.063,44.1,44.1,0,0,0-28.8,4.7l-14.527,7.434a.414.414,0,0,1-.087.033A.382.382,0,0,1,166.354,195.909Zm43.492-12.945,4.757-26.2a44.916,44.916,0,0,1-25.37-14.712l-10.25-12.262-11.864,65.09,13.812-7.069a47.366,47.366,0,0,1,11.133-4.247A43.839,43.839,0,0,1,209.845,182.964Z" transform="translate(-166.195 -128.503)" fill="#000201"/>
                      </g>
                      <g id="Grupo_1158099" data-name="Grupo 1158099" transform="translate(14.866 3.295)">
                        <path id="Trazado_993441" data-name="Trazado 993441" d="M215.125,156.514h0l-4.9,26.971h0a44.7,44.7,0,0,0-29.046,4.74l-14.527,7.434,12.158-66.7L189.6,141.864A44.692,44.692,0,0,0,215.125,156.514Z" transform="translate(-166.26 -128.568)" fill="#f38200"/>
                        <path id="Trazado_993442" data-name="Trazado 993442" d="M166.354,195.909a.4.4,0,0,1-.153-.387l12.158-66.7a.393.393,0,0,1,.286-.31.412.412,0,0,1,.4.129l10.781,12.9a44.092,44.092,0,0,0,25.3,14.522.393.393,0,0,1,.316.458l-4.9,26.971a.392.392,0,0,1-.163.253.387.387,0,0,1-.295.063,44.1,44.1,0,0,0-28.8,4.7l-14.527,7.434a.414.414,0,0,1-.087.033A.382.382,0,0,1,166.354,195.909Zm43.492-12.945,4.757-26.2a44.916,44.916,0,0,1-25.37-14.712l-10.25-12.262-11.864,65.09,13.812-7.069a47.366,47.366,0,0,1,11.133-4.247A43.839,43.839,0,0,1,209.845,182.964Z" transform="translate(-166.195 -128.503)" fill="#050004"/>
                      </g>
                      <g id="Grupo_1158100" data-name="Grupo 1158100">
                        <ellipse id="Elipse_11689" data-name="Elipse 11689" cx="34.89" cy="12.262" rx="34.89" ry="12.262" transform="translate(0 68.56) rotate(-79.263)" fill="#fff"/>
                        <path id="Trazado_993443" data-name="Trazado 993443" d="M161.62,196.2a6.111,6.111,0,0,1-3.9-2.81c-3.975-5.76-4.8-19.461-2.041-34.092,3.659-19.441,12-33.7,18.981-32.448a6.112,6.112,0,0,1,3.9,2.809c3.975,5.76,4.8,19.461,2.041,34.092-3.3,17.509-10.386,30.811-16.865,32.371A5.112,5.112,0,0,1,161.62,196.2Zm-5.164-36.756h0c-2.718,14.439-1.948,27.9,1.916,33.5a5.366,5.366,0,0,0,3.386,2.482,4.438,4.438,0,0,0,1.829-.069c6.079-1.466,13.049-14.789,16.242-31.75,2.718-14.439,1.948-27.9-1.916-33.5a5.366,5.366,0,0,0-3.386-2.482,4.442,4.442,0,0,0-1.83.069C166.618,129.157,159.648,142.481,156.456,159.443Z" transform="translate(-149.597 -124.961)" fill="#000201"/>
                      </g>
                      <g id="Grupo_1158104" data-name="Grupo 1158104" transform="translate(9.293 9.206)">
                        <path id="Trazado_993444" data-name="Trazado 993444" d="M161.077,160.887c-2.766,14.884-1.254,27.622,3.377,28.453s10.628-10.562,13.394-25.446,1.254-27.622-3.377-28.453S163.843,146,161.077,160.887Z" transform="translate(-159.693 -135.398)" fill="#000201"/>
                        <g id="Grupo_1158101" data-name="Grupo 1158101" clip-path="url(#clip-path-3)">
                          <path id="XMLID_00000062883066289979344360000004892687712441410451_" d="M170.877,163.163c-2.693,14.49-1.221,26.893,3.288,27.7s10.347-10.283,13.04-24.773,1.221-26.893-3.287-27.7S173.569,148.672,170.877,163.163Z" transform="translate(-161.098 -135.82)" fill="#000201"/>
                        </g>
                        <g id="Grupo_1158102" data-name="Grupo 1158102" clip-path="url(#clip-path-3)">
                          <path id="Trazado_993446" data-name="Trazado 993446" d="M186.474,162.338,177.71,160.8c-3.579-.63-7.134,2.382-7.94,6.728h0c-.806,4.346,1.443,8.379,5.022,9.009l8.763,1.542Z" transform="translate(-161.109 -139.013)" fill="#7c55ff"/>
                          <path id="Trazado_993447" data-name="Trazado 993447" d="M183.423,178.4l-8.763-1.542a6.255,6.255,0,0,1-4.037-2.675,9.066,9.066,0,0,1-1.3-6.793c.844-4.551,4.613-7.712,8.395-7.045l8.763,1.542a.394.394,0,0,1,.32.459l-2.917,15.738a.393.393,0,0,1-.295.311A.388.388,0,0,1,183.423,178.4Zm-5.846-17.281c-3.365-.592-6.719,2.285-7.484,6.413a8.275,8.275,0,0,0,1.176,6.2,5.476,5.476,0,0,0,3.527,2.349l8.379,1.475,2.774-14.964Z" transform="translate(-161.043 -138.947)" fill="#050004"/>
                        </g>
                        <g id="Grupo_1158103" data-name="Grupo 1158103" clip-path="url(#clip-path-3)">
                          <path id="Trazado_993449" data-name="Trazado 993449" d="M171.918,169.554h0a5.118,5.118,0,0,0-1.1-4.146,6.161,6.161,0,0,0-1.325,3.173h0a6.822,6.822,0,0,0,.688,4.161A4.5,4.5,0,0,0,171.918,169.554Z" transform="translate(-161.082 -139.683)" fill="#fff"/>
                          <path id="Trazado_993450" data-name="Trazado 993450" d="M170.019,173.057a.392.392,0,0,1-.25-.191,7.23,7.23,0,0,1-.733-4.405,6.583,6.583,0,0,1,1.416-3.376.386.386,0,0,1,.287-.137.391.391,0,0,1,.294.12,5.483,5.483,0,0,1,1.209,4.472h0A4.907,4.907,0,0,1,170.329,173a.42.42,0,0,1-.124.054A.376.376,0,0,1,170.019,173.057Zm1.444-3.622a5.049,5.049,0,0,0-.7-3.461,6.07,6.07,0,0,0-.946,2.593,6.65,6.65,0,0,0,.434,3.5,4.461,4.461,0,0,0,1.214-2.631Z" transform="translate(-161.017 -139.617)" fill="#050004"/>
                        </g>
                      </g>
                      <g id="Grupo_1158105" data-name="Grupo 1158105" transform="translate(55.72 30.246)">
                        <path id="Trazado_993452" data-name="Trazado 993452" d="M219.077,160.4l-4.763,27.155,2.7.332L221.93,161Z" transform="translate(-213.92 -160.009)" fill="#fff9f3"/>
                        <path id="Trazado_993453" data-name="Trazado 993453" d="M216.9,188.214l-2.7-.332a.4.4,0,0,1-.339-.459l4.764-27.155a.391.391,0,0,1,.168-.258.4.4,0,0,1,.3-.059l2.853.6a.394.394,0,0,1,.306.456l-4.917,26.885a.394.394,0,0,1-.295.312A.4.4,0,0,1,216.9,188.214Zm2.429-27.409-4.621,26.346,1.92.236,4.781-26.143Z" transform="translate(-213.854 -159.944)" fill="#000201"/>
                      </g>
                    </g>
                  </g>
                </g>
                <g id="Grupo_1158113" data-name="Grupo 1158113" transform="translate(45.815 66.904)">
                  <g id="Grupo_1158109" data-name="Grupo 1158109" transform="translate(0.697 7.376)">
                    <path id="Trazado_993454" data-name="Trazado 993454" d="M203.828,214.862l-.028.124a3.421,3.421,0,0,0,2.933,4.1l11.692,1.884a4.007,4.007,0,0,0,4.537-2.9l.028-.123a3.42,3.42,0,0,0-2.933-4.1l-11.693-1.884A4.006,4.006,0,0,0,203.828,214.862Z" transform="translate(-203.198 -211.397)" fill="#fff"/>
                    <path id="Trazado_993455" data-name="Trazado 993455" d="M220.16,221.3a4.591,4.591,0,0,1-1.9.1l-11.692-1.884a4.174,4.174,0,0,1-2.8-1.751,3.768,3.768,0,0,1-.554-2.974l.029-.125a4.523,4.523,0,0,1,5.121-3.293l11.693,1.884a4.167,4.167,0,0,1,2.8,1.751,3.765,3.765,0,0,1,.552,2.976l-.028.123A4.413,4.413,0,0,1,220.16,221.3Zm-13.454-8.84a3.36,3.36,0,0,0-2.461,2.431h0l-.028.124a2.744,2.744,0,0,0,.4,2.166,3.089,3.089,0,0,0,2.11,1.309l11.692,1.884a3.477,3.477,0,0,0,3.953-2.506l.028-.123a2.749,2.749,0,0,0-.4-2.169,3.089,3.089,0,0,0-2.11-1.309L208.2,212.387A3.6,3.6,0,0,0,206.706,212.461Zm-2.964,2.315.009,0Z" transform="translate(-203.112 -211.311)" fill="#050004"/>
                  </g>
                  <g id="Grupo_1158110" data-name="Grupo 1158110" transform="translate(2.199)">
                    <path id="Trazado_993456" data-name="Trazado 993456" d="M205.579,206.259l-.028.123a3.419,3.419,0,0,0,2.933,4.1l11.69,1.884a4.01,4.01,0,0,0,4.54-2.9l.028-.123a3.418,3.418,0,0,0-2.931-4.1l-11.693-1.884A4.008,4.008,0,0,0,205.579,206.259Z" transform="translate(-204.95 -202.793)" fill="#fff"/>
                    <path id="Trazado_993457" data-name="Trazado 993457" d="M221.911,212.7a4.6,4.6,0,0,1-1.9.1l-11.69-1.883a4.171,4.171,0,0,1-2.8-1.752,3.763,3.763,0,0,1-.551-2.975l.027-.122h0a4.525,4.525,0,0,1,5.123-3.293l11.693,1.885a4.162,4.162,0,0,1,2.8,1.752,3.759,3.759,0,0,1,.549,2.975l-.027.122A4.415,4.415,0,0,1,221.911,212.7ZM206,206.287l-.028.123a2.747,2.747,0,0,0,.4,2.169,3.093,3.093,0,0,0,2.11,1.31l11.69,1.883a3.478,3.478,0,0,0,3.955-2.5l.027-.122a2.741,2.741,0,0,0-.4-2.169,3.089,3.089,0,0,0-2.11-1.309l-11.693-1.885A3.477,3.477,0,0,0,206,206.287Z" transform="translate(-204.865 -202.707)" fill="#050004"/>
                  </g>
                  <g id="Grupo_1158111" data-name="Grupo 1158111" transform="translate(1.436 14.689)">
                    <path id="Trazado_993458" data-name="Trazado 993458" d="M204.667,223.357l-.008.033a3.378,3.378,0,0,0,2.9,4.052l7.976,1.285a3.957,3.957,0,0,0,4.481-2.863l.008-.033a3.378,3.378,0,0,0-2.9-4.051l-7.975-1.285A3.959,3.959,0,0,0,204.667,223.357Z" transform="translate(-204.06 -219.928)" fill="#fff"/>
                    <path id="Trazado_993459" data-name="Trazado 993459" d="M217.242,229.056a4.54,4.54,0,0,1-1.878.094l-7.976-1.285a4.126,4.126,0,0,1-2.771-1.732,3.727,3.727,0,0,1-.546-2.945l.008-.033a4.475,4.475,0,0,1,5.066-3.257l7.975,1.285a4.124,4.124,0,0,1,2.771,1.732,3.733,3.733,0,0,1,.548,2.944A4.393,4.393,0,0,1,217.242,229.056Zm-9.73-8.066a3.318,3.318,0,0,0-2.428,2.4v0l-.008.033a2.7,2.7,0,0,0,.4,2.133,3.05,3.05,0,0,0,2.08,1.29l7.976,1.285a3.426,3.426,0,0,0,3.9-2.469,2.723,2.723,0,0,0-.39-2.17,3.05,3.05,0,0,0-2.08-1.29l-7.975-1.285A3.54,3.54,0,0,0,207.512,220.991Z" transform="translate(-203.974 -219.842)" fill="#050004"/>
                  </g>
                  <g id="Grupo_1158112" data-name="Grupo 1158112" transform="translate(0 21.646)">
                    <path id="Trazado_993460" data-name="Trazado 993460" d="M203.013,231.509l-.028.123a3.421,3.421,0,0,0,2.933,4.1l3.946.636a4.01,4.01,0,0,0,4.54-2.9l.028-.123a3.418,3.418,0,0,0-2.931-4.1l-3.951-.637A4.008,4.008,0,0,0,203.013,231.509Z" transform="translate(-202.385 -228.044)" fill="#fff"/>
                    <path id="Trazado_993461" data-name="Trazado 993461" d="M211.6,236.7a4.6,4.6,0,0,1-1.9.1l-3.946-.636a4.167,4.167,0,0,1-2.8-1.751,3.765,3.765,0,0,1-.552-2.976l.028-.123a4.526,4.526,0,0,1,5.123-3.293l3.95.636a4.171,4.171,0,0,1,2.8,1.752,3.763,3.763,0,0,1,.55,2.975l-.028.123A4.419,4.419,0,0,1,211.6,236.7Zm-5.707-7.591a3.364,3.364,0,0,0-2.463,2.43h0l-.028.123a2.749,2.749,0,0,0,.4,2.169,3.089,3.089,0,0,0,2.11,1.309l3.946.636a3.481,3.481,0,0,0,3.955-2.5l.028-.123a2.743,2.743,0,0,0-.4-2.168,3.091,3.091,0,0,0-2.11-1.31l-3.95-.636A3.574,3.574,0,0,0,205.893,229.108Zm-2.966,2.315.009,0Z" transform="translate(-202.299 -227.958)" fill="#050004"/>
                  </g>
                </g>
              </g>
            </g>
            <g id="Grupo_1158116" data-name="Grupo 1158116" transform="translate(46.029 91.319)">
              <path id="Trazado_993462" data-name="Trazado 993462" d="M82.968,230.394l19.678-24.58,1.82,8.331,19.348-13.991-22.108,27.357-2.392-7.656Z" transform="translate(-82.257 -199.446)" fill="#ffd387"/>
              <path id="Trazado_993463" data-name="Trazado 993463" d="M101.455,228.094a.716.716,0,0,1-.547-.488L98.8,220.843,83.237,230.874a.712.712,0,0,1-.942-1.044l19.677-24.578a.712.712,0,0,1,1.252.293l1.589,7.269,18.464-13.355a.723.723,0,0,1,.936.087.711.711,0,0,1,.036.938l-22.107,27.356a.715.715,0,0,1-.688.252Zm3.311-13.488a.734.734,0,0,1-.672.088.718.718,0,0,1-.442-.513l-1.5-6.872-16.01,20,12.671-8.169a.739.739,0,0,1,.629-.07.715.715,0,0,1,.438.457l1.993,6.385,17.909-22.162Z" transform="translate(-82.139 -199.328)" fill="#050004"/>
            </g>
            <g id="Grupo_1158117" data-name="Grupo 1158117" transform="translate(53.629)">
              <path id="Trazado_993464" data-name="Trazado 993464" d="M91.836,93.628l27.423,11.282-7.049,3.85,17.767,13.786L99.4,109.8l6.287-4.187Z" transform="translate(-91.123 -92.917)" fill="#ffd387"/>
              <path id="Trazado_993465" data-name="Trazado 993465" d="M129.584,123.085,99.006,110.342a.713.713,0,0,1-.12-1.252l5.508-3.668L91.25,94.05a.713.713,0,0,1,.737-1.2l27.424,11.281a.713.713,0,0,1,.071,1.285l-6.095,3.329L130.3,121.865a.713.713,0,0,1,.178.922.713.713,0,0,1-.89.3ZM95.491,95.833l10.545,9.124a.712.712,0,0,1-.072,1.132l-5.178,3.449L125.2,119.712,111.655,109.2a.712.712,0,0,1,.1-1.187l5.738-3.135Z" transform="translate(-91.004 -92.798)" fill="#050004"/>
            </g>
            <g id="Grupo_1158118" data-name="Grupo 1158118" transform="translate(0 43.914)">
              <path id="Trazado_993466" data-name="Trazado 993466" d="M29.275,152.483l50.4-7.622-6.985,11.907,38.378,4.609-56.338,8.257L60.291,157.9Z" transform="translate(-28.562 -144.146)" fill="#ffd387"/>
              <path id="Trazado_993467" data-name="Trazado 993467" d="M111.049,161.963,54.71,170.221a.713.713,0,0,1-.747-1.011l5.163-10.887-30.093-5.259a.713.713,0,0,1,.015-1.408l50.4-7.622a.713.713,0,0,1,.723,1.066l-6.435,10.969,37.3,4.48a.712.712,0,0,1,.246,1.338A.64.64,0,0,1,111.049,161.963Zm-77.462-9.55,26.708,4.668a.713.713,0,0,1,.522,1.007l-4.993,10.529,49.731-7.29-33.07-3.971a.713.713,0,0,1-.531-1.069l6.229-10.618Z" transform="translate(-28.443 -144.027)" fill="#050004"/>
            </g>
          </g>
        </g>
        <g id="Grupo_1158129" data-name="Grupo 1158129" transform="translate(424.518 222.01)">
          <g id="Grupo_1158125" data-name="Grupo 1158125" transform="translate(0 28.382)">
            <g id="Grupo_1158121" data-name="Grupo 1158121">
              <path id="Trazado_993468" data-name="Trazado 993468" d="M527.223,337.916c-9.287,10.016-8.979,25.4.689,34.368h0c9.668,8.965,25.034,8.113,34.322-1.9l26.994-29.111,17.316,16.056-27.586,29.75c-18.474,19.923-49.04,21.619-68.272,3.786h0c-19.232-17.833-19.845-48.44-1.371-68.363l27.586-29.75,17.316,16.056Z" transform="translate(-495.318 -292.191)" fill="#050004"/>
              <path id="Trazado_993469" data-name="Trazado 993469" d="M508.818,322.027l27.586-29.75a.557.557,0,0,1,.788-.03L554.507,308.3a.558.558,0,0,1,.03.788L527.544,338.2a24.472,24.472,0,0,0-6.615,17.187A22.735,22.735,0,0,0,545.1,377.8a24.472,24.472,0,0,0,16.64-7.892L588.731,340.8a.557.557,0,0,1,.788-.03l17.316,16.056a.558.558,0,0,1,.03.788l-27.585,29.751c-18.655,20.117-49.635,21.827-69.06,3.815a47.6,47.6,0,0,1-14.336-42.827A50.714,50.714,0,0,1,508.818,322.027Zm80.352,19.937-26.614,28.7a25.577,25.577,0,0,1-17.4,8.246,23.847,23.847,0,0,1-25.344-23.5,25.572,25.572,0,0,1,6.912-17.968l26.614-28.7-16.5-15.3-27.207,29.341C491.4,342.449,492,372.764,510.976,390.359s49.249,15.911,67.484-3.755l27.206-29.341Z" transform="translate(-495.229 -292.098)" fill="#050004"/>
            </g>
            <g id="Grupo_1158122" data-name="Grupo 1158122" transform="translate(3.397 0.95)">
              <path id="Trazado_993470" data-name="Trazado 993470" d="M531.187,339.025c-9.287,10.016-8.979,25.4.689,34.367h0c9.668,8.965,25.034,8.113,34.322-1.9l26.994-29.111,17.316,16.057-27.586,29.75c-18.475,19.923-49.04,21.619-68.272,3.786h0c-19.232-17.833-19.845-48.44-1.371-68.363l27.586-29.75,17.316,16.056Z" transform="translate(-499.281 -293.3)" fill="#8b78e1"/>
              <path id="Trazado_993471" data-name="Trazado 993471" d="M512.781,323.135l27.586-29.75a.558.558,0,0,1,.788-.03l17.316,16.056a.557.557,0,0,1,.03.788L531.507,339.31h0a24.476,24.476,0,0,0-6.616,17.187,22.735,22.735,0,0,0,24.168,22.411,24.472,24.472,0,0,0,16.64-7.892l26.994-29.111a.557.557,0,0,1,.788-.03L610.8,357.932a.56.56,0,0,1,.03.788L583.242,388.47c-18.655,20.117-49.635,21.829-69.06,3.815a47.6,47.6,0,0,1-14.336-42.827A50.719,50.719,0,0,1,512.781,323.135Zm80.352,19.937-26.614,28.7a25.577,25.577,0,0,1-17.4,8.246,23.847,23.847,0,0,1-25.344-23.5,25.57,25.57,0,0,1,6.912-17.968l26.614-28.7-16.5-15.3L513.6,323.893c-18.236,19.665-17.635,49.981,1.341,67.575s49.249,15.91,67.484-3.755l27.206-29.341Z" transform="translate(-499.192 -293.207)" fill="#050004"/>
            </g>
            <g id="Grupo_1158123" data-name="Grupo 1158123" transform="translate(83.732 49.489)">
              <path id="Trazado_993472" data-name="Trazado 993472" d="M593.557,364.542l17.3,16.038,13.038-14.061L606.6,350.48Z" transform="translate(-593 -349.923)" fill="url(#linear-gradient)"/>
              <path id="Trazado_993473" data-name="Trazado 993473" d="M593.056,364.069l13.037-14.06a.557.557,0,0,1,.788-.03l17.3,16.039a.56.56,0,0,1,.03.788l-13.037,14.06a.557.557,0,0,1-.788.03l-17.3-16.038a.558.558,0,0,1-.03-.789Zm29.955,2.387-16.478-15.28-12.28,13.242,16.479,15.28Z" transform="translate(-592.908 -349.83)" fill="#050004"/>
            </g>
            <g id="Grupo_1158124" data-name="Grupo 1158124" transform="translate(31.385 0.95)">
              <path id="Trazado_993474" data-name="Trazado 993474" d="M532.492,307.918l17.3,16.039L562.827,309.9l-17.3-16.039Z" transform="translate(-531.934 -293.3)" fill="url(#linear-gradient-2)"/>
              <path id="Trazado_993475" data-name="Trazado 993475" d="M531.99,307.447l13.038-14.062a.558.558,0,0,1,.788-.03l17.3,16.039a.557.557,0,0,1,.03.788L550.1,324.243a.558.558,0,0,1-.788.03l-17.3-16.039a.561.561,0,0,1-.178-.387.535.535,0,0,1,.007-.111A.557.557,0,0,1,531.99,307.447Zm29.956,2.386-16.478-15.28L533.188,307.8l16.478,15.28Z" transform="translate(-531.841 -293.207)" fill="#050004"/>
            </g>
          </g>
          <g id="Grupo_1158126" data-name="Grupo 1158126" transform="translate(61.114 0)">
            <path id="Trazado_993476" data-name="Trazado 993476" d="M574.182,259.639l6.108,23.852-6.061-2.78-.354,18.669-6.7-26.677,5.908,2.105Z" transform="translate(-566.615 -259.082)" fill="#ffd387"/>
            <path id="Trazado_993477" data-name="Trazado 993477" d="M566.705,272.2a.56.56,0,0,1,.562-.112l5.218,1.86,1.047-14.439a.557.557,0,0,1,1.1-.1l6.107,23.851a.557.557,0,0,1-.771.645l-5.289-2.424-.337,17.817a.565.565,0,0,1-.495.543.557.557,0,0,1-.6-.418l-6.7-26.677a.558.558,0,0,1,.166-.549Zm6.872,8.41a.572.572,0,0,1,.261-.461.561.561,0,0,1,.528-.035l5,2.292L574.4,263l-.853,11.759a.579.579,0,0,1-.252.426.558.558,0,0,1-.492.058l-4.926-1.755L573.3,295.1Z" transform="translate(-566.522 -258.989)" fill="#050004"/>
          </g>
          <g id="Grupo_1158127" data-name="Grupo 1158127" transform="translate(104.504 59.022)">
            <path id="Trazado_993478" data-name="Trazado 993478" d="M653.792,331.372,633.849,343.2l.909-6.214-16.967,4.62,22.339-13.115-.34,5.9Z" transform="translate(-617.233 -327.936)" fill="#ffd387"/>
            <path id="Trazado_993479" data-name="Trazado 993479" d="M617.415,341.036l22.34-13.116a.557.557,0,0,1,.839.513l-.3,5.166,13.286-2.866a.558.558,0,0,1,.4,1.024L634.041,343.59a.557.557,0,0,1-.836-.559l.785-5.374-16.147,4.4a.557.557,0,0,1-.66-.322.558.558,0,0,1,.232-.7Zm33.058-8.492-10.659,2.3a.557.557,0,0,1-.674-.578l.279-4.858-17.836,10.472,12.935-3.522a.558.558,0,0,1,.7.618l-.739,5.059Z" transform="translate(-617.14 -327.843)" fill="#050004"/>
          </g>
          <g id="Grupo_1158128" data-name="Grupo 1158128" transform="translate(89.502 4.157)">
            <path id="Trazado_993480" data-name="Trazado 993480" d="M644.3,264.49,625.37,299.566l-4.157-9.963L600.29,311.417l21.328-39.086,4.715,8.992Z" transform="translate(-599.731 -263.932)" fill="#ffd387"/>
            <path id="Trazado_993481" data-name="Trazado 993481" d="M599.708,311.056l21.328-39.087a.557.557,0,0,1,.982.009l4.375,8.344,17.434-16.332a.557.557,0,0,1,.872.671l-18.932,35.076a.558.558,0,0,1-1.005-.05l-3.828-9.178-20.335,21.2a.557.557,0,0,1-.952-.476A.55.55,0,0,1,599.708,311.056ZM642.1,267.141l-15.474,14.495a.557.557,0,0,1-.875-.147l-4.231-8.071-18.826,34.5,18.03-18.8a.558.558,0,0,1,.918.171l3.707,8.885Z" transform="translate(-599.638 -263.839)" fill="#050004"/>
          </g>
        </g>
        <g id="Grupo_1158133" data-name="Grupo 1158133" transform="translate(52.313 19.999)">
          <g id="Grupo_1158130" data-name="Grupo 1158130" transform="translate(0 250.273)">
            <path id="Trazado_993482" data-name="Trazado 993482" d="M61.027,342.341V358.4a1.18,1.18,0,0,0,1.176,1.176h5.732a31.751,31.751,0,0,0,3.213,9.256h0l-5.907,7.138a1.179,1.179,0,0,0,.156,1.655l12.37,10.238a1.179,1.179,0,0,0,1.655-.156l4.745-5.733h0a31.728,31.728,0,0,0,6.611,2.684h0v8.228a1.18,1.18,0,0,0,1.176,1.176h16.057a1.179,1.179,0,0,0,1.176-1.176v-8.553a31.769,31.769,0,0,0,6.091-2.674l5.005,6.048a1.18,1.18,0,0,0,1.656.156l12.37-10.238a1.179,1.179,0,0,0,.156-1.655l-6.416-7.753h0a31.752,31.752,0,0,0,2.895-8.641h8.544a1.179,1.179,0,0,0,1.176-1.176V342.341a1.18,1.18,0,0,0-1.176-1.176H128.864q-.594-1.38-1.312-2.691h0l5.585-6.748a1.179,1.179,0,0,0-.156-1.655l-12.37-10.238a1.18,1.18,0,0,0-1.656.156l-4.56,5.51a31.738,31.738,0,0,0-5.205-2.187v-6.847a1.18,1.18,0,0,0-1.176-1.176H91.954a1.18,1.18,0,0,0-1.176,1.176v6.523h0a31.5,31.5,0,0,0-5.247,1.984l-4.123-4.982a1.179,1.179,0,0,0-1.655-.156L67.382,330.07a1.179,1.179,0,0,0-.156,1.655l4.709,5.69a31.8,31.8,0,0,0-1.918,3.749H62.2A1.18,1.18,0,0,0,61.027,342.341Zm18.661,11.481a19.752,19.752,0,1,1,19.753,19.751A19.754,19.754,0,0,1,79.688,353.822Z" transform="translate(-61.027 -315.29)" fill="none" stroke="#121924" stroke-linecap="round" stroke-linejoin="round" stroke-miterlimit="10" stroke-width="1"/>
          </g>
          <g id="Grupo_1158131" data-name="Grupo 1158131" transform="translate(470.145 114.805)">
            <path id="Trazado_993483" data-name="Trazado 993483" d="M609.482,170.49v7.856a.577.577,0,0,0,.575.575h2.8a15.525,15.525,0,0,0,1.572,4.528h0l-2.89,3.492a.578.578,0,0,0,.076.81l6.052,5.008a.578.578,0,0,0,.81-.076l2.321-2.8h0a15.568,15.568,0,0,0,3.233,1.313h0v4.025a.577.577,0,0,0,.575.575h7.856a.577.577,0,0,0,.575-.575v-4.184a15.534,15.534,0,0,0,2.98-1.308l2.449,2.959a.577.577,0,0,0,.81.076l6.052-5.008a.577.577,0,0,0,.076-.81l-3.139-3.792h0a15.534,15.534,0,0,0,1.416-4.227h4.18a.577.577,0,0,0,.575-.575v-7.856a.577.577,0,0,0-.575-.575h-5.2q-.291-.675-.642-1.317h0l2.732-3.3a.578.578,0,0,0-.076-.81l-6.052-5.008a.578.578,0,0,0-.81.076l-2.23,2.7a15.52,15.52,0,0,0-2.547-1.07v-3.349a.577.577,0,0,0-.575-.575h-7.855a.577.577,0,0,0-.575.575v3.191h0a15.463,15.463,0,0,0-2.566.97l-2.017-2.437a.577.577,0,0,0-.81-.076l-6.052,5.008a.578.578,0,0,0-.076.81l2.3,2.783a15.563,15.563,0,0,0-.938,1.834h-3.823A.576.576,0,0,0,609.482,170.49Zm9.129,5.616a9.663,9.663,0,1,1,9.662,9.663A9.664,9.664,0,0,1,618.611,176.106Z" transform="translate(-609.482 -157.258)" fill="none" stroke="#121924" stroke-linecap="round" stroke-linejoin="round" stroke-miterlimit="10" stroke-width="1"/>
          </g>
          <g id="Grupo_1158132" data-name="Grupo 1158132" transform="translate(299.247 0)">
            <path id="Trazado_993484" data-name="Trazado 993484" d="M410.119,45.714V59a.976.976,0,0,0,.973.973h4.743a26.254,26.254,0,0,0,2.659,7.659h0l-4.888,5.906a.976.976,0,0,0,.129,1.37l10.236,8.471a.976.976,0,0,0,1.37-.129l3.926-4.745h0a26.22,26.22,0,0,0,5.47,2.221h0v6.809a.976.976,0,0,0,.973.973H449a.976.976,0,0,0,.973-.973V80.458a26.233,26.233,0,0,0,5.04-2.213l4.142,5.005a.976.976,0,0,0,1.37.129l10.236-8.471a.976.976,0,0,0,.129-1.37l-5.309-6.415h0a26.277,26.277,0,0,0,2.4-7.15h7.069a.976.976,0,0,0,.974-.973V45.713a.976.976,0,0,0-.974-.973H466.25q-.491-1.142-1.085-2.226h0l4.621-5.584a.976.976,0,0,0-.129-1.37l-10.236-8.471a.976.976,0,0,0-1.37.129l-3.773,4.56a26.251,26.251,0,0,0-4.307-1.81V24.3A.976.976,0,0,0,449,23.33H435.71a.976.976,0,0,0-.973.973v5.4h0a26.217,26.217,0,0,0-4.342,1.642l-3.412-4.122a.976.976,0,0,0-1.37-.129l-10.236,8.471a.976.976,0,0,0-.129,1.37l3.9,4.709a26.471,26.471,0,0,0-1.587,3.1h-6.467A.974.974,0,0,0,410.119,45.714Zm15.442,9.5a16.344,16.344,0,1,1,16.345,16.344A16.345,16.345,0,0,1,425.561,55.213Z" transform="translate(-410.119 -23.33)" fill="none" stroke="#121924" stroke-linecap="round" stroke-linejoin="round" stroke-miterlimit="10" stroke-width="1"/>
          </g>
        </g>
        <g id="Grupo_1158186" data-name="Grupo 1158186" transform="translate(13.294 50.688)">
          <g id="Grupo_1158146" data-name="Grupo 1158146" transform="translate(520.249 283.463)">
            <g id="Grupo_1158136" data-name="Grupo 1158136" transform="translate(9.41)">
              <g id="Grupo_1158134" data-name="Grupo 1158134">
                <line id="L칤nea_1111" data-name="L칤nea 1111" y2="5.274" transform="translate(0.595 0.596)" fill="#121924"/>
                <path id="Trazado_993485" data-name="Trazado 993485" d="M650.318,421.146a.6.6,0,0,1-.6-.6v-5.274a.6.6,0,0,1,1.192,0v5.274A.6.6,0,0,1,650.318,421.146Z" transform="translate(-649.722 -414.681)" fill="#121924"/>
              </g>
              <g id="Grupo_1158135" data-name="Grupo 1158135" transform="translate(0 13.543)">
                <line id="L칤nea_1112" data-name="L칤nea 1112" y2="5.274" transform="translate(0.595 0.595)" fill="#121924"/>
                <path id="Trazado_993486" data-name="Trazado 993486" d="M650.318,436.944a.6.6,0,0,1-.6-.6v-5.273a.6.6,0,1,1,1.192,0v5.273A.6.6,0,0,1,650.318,436.944Z" transform="translate(-649.722 -430.48)" fill="#121924"/>
              </g>
            </g>
            <g id="Grupo_1158139" data-name="Grupo 1158139" transform="translate(0 9.408)">
              <g id="Grupo_1158137" data-name="Grupo 1158137" transform="translate(13.543)">
                <line id="L칤nea_1113" data-name="L칤nea 1113" x1="5.273" transform="translate(0.597 0.596)" fill="#121924"/>
                <path id="Trazado_993487" data-name="Trazado 993487" d="M660.414,426.848H655.14a.6.6,0,0,1,0-1.192h5.275a.6.6,0,0,1,0,1.192Z" transform="translate(-654.544 -425.656)" fill="#121924"/>
              </g>
              <g id="Grupo_1158138" data-name="Grupo 1158138">
                <line id="L칤nea_1114" data-name="L칤nea 1114" x1="5.274" transform="translate(0.597 0.596)" fill="#121924"/>
                <path id="Trazado_993488" data-name="Trazado 993488" d="M644.615,426.848h-5.274a.6.6,0,0,1,0-1.192h5.274a.6.6,0,0,1,0,1.192Z" transform="translate(-638.745 -425.656)" fill="#121924"/>
              </g>
            </g>
            <g id="Grupo_1158142" data-name="Grupo 1158142" transform="translate(2.757 2.755)">
              <g id="Grupo_1158140" data-name="Grupo 1158140" transform="translate(0 9.577)">
                <line id="L칤nea_1115" data-name="L칤nea 1115" y1="3.729" x2="3.728" transform="translate(0.595 0.596)" fill="#121924"/>
                <path id="Trazado_993489" data-name="Trazado 993489" d="M642.557,433.987a.6.6,0,0,1-.421-1.018l3.729-3.729a.6.6,0,0,1,.843.843l-3.729,3.729A.594.594,0,0,1,642.557,433.987Z" transform="translate(-641.962 -429.067)" fill="#121924"/>
              </g>
              <g id="Grupo_1158141" data-name="Grupo 1158141" transform="translate(9.575)">
                <line id="L칤nea_1116" data-name="L칤nea 1116" y1="3.729" x2="3.729" transform="translate(0.596 0.596)" fill="#121924"/>
                <path id="Trazado_993490" data-name="Trazado 993490" d="M653.727,422.815a.6.6,0,0,1-.421-1.018l3.729-3.728a.6.6,0,0,1,.843.843l-3.729,3.728A.594.594,0,0,1,653.727,422.815Z" transform="translate(-653.132 -417.895)" fill="#121924"/>
              </g>
            </g>
            <g id="Grupo_1158145" data-name="Grupo 1158145" transform="translate(2.757 2.755)">
              <g id="Grupo_1158143" data-name="Grupo 1158143">
                <line id="L칤nea_1117" data-name="L칤nea 1117" x2="3.728" y2="3.729" transform="translate(0.595 0.596)" fill="#121924"/>
                <path id="Trazado_993491" data-name="Trazado 993491" d="M646.286,422.815a.591.591,0,0,1-.421-.175l-3.729-3.728a.6.6,0,0,1,.843-.843l3.729,3.728a.6.6,0,0,1-.422,1.018Z" transform="translate(-641.962 -417.895)" fill="#121924"/>
              </g>
              <g id="Grupo_1158144" data-name="Grupo 1158144" transform="translate(9.576 9.577)">
                <line id="L칤nea_1118" data-name="L칤nea 1118" x2="3.729" y2="3.729" transform="translate(0.595 0.596)" fill="#121924"/>
                <path id="Trazado_993492" data-name="Trazado 993492" d="M657.457,433.987a.591.591,0,0,1-.421-.175l-3.729-3.729a.6.6,0,1,1,.843-.843l3.729,3.729a.6.6,0,0,1-.422,1.018Z" transform="translate(-653.133 -429.067)" fill="#121924"/>
              </g>
            </g>
          </g>
          <g id="Grupo_1158159" data-name="Grupo 1158159" transform="translate(205.251 42.496)">
            <g id="Grupo_1158149" data-name="Grupo 1158149" transform="translate(9.41)">
              <g id="Grupo_1158147" data-name="Grupo 1158147">
                <line id="L칤nea_1119" data-name="L칤nea 1119" y2="5.274" transform="translate(0.595 0.596)" fill="#121924"/>
                <path id="Trazado_993493" data-name="Trazado 993493" d="M282.852,140.042a.6.6,0,0,1-.6-.6v-5.274a.6.6,0,0,1,1.192,0v5.274A.6.6,0,0,1,282.852,140.042Z" transform="translate(-282.256 -133.577)" fill="#121924"/>
              </g>
              <g id="Grupo_1158148" data-name="Grupo 1158148" transform="translate(0 13.543)">
                <line id="L칤nea_1120" data-name="L칤nea 1120" y2="5.274" transform="translate(0.595 0.596)" fill="#121924"/>
                <path id="Trazado_993494" data-name="Trazado 993494" d="M282.852,155.84a.6.6,0,0,1-.6-.6v-5.273a.6.6,0,0,1,1.192,0v5.273A.6.6,0,0,1,282.852,155.84Z" transform="translate(-282.256 -149.376)" fill="#121924"/>
              </g>
            </g>
            <g id="Grupo_1158152" data-name="Grupo 1158152" transform="translate(0 9.409)">
              <g id="Grupo_1158150" data-name="Grupo 1158150" transform="translate(13.543)">
                <line id="L칤nea_1121" data-name="L칤nea 1121" x1="5.273" transform="translate(0.597 0.596)" fill="#121924"/>
                <path id="Trazado_993495" data-name="Trazado 993495" d="M292.948,145.745h-5.274a.6.6,0,0,1,0-1.192h5.274a.6.6,0,1,1,0,1.192Z" transform="translate(-287.078 -144.553)" fill="#121924"/>
              </g>
              <g id="Grupo_1158151" data-name="Grupo 1158151">
                <line id="L칤nea_1122" data-name="L칤nea 1122" x1="5.274" transform="translate(0.597 0.596)" fill="#121924"/>
                <path id="Trazado_993496" data-name="Trazado 993496" d="M277.149,145.745h-5.274a.6.6,0,1,1,0-1.192h5.274a.6.6,0,0,1,0,1.192Z" transform="translate(-271.279 -144.553)" fill="#121924"/>
              </g>
            </g>
            <g id="Grupo_1158155" data-name="Grupo 1158155" transform="translate(2.757 2.757)">
              <g id="Grupo_1158153" data-name="Grupo 1158153" transform="translate(0 9.575)">
                <line id="L칤nea_1123" data-name="L칤nea 1123" y1="3.729" x2="3.729" transform="translate(0.595 0.596)" fill="#121924"/>
                <path id="Trazado_993497" data-name="Trazado 993497" d="M275.091,152.883a.6.6,0,0,1-.421-1.018l3.729-3.729a.6.6,0,0,1,.843.843l-3.729,3.729A.6.6,0,0,1,275.091,152.883Z" transform="translate(-274.496 -147.963)" fill="#121924"/>
              </g>
              <g id="Grupo_1158154" data-name="Grupo 1158154" transform="translate(9.575)">
                <line id="L칤nea_1124" data-name="L칤nea 1124" y1="3.729" x2="3.729" transform="translate(0.596 0.595)" fill="#121924"/>
                <path id="Trazado_993498" data-name="Trazado 993498" d="M286.262,141.713a.6.6,0,0,1-.421-1.018l3.729-3.728a.6.6,0,0,1,.843.843l-3.729,3.728A.6.6,0,0,1,286.262,141.713Z" transform="translate(-285.666 -136.793)" fill="#121924"/>
              </g>
            </g>
            <g id="Grupo_1158158" data-name="Grupo 1158158" transform="translate(2.757 2.757)">
              <g id="Grupo_1158156" data-name="Grupo 1158156">
                <line id="L칤nea_1125" data-name="L칤nea 1125" x2="3.729" y2="3.729" transform="translate(0.595 0.595)" fill="#121924"/>
                <path id="Trazado_993499" data-name="Trazado 993499" d="M278.82,141.713a.591.591,0,0,1-.421-.175l-3.729-3.728a.6.6,0,0,1,.843-.843l3.729,3.728a.6.6,0,0,1-.422,1.018Z" transform="translate(-274.496 -136.793)" fill="#121924"/>
              </g>
              <g id="Grupo_1158157" data-name="Grupo 1158157" transform="translate(9.575 9.575)">
                <line id="L칤nea_1126" data-name="L칤nea 1126" x2="3.729" y2="3.729" transform="translate(0.596 0.596)" fill="#121924"/>
                <path id="Trazado_993500" data-name="Trazado 993500" d="M289.991,152.883a.591.591,0,0,1-.421-.175l-3.729-3.729a.6.6,0,0,1,.843-.843l3.729,3.729a.6.6,0,0,1-.422,1.018Z" transform="translate(-285.666 -147.963)" fill="#121924"/>
              </g>
            </g>
          </g>
          <g id="Grupo_1158172" data-name="Grupo 1158172" transform="translate(471.195 0)">
            <g id="Grupo_1158162" data-name="Grupo 1158162" transform="translate(9.41)">
              <g id="Grupo_1158160" data-name="Grupo 1158160">
                <line id="L칤nea_1127" data-name="L칤nea 1127" y2="5.274" transform="translate(0.595 0.596)" fill="#121924"/>
                <path id="Trazado_993501" data-name="Trazado 993501" d="M593.093,90.467a.6.6,0,0,1-.6-.6V84.6a.6.6,0,0,1,1.192,0v5.274A.6.6,0,0,1,593.093,90.467Z" transform="translate(-592.497 -84.002)" fill="#121924"/>
              </g>
              <g id="Grupo_1158161" data-name="Grupo 1158161" transform="translate(0 13.543)">
                <line id="L칤nea_1128" data-name="L칤nea 1128" y2="5.273" transform="translate(0.595 0.596)" fill="#121924"/>
                <path id="Trazado_993502" data-name="Trazado 993502" d="M593.093,106.265a.6.6,0,0,1-.6-.6V100.4a.6.6,0,0,1,1.192,0v5.273A.6.6,0,0,1,593.093,106.265Z" transform="translate(-592.497 -99.801)" fill="#121924"/>
              </g>
            </g>
            <g id="Grupo_1158165" data-name="Grupo 1158165" transform="translate(0 9.408)">
              <g id="Grupo_1158163" data-name="Grupo 1158163" transform="translate(13.543)">
                <line id="L칤nea_1129" data-name="L칤nea 1129" x1="5.274" transform="translate(0.597 0.596)" fill="#121924"/>
                <path id="Trazado_993503" data-name="Trazado 993503" d="M603.189,96.169h-5.274a.6.6,0,1,1,0-1.192h5.274a.6.6,0,0,1,0,1.192Z" transform="translate(-597.319 -94.977)" fill="#121924"/>
              </g>
              <g id="Grupo_1158164" data-name="Grupo 1158164">
                <line id="L칤nea_1130" data-name="L칤nea 1130" x1="5.274" transform="translate(0.597 0.596)" fill="#121924"/>
                <path id="Trazado_993504" data-name="Trazado 993504" d="M587.39,96.169h-5.274a.6.6,0,0,1,0-1.192h5.274a.6.6,0,0,1,0,1.192Z" transform="translate(-581.52 -94.977)" fill="#121924"/>
              </g>
            </g>
            <g id="Grupo_1158168" data-name="Grupo 1158168" transform="translate(2.757 2.756)">
              <g id="Grupo_1158166" data-name="Grupo 1158166" transform="translate(0 9.576)">
                <line id="L칤nea_1131" data-name="L칤nea 1131" y1="3.729" x2="3.729" transform="translate(0.595 0.596)" fill="#121924"/>
                <path id="Trazado_993505" data-name="Trazado 993505" d="M585.332,103.308a.6.6,0,0,1-.421-1.018l3.729-3.729a.6.6,0,0,1,.843.843l-3.729,3.729A.6.6,0,0,1,585.332,103.308Z" transform="translate(-584.737 -98.388)" fill="#121924"/>
              </g>
              <g id="Grupo_1158167" data-name="Grupo 1158167" transform="translate(9.576)">
                <line id="L칤nea_1132" data-name="L칤nea 1132" y1="3.728" x2="3.729" transform="translate(0.595 0.596)" fill="#121924"/>
                <path id="Trazado_993506" data-name="Trazado 993506" d="M596.5,92.137a.6.6,0,0,1-.421-1.018l3.729-3.728a.6.6,0,0,1,.843.843l-3.729,3.728A.6.6,0,0,1,596.5,92.137Z" transform="translate(-595.908 -87.217)" fill="#121924"/>
              </g>
            </g>
            <g id="Grupo_1158171" data-name="Grupo 1158171" transform="translate(2.757 2.756)">
              <g id="Grupo_1158169" data-name="Grupo 1158169">
                <line id="L칤nea_1133" data-name="L칤nea 1133" x2="3.729" y2="3.728" transform="translate(0.595 0.596)" fill="#121924"/>
                <path id="Trazado_993507" data-name="Trazado 993507" d="M589.061,92.137a.591.591,0,0,1-.421-.175l-3.729-3.728a.6.6,0,0,1,.843-.843l3.729,3.728a.6.6,0,0,1-.422,1.018Z" transform="translate(-584.737 -87.217)" fill="#121924"/>
              </g>
              <g id="Grupo_1158170" data-name="Grupo 1158170" transform="translate(9.576 9.576)">
                <line id="L칤nea_1134" data-name="L칤nea 1134" x2="3.729" y2="3.729" transform="translate(0.595 0.596)" fill="#121924"/>
                <path id="Trazado_993508" data-name="Trazado 993508" d="M600.232,103.308a.591.591,0,0,1-.421-.175L596.082,99.4a.6.6,0,0,1,.843-.843l3.729,3.729a.6.6,0,0,1-.422,1.018Z" transform="translate(-595.908 -98.388)" fill="#121924"/>
              </g>
            </g>
          </g>
          <g id="Grupo_1158185" data-name="Grupo 1158185" transform="translate(0 111.957)">
            <g id="Grupo_1158175" data-name="Grupo 1158175" transform="translate(9.41)">
              <g id="Grupo_1158173" data-name="Grupo 1158173">
                <line id="L칤nea_1135" data-name="L칤nea 1135" y2="5.274" transform="translate(0.595 0.596)" fill="#121924"/>
                <path id="Trazado_993509" data-name="Trazado 993509" d="M43.413,221.072a.6.6,0,0,1-.6-.6V215.2a.6.6,0,0,1,1.192,0v5.274A.6.6,0,0,1,43.413,221.072Z" transform="translate(-42.817 -214.607)" fill="#121924"/>
              </g>
              <g id="Grupo_1158174" data-name="Grupo 1158174" transform="translate(0 13.543)">
                <line id="L칤nea_1136" data-name="L칤nea 1136" y2="5.274" transform="translate(0.595 0.596)" fill="#121924"/>
                <path id="Trazado_993510" data-name="Trazado 993510" d="M43.413,236.87a.6.6,0,0,1-.6-.6V231a.6.6,0,0,1,1.192,0v5.273A.6.6,0,0,1,43.413,236.87Z" transform="translate(-42.817 -230.406)" fill="#121924"/>
              </g>
            </g>
            <g id="Grupo_1158178" data-name="Grupo 1158178" transform="translate(0 9.408)">
              <g id="Grupo_1158176" data-name="Grupo 1158176" transform="translate(13.543)">
                <line id="L칤nea_1137" data-name="L칤nea 1137" x1="5.273" transform="translate(0.597 0.596)" fill="#121924"/>
                <path id="Trazado_993511" data-name="Trazado 993511" d="M53.509,226.774H48.235a.6.6,0,0,1,0-1.192h5.274a.6.6,0,0,1,0,1.192Z" transform="translate(-47.639 -225.582)" fill="#121924"/>
              </g>
              <g id="Grupo_1158177" data-name="Grupo 1158177">
                <line id="L칤nea_1138" data-name="L칤nea 1138" x1="5.274" transform="translate(0.597 0.596)" fill="#121924"/>
                <path id="Trazado_993512" data-name="Trazado 993512" d="M37.71,226.774H32.436a.6.6,0,0,1,0-1.192H37.71a.6.6,0,0,1,0,1.192Z" transform="translate(-31.84 -225.582)" fill="#121924"/>
              </g>
            </g>
            <g id="Grupo_1158181" data-name="Grupo 1158181" transform="translate(2.757 2.756)">
              <g id="Grupo_1158179" data-name="Grupo 1158179" transform="translate(0 9.576)">
                <line id="L칤nea_1139" data-name="L칤nea 1139" y1="3.729" x2="3.729" transform="translate(0.595 0.596)" fill="#121924"/>
                <path id="Trazado_993513" data-name="Trazado 993513" d="M35.652,233.913a.6.6,0,0,1-.421-1.018l3.729-3.729a.6.6,0,0,1,.843.843l-3.729,3.729A.6.6,0,0,1,35.652,233.913Z" transform="translate(-35.057 -228.993)" fill="#121924"/>
              </g>
              <g id="Grupo_1158180" data-name="Grupo 1158180" transform="translate(9.575)">
                <line id="L칤nea_1140" data-name="L칤nea 1140" y1="3.729" x2="3.729" transform="translate(0.596 0.596)" fill="#121924"/>
                <path id="Trazado_993514" data-name="Trazado 993514" d="M46.822,222.742a.6.6,0,0,1-.421-1.017L50.13,218a.6.6,0,0,1,.843.843l-3.729,3.728A.591.591,0,0,1,46.822,222.742Z" transform="translate(-46.227 -217.822)" fill="#121924"/>
              </g>
            </g>
            <g id="Grupo_1158184" data-name="Grupo 1158184" transform="translate(2.757 2.756)">
              <g id="Grupo_1158182" data-name="Grupo 1158182">
                <line id="L칤nea_1141" data-name="L칤nea 1141" x2="3.729" y2="3.729" transform="translate(0.595 0.596)" fill="#121924"/>
                <path id="Trazado_993515" data-name="Trazado 993515" d="M39.381,222.742a.591.591,0,0,1-.421-.175l-3.729-3.728a.6.6,0,0,1,.843-.843l3.729,3.728a.6.6,0,0,1-.422,1.017Z" transform="translate(-35.057 -217.822)" fill="#121924"/>
              </g>
              <g id="Grupo_1158183" data-name="Grupo 1158183" transform="translate(9.575 9.576)">
                <line id="L칤nea_1142" data-name="L칤nea 1142" x2="3.729" y2="3.729" transform="translate(0.596 0.596)" fill="#121924"/>
                <path id="Trazado_993516" data-name="Trazado 993516" d="M50.551,233.913a.591.591,0,0,1-.421-.175L46.4,230.01a.6.6,0,1,1,.843-.843l3.729,3.729a.6.6,0,0,1-.422,1.018Z" transform="translate(-46.227 -228.993)" fill="#121924"/>
              </g>
            </g>
          </g>
        </g>
        <g id="Grupo_1158187" data-name="Grupo 1158187" transform="translate(40.072 50.687)">
          <path id="Trazado_993517" data-name="Trazado 993517" d="M175.035,380.9a2.758,2.758,0,1,1-2.758-2.758A2.757,2.757,0,0,1,175.035,380.9Z" transform="translate(-64.277 -104.68)"/>
          <path id="Trazado_993518" data-name="Trazado 993518" d="M556.964,248.734a2.522,2.522,0,1,1-2.522-2.522A2.522,2.522,0,0,1,556.964,248.734Z" transform="translate(-118.878 -85.843)"/>
          <path id="Trazado_993519" data-name="Trazado 993519" d="M542.275,453.274a2.522,2.522,0,1,1-2.522-2.522A2.522,2.522,0,0,1,542.275,453.274Z" transform="translate(-135.639 -257.345)"/>
          <path id="Trazado_993520" data-name="Trazado 993520" d="M18.791,282.7a2.522,2.522,0,1,1-2.522-2.522A2.522,2.522,0,0,1,18.791,282.7Z" transform="translate(-13.747 -81.087)"/>
          <path id="Trazado_993521" data-name="Trazado 993521" d="M76.817,264.341a2.522,2.522,0,1,1-2.522-2.522A2.522,2.522,0,0,1,76.817,264.341Z" transform="translate(-50.32 -88.071)"/>
          <path id="Trazado_993522" data-name="Trazado 993522" d="M584.688,212.38a1.207,1.207,0,1,1-1.207-1.208A1.207,1.207,0,0,1,584.688,212.38Z" transform="translate(-123.211 -80.839)"/>
          <circle id="Elipse_11690" data-name="Elipse 11690" cx="1.207" cy="1.207" r="1.207" transform="translate(400.385 208.218)"/>
          <circle id="Elipse_11691" data-name="Elipse 11691" cx="1.207" cy="1.207" r="1.207" transform="translate(38.507 196.679)"/>
          <path id="Trazado_993523" data-name="Trazado 993523" d="M511.8,447.683a1.207,1.207,0,1,1-1.207-1.208A1.208,1.208,0,0,1,511.8,447.683Z" transform="translate(-96.517 -250.547)"/>
          <path id="Trazado_993524" data-name="Trazado 993524" d="M540.448,212.928a1.208,1.208,0,1,1-1.208-1.208A1.207,1.207,0,0,1,540.448,212.928Z" transform="translate(-116.895 -80.918)"/>
          <path id="Trazado_993525" data-name="Trazado 993525" d="M229.2,61.03a1.208,1.208,0,1,1-.3-1.682A1.208,1.208,0,0,1,229.2,61.03Z" transform="translate(-72.485 -59.13)"/>
          <path id="Trazado_993526" data-name="Trazado 993526" d="M229.614,99.465a2.282,2.282,0,1,1-.561-3.178A2.282,2.282,0,0,1,229.614,99.465Z" transform="translate(-72.265 -64.377)"/>
          <path id="Trazado_993527" data-name="Trazado 993527" d="M254.511,63.894a2.282,2.282,0,1,1-.561-3.179A2.282,2.282,0,0,1,254.511,63.894Z" transform="translate(-75.82 -59.298)"/>
          <circle id="Elipse_11692" data-name="Elipse 11692" cx="1.056" cy="1.056" r="1.056" transform="translate(130.122 277.025)"/>
          <path id="Trazado_993528" data-name="Trazado 993528" d="M165.911,402.193a2.241,2.241,0,1,1-2.241-2.242A2.241,2.241,0,0,1,165.911,402.193Z" transform="translate(-63.122 -107.794)"/>
          <path id="Trazado_993529" data-name="Trazado 993529" d="M547.865,184.171a1.953,1.953,0,1,1-1.953-1.953A1.953,1.953,0,0,1,547.865,184.171Z" transform="translate(-117.741 -76.705)"/>
        </g>
        <g id="Grupo_1158190" data-name="Grupo 1158190" transform="translate(382.921 69.944)">
          <g id="Grupo_1158188" data-name="Grupo 1158188" transform="translate(0 0)">
            <path id="Trazado_993530" data-name="Trazado 993530" d="M460.025,107.543h19.617a12.627,12.627,0,0,0,12.627-12.627h0a12.626,12.626,0,0,0-12.627-12.627H460.025A12.627,12.627,0,0,0,447.4,94.916h0A12.627,12.627,0,0,0,460.025,107.543Z" transform="translate(-446.802 -81.693)" fill="#000201"/>
            <path id="Trazado_993531" data-name="Trazado 993531" d="M479.542,108.039H459.926a13.223,13.223,0,0,1,0-26.445h19.617a13.223,13.223,0,0,1,0,26.445ZM459.926,82.786a12.031,12.031,0,1,0,0,24.062h19.617a12.031,12.031,0,0,0,0-24.062H459.926Z" transform="translate(-446.703 -81.594)" fill="#000201"/>
          </g>
          <g id="Grupo_1158189" data-name="Grupo 1158189" transform="translate(11.404 11.019)">
            <path id="Trazado_993532" data-name="Trazado 993532" d="M484.2,98.857a2.2,2.2,0,1,1,2.2-2.2A2.207,2.207,0,0,1,484.2,98.857Zm0-3.218a1.013,1.013,0,1,0,1.012,1.012A1.014,1.014,0,0,0,484.2,95.639Z" transform="translate(-463.146 -94.448)" fill="#fff"/>
            <path id="Trazado_993533" data-name="Trazado 993533" d="M462.211,98.857a2.2,2.2,0,1,1,2.2-2.2A2.207,2.207,0,0,1,462.211,98.857Zm0-3.218a1.013,1.013,0,1,0,1.013,1.012A1.013,1.013,0,0,0,462.211,95.639Z" transform="translate(-460.007 -94.448)" fill="#fff"/>
            <path id="Trazado_993534" data-name="Trazado 993534" d="M472.787,98.857a2.2,2.2,0,1,1,2.2-2.2A2.207,2.207,0,0,1,472.787,98.857Zm0-3.218a1.013,1.013,0,1,0,1.012,1.012A1.014,1.014,0,0,0,472.787,95.639Z" transform="translate(-461.517 -94.448)" fill="#fff"/>
          </g>
        </g>
        <g id="Grupo_1158193" data-name="Grupo 1158193" transform="translate(68.357 235.892)">
          <g id="Grupo_1158191" data-name="Grupo 1158191" transform="translate(0 0)">
            <path id="Trazado_993535" data-name="Trazado 993535" d="M35.543,447.508H185.551a10.174,10.174,0,0,0,10.174-10.174V429.4a10.174,10.174,0,0,0-10.174-10.174H35.543A10.174,10.174,0,0,0,25.369,429.4v7.933A10.174,10.174,0,0,0,35.543,447.508Z" transform="translate(-24.832 -418.69)" fill="#f38200"/>
            <path id="Trazado_993536" data-name="Trazado 993536" d="M182.592,447.956H38.323a13.6,13.6,0,0,1-13.58-13.581v-2.194a13.6,13.6,0,0,1,13.58-13.58H182.592a13.6,13.6,0,0,1,13.581,13.58v2.194A13.6,13.6,0,0,1,182.592,447.956ZM38.323,419.675a12.521,12.521,0,0,0-12.507,12.507v2.194a12.521,12.521,0,0,0,12.507,12.507H182.592A12.521,12.521,0,0,0,195.1,434.375v-2.194a12.521,12.521,0,0,0-12.507-12.507Z" transform="translate(-24.743 -418.601)" fill="#050004"/>
          </g>
          <path id="Trazado_993537" data-name="Trazado 993537" d="M49.968,441.557H159.027a.948.948,0,0,0,.948-.948v-12.1a.948.948,0,0,0-.948-.948H49.968a.948.948,0,0,0-.948.948v12.1A.948.948,0,0,0,49.968,441.557Z" transform="translate(-28.209 -419.88)" fill="#fff"/>
          <g id="Grupo_1158192" data-name="Grupo 1158192" transform="translate(141.987 7.627)">
            <path id="Trazado_993538" data-name="Trazado 993538" d="M200.519,438.15a5.326,5.326,0,1,1,5.326-5.326A5.326,5.326,0,0,1,200.519,438.15Zm0-9.511a4.185,4.185,0,1,0,4.185,4.184A4.19,4.19,0,0,0,200.519,428.639Z" transform="translate(-191.067 -427.498)" fill="#fff"/>
            <path id="Trazado_993539" data-name="Trazado 993539" d="M190.951,442.894a.571.571,0,0,1-.4-.975l5.19-5.19a.571.571,0,0,1,.807.807l-5.19,5.19A.568.568,0,0,1,190.951,442.894Z" transform="translate(-190.38 -428.792)" fill="#fff"/>
          </g>
        </g>
        <g id="Grupo_1158380" data-name="Grupo 1158380" transform="translate(228.856 35.595)">
          <g id="Grupo_1158358" data-name="Grupo 1158358" transform="translate(0 0)">
            <g id="Grupo_1158357" data-name="Grupo 1158357">
              <path id="Trazado_993682" data-name="Trazado 993682" d="M269.33,558.729a8.333,8.333,0,0,0-8.353-8.313l-40.771.1a8.333,8.333,0,0,0-8.313,8.353l.065,26.986a8.333,8.333,0,0,0,8.353,8.313l8.759-.021L240.29,605.31l11.164-11.219,9.629-.023a8.333,8.333,0,0,0,8.313-8.353Z" transform="translate(-211.278 -549.799)" fill="#f381d8"/>
              <path id="Trazado_993683" data-name="Trazado 993683" d="M239.85,605.485a.61.61,0,0,1-.435-.18l-11.039-10.984-8.5.02h-.023a8.948,8.948,0,0,1-8.948-8.928l-.065-26.986a8.949,8.949,0,0,1,8.928-8.971l40.77-.1h.023a8.961,8.961,0,0,1,8.948,8.927h0l.065,26.986a8.959,8.959,0,0,1-8.928,8.971l-9.374.023L240.287,605.3A.611.611,0,0,1,239.85,605.485Zm-11.22-12.4a.617.617,0,0,1,.435.18L239.848,604l10.729-10.781a.618.618,0,0,1,.436-.182l9.629-.023a7.726,7.726,0,0,0,7.7-7.735l-.065-26.985a7.726,7.726,0,0,0-7.716-7.7h-.019l-40.77.1a7.716,7.716,0,0,0-7.7,7.735l.065,26.987a7.716,7.716,0,0,0,7.715,7.7h.02l8.758-.021h0Z" transform="translate(-210.838 -549.358)" fill="#050004"/>
            </g>
          </g>
          <g id="Grupo_1158359" data-name="Grupo 1158359" transform="translate(16.682 10.58)">
            <path id="Trazado_993684" data-name="Trazado 993684" d="M252.683,569.028l2.869,5.814a.854.854,0,0,0,.643.467l6.416.932a.854.854,0,0,1,.473,1.456l-4.642,4.525a.854.854,0,0,0-.246.755l1.1,6.39a.854.854,0,0,1-1.238.9l-5.738-3.017a.854.854,0,0,0-.795,0l-5.738,3.017a.854.854,0,0,1-1.238-.9l1.1-6.39a.854.854,0,0,0-.246-.755l-4.642-4.525a.853.853,0,0,1,.473-1.456l6.416-.932a.853.853,0,0,0,.643-.467l2.869-5.814A.853.853,0,0,1,252.683,569.028Z" transform="translate(-239.876 -567.935)" fill="url(#linear-gradient-3)"/>
            <path id="Trazado_993685" data-name="Trazado 993685" d="M244.943,590.543a1.473,1.473,0,0,1-1.447-1.721l1.1-6.389a.237.237,0,0,0-.068-.209l-4.642-4.526a1.469,1.469,0,0,1,.814-2.507l6.415-.933a.239.239,0,0,0,.18-.13l2.869-5.813a1.469,1.469,0,0,1,2.636,0l2.869,5.813a.238.238,0,0,0,.177.13l6.417.933a1.47,1.47,0,0,1,.814,2.508l-4.642,4.525a.237.237,0,0,0-.068.209l1.1,6.39a1.47,1.47,0,0,1-2.133,1.549l-5.738-3.016a.231.231,0,0,0-.219,0l-5.741,3.016A1.466,1.466,0,0,1,244.943,590.543Zm6.534-21.815a.228.228,0,0,0-.212.132l-2.869,5.814a1.466,1.466,0,0,1-1.108.8l-6.413.933a.237.237,0,0,0-.132.4l4.642,4.526a1.47,1.47,0,0,1,.424,1.3l-1.1,6.391a.227.227,0,0,0,.093.232.232.232,0,0,0,.25.018l5.739-3.016a1.466,1.466,0,0,1,1.368,0l5.737,3.016a.232.232,0,0,0,.25-.018.229.229,0,0,0,.094-.232l-1.1-6.389a1.469,1.469,0,0,1,.424-1.3l4.642-4.525a.238.238,0,0,0-.132-.4l-6.416-.933a1.465,1.465,0,0,1-1.105-.8l-2.869-5.814h0A.228.228,0,0,0,251.477,568.728Z" transform="translate(-239.436 -567.495)" fill="#050004"/>
          </g>
        </g>
      </g>
    </g>
  </g>
</svg>
