<svg xmlns="http://www.w3.org/2000/svg" xmlns:xlink="http://www.w3.org/1999/xlink" width="108" height="108" viewBox="0 0 108 108">
  <defs>
    <filter id="Trazado_982547" x="0" y="0" width="108" height="108" filterUnits="userSpaceOnUse">
      <feOffset dy="3" input="SourceAlpha"/>
      <feGaussianBlur stdDeviation="3" result="blur"/>
      <feFlood flood-opacity="0.161"/>
      <feComposite operator="in" in2="blur"/>
      <feComposite in="SourceGraphic"/>
    </filter>
  </defs>
  <g id="Grupo_1158385" data-name="Grupo 1158385" transform="translate(-195 -3695)">
    <g id="Grupo_1157122" data-name="Grupo 1157122" transform="translate(34 2243)">
      <g id="Grupo_1153117" data-name="Grupo 1153117" transform="translate(-93 939)">
        <g id="Grupo_1149598" data-name="Grupo 1149598" transform="translate(80 315)">
          <g id="Grupo_1148770" data-name="Grupo 1148770" transform="translate(-27 -2583)">
            <g id="Grupo_1146954" data-name="Grupo 1146954" transform="translate(-415 -1202)">
              <g transform="matrix(1, 0, 0, 1, 616, 3983)" filter="url(#Trazado_982547)">
                <g id="Trazado_982547-2" data-name="Trazado 982547" transform="translate(9 6)" fill="#ebfefd">
                  <path d="M 45 88.5 C 39.12687683105469 88.5 33.43022537231445 87.35007476806641 28.06830024719238 85.08217620849609 C 22.88852500915527 82.89131164550781 18.23629951477051 79.75458526611328 14.2408504486084 75.75914764404297 C 10.24541282653809 71.76370239257812 7.108687400817871 67.11147308349609 4.917825222015381 61.93170166015625 C 2.649924993515015 56.56977462768555 1.5 50.87312316894531 1.5 45 C 1.5 39.12687683105469 2.649924993515015 33.43022537231445 4.917825222015381 28.06830024719238 C 7.108687400817871 22.88852500915527 10.24541282653809 18.23629951477051 14.2408504486084 14.2408504486084 C 18.23629951477051 10.24541282653809 22.88852500915527 7.108687400817871 28.06830024719238 4.917825222015381 C 33.43022537231445 2.649924993515015 39.12687683105469 1.5 45 1.5 C 50.87312316894531 1.5 56.56977462768555 2.649924993515015 61.93170166015625 4.917825222015381 C 67.11147308349609 7.108687400817871 71.76370239257812 10.24541282653809 75.75914764404297 14.2408504486084 C 79.75458526611328 18.23629951477051 82.89131164550781 22.88852500915527 85.08217620849609 28.06830024719238 C 87.35007476806641 33.43022537231445 88.5 39.12687683105469 88.5 45 C 88.5 50.87312316894531 87.35007476806641 56.56977462768555 85.08217620849609 61.93170166015625 C 82.89131164550781 67.11147308349609 79.75458526611328 71.76370239257812 75.75914764404297 75.75914764404297 C 71.76370239257812 79.75458526611328 67.11147308349609 82.89131164550781 61.93170166015625 85.08217620849609 C 56.56977462768555 87.35007476806641 50.87312316894531 88.5 45 88.5 Z" stroke="none"/>
                  <path d="M 45 3 C 39.32871246337891 3 33.82865524291992 4.110054016113281 28.65262985229492 6.299339294433594 C 23.65165710449219 8.414573669433594 19.15968322753906 11.44334411621094 15.301513671875 15.301513671875 C 11.44334411621094 19.15968322753906 8.414573669433594 23.65165710449219 6.299339294433594 28.65262985229492 C 4.110054016113281 33.82865524291992 3 39.32871246337891 3 45 C 3 50.67128753662109 4.110054016113281 56.17134475708008 6.299339294433594 61.34737396240234 C 8.414573669433594 66.34834289550781 11.44334411621094 70.84031677246094 15.301513671875 74.698486328125 C 19.15968322753906 78.55665588378906 23.65165710449219 81.58542633056641 28.65262985229492 83.70066070556641 C 33.82865524291992 85.88994598388672 39.32871246337891 87 45 87 C 50.67128753662109 87 56.17134475708008 85.88994598388672 61.34737396240234 83.70066070556641 C 66.34834289550781 81.58542633056641 70.84031677246094 78.55665588378906 74.698486328125 74.698486328125 C 78.55665588378906 70.84031677246094 81.58542633056641 66.34834289550781 83.70066070556641 61.34737396240234 C 85.88994598388672 56.17134475708008 87 50.67128753662109 87 45 C 87 39.32871246337891 85.88994598388672 33.82865524291992 83.70066070556641 28.65262985229492 C 81.58542633056641 23.65165710449219 78.55665588378906 19.15968322753906 74.698486328125 15.301513671875 C 70.84031677246094 11.44334411621094 66.34834289550781 8.414573669433594 61.34737396240234 6.299339294433594 C 56.17134475708008 4.110054016113281 50.67128753662109 3 45 3 M 45 0 C 69.85281372070312 0 90 20.14718627929688 90 45 C 90 69.85281372070312 69.85281372070312 90 45 90 C 20.14718627929688 90 0 69.85281372070312 0 45 C 0 20.14718627929688 20.14718627929688 0 45 0 Z" stroke="none" fill="#268985"/>
                </g>
              </g>
            </g>
          </g>
        </g>
      </g>
    </g>
    <g id="publicidad-digital_1_" data-name="publicidad-digital (1)" transform="translate(223 3715.954)">
      <path id="Trazado_993686" data-name="Trazado 993686" d="M45.086,21.817v-8.4a3.377,3.377,0,0,0-3.377-3.377H13.375A3.377,3.377,0,0,0,10,13.421V63.454a3.377,3.377,0,0,0,3.377,3.377H41.709a3.377,3.377,0,0,0,3.377-3.377V21.817Z" transform="translate(-8.844 -8.844)" fill="#70ddd6"/>
      <rect id="Rectángulo_409700" data-name="Rectángulo 409700" width="34.964" height="40.85" transform="translate(1.278 8.588)" fill="#edf2fa"/>
      <path id="Trazado_993687" data-name="Trazado 993687" d="M366.739,193.587a4.048,4.048,0,0,0-4.048-7.011Z" transform="translate(-320.821 -164.516)" fill="#ff5d5d"/>
      <path id="Trazado_993688" data-name="Trazado 993688" d="M146.272,276.583,140.53,279.9a5.475,5.475,0,0,1-7.479-2h0a5.475,5.475,0,0,1,2-7.479L140.8,267.1Z" transform="translate(-117.042 -236.225)" fill="#ffb954"/>
      <path id="Trazado_993689" data-name="Trazado 993689" d="M221.927,349.268l3.88,6.72-4.081,2.356-3.881-6.722Z" transform="translate(-192.696 -308.907)" fill="#6a80ff"/>
      <path id="Trazado_993690" data-name="Trazado 993690" d="M211.248,145.889l-5.476-9.486,13.357-17.057,13.564,23.494Z" transform="translate(-182.017 -105.528)" fill="#fff"/>
      <path id="Trazado_993691" data-name="Trazado 993691" d="M303.269,143.623l5.5-.782-13.564-23.494-3.428,4.378Z" transform="translate(-258.096 -105.528)" fill="#70ddd6"/>
      <path id="Trazado_993692" data-name="Trazado 993692" d="M117.133,34.349h8.31a1.154,1.154,0,0,0,0-2.308h-8.31a1.154,1.154,0,0,0,0,2.308Z" transform="translate(-102.59 -28.301)"/>
      <path id="Trazado_993693" data-name="Trazado 993693" d="M153.126,453.723a1.155,1.155,0,1,0,.816.338A1.163,1.163,0,0,0,153.126,453.723Z" transform="translate(-134.428 -401.303)"/>
      <path id="Trazado_993694" data-name="Trazado 993694" d="M47.429,29.38A5.2,5.2,0,0,0,42.357,20.6l-4.246-7.354a1.154,1.154,0,0,0-1.908-.134L22.984,29.988l-5.548,3.2a6.629,6.629,0,1,0,6.629,11.482l.661-.381,2.3,3.991H2.308V9.741h32.78v.346a1.154,1.154,0,1,0,2.308,0V4.578A4.537,4.537,0,0,0,32.865.046H4.532A4.537,4.537,0,0,0,0,4.578V54.61a4.537,4.537,0,0,0,4.532,4.532H32.865A4.537,4.537,0,0,0,37.4,54.61V40.366l13.442-1.911a1.154,1.154,0,0,0,.837-1.72Zm-2.786-6.61a2.893,2.893,0,0,1,1.577,4.516l-2.654-4.6A2.889,2.889,0,0,1,44.643,22.77Zm-14.8,16.338-4.7-8.135,8.395-10.72,9.78,16.94Zm-6.93,3.565A4.321,4.321,0,0,1,18.59,35.19l4.742-2.738,4.32,7.484Zm5.9-.738,2.727,4.723-2.082,1.2-2.727-4.723ZM4.532,2.354H32.865a2.226,2.226,0,0,1,2.223,2.223V7.433H2.308V4.578A2.226,2.226,0,0,1,4.532,2.354ZM32.865,56.833H4.532A2.226,2.226,0,0,1,2.309,54.61V50.591h32.78V54.61A2.226,2.226,0,0,1,32.865,56.833Zm2.223-8.551H33.337l.35-.2A1.154,1.154,0,0,0,34.11,46.5l-3.025-5.24,4-.569Zm10.694-11.44L35.073,18.294l1.894-2.418L48.822,36.41Z"/>
      <path id="Trazado_993695" data-name="Trazado 993695" d="M450.79,141.717a1.154,1.154,0,0,0-1.577-.422l-5.659,3.267a1.154,1.154,0,1,0,1.154,2l5.659-3.267A1.154,1.154,0,0,0,450.79,141.717Z" transform="translate(-391.838 -124.805)"/>
      <path id="Trazado_993696" data-name="Trazado 993696" d="M401.285,107.247a1.153,1.153,0,0,0,1.414-.816l.825-3.079a1.154,1.154,0,1,0-2.23-.6l-.825,3.079A1.154,1.154,0,0,0,401.285,107.247Z" transform="translate(-354.202 -90.095)"/>
      <path id="Trazado_993697" data-name="Trazado 993697" d="M461.005,226.2l-3.182-.853a1.154,1.154,0,0,0-.6,2.23l3.182.853a1.154,1.154,0,0,0,.6-2.23Z" transform="translate(-403.685 -199.256)"/>
      <path id="Trazado_993698" data-name="Trazado 993698" d="M59.906,114.348a1.154,1.154,0,0,0-1.154-1.154H42.825a1.154,1.154,0,1,0,0,2.308H58.752A1.154,1.154,0,0,0,59.906,114.348Z" transform="translate(-36.86 -100.086)"/>
      <path id="Trazado_993699" data-name="Trazado 993699" d="M180.791,163.5a1.154,1.154,0,1,0-.816-.338A1.163,1.163,0,0,0,180.791,163.5Z" transform="translate(-158.899 -142.539)"/>
      <path id="Trazado_993700" data-name="Trazado 993700" d="M55.135,162.339a1.154,1.154,0,0,0-1.154-1.154H42.825a1.154,1.154,0,1,0,0,2.308H53.981A1.154,1.154,0,0,0,55.135,162.339Z" transform="translate(-36.86 -142.537)"/>
      <path id="Trazado_993701" data-name="Trazado 993701" d="M81.23,211.484h8.751a1.154,1.154,0,1,0,0-2.308H81.23a1.154,1.154,0,1,0,0,2.308Z" transform="translate(-70.832 -184.988)"/>
      <path id="Trazado_993702" data-name="Trazado 993702" d="M42.742,209.176a1.154,1.154,0,1,0,0,2.308H42.8a1.154,1.154,0,0,0,0-2.308Z" transform="translate(-36.787 -184.988)"/>
    </g>
  </g>
</svg>
