<svg xmlns="http://www.w3.org/2000/svg" xmlns:xlink="http://www.w3.org/1999/xlink" width="110" height="110" viewBox="0 0 110 110">
  <defs>
    <filter id="Trazado_982547" x="0" y="0" width="110" height="110" filterUnits="userSpaceOnUse">
      <feOffset dy="3" input="SourceAlpha"/>
      <feGaussianBlur stdDeviation="3" result="blur"/>
      <feFlood flood-opacity="0.161"/>
      <feComposite operator="in" in2="blur"/>
      <feComposite in="SourceGraphic"/>
    </filter>
  </defs>
  <g id="Grupo_1158046" data-name="Grupo 1158046" transform="translate(-1371 -4339)">
    <g id="Grupo_1157019" data-name="Grupo 1157019" transform="translate(256 3549)">
      <g id="Grupo_1155793" data-name="Grupo 1155793" transform="translate(-0.999 -3894)">
        <g id="Grupo_1154704" data-name="Grupo 1154704" transform="translate(0 1466)">
          <g id="Grupo_1150790" data-name="Grupo 1150790" transform="translate(3 2320)">
            <g id="Grupo_1154214" data-name="Grupo 1154214" transform="translate(79 -5809)">
              <g id="Grupo_1152583" data-name="Grupo 1152583" transform="translate(1043 6713)">
                <g id="Grupo_1146973" data-name="Grupo 1146973" transform="translate(0 0)">
                  <g id="Grupo_1146954" data-name="Grupo 1146954">
                    <g transform="matrix(1, 0, 0, 1, -9, -6)" filter="url(#Trazado_982547)">
                      <g id="Trazado_982547-2" data-name="Trazado 982547" transform="translate(9 6)" fill="#fceaf1">
                        <path d="M 46 90.49987030029297 C 39.99187850952148 90.49987030029297 34.16426849365234 89.32350921630859 28.67905426025391 87.00345611572266 C 23.38019943237305 84.76224517822266 18.62104034423828 81.55341339111328 14.53374671936035 77.46613311767578 C 10.44646644592285 73.37885284423828 7.237639904022217 68.61969757080078 4.996413230895996 63.32085418701172 C 2.676359891891479 57.83565521240234 1.5 52.008056640625 1.5 45.99993515014648 C 1.5 39.99181365966797 2.676359891891479 34.16421508789062 4.996413230895996 28.67901420593262 C 7.237639904022217 23.38017463684082 10.44646644592285 18.62101554870605 14.53374671936035 14.53373527526855 C 18.62104034423828 10.44645500183105 23.38019943237305 7.23762845993042 28.67905426025391 4.996415138244629 C 34.16426849365234 2.676361799240112 39.99187850952148 1.500001788139343 46 1.500001788139343 C 52.00812149047852 1.500001788139343 57.83573150634766 2.676361799240112 63.32094573974609 4.996415138244629 C 68.61979675292969 7.23762845993042 73.37895965576172 10.44645500183105 77.46625518798828 14.53373527526855 C 81.55353546142578 18.62101554870605 84.76235961914062 23.38017463684082 87.00358581542969 28.67901420593262 C 89.32363891601562 34.16421508789062 90.5 39.99181365966797 90.5 45.99993515014648 C 90.5 52.008056640625 89.32363891601562 57.83565521240234 87.00358581542969 63.32085418701172 C 84.76235961914062 68.61969757080078 81.55353546142578 73.37885284423828 77.46625518798828 77.46613311767578 C 73.37895965576172 81.55341339111328 68.61979675292969 84.76224517822266 63.32094573974609 87.00345611572266 C 57.83573150634766 89.32350921630859 52.00812149047852 90.49987030029297 46 90.49987030029297 Z" stroke="none"/>
                        <path d="M 46 2.999992370605469 C 40.1937141418457 2.999992370605469 34.56269836425781 4.136489868164062 29.26337051391602 6.377906799316406 C 24.14332580566406 8.543502807617188 19.54441070556641 11.64437866210938 15.59439849853516 15.59437561035156 C 11.64440155029297 19.54439544677734 8.54351806640625 24.14329528808594 6.377914428710938 29.26333618164062 C 4.136497497558594 34.56264877319336 3 40.19366455078125 3 45.99993515014648 C 3 51.80620574951172 4.136497497558594 57.43720626831055 6.377914428710938 62.73651885986328 C 8.54351806640625 67.8565673828125 11.64440155029297 72.45545959472656 15.59439849853516 76.40547943115234 C 19.54441070556641 80.35547637939453 24.14332580566406 83.45635223388672 29.26337051391602 85.6219482421875 C 34.56269836425781 87.86336517333984 40.1937141418457 88.99986267089844 46 88.99986267089844 C 51.8062858581543 88.99986267089844 57.43730163574219 87.86336517333984 62.73661422729492 85.6219482421875 C 67.85667419433594 83.45635223388672 72.45557403564453 80.35547637939453 76.40558624267578 76.40547943115234 C 80.35559844970703 72.45545959472656 83.45647430419922 67.8565673828125 85.6220703125 62.73651885986328 C 87.86350250244141 57.43720626831055 89 51.80620574951172 89 45.99993515014648 C 89 40.19366455078125 87.86350250244141 34.56264877319336 85.6220703125 29.26333618164062 C 83.45647430419922 24.14329528808594 80.35559844970703 19.54439544677734 76.40558624267578 15.59437561035156 C 72.45557403564453 11.64437866210938 67.85667419433594 8.543502807617188 62.73661422729492 6.377906799316406 C 57.43730163574219 4.136489868164062 51.8062858581543 2.999992370605469 46 2.999992370605469 M 46 -7.62939453125e-06 C 71.40509033203125 -7.62939453125e-06 92 20.59486389160156 92 45.99993515014648 C 92 71.40499114990234 71.40509033203125 91.99986267089844 46 91.99986267089844 C 20.59490203857422 91.99986267089844 0 71.40499114990234 0 45.99993515014648 C 0 20.59486389160156 20.59490203857422 -7.62939453125e-06 46 -7.62939453125e-06 Z" stroke="none" fill="#e93b81"/>
                      </g>
                    </g>
                  </g>
                </g>
              </g>
            </g>
          </g>
        </g>
      </g>
    </g>
    <g id="gestion-de-contenido" transform="translate(1398 4363)">
      <g id="Grupo_1158044" data-name="Grupo 1158044" transform="translate(0.831 0.831)">
        <path id="Trazado_993296" data-name="Trazado 993296" d="M143.316,100.8h4.225a.918.918,0,0,0,.918-.918V85.661a.918.918,0,0,0-.918-.918h-4.225V81.073h4.225a.918.918,0,0,0,.918-.918V65.931a.918.918,0,0,0-.918-.918h-4.225V61.342h6.978a1.835,1.835,0,0,1,1.835,1.835V80.155a.918.918,0,0,0,.918.918h5.143v3.671h-5.143a.918.918,0,0,0-.918.918v16.978a1.835,1.835,0,0,1-1.835,1.835h-6.978Z" transform="translate(-128.269 -55.377)" fill="#8ac9fe"/>
        <g id="Grupo_1158040" data-name="Grupo 1158040" transform="translate(29.367 11.012)">
          <path id="Trazado_993297" data-name="Trazado 993297" d="M272.567,143.7v23.923a1.773,1.773,0,0,0,1.773,1.773H296.49a1.773,1.773,0,0,0,1.773-1.773V143.7l-12.389-3.671Z" transform="translate(-272.567 -136.363)" fill="#f8f6f6"/>
          <path id="Trazado_993298" data-name="Trazado 993298" d="M467.273,191.03A1.773,1.773,0,0,1,465.5,192.8h2.548a1.773,1.773,0,0,0,1.773-1.773V167.107l-2.548-.755Z" transform="translate(-444.125 -159.765)" fill="#e2e2e2"/>
          <path id="Trazado_993299" data-name="Trazado 993299" d="M296.49,106.9H274.34a1.773,1.773,0,0,0-1.773,1.773v5.569h25.7v-5.569A1.773,1.773,0,0,0,296.49,106.9Z" transform="translate(-272.567 -106.9)" fill="#8ac9fe"/>
          <path id="Trazado_993300" data-name="Trazado 993300" d="M468.048,106.9H465.5a1.773,1.773,0,0,1,1.773,1.773v5.569h2.548v-5.569A1.773,1.773,0,0,0,468.048,106.9Z" transform="translate(-444.125 -106.9)" fill="#60b7ff"/>
          <g id="Grupo_1158039" data-name="Grupo 1158039" transform="translate(2.351 9.675)">
            <circle id="Elipse_11681" data-name="Elipse 11681" cx="9.177" cy="9.177" r="9.177" transform="translate(0 18.134) rotate(-81.027)" fill="#a2e62e"/>
            <g id="Grupo_1158037" data-name="Grupo 1158037" transform="translate(4.993 6.394)">
              <path id="Trazado_993301" data-name="Trazado 993301" d="M343.125,260.072l-3.947-3.346a.918.918,0,0,1-.084-1.32l1.265-1.384a.918.918,0,0,1,1.237-.108l1.561,1.236a.459.459,0,0,0,.583-.019l3.374-2.964a.918.918,0,0,1,1.29.078l1.225,1.371a.918.918,0,0,1-.076,1.3l-5.826,5.151a.459.459,0,0,1-.6.007Z" transform="translate(-338.854 -251.939)" fill="#f8f6f6"/>
            </g>
            <path id="Trazado_993302" data-name="Trazado 993302" d="M378.3,206.3a9.252,9.252,0,0,0-1.275.09,9.176,9.176,0,0,1,0,18.174A9.177,9.177,0,1,0,378.3,206.3Z" transform="translate(-367.804 -204.962)" fill="#32db1f"/>
            <g id="Grupo_1158038" data-name="Grupo 1158038" transform="translate(8.265 6.394)">
              <path id="Trazado_993303" data-name="Trazado 993303" d="M375.895,253.616l-1.225-1.371a.918.918,0,0,0-1.29-.078l-.745.654.71.794a.918.918,0,0,1-.076,1.3l-4.876,4.311,1,.847a.459.459,0,0,0,.6-.007l5.826-5.151A.918.918,0,0,0,375.895,253.616Z" transform="translate(-368.393 -251.939)" fill="#e2e2e2"/>
            </g>
          </g>
        </g>
        <g id="Grupo_1158041" data-name="Grupo 1158041" transform="translate(0)">
          <path id="Trazado_993304" data-name="Trazado 993304" d="M21.329,23.1H9.274A1.773,1.773,0,0,1,7.5,21.329V9.274A1.773,1.773,0,0,1,9.274,7.5H21.329A1.773,1.773,0,0,1,23.1,9.274V21.329A1.773,1.773,0,0,1,21.329,23.1Z" transform="translate(-7.501 -7.501)" fill="#d83131"/>
          <path id="Trazado_993305" data-name="Trazado 993305" d="M48.933,51.03v-6.6a.459.459,0,0,1,.664-.41l6.6,3.3a.459.459,0,0,1,0,.821l-6.6,3.3a.459.459,0,0,1-.664-.41Z" transform="translate(-44.343 -39.929)" fill="#f8f6f6"/>
          <path id="Trazado_993306" data-name="Trazado 993306" d="M111.864,7.5h-2.548a1.773,1.773,0,0,1,1.773,1.773V21.329a1.773,1.773,0,0,1-1.773,1.773h2.548a1.773,1.773,0,0,0,1.773-1.773V9.274A1.773,1.773,0,0,0,111.864,7.5Z" transform="translate(-98.036 -7.501)" fill="#c41926"/>
          <path id="Trazado_993307" data-name="Trazado 993307" d="M56.2,47.319l-6.6-3.3a.459.459,0,0,0-.664.41v.532l4.717,2.359a.459.459,0,0,1,0,.821L48.933,50.5v.532a.459.459,0,0,0,.664.41l6.6-3.3a.459.459,0,0,0,0-.821Z" transform="translate(-44.343 -39.929)" fill="#e2e2e2"/>
        </g>
        <g id="Grupo_1158042" data-name="Grupo 1158042" transform="translate(0 19.731)">
          <path id="Trazado_993308" data-name="Trazado 993308" d="M23.1,187.365a1.773,1.773,0,0,0-1.773-1.773H9.273A1.773,1.773,0,0,0,7.5,187.365v9.928l15.6-2.065Z" transform="translate(-7.5 -185.592)" fill="#daebfe"/>
          <path id="Trazado_993309" data-name="Trazado 993309" d="M111.089,187.365v8.2l2.548-.337v-7.863a1.773,1.773,0,0,0-1.773-1.773h-2.548A1.773,1.773,0,0,1,111.089,187.365Z" transform="translate(-98.036 -185.592)" fill="#bdd6ff"/>
          <path id="Trazado_993310" data-name="Trazado 993310" d="M89.8,249.279v-3.671l-3.947-3.158a.918.918,0,0,0-1.222.068L82.51,244.64v3.889Z" transform="translate(-74.2 -235.972)" fill="#32db1f"/>
          <path id="Trazado_993311" data-name="Trazado 993311" d="M9.273,258.233H21.328A1.773,1.773,0,0,0,23.1,256.46v-.522l-9.517-6.056a.918.918,0,0,0-1.094.081L7.5,254.333v2.128a1.773,1.773,0,0,0,1.773,1.773Z" transform="translate(-7.5 -242.632)" fill="#a2e62e"/>
          <path id="Trazado_993312" data-name="Trazado 993312" d="M127.864,259.876v-3.671l-2.548-2.039v5.447Z" transform="translate(-112.263 -246.57)" fill="#16c748"/>
          <path id="Trazado_993313" data-name="Trazado 993313" d="M9.273,258.233H21.328A1.773,1.773,0,0,0,23.1,256.46v-.522l-9.517-6.056a.918.918,0,0,0-1.094.081L7.5,254.333v2.128a1.773,1.773,0,0,0,1.773,1.773Z" transform="translate(-7.5 -242.632)" fill="#a2e62e"/>
          <path id="Trazado_993314" data-name="Trazado 993314" d="M113.637,293.207v-.522l-2.548-1.622v2.143a1.773,1.773,0,0,1-1.773,1.773h2.548A1.773,1.773,0,0,0,113.637,293.207Z" transform="translate(-98.036 -279.379)" fill="#32db1f"/>
        </g>
        <g id="Grupo_1158043" data-name="Grupo 1158043" transform="translate(0 39.462)">
          <path id="Trazado_993315" data-name="Trazado 993315" d="M21.329,379.286H9.274A1.773,1.773,0,0,1,7.5,377.513V365.458a1.773,1.773,0,0,1,1.773-1.773H21.329a1.773,1.773,0,0,1,1.773,1.773v12.056a1.773,1.773,0,0,1-1.773,1.773Z" transform="translate(-7.501 -363.685)" fill="#f8f6f6"/>
          <path id="Trazado_993316" data-name="Trazado 993316" d="M111.864,363.685h-2.548a1.773,1.773,0,0,1,1.773,1.773v12.056a1.773,1.773,0,0,1-1.773,1.773h2.548a1.773,1.773,0,0,0,1.773-1.773V365.458A1.773,1.773,0,0,0,111.864,363.685Z" transform="translate(-98.036 -363.685)" fill="#e2e2e2"/>
        </g>
      </g>
      <g id="Grupo_1158045" data-name="Grupo 1158045" transform="translate(0 0)">
        <path id="Trazado_993317" data-name="Trazado 993317" d="M344.017,247.677a1.737,1.737,0,0,0-.442-1.268l-1.225-1.371a1.754,1.754,0,0,0-2.458-.148l-3.14,2.759-1.313-1.039-.009-.007a1.738,1.738,0,0,0-2.356.207l-1.265,1.384a1.749,1.749,0,0,0,.16,2.514l3.947,3.346h0a1.3,1.3,0,0,0,1.688-.018l5.826-5.151a1.735,1.735,0,0,0,.587-1.207Zm-1.688-.038-5.585,4.937-3.7-3.137a.087.087,0,0,1-.008-.125l1.265-1.384a.087.087,0,0,1,.115-.012l1.554,1.23.009.007a1.293,1.293,0,0,0,1.637-.054l3.374-2.964a.087.087,0,0,1,.122.007l1.225,1.371a.087.087,0,0,1-.007.123Z" transform="translate(-294.64 -217.374)"/>
        <path id="Trazado_993318" data-name="Trazado 993318" d="M318.216,208.808a10.008,10.008,0,1,0-10.008,10.008A10.019,10.019,0,0,0,318.216,208.808Zm-18.354,0a8.346,8.346,0,1,1,8.346,8.346A8.356,8.356,0,0,1,299.862,208.808Z" transform="translate(-265.162 -176.775)"/>
        <path id="Trazado_993319" data-name="Trazado 993319" d="M54.121,11.013H31.97a2.607,2.607,0,0,0-2.6,2.6V25.7H25.609a.087.087,0,0,1-.087-.087V8.631a2.669,2.669,0,0,0-2.666-2.666H17.263V2.6a2.607,2.607,0,0,0-2.6-2.6H2.6A2.607,2.607,0,0,0,0,2.6V14.659a2.607,2.607,0,0,0,2.6,2.6H14.659a2.607,2.607,0,0,0,2.6-2.6V11.3H20.1a.087.087,0,0,1,.087.087v4.961a.831.831,0,0,0,1.662,0V11.385A1.751,1.751,0,0,0,20.1,9.636h-2.84V7.627h5.593a1.006,1.006,0,0,1,1,1V25.609a1.751,1.751,0,0,0,1.749,1.749h3.758v2.009H25.609a1.751,1.751,0,0,0-1.749,1.749V48.093a1.006,1.006,0,0,1-1,1H17.263V47.089H20.1a1.751,1.751,0,0,0,1.749-1.749V31.115A1.751,1.751,0,0,0,20.1,29.367h-2.84V27.358H20.1a1.751,1.751,0,0,0,1.749-1.749v-5.4a.831.831,0,1,0-1.662,0v5.4a.087.087,0,0,1-.087.087h-2.84V22.334a2.607,2.607,0,0,0-2.6-2.6H2.6a2.607,2.607,0,0,0-2.6,2.6V34.39a2.607,2.607,0,0,0,2.6,2.6H14.659a2.607,2.607,0,0,0,2.6-2.6V31.029H20.1a.087.087,0,0,1,.087.087V45.34a.087.087,0,0,1-.087.087h-2.84V42.065a2.607,2.607,0,0,0-2.6-2.6H2.6a2.607,2.607,0,0,0-2.6,2.6V54.121a2.607,2.607,0,0,0,2.6,2.6H14.659a2.607,2.607,0,0,0,2.6-2.6V50.759h5.593a2.669,2.669,0,0,0,2.666-2.666V31.115a.087.087,0,0,1,.087-.087h3.758v12.08a2.607,2.607,0,0,0,2.6,2.6h1.8a.831.831,0,1,0,0-1.662h-1.8a.943.943,0,0,1-.942-.942V20.016H55.063V43.108a.943.943,0,0,1-.942.942H37.643a.831.831,0,0,0,0,1.662H54.121a2.607,2.607,0,0,0,2.6-2.6V13.616a2.607,2.607,0,0,0-2.6-2.6ZM15.6,14.659a.943.943,0,0,1-.942.942H2.6a.943.943,0,0,1-.942-.942V2.6A.943.943,0,0,1,2.6,1.662H14.659A.943.943,0,0,1,15.6,2.6Zm0,17.7-5.14-3.271L11.85,27.7a.087.087,0,0,1,.116-.007L15.6,30.6ZM2.6,21.393H14.659a.943.943,0,0,1,.942.942v6.134L13,26.391a1.747,1.747,0,0,0-2.329.129l-1.65,1.65L7.361,27.111a1.76,1.76,0,0,0-2.088.157L1.662,30.43v-8.1a.943.943,0,0,1,.942-.942ZM14.659,35.332H2.6a.943.943,0,0,1-.942-.942V32.639l4.7-4.119a.087.087,0,0,1,.1-.008l2.215,1.409,0,0,6.915,4.4v.065A.943.943,0,0,1,14.659,35.332ZM15.6,54.121a.943.943,0,0,1-.942.942H2.6a.943.943,0,0,1-.942-.942V42.065a.943.943,0,0,1,.942-.942H14.659a.943.943,0,0,1,.942.942ZM31.029,18.354V13.616a.943.943,0,0,1,.942-.942H54.121a.943.943,0,0,1,.942.942v4.738Z" transform="translate(0 0)"/>
        <path id="Trazado_993320" data-name="Trazado 993320" d="M299.949,132.533h-.918a.831.831,0,1,0,0,1.662h.918a.831.831,0,1,0,0-1.662Z" transform="translate(-265.162 -117.85)"/>
        <path id="Trazado_993321" data-name="Trazado 993321" d="M341.366,132.533h-.918a.831.831,0,1,0,0,1.662h.918a.831.831,0,1,0,0-1.662Z" transform="translate(-301.991 -117.85)"/>
        <path id="Trazado_993322" data-name="Trazado 993322" d="M382.782,132.533h-.918a.831.831,0,1,0,0,1.662h.918a.831.831,0,1,0,0-1.662Z" transform="translate(-338.818 -117.85)"/>
        <path id="Trazado_993323" data-name="Trazado 993323" d="M49.9,39.9l-6.6-3.3a1.29,1.29,0,0,0-1.867,1.154v6.6A1.288,1.288,0,0,0,43.3,45.509l6.6-3.3a1.29,1.29,0,0,0,0-2.307Zm-6.806,3.852v-5.4l5.4,2.7Z" transform="translate(-36.842 -32.424)"/>
        <path id="Trazado_993324" data-name="Trazado 993324" d="M42.223,393.458h-8.26a.831.831,0,0,0,0,1.662h8.26a.831.831,0,0,0,0-1.662Z" transform="translate(-29.462 -349.867)"/>
        <path id="Trazado_993325" data-name="Trazado 993325" d="M42.223,426.592h-8.26a.831.831,0,0,0,0,1.662h8.26a.831.831,0,0,0,0-1.662Z" transform="translate(-29.462 -379.33)"/>
        <path id="Trazado_993326" data-name="Trazado 993326" d="M55.12,459.725H50.531a.831.831,0,0,0,0,1.662H55.12a.831.831,0,0,0,0-1.662Z" transform="translate(-44.194 -408.792)"/>
      </g>
    </g>
  </g>
</svg>
