<svg xmlns="http://www.w3.org/2000/svg" xmlns:xlink="http://www.w3.org/1999/xlink" width="108" height="108" viewBox="0 0 108 108">
  <defs>
    <filter id="Trazado_982547" x="0" y="0" width="108" height="108" filterUnits="userSpaceOnUse">
      <feOffset dy="3" input="SourceAlpha"/>
      <feGaussianBlur stdDeviation="3" result="blur"/>
      <feFlood flood-opacity="0.161"/>
      <feComposite operator="in" in2="blur"/>
      <feComposite in="SourceGraphic"/>
    </filter>
  </defs>
  <g id="Grupo_1158614" data-name="Grupo 1158614" transform="translate(-202 -1549)">
    <g id="Grupo_1157315" data-name="Grupo 1157315" transform="translate(41 97)">
      <g id="Grupo_1153117" data-name="Grupo 1153117" transform="translate(-93 939)">
        <g id="Grupo_1149598" data-name="Grupo 1149598" transform="translate(80 315)">
          <g id="Grupo_1148770" data-name="Grupo 1148770" transform="translate(-27 -2583)">
            <g id="Grupo_1146954" data-name="Grupo 1146954" transform="translate(-415 -1202)">
              <g transform="matrix(1, 0, 0, 1, 616, 3983)" filter="url(#Trazado_982547)">
                <g id="Trazado_982547-2" data-name="Trazado 982547" transform="translate(9 6)" fill="#fceaf1">
                  <path d="M 45 88.5 C 39.12687683105469 88.5 33.43022537231445 87.35007476806641 28.06830024719238 85.08217620849609 C 22.88852500915527 82.89131164550781 18.23629951477051 79.75458526611328 14.2408504486084 75.75914764404297 C 10.24541282653809 71.76370239257812 7.108687400817871 67.11147308349609 4.917825222015381 61.93170166015625 C 2.649924993515015 56.56977462768555 1.5 50.87312316894531 1.5 45 C 1.5 39.12687683105469 2.649924993515015 33.43022537231445 4.917825222015381 28.06830024719238 C 7.108687400817871 22.88852500915527 10.24541282653809 18.23629951477051 14.2408504486084 14.2408504486084 C 18.23629951477051 10.24541282653809 22.88852500915527 7.108687400817871 28.06830024719238 4.917825222015381 C 33.43022537231445 2.649924993515015 39.12687683105469 1.5 45 1.5 C 50.87312316894531 1.5 56.56977462768555 2.649924993515015 61.93170166015625 4.917825222015381 C 67.11147308349609 7.108687400817871 71.76370239257812 10.24541282653809 75.75914764404297 14.2408504486084 C 79.75458526611328 18.23629951477051 82.89131164550781 22.88852500915527 85.08217620849609 28.06830024719238 C 87.35007476806641 33.43022537231445 88.5 39.12687683105469 88.5 45 C 88.5 50.87312316894531 87.35007476806641 56.56977462768555 85.08217620849609 61.93170166015625 C 82.89131164550781 67.11147308349609 79.75458526611328 71.76370239257812 75.75914764404297 75.75914764404297 C 71.76370239257812 79.75458526611328 67.11147308349609 82.89131164550781 61.93170166015625 85.08217620849609 C 56.56977462768555 87.35007476806641 50.87312316894531 88.5 45 88.5 Z" stroke="none"/>
                  <path d="M 45 3 C 39.32871246337891 3 33.82865524291992 4.110054016113281 28.65262985229492 6.299339294433594 C 23.65165710449219 8.414573669433594 19.15968322753906 11.44334411621094 15.301513671875 15.301513671875 C 11.44334411621094 19.15968322753906 8.414573669433594 23.65165710449219 6.299339294433594 28.65262985229492 C 4.110054016113281 33.82865524291992 3 39.32871246337891 3 45 C 3 50.67128753662109 4.110054016113281 56.17134475708008 6.299339294433594 61.34737396240234 C 8.414573669433594 66.34834289550781 11.44334411621094 70.84031677246094 15.301513671875 74.698486328125 C 19.15968322753906 78.55665588378906 23.65165710449219 81.58542633056641 28.65262985229492 83.70066070556641 C 33.82865524291992 85.88994598388672 39.32871246337891 87 45 87 C 50.67128753662109 87 56.17134475708008 85.88994598388672 61.34737396240234 83.70066070556641 C 66.34834289550781 81.58542633056641 70.84031677246094 78.55665588378906 74.698486328125 74.698486328125 C 78.55665588378906 70.84031677246094 81.58542633056641 66.34834289550781 83.70066070556641 61.34737396240234 C 85.88994598388672 56.17134475708008 87 50.67128753662109 87 45 C 87 39.32871246337891 85.88994598388672 33.82865524291992 83.70066070556641 28.65262985229492 C 81.58542633056641 23.65165710449219 78.55665588378906 19.15968322753906 74.698486328125 15.301513671875 C 70.84031677246094 11.44334411621094 66.34834289550781 8.414573669433594 61.34737396240234 6.299339294433594 C 56.17134475708008 4.110054016113281 50.67128753662109 3 45 3 M 45 0 C 69.85281372070312 0 90 20.14718627929688 90 45 C 90 69.85281372070312 69.85281372070312 90 45 90 C 20.14718627929688 90 0 69.85281372070312 0 45 C 0 20.14718627929688 20.14718627929688 0 45 0 Z" stroke="none" fill="#e93b81"/>
                </g>
              </g>
            </g>
          </g>
        </g>
      </g>
    </g>
    <g id="Layer_54" transform="translate(227 1562.252)">
      <g id="Grupo_1158613" data-name="Grupo 1158613" transform="translate(0 10.748)">
        <g id="Grupo_1158510" data-name="Grupo 1158510" transform="translate(15.819 50.521)">
          <g id="Grupo_1158509" data-name="Grupo 1158509">
            <path id="Trazado_993785" data-name="Trazado 993785" d="M78.213,232.073v-.4h-7.77a1.267,1.267,0,0,0,0,2.534h9.9A2.139,2.139,0,0,1,78.213,232.073Z" transform="translate(-69.176 -231.671)" fill="#edf4fc"/>
          </g>
        </g>
        <g id="Grupo_1158512" data-name="Grupo 1158512" transform="translate(21.241 44.714)">
          <g id="Grupo_1158511" data-name="Grupo 1158511">
            <path id="Trazado_993786" data-name="Trazado 993786" d="M92.883,206.277H96.5v5.807H92.883Z" transform="translate(-92.883 -206.277)" fill="#c7d7e5"/>
          </g>
        </g>
        <g id="Grupo_1158514" data-name="Grupo 1158514" transform="translate(24.857 16.005)">
          <g id="Grupo_1158513" data-name="Grupo 1158513">
            <path id="Trazado_993787" data-name="Trazado 993787" d="M125.641,115.334V93.507a2.46,2.46,0,0,1,2.453-2.453h7.9V82.869a2.139,2.139,0,0,0-2.132-2.132H110.828a2.139,2.139,0,0,0-2.132,2.132v32.785a2.139,2.139,0,0,0,2.132,2.132h17.266A2.46,2.46,0,0,1,125.641,115.334Z" transform="translate(-108.696 -80.737)" fill="#5290db"/>
          </g>
        </g>
        <g id="Grupo_1158516" data-name="Grupo 1158516" transform="translate(0.572 5.487)">
          <g id="Grupo_1158515" data-name="Grupo 1158515">
            <path id="Trazado_993788" data-name="Trazado 993788" d="M26.785,47.393a2.139,2.139,0,0,1,2.132-2.132H51.95a2.139,2.139,0,0,1,2.132,2.132V37.448a2.713,2.713,0,0,0-2.705-2.705H5.205A2.713,2.713,0,0,0,2.5,37.448V71.264A2.713,2.713,0,0,0,5.205,73.97H26.785Z" transform="translate(-2.5 -34.743)" fill="#5290db"/>
          </g>
        </g>
        <g id="Grupo_1158518" data-name="Grupo 1158518" transform="translate(41.802 26.323)">
          <g id="Grupo_1158517" data-name="Grupo 1158517">
            <path id="Trazado_993789" data-name="Trazado 993789" d="M196.512,125.855H185.249a2.46,2.46,0,0,0-2.453,2.453v21.826a2.46,2.46,0,0,0,2.453,2.453h11.263a2.46,2.46,0,0,0,2.453-2.453V128.308A2.46,2.46,0,0,0,196.512,125.855Z" transform="translate(-182.796 -125.855)" fill="#5290db"/>
          </g>
        </g>
        <g id="Grupo_1158520" data-name="Grupo 1158520" transform="translate(43.957 28.478)">
          <g id="Grupo_1158519" data-name="Grupo 1158519">
            <path id="Trazado_993790" data-name="Trazado 993790" d="M203.36,135.282h-2.523a.853.853,0,0,0-.8.531,2.034,2.034,0,0,1-3.78,0,.853.853,0,0,0-.8-.531h-2.523a.719.719,0,0,0-.719.719v20.982a.719.719,0,0,0,.719.719H203.36a.719.719,0,0,0,.719-.719V136A.719.719,0,0,0,203.36,135.282Z" transform="translate(-192.222 -135.282)" fill="#edf4fc"/>
          </g>
        </g>
        <g id="Grupo_1158522" data-name="Grupo 1158522" transform="translate(27.184 18.333)">
          <g id="Grupo_1158521" data-name="Grupo 1158521">
            <path id="Trazado_993791" data-name="Trazado 993791" d="M133.492,123.185V101.359a2.46,2.46,0,0,1,2.453-2.453h5.572V91.126a.21.21,0,0,0-.211-.21H119.085a.211.211,0,0,0-.211.21V123.1a.21.21,0,0,0,.211.21H133.5C133.5,123.269,133.492,123.227,133.492,123.185Z" transform="translate(-118.874 -90.916)" fill="#edf4fc"/>
          </g>
        </g>
        <g id="Grupo_1158524" data-name="Grupo 1158524" transform="translate(0.572 37.499)">
          <g id="Grupo_1158523" data-name="Grupo 1158523">
            <path id="Trazado_993792" data-name="Trazado 993792" d="M26.785,174.73H2.5v4.509a2.713,2.713,0,0,0,2.705,2.705H26.785Z" transform="translate(-2.5 -174.73)" fill="#edf4fc"/>
          </g>
        </g>
        <g id="Grupo_1158526" data-name="Grupo 1158526" transform="translate(2.826 7.742)">
          <g id="Grupo_1158525" data-name="Grupo 1158525">
            <path id="Trazado_993793" data-name="Trazado 993793" d="M34.388,55a2.139,2.139,0,0,1,2.132-2.132H59.431V45.053a.452.452,0,0,0-.451-.451H12.809a.452.452,0,0,0-.451.451V74.36h22.03Z" transform="translate(-12.358 -44.602)" fill="#edf4fc"/>
          </g>
        </g>
        <g id="Grupo_1158528" data-name="Grupo 1158528" transform="translate(2.826 7.741)">
          <g id="Grupo_1158527" data-name="Grupo 1158527" transform="translate(0 0)">
            <path id="Trazado_993794" data-name="Trazado 993794" d="M58.981,44.6H12.809a.452.452,0,0,0-.451.451v2.27H59.432v-2.27A.452.452,0,0,0,58.981,44.6Z" transform="translate(-12.358 -44.601)" fill="#5290db"/>
          </g>
        </g>
        <g id="Grupo_1158530" data-name="Grupo 1158530" transform="translate(2.826 7.741)">
          <g id="Grupo_1158529" data-name="Grupo 1158529">
            <path id="Trazado_993795" data-name="Trazado 993795" d="M16.049,44.6h-3.24a.452.452,0,0,0-.451.451v2.27h3.691Z" transform="translate(-12.358 -44.601)" fill="#fc657e"/>
          </g>
        </g>
        <g id="Grupo_1158532" data-name="Grupo 1158532" transform="translate(5.603 23.955)">
          <g id="Grupo_1158531" data-name="Grupo 1158531">
            <path id="Trazado_993796" data-name="Trazado 993796" d="M32.558,126.477h-7.2a.861.861,0,0,1-.861-.861v-9.255a.861.861,0,0,1,.861-.861h7.2a.861.861,0,0,1,.861.861v9.255A.86.86,0,0,1,32.558,126.477Z" transform="translate(-24.5 -115.501)" fill="#70d6f9"/>
          </g>
        </g>
        <g id="Grupo_1158534" data-name="Grupo 1158534" transform="translate(17.037 23.955)">
          <g id="Grupo_1158533" data-name="Grupo 1158533">
            <path id="Trazado_993797" data-name="Trazado 993797" d="M82.32,126.477V115.5H75.361a.861.861,0,0,0-.861.861v9.255a.861.861,0,0,0,.861.861H82.32Z" transform="translate(-74.5 -115.5)" fill="#f5c84c"/>
          </g>
        </g>
        <g id="Grupo_1158536" data-name="Grupo 1158536" transform="translate(45.885 40.459)">
          <g id="Grupo_1158535" data-name="Grupo 1158535">
            <path id="Trazado_993798" data-name="Trazado 993798" d="M207.99,187.67h-6.678a.663.663,0,0,0-.663.663v1.652a.663.663,0,0,0,.663.663h6.678a.663.663,0,0,0,.663-.663v-1.652A.663.663,0,0,0,207.99,187.67Z" transform="translate(-200.649 -187.67)" fill="#f5c84c"/>
          </g>
        </g>
        <g id="Grupo_1158538" data-name="Grupo 1158538" transform="translate(45.885 45.635)">
          <g id="Grupo_1158537" data-name="Grupo 1158537">
            <path id="Trazado_993799" data-name="Trazado 993799" d="M207.99,210.307h-6.678a.663.663,0,0,0-.663.663v1.652a.663.663,0,0,0,.663.663h6.678a.663.663,0,0,0,.663-.663V210.97A.663.663,0,0,0,207.99,210.307Z" transform="translate(-200.649 -210.307)" fill="#fc657e"/>
          </g>
        </g>
        <g id="Grupo_1158541" data-name="Grupo 1158541" transform="translate(45.885 35.282)">
          <g id="Grupo_1158540" data-name="Grupo 1158540">
            <g id="Grupo_1158539" data-name="Grupo 1158539">
              <path id="Trazado_993800" data-name="Trazado 993800" d="M207.99,165.034h-6.678a.663.663,0,0,0-.663.663v1.652a.663.663,0,0,0,.663.663h6.678a.663.663,0,0,0,.663-.663V165.7A.663.663,0,0,0,207.99,165.034Z" transform="translate(-200.649 -165.034)" fill="#70d6f9"/>
            </g>
          </g>
        </g>
        <g id="Grupo_1158543" data-name="Grupo 1158543" transform="translate(29.853 27.112)">
          <g id="Grupo_1158542" data-name="Grupo 1158542">
            <path id="Trazado_993801" data-name="Trazado 993801" d="M131.419,129.3a.874.874,0,0,0-.874.874v3.392a.874.874,0,0,0,.874.874h11.075v-3.477a2.44,2.44,0,0,1,.658-1.664H131.419Z" transform="translate(-130.545 -129.305)" fill="#70d6f9"/>
          </g>
        </g>
        <g id="Grupo_1158545" data-name="Grupo 1158545" transform="translate(29.853 35.001)">
          <g id="Grupo_1158544" data-name="Grupo 1158544">
            <path id="Trazado_993802" data-name="Trazado 993802" d="M131.419,163.8a.874.874,0,0,0-.874.874v3.392a.874.874,0,0,0,.874.874h11.075v-5.141H131.419Z" transform="translate(-130.545 -163.805)" fill="#f5c84c"/>
          </g>
        </g>
        <g id="Grupo_1158547" data-name="Grupo 1158547" transform="translate(29.853 42.891)">
          <g id="Grupo_1158546" data-name="Grupo 1158546">
            <path id="Trazado_993803" data-name="Trazado 993803" d="M131.419,198.3a.874.874,0,0,0-.874.874v3.392a.874.874,0,0,0,.874.874h11.075v-5.141H131.419Z" transform="translate(-130.545 -198.305)" fill="#fc657e"/>
          </g>
        </g>
        <g id="Grupo_1158549" data-name="Grupo 1158549" transform="translate(55.112 13.835)">
          <g id="Grupo_1158548" data-name="Grupo 1158548">
            <path id="Trazado_993804" data-name="Trazado 993804" d="M244.4,72.892a2.055,2.055,0,0,1-1.647-1.614.037.037,0,0,0-.073,0,2.055,2.055,0,0,1-1.647,1.614.036.036,0,0,0,0,.072,2.055,2.055,0,0,1,1.647,1.614.037.037,0,0,0,.073,0,2.055,2.055,0,0,1,1.647-1.614A.036.036,0,0,0,244.4,72.892Z" transform="translate(-241 -71.248)" fill="#f5c84c"/>
          </g>
        </g>
        <g id="Grupo_1158551" data-name="Grupo 1158551" transform="translate(28.984)">
          <g id="Grupo_1158550" data-name="Grupo 1158550">
            <path id="Trazado_993805" data-name="Trazado 993805" d="M129.8,12.229a1.851,1.851,0,0,1-1.484-1.453.033.033,0,0,0-.066,0,1.85,1.85,0,0,1-1.484,1.453.033.033,0,0,0,0,.064,1.851,1.851,0,0,1,1.484,1.453.033.033,0,0,0,.066,0,1.851,1.851,0,0,1,1.484-1.453A.033.033,0,0,0,129.8,12.229Z" transform="translate(-126.743 -10.748)" fill="#fc657e"/>
          </g>
        </g>
        <g id="Grupo_1158553" data-name="Grupo 1158553" transform="translate(9.67 47.337)">
          <g id="Grupo_1158552" data-name="Grupo 1158552">
            <path id="Trazado_993806" data-name="Trazado 993806" d="M43.007,219h.533v-.533a.722.722,0,0,1,1.444,0V219h.533a.722.722,0,0,1,0,1.444h-.533v.533a.722.722,0,0,1-1.444,0v-.533h-.533a.722.722,0,1,1,0-1.444Z" transform="translate(-42.285 -217.748)" fill="#70d6f9"/>
          </g>
        </g>
        <g id="Grupo_1158555" data-name="Grupo 1158555" transform="translate(54.505 19.036)">
          <g id="Grupo_1158554" data-name="Grupo 1158554">
            <circle id="Elipse_11714" data-name="Elipse 11714" cx="0.772" cy="0.772" r="0.772" fill="#87d147"/>
          </g>
        </g>
        <g id="Grupo_1158557" data-name="Grupo 1158557" transform="translate(24.09 1.657)">
          <g id="Grupo_1158556" data-name="Grupo 1158556">
            <circle id="Elipse_11715" data-name="Elipse 11715" cx="0.772" cy="0.772" r="0.772" fill="#70d6f9"/>
          </g>
        </g>
        <g id="Grupo_1158559" data-name="Grupo 1158559" transform="translate(4.881 46.936)">
          <g id="Grupo_1158558" data-name="Grupo 1158558">
            <circle id="Elipse_11716" data-name="Elipse 11716" cx="0.772" cy="0.772" r="0.772" fill="#f5c84c"/>
          </g>
        </g>
        <g id="Grupo_1158561" data-name="Grupo 1158561" transform="translate(15.248 49.949)">
          <g id="Grupo_1158560" data-name="Grupo 1158560">
            <path id="Trazado_993807" data-name="Trazado 993807" d="M78.418,232.848h-9.9a1.839,1.839,0,1,1,0-3.677h7.618a.572.572,0,1,1,0,1.143H68.516a.7.7,0,1,0,0,1.391h9.9a.572.572,0,0,1,0,1.143Z" transform="translate(-66.677 -229.171)"/>
          </g>
        </g>
        <g id="Grupo_1158563" data-name="Grupo 1158563" transform="translate(20.669 44.317)">
          <g id="Grupo_1158562" data-name="Grupo 1158562">
            <path id="Trazado_993808" data-name="Trazado 993808" d="M90.955,211.143a.572.572,0,0,1-.572-.572v-5.457a.572.572,0,0,1,1.143,0v5.457A.572.572,0,0,1,90.955,211.143Z" transform="translate(-90.383 -204.542)"/>
          </g>
        </g>
        <g id="Grupo_1158565" data-name="Grupo 1158565" transform="translate(24.285 15.433)">
          <g id="Grupo_1158564" data-name="Grupo 1158564">
            <path id="Trazado_993809" data-name="Trazado 993809" d="M126.165,116.43H108.9a2.707,2.707,0,0,1-2.7-2.7V80.941a2.707,2.707,0,0,1,2.7-2.7h23.033a2.707,2.707,0,0,1,2.7,2.7v8.037a.572.572,0,0,1-1.143,0V80.941a1.562,1.562,0,0,0-1.561-1.561H108.9a1.562,1.562,0,0,0-1.561,1.561v32.785a1.562,1.562,0,0,0,1.561,1.561h17.266a.572.572,0,1,1,0,1.143Z" transform="translate(-106.195 -78.237)"/>
          </g>
        </g>
        <g id="Grupo_1158567" data-name="Grupo 1158567" transform="translate(0 4.915)">
          <g id="Grupo_1158566" data-name="Grupo 1158566">
            <path id="Trazado_993810" data-name="Trazado 993810" d="M24.726,72.613H3.277A3.281,3.281,0,0,1,0,69.336V35.52a3.281,3.281,0,0,1,3.277-3.277H49.449a3.28,3.28,0,0,1,3.277,3.277v9.945a.572.572,0,1,1-1.143,0V35.52a2.136,2.136,0,0,0-2.133-2.133H3.277A2.136,2.136,0,0,0,1.143,35.52V69.336A2.136,2.136,0,0,0,3.277,71.47H24.726a.572.572,0,1,1,0,1.143Z" transform="translate(0 -32.243)"/>
          </g>
        </g>
        <g id="Grupo_1158569" data-name="Grupo 1158569" transform="translate(41.23 25.751)">
          <g id="Grupo_1158568" data-name="Grupo 1158568">
            <path id="Trazado_993811" data-name="Trazado 993811" d="M194.583,151.23H183.32a3.028,3.028,0,0,1-3.025-3.025V126.38a3.028,3.028,0,0,1,3.025-3.025h11.263a3.028,3.028,0,0,1,3.025,3.025v21.826A3.028,3.028,0,0,1,194.583,151.23ZM183.32,124.5a1.883,1.883,0,0,0-1.881,1.881v21.826a1.883,1.883,0,0,0,1.881,1.881h11.263a1.883,1.883,0,0,0,1.881-1.881V126.38a1.883,1.883,0,0,0-1.881-1.881Z" transform="translate(-180.295 -123.355)"/>
          </g>
        </g>
        <g id="Grupo_1158571" data-name="Grupo 1158571" transform="translate(6.403 12.635)">
          <g id="Grupo_1158570" data-name="Grupo 1158570">
            <path id="Trazado_993812" data-name="Trazado 993812" d="M29.944,67.143H28.572a.572.572,0,0,1,0-1.143h1.372a.572.572,0,0,1,0,1.143Z" transform="translate(-28 -66)"/>
          </g>
        </g>
        <g id="Grupo_1158573" data-name="Grupo 1158573" transform="translate(10.405 12.635)">
          <g id="Grupo_1158572" data-name="Grupo 1158572">
            <path id="Trazado_993813" data-name="Trazado 993813" d="M47.444,67.143H46.072a.572.572,0,1,1,0-1.143h1.372a.572.572,0,0,1,0,1.143Z" transform="translate(-45.5 -66)"/>
          </g>
        </g>
        <g id="Grupo_1158575" data-name="Grupo 1158575" transform="translate(14.407 12.635)">
          <g id="Grupo_1158574" data-name="Grupo 1158574">
            <path id="Trazado_993814" data-name="Trazado 993814" d="M64.944,67.143H63.572a.572.572,0,0,1,0-1.143h1.372a.572.572,0,0,1,0,1.143Z" transform="translate(-63 -66)"/>
          </g>
        </g>
        <g id="Grupo_1158577" data-name="Grupo 1158577" transform="translate(29.5 20.41)">
          <g id="Grupo_1158576" data-name="Grupo 1158576">
            <path id="Trazado_993815" data-name="Trazado 993815" d="M130.944,101.143h-1.372a.572.572,0,0,1,0-1.143h1.372a.572.572,0,0,1,0,1.143Z" transform="translate(-129 -100)"/>
          </g>
        </g>
        <g id="Grupo_1158579" data-name="Grupo 1158579" transform="translate(33.502 20.41)">
          <g id="Grupo_1158578" data-name="Grupo 1158578">
            <path id="Trazado_993816" data-name="Trazado 993816" d="M148.444,101.143h-1.372a.572.572,0,0,1,0-1.143h1.372a.572.572,0,0,1,0,1.143Z" transform="translate(-146.5 -100)"/>
          </g>
        </g>
        <g id="Grupo_1158581" data-name="Grupo 1158581" transform="translate(37.504 20.41)">
          <g id="Grupo_1158580" data-name="Grupo 1158580">
            <path id="Trazado_993817" data-name="Trazado 993817" d="M165.944,101.143h-1.372a.572.572,0,1,1,0-1.143h1.372a.572.572,0,0,1,0,1.143Z" transform="translate(-164 -100)"/>
          </g>
        </g>
        <g id="Grupo_1158583" data-name="Grupo 1158583" transform="translate(51.453 31.616)">
          <g id="Grupo_1158582" data-name="Grupo 1158582">
            <path id="Trazado_993818" data-name="Trazado 993818" d="M226.944,150.143h-1.372a.572.572,0,1,1,0-1.143h1.372a.572.572,0,0,1,0,1.143Z" transform="translate(-225 -149)"/>
          </g>
        </g>
        <g id="Grupo_1158585" data-name="Grupo 1158585" transform="translate(43.386 27.907)">
          <g id="Grupo_1158584" data-name="Grupo 1158584">
            <path id="Trazado_993819" data-name="Trazado 993819" d="M201.433,156.345H191.014a1.292,1.292,0,0,1-1.291-1.291V134.072a1.292,1.292,0,0,1,1.291-1.291h2.523a1.417,1.417,0,0,1,1.327.891,1.462,1.462,0,0,0,2.717,0,1.416,1.416,0,0,1,1.327-.891h2.523a1.292,1.292,0,0,1,1.291,1.291v20.982A1.292,1.292,0,0,1,201.433,156.345Zm-10.419-22.421a.148.148,0,0,0-.147.148v20.982a.148.148,0,0,0,.147.148h10.419a.148.148,0,0,0,.147-.148V134.072a.148.148,0,0,0-.147-.148h-2.523a.282.282,0,0,0-.264.171,2.605,2.605,0,0,1-4.843,0,.283.283,0,0,0-.265-.17Z" transform="translate(-189.723 -132.781)"/>
          </g>
        </g>
        <g id="Grupo_1158587" data-name="Grupo 1158587" transform="translate(26.612 17.761)">
          <g id="Grupo_1158586" data-name="Grupo 1158586">
            <path id="Trazado_993820" data-name="Trazado 993820" d="M131.482,121.953H117.156a.783.783,0,0,1-.782-.782V89.2a.783.783,0,0,1,.782-.782h22.221a.783.783,0,0,1,.782.782v7.67a.572.572,0,0,1-1.143,0V89.558h-21.5v31.251h13.964a.572.572,0,0,1,0,1.143Z" transform="translate(-116.374 -88.415)"/>
          </g>
        </g>
        <g id="Grupo_1158589" data-name="Grupo 1158589" transform="translate(0.157 36.928)">
          <g id="Grupo_1158588" data-name="Grupo 1158588">
            <path id="Trazado_993821" data-name="Trazado 993821" d="M25.3,173.373H1.259a.572.572,0,1,1,0-1.143H25.3a.572.572,0,1,1,0,1.143Z" transform="translate(-0.687 -172.23)"/>
          </g>
        </g>
        <g id="Grupo_1158591" data-name="Grupo 1158591" transform="translate(2.254 7.17)">
          <g id="Grupo_1158590" data-name="Grupo 1158590">
            <path id="Trazado_993822" data-name="Trazado 993822" d="M10.43,72.893a.572.572,0,0,1-.572-.572v-29.2A1.024,1.024,0,0,1,10.881,42.1H57.052a1.024,1.024,0,0,1,1.023,1.022V50.8a.572.572,0,0,1-1.143,0V43.245H11V72.321a.572.572,0,0,1-.572.572Z" transform="translate(-9.858 -42.101)"/>
          </g>
        </g>
        <g id="Grupo_1158593" data-name="Grupo 1158593" transform="translate(2.411 9.891)">
          <g id="Grupo_1158592" data-name="Grupo 1158592">
            <path id="Trazado_993823" data-name="Trazado 993823" d="M57.876,55.143H11.114a.572.572,0,1,1,0-1.143H57.876a.572.572,0,1,1,0,1.143Z" transform="translate(-10.542 -54)"/>
          </g>
        </g>
        <g id="Grupo_1158595" data-name="Grupo 1158595" transform="translate(5.946 7.297)">
          <g id="Grupo_1158594" data-name="Grupo 1158594" transform="translate(0 0)">
            <path id="Trazado_993824" data-name="Trazado 993824" d="M26.572,46.222A.572.572,0,0,1,26,45.65V43.228a.572.572,0,0,1,1.143,0V45.65A.572.572,0,0,1,26.572,46.222Z" transform="translate(-26 -42.656)"/>
          </g>
        </g>
        <g id="Grupo_1158597" data-name="Grupo 1158597" transform="translate(5.031 23.383)">
          <g id="Grupo_1158596" data-name="Grupo 1158596">
            <path id="Trazado_993825" data-name="Trazado 993825" d="M30.629,125.119h-7.2A1.434,1.434,0,0,1,22,123.687v-9.255A1.434,1.434,0,0,1,23.433,113h7.2a1.434,1.434,0,0,1,1.433,1.433v9.255A1.435,1.435,0,0,1,30.629,125.119Zm-7.2-10.977a.29.29,0,0,0-.289.289v9.255a.29.29,0,0,0,.289.289h7.2a.29.29,0,0,0,.289-.289v-9.255a.29.29,0,0,0-.289-.289Z" transform="translate(-22 -112.999)"/>
          </g>
        </g>
        <g id="Grupo_1158599" data-name="Grupo 1158599" transform="translate(16.465 23.383)">
          <g id="Grupo_1158598" data-name="Grupo 1158598">
            <path id="Trazado_993826" data-name="Trazado 993826" d="M80.214,125.119H73.433A1.434,1.434,0,0,1,72,123.687v-9.255A1.434,1.434,0,0,1,73.433,113H80.24a.572.572,0,1,1,0,1.143H73.433a.29.29,0,0,0-.289.289v9.255a.29.29,0,0,0,.289.289h6.781a.572.572,0,0,1,0,1.143Z" transform="translate(-72 -112.999)"/>
          </g>
        </g>
        <g id="Grupo_1158601" data-name="Grupo 1158601" transform="translate(45.313 39.887)">
          <g id="Grupo_1158600" data-name="Grupo 1158600">
            <path id="Trazado_993827" data-name="Trazado 993827" d="M206.061,189.292h-6.678a1.236,1.236,0,0,1-1.235-1.235V186.4a1.236,1.236,0,0,1,1.235-1.235h6.678A1.236,1.236,0,0,1,207.3,186.4v1.652A1.236,1.236,0,0,1,206.061,189.292Zm-6.678-2.978a.091.091,0,0,0-.091.091v1.652a.091.091,0,0,0,.091.091h6.678a.091.091,0,0,0,.091-.091V186.4a.091.091,0,0,0-.091-.091Z" transform="translate(-198.149 -185.17)"/>
          </g>
        </g>
        <g id="Grupo_1158603" data-name="Grupo 1158603" transform="translate(45.313 45.064)">
          <g id="Grupo_1158602" data-name="Grupo 1158602">
            <path id="Trazado_993828" data-name="Trazado 993828" d="M206.061,211.929h-6.678a1.236,1.236,0,0,1-1.235-1.235v-1.652a1.236,1.236,0,0,1,1.235-1.235h6.678a1.236,1.236,0,0,1,1.235,1.235v1.652A1.236,1.236,0,0,1,206.061,211.929Zm-6.678-2.978a.091.091,0,0,0-.091.091v1.652a.091.091,0,0,0,.091.091h6.678a.091.091,0,0,0,.091-.091v-1.652a.091.091,0,0,0-.091-.091Z" transform="translate(-198.149 -207.807)"/>
          </g>
        </g>
        <g id="Grupo_1158606" data-name="Grupo 1158606" transform="translate(45.313 34.711)">
          <g id="Grupo_1158605" data-name="Grupo 1158605">
            <g id="Grupo_1158604" data-name="Grupo 1158604">
              <path id="Trazado_993829" data-name="Trazado 993829" d="M206.061,166.656h-6.678a1.236,1.236,0,0,1-1.235-1.235V163.77a1.236,1.236,0,0,1,1.235-1.235h6.678a1.236,1.236,0,0,1,1.235,1.235v1.652A1.236,1.236,0,0,1,206.061,166.656Zm-6.678-2.978a.091.091,0,0,0-.091.091v1.652a.091.091,0,0,0,.091.091h6.678a.091.091,0,0,0,.091-.091v-1.652a.091.091,0,0,0-.091-.091Z" transform="translate(-198.149 -162.535)"/>
            </g>
          </g>
        </g>
        <g id="Grupo_1158608" data-name="Grupo 1158608" transform="translate(29.281 26.54)">
          <g id="Grupo_1158607" data-name="Grupo 1158607">
            <path id="Trazado_993830" data-name="Trazado 993830" d="M140.441,133.089h-10.95a1.448,1.448,0,0,1-1.446-1.446v-3.392a1.448,1.448,0,0,1,1.446-1.446h11.6a.572.572,0,0,1,0,1.143h-11.6a.3.3,0,0,0-.3.3v3.392a.3.3,0,0,0,.3.3h10.95a.572.572,0,1,1,0,1.143Z" transform="translate(-128.045 -126.805)"/>
          </g>
        </g>
        <g id="Grupo_1158610" data-name="Grupo 1158610" transform="translate(29.281 34.429)">
          <g id="Grupo_1158609" data-name="Grupo 1158609">
            <path id="Trazado_993831" data-name="Trazado 993831" d="M140.441,167.589h-10.95a1.448,1.448,0,0,1-1.446-1.446v-3.392a1.448,1.448,0,0,1,1.446-1.446h10.971a.572.572,0,1,1,0,1.143H129.491a.3.3,0,0,0-.3.3v3.392a.3.3,0,0,0,.3.3h10.95a.572.572,0,1,1,0,1.143Z" transform="translate(-128.045 -161.305)"/>
          </g>
        </g>
        <g id="Grupo_1158612" data-name="Grupo 1158612" transform="translate(29.281 42.319)">
          <g id="Grupo_1158611" data-name="Grupo 1158611">
            <path id="Trazado_993832" data-name="Trazado 993832" d="M140.4,202.089H129.491a1.448,1.448,0,0,1-1.446-1.446v-3.392a1.448,1.448,0,0,1,1.446-1.446h10.936a.572.572,0,0,1,0,1.143H129.491a.3.3,0,0,0-.3.3v3.392a.3.3,0,0,0,.3.3H140.4a.572.572,0,1,1,0,1.143Z" transform="translate(-128.045 -195.805)"/>
          </g>
        </g>
      </g>
    </g>
  </g>
</svg>
