<svg xmlns="http://www.w3.org/2000/svg" xmlns:xlink="http://www.w3.org/1999/xlink" width="108" height="108" viewBox="0 0 108 108">
  <defs>
    <filter id="Trazado_982547" x="0" y="0" width="108" height="108" filterUnits="userSpaceOnUse">
      <feOffset dy="3" input="SourceAlpha"/>
      <feGaussianBlur stdDeviation="3" result="blur"/>
      <feFlood flood-opacity="0.161"/>
      <feComposite operator="in" in2="blur"/>
      <feComposite in="SourceGraphic"/>
    </filter>
  </defs>
  <g id="Grupo_1158404" data-name="Grupo 1158404" transform="translate(-615 -5634)">
    <g id="Grupo_1157292" data-name="Grupo 1157292" transform="translate(454 4182)">
      <g id="Grupo_1153117" data-name="Grupo 1153117" transform="translate(-93 939)">
        <g id="Grupo_1149598" data-name="Grupo 1149598" transform="translate(80 315)">
          <g id="Grupo_1148770" data-name="Grupo 1148770" transform="translate(-27 -2583)">
            <g id="Grupo_1146954" data-name="Grupo 1146954" transform="translate(-415 -1202)">
              <g transform="matrix(1, 0, 0, 1, 616, 3983)" filter="url(#Trazado_982547)">
                <g id="Trazado_982547-2" data-name="Trazado 982547" transform="translate(9 6)" fill="#fbf2fb">
                  <path d="M 45 88.5 C 39.12687683105469 88.5 33.43022537231445 87.35007476806641 28.06830024719238 85.08217620849609 C 22.88852500915527 82.89131164550781 18.23629951477051 79.75458526611328 14.2408504486084 75.75914764404297 C 10.24541282653809 71.76370239257812 7.108687400817871 67.11147308349609 4.917825222015381 61.93170166015625 C 2.649924993515015 56.56977462768555 1.5 50.87312316894531 1.5 45 C 1.5 39.12687683105469 2.649924993515015 33.43022537231445 4.917825222015381 28.06830024719238 C 7.108687400817871 22.88852500915527 10.24541282653809 18.23629951477051 14.2408504486084 14.2408504486084 C 18.23629951477051 10.24541282653809 22.88852500915527 7.108687400817871 28.06830024719238 4.917825222015381 C 33.43022537231445 2.649924993515015 39.12687683105469 1.5 45 1.5 C 50.87312316894531 1.5 56.56977462768555 2.649924993515015 61.93170166015625 4.917825222015381 C 67.11147308349609 7.108687400817871 71.76370239257812 10.24541282653809 75.75914764404297 14.2408504486084 C 79.75458526611328 18.23629951477051 82.89131164550781 22.88852500915527 85.08217620849609 28.06830024719238 C 87.35007476806641 33.43022537231445 88.5 39.12687683105469 88.5 45 C 88.5 50.87312316894531 87.35007476806641 56.56977462768555 85.08217620849609 61.93170166015625 C 82.89131164550781 67.11147308349609 79.75458526611328 71.76370239257812 75.75914764404297 75.75914764404297 C 71.76370239257812 79.75458526611328 67.11147308349609 82.89131164550781 61.93170166015625 85.08217620849609 C 56.56977462768555 87.35007476806641 50.87312316894531 88.5 45 88.5 Z" stroke="none"/>
                  <path d="M 45 3 C 39.32871246337891 3 33.82865524291992 4.110054016113281 28.65262985229492 6.299339294433594 C 23.65165710449219 8.414573669433594 19.15968322753906 11.44334411621094 15.301513671875 15.301513671875 C 11.44334411621094 19.15968322753906 8.414573669433594 23.65165710449219 6.299339294433594 28.65262985229492 C 4.110054016113281 33.82865524291992 3 39.32871246337891 3 45 C 3 50.67128753662109 4.110054016113281 56.17134475708008 6.299339294433594 61.34737396240234 C 8.414573669433594 66.34834289550781 11.44334411621094 70.84031677246094 15.301513671875 74.698486328125 C 19.15968322753906 78.55665588378906 23.65165710449219 81.58542633056641 28.65262985229492 83.70066070556641 C 33.82865524291992 85.88994598388672 39.32871246337891 87 45 87 C 50.67128753662109 87 56.17134475708008 85.88994598388672 61.34737396240234 83.70066070556641 C 66.34834289550781 81.58542633056641 70.84031677246094 78.55665588378906 74.698486328125 74.698486328125 C 78.55665588378906 70.84031677246094 81.58542633056641 66.34834289550781 83.70066070556641 61.34737396240234 C 85.88994598388672 56.17134475708008 87 50.67128753662109 87 45 C 87 39.32871246337891 85.88994598388672 33.82865524291992 83.70066070556641 28.65262985229492 C 81.58542633056641 23.65165710449219 78.55665588378906 19.15968322753906 74.698486328125 15.301513671875 C 70.84031677246094 11.44334411621094 66.34834289550781 8.414573669433594 61.34737396240234 6.299339294433594 C 56.17134475708008 4.110054016113281 50.67128753662109 3 45 3 M 45 0 C 69.85281372070312 0 90 20.14718627929688 90 45 C 90 69.85281372070312 69.85281372070312 90 45 90 C 20.14718627929688 90 0 69.85281372070312 0 45 C 0 20.14718627929688 20.14718627929688 0 45 0 Z" stroke="none" fill="#e087dc"/>
                </g>
              </g>
            </g>
          </g>
        </g>
      </g>
    </g>
    <g id="redes-sociales" transform="translate(639 5653.302)">
      <g id="Grupo_1158402" data-name="Grupo 1158402" transform="translate(0.858 3.556)">
        <g id="Grupo_1158390" data-name="Grupo 1158390" transform="translate(11.423)">
          <g id="Grupo_1158389" data-name="Grupo 1158389">
            <g id="Grupo_1158388" data-name="Grupo 1158388">
              <g id="Grupo_1158387" data-name="Grupo 1158387">
                <g id="Grupo_1158386" data-name="Grupo 1158386">
                  <path id="Trazado_993703" data-name="Trazado 993703" d="M138.041,67.029H111.969a4.574,4.574,0,0,1-4.574-4.574V14.771a4.574,4.574,0,0,1,4.574-4.574h26.072a4.574,4.574,0,0,1,4.574,4.574V62.455A4.574,4.574,0,0,1,138.041,67.029Z" transform="translate(-107.395 -10.197)" fill="#3d6d93"/>
                  <path id="Trazado_993704" data-name="Trazado 993704" d="M348.825,10.2h-3.431a4.574,4.574,0,0,1,4.574,4.574V62.455a4.574,4.574,0,0,1-4.574,4.574h3.431a4.574,4.574,0,0,0,4.574-4.574V14.771a4.574,4.574,0,0,0-4.574-4.574Z" transform="translate(-318.18 -10.197)" fill="#335e80"/>
                  <path id="Trazado_993705" data-name="Trazado 993705" d="M159.974,41.112a1.546,1.546,0,0,1-1.546,1.546H144.721a1.546,1.546,0,0,1-1.546-1.546.915.915,0,0,0-.915-.915h-3.15a1.715,1.715,0,0,0-1.715,1.715v46.54a1.715,1.715,0,0,0,1.715,1.715h24.928a1.715,1.715,0,0,0,1.715-1.715V41.912a1.715,1.715,0,0,0-1.715-1.715h-3.15A.915.915,0,0,0,159.974,41.112Z" transform="translate(-133.964 -36.766)" fill="#f9f7f8"/>
                </g>
              </g>
            </g>
          </g>
        </g>
        <g id="Grupo_1158393" data-name="Grupo 1158393" transform="translate(0.617 6.244)">
          <g id="Grupo_1158391" data-name="Grupo 1158391">
            <circle id="Elipse_11695" data-name="Elipse 11695" cx="9.888" cy="9.888" r="9.888" transform="translate(0 0)" fill="#ffe179"/>
            <path id="Trazado_993706" data-name="Trazado 993706" d="M86.078,64.8a9.94,9.94,0,0,0-1.715.151,9.886,9.886,0,0,1,0,19.473A9.887,9.887,0,1,0,86.078,64.8Z" transform="translate(-76.191 -64.802)" fill="#fbd268"/>
          </g>
          <g id="Grupo_1158392" data-name="Grupo 1158392" transform="translate(4.742 4.742)">
            <path id="Trazado_993707" data-name="Trazado 993707" d="M62.938,116.561H56.077a1.715,1.715,0,0,1-1.715-1.715v-6.861a1.715,1.715,0,0,1,1.715-1.715h6.861a1.715,1.715,0,0,1,1.715,1.715v6.861A1.715,1.715,0,0,1,62.938,116.561Z" transform="translate(-54.362 -106.27)" fill="#f58a97"/>
            <path id="Trazado_993708" data-name="Trazado 993708" d="M102.794,106.27h-3.43a1.715,1.715,0,0,1,1.715,1.715v6.861a1.715,1.715,0,0,1-1.715,1.715h3.43a1.715,1.715,0,0,0,1.715-1.715v-6.861A1.715,1.715,0,0,0,102.794,106.27Z" transform="translate(-94.217 -106.27)" fill="#f07281"/>
            <circle id="Elipse_11696" data-name="Elipse 11696" cx="1.715" cy="1.715" r="1.715" transform="translate(3.43 3.43)" fill="#fff"/>
          </g>
        </g>
        <g id="Grupo_1158395" data-name="Grupo 1158395" transform="translate(0 29.579)">
          <g id="Grupo_1158394" data-name="Grupo 1158394">
            <circle id="Elipse_11697" data-name="Elipse 11697" cx="9.888" cy="9.888" r="9.888" fill="#8fd8fa"/>
            <path id="Trazado_993709" data-name="Trazado 993709" d="M79.8,268.866a9.928,9.928,0,0,0-1.829.172,9.886,9.886,0,0,1,0,19.432,9.887,9.887,0,1,0,1.829-19.6Z" transform="translate(-69.912 -268.866)" fill="#6bcdfe"/>
          </g>
          <g id="Shape_2_" transform="translate(4.382 5.345)">
            <path id="Trazado_993710" data-name="Trazado 993710" d="M54.474,316.359a2.185,2.185,0,0,0-3.833,1.463v.488a5.2,5.2,0,0,1-4.068-1.8.292.292,0,0,0-.5.1,4.538,4.538,0,0,0,2.62,5.824,5.677,5.677,0,0,1-2.283.907c-.211.034-.107.424-.054.564.368.961,4.52,1.359,7.062-.732a6.668,6.668,0,0,0,2.2-4.091,4.5,4.5,0,0,0,1.209-2.377.522.522,0,0,0-.748-.554,2.5,2.5,0,0,1-.548.191,2.554,2.554,0,0,1-1.053.01Z" transform="translate(-45.819 -315.608)" fill="#fff"/>
          </g>
        </g>
        <g id="Grupo_1158398" data-name="Grupo 1158398" transform="translate(37.674 29.579)">
          <g id="Grupo_1158396" data-name="Grupo 1158396">
            <circle id="Elipse_11698" data-name="Elipse 11698" cx="9.888" cy="9.888" r="9.888" transform="translate(0 0)" fill="#f58a97"/>
            <path id="Trazado_993711" data-name="Trazado 993711" d="M410.142,268.866a9.94,9.94,0,0,0-1.715.151,9.886,9.886,0,0,1,0,19.473,9.887,9.887,0,1,0,1.715-19.624Z" transform="translate(-400.255 -268.866)" fill="#f07281"/>
          </g>
          <g id="Grupo_1158397" data-name="Grupo 1158397" transform="translate(7.46 6.192)">
            <path id="Trazado_993712" data-name="Trazado 993712" d="M402.2,323.348a.332.332,0,0,1,.5-.288l6.014,3.474a.332.332,0,0,1,0,.575l-6.014,3.474a.332.332,0,0,1-.5-.288Z" transform="translate(-402.196 -323.015)" fill="#fff"/>
          </g>
        </g>
        <g id="Grupo_1158400" data-name="Grupo 1158400" transform="translate(37.674 6.244)">
          <g id="Grupo_1158399" data-name="Grupo 1158399">
            <circle id="Elipse_11699" data-name="Elipse 11699" cx="9.888" cy="9.888" r="9.888" fill="#8fd8fa"/>
            <path id="Trazado_993713" data-name="Trazado 993713" d="M410.142,64.8a9.939,9.939,0,0,0-1.715.151,9.886,9.886,0,0,1,0,19.473A9.887,9.887,0,1,0,410.142,64.8Z" transform="translate(-400.255 -64.802)" fill="#6bcdfe"/>
          </g>
        </g>
        <path id="Trazado_993714" data-name="Trazado 993714" d="M203.169,198.261a6.911,6.911,0,0,0-6.357,9.137.79.79,0,0,1,0,.516l-.92,2.617a.457.457,0,0,0,.583.583l1.841-.647a.808.808,0,0,1,.769.133,6.911,6.911,0,1,0,4.088-12.339Z" transform="translate(-174.322 -176.754)" fill="#aee69c"/>
        <g id="Grupo_1158401" data-name="Grupo 1158401" transform="translate(27.313 21.505)">
          <path id="Trazado_993715" data-name="Trazado 993715" d="M247.885,198.261a6.826,6.826,0,0,0-1.526.215,6.909,6.909,0,0,1-.008,13.387,6.911,6.911,0,1,0,1.535-13.6Z" transform="translate(-246.35 -198.259)" fill="#89daa4"/>
        </g>
      </g>
      <g id="Grupo_1158403" data-name="Grupo 1158403" transform="translate(0 2.698)">
        <path id="Trazado_993716" data-name="Trazado 993716" d="M45.42,20.275H46.8v5.452a.858.858,0,1,0,1.715,0V20.275H49.9a.858.858,0,0,0,0-1.715H48.517V16.068a.869.869,0,0,1,.868-.868h2.032a.858.858,0,0,0,0-1.715H49.385A2.587,2.587,0,0,0,46.8,16.068v2.492H45.42a.858.858,0,1,0,0,1.715ZM29.89,7.359a.858.858,0,1,0-.858-.858A.858.858,0,0,0,29.89,7.359ZM11.362,22.26a2.573,2.573,0,1,0-2.573-2.573A2.576,2.576,0,0,0,11.362,22.26Zm0-3.43a.858.858,0,1,1-.858.858A.859.859,0,0,1,11.362,18.83Zm3.43,6.861a2.576,2.576,0,0,0,2.573-2.573V16.257a2.576,2.576,0,0,0-2.573-2.573H7.932a2.576,2.576,0,0,0-2.573,2.573v6.861a2.576,2.576,0,0,0,2.573,2.573ZM7.074,23.118V16.257a.859.859,0,0,1,.858-.858h6.861a.859.859,0,0,1,.858.858v6.861a.859.859,0,0,1-.858.858H7.932A.859.859,0,0,1,7.074,23.118ZM16.56,38.395a1.381,1.381,0,0,0-1.438-.138,1.665,1.665,0,0,1-.361.126,1.645,1.645,0,0,1-.46.037,3.043,3.043,0,0,0-5.072,1.85,4.321,4.321,0,0,1-2.586-1.446,1.149,1.149,0,0,0-1.974.423A5.5,5.5,0,0,0,6.3,45.231c-.484.148-1.035.136-1.317.626a1.475,1.475,0,0,0-.015,1.233,2.1,2.1,0,0,0,1.571,1.132,6.959,6.959,0,0,0,1.733.2,8.117,8.117,0,0,0,5.1-1.708,7.369,7.369,0,0,0,2.453-4.356,5.353,5.353,0,0,0,1.254-2.63,1.371,1.371,0,0,0-.529-1.333Zm-2.142,2.968a.858.858,0,0,0-.23.457,5.783,5.783,0,0,1-1.9,3.568,6.741,6.741,0,0,1-4.864,1.26,6.533,6.533,0,0,0,1.164-.627.858.858,0,0,0-.133-1.493A3.534,3.534,0,0,1,6.119,40.7a6.017,6.017,0,0,0,3.964,1.342.858.858,0,0,0,.835-.857v-.488s0-.008,0-.012a1.327,1.327,0,0,1,2.329-.889.858.858,0,0,0,.48.278,3.385,3.385,0,0,0,1.517-.041,3.649,3.649,0,0,1-.826,1.333Zm34-9.086h-.061V30.432h.061a10.745,10.745,0,1,0-.061-21.49V8.13A5.438,5.438,0,0,0,42.926,2.7H16.855A5.438,5.438,0,0,0,11.423,8.13v.813a10.7,10.7,0,0,0-5.9,1.72A.858.858,0,0,0,6.46,12.1,9.028,9.028,0,1,1,3.867,14.65a.858.858,0,0,0-1.423-.958,10.747,10.747,0,0,0,8.918,16.741h.061V32.3c-.224-.014-.45-.022-.678-.022a10.745,10.745,0,0,0,0,21.49c.228,0,.454-.008.678-.022v2.068a5.438,5.438,0,0,0,5.432,5.432H42.926a5.438,5.438,0,0,0,5.432-5.432V53.767h.061a10.745,10.745,0,0,0,0-21.491Zm0-21.619a9.03,9.03,0,1,1-9.03,9.03A9.04,9.04,0,0,1,48.419,10.657ZM46.643,30.285v2.138a10.7,10.7,0,0,0-1.715.431v-3a10.636,10.636,0,0,0,1.715.435ZM14.853,8.7v.823a10.651,10.651,0,0,0-1.715-.435V8.13a3.721,3.721,0,0,1,3.716-3.716H42.926A3.721,3.721,0,0,1,46.643,8.13v.96a10.651,10.651,0,0,0-1.715.435V8.7a2.576,2.576,0,0,0-2.573-2.573H39.2A1.774,1.774,0,0,0,37.432,7.9a.689.689,0,0,1-.688.688H23.037a.689.689,0,0,1-.688-.688,1.771,1.771,0,0,0-1.772-1.772h-3.15A2.576,2.576,0,0,0,14.853,8.7ZM13.138,30.285a10.651,10.651,0,0,0,1.715-.435v3.244a10.646,10.646,0,0,0-1.715-.548ZM10.745,52.052a9.03,9.03,0,1,1,9.03-9.03A8.926,8.926,0,0,1,10.745,52.052Zm35.9,3.761a3.721,3.721,0,0,1-3.716,3.716H16.855a3.721,3.721,0,0,1-3.716-3.716V53.5a10.646,10.646,0,0,0,1.715-.548v2.291a2.576,2.576,0,0,0,2.573,2.573H42.355a2.576,2.576,0,0,0,2.573-2.573V53.184a10.651,10.651,0,0,0,1.715.435Zm1.776-3.761A9.038,9.038,0,0,1,39.68,40.739a.858.858,0,0,0-1.66-.432,10.755,10.755,0,0,0,5.192,12.112v2.823a.859.859,0,0,1-.858.858H17.426a.859.859,0,0,1-.858-.858V52.048a10.738,10.738,0,0,0,0-18.053V29.084a10.74,10.74,0,0,0,0-18.793V8.7a.859.859,0,0,1,.858-.858h3.15a.057.057,0,0,1,.041.016.054.054,0,0,1,.016.041,2.406,2.406,0,0,0,2.4,2.4H36.744a2.406,2.406,0,0,0,2.4-2.4.057.057,0,0,1,.057-.057h3.15a.859.859,0,0,1,.858.858v1.589a10.74,10.74,0,0,0,.006,18.8.875.875,0,0,0-.006.1v4.429A10.767,10.767,0,0,0,39.9,36.466a.858.858,0,0,0,1.358,1.047,8.92,8.92,0,0,1,7.156-3.522,9.03,9.03,0,1,1,0,18.06ZM33.033,31.688a.858.858,0,0,0-1.178.288,2.059,2.059,0,0,1-.64.652.779.779,0,0,1-.823.012l-1.284-.779a.8.8,0,0,1-.367-.756,2.013,2.013,0,0,1,.282-.848.858.858,0,0,0-1.466-.89,3.743,3.743,0,0,0-.523,1.578l0,.017a2.5,2.5,0,0,0,1.186,2.365l1.284.779a2.5,2.5,0,0,0,2.645-.038,3.783,3.783,0,0,0,1.174-1.2A.858.858,0,0,0,33.033,31.688ZM52.932,42.1l-6.013-3.474a1.2,1.2,0,0,0-1.785,1.03v6.947a1.2,1.2,0,0,0,1.785,1.03l6.013-3.473A1.2,1.2,0,0,0,52.932,42.1ZM46.849,45.7V40.569l4.437,2.563ZM29.682,24.205a7.769,7.769,0,0,0-7.155,10.245l-.913,2.6a1.315,1.315,0,0,0,1.677,1.677l1.811-.637a7.769,7.769,0,1,0,4.58-13.883Zm.377,13.817a6.074,6.074,0,0,1-3.911-1.294,1.67,1.67,0,0,0-1.036-.363,1.651,1.651,0,0,0-.548.094l-1.054.371L24.153,35a1.652,1.652,0,0,0,.007-1.077,6.054,6.054,0,1,1,5.9,4.1Z" transform="translate(0 -2.698)"/>
      </g>
    </g>
  </g>
</svg>
