<svg xmlns="http://www.w3.org/2000/svg" xmlns:xlink="http://www.w3.org/1999/xlink" width="400" height="482" viewBox="0 0 400 482">
  <defs>
    <clipPath id="clip-path">
      <rect id="Rectángulo_409693" data-name="Rectángulo 409693" width="400" height="482" fill="#fff" stroke="#707070" stroke-width="1" opacity="0.55"/>
    </clipPath>
    <clipPath id="clip-path-2">
      <rect id="Rectángulo_409649" data-name="Rectángulo 409649" width="663.104" height="661.361"/>
    </clipPath>
    <filter id="Trazado_993371" x="10.25" y="-12.747" width="570.704" height="570.704" filterUnits="userSpaceOnUse">
      <feOffset dy="3" input="SourceAlpha"/>
      <feGaussianBlur stdDeviation="3" result="blur"/>
      <feFlood flood-opacity="0.161"/>
      <feComposite operator="in" in2="blur"/>
      <feComposite in="SourceGraphic"/>
    </filter>
    <clipPath id="clip-path-3">
      <path id="Trazado_992823" data-name="Trazado 992823" d="M175.432,312.527c-5.675,22.571-4.579,42.262,2.447,43.981s17.322-15.185,23-37.756,4.579-42.263-2.447-43.981S181.106,289.955,175.432,312.527Z" transform="translate(-171.8 -274.65)"/>
    </clipPath>
  </defs>
  <g id="Enmascarar_grupo_1098755" data-name="Enmascarar grupo 1098755" clip-path="url(#clip-path)">
    <path id="Trazado_991118" data-name="Trazado 991118" d="M434.37,77.4c22.443,23.776,63.439,98.172,44.637,178.543S443.016,316.5,443.831,372.593,396.441,509.7,288.6,490.018s-106.5,31.043-160.981,21.2S16.735,473.2,19.977,375.608,12.845,291.58,7.01,246.941,25.656,23.949,203.381,35.519,407.238,48.66,434.37,77.4Z" transform="translate(-3.753 -32.74)" fill="#f7c6ed" opacity="0.55"/>
    <g id="Grupo_1158056" data-name="Grupo 1158056" transform="translate(-269.471 -180.2)">
      <g id="Grupo_1157569" data-name="Grupo 1157569" transform="translate(0)" clip-path="url(#clip-path-2)">
        <g transform="matrix(1, 0, 0, 1, 269.47, 180.2)" filter="url(#Trazado_993371)">
          <path id="Trazado_993371-2" data-name="Trazado 993371" d="M276.352,0C428.977,0,552.7,123.727,552.7,276.352S428.977,552.7,276.352,552.7,0,428.977,0,276.352,123.727,0,276.352,0Z" transform="translate(19.25 -6.75)" fill="#fff"/>
        </g>
        <circle id="Elipse_11666" data-name="Elipse 11666" cx="252.579" cy="252.579" r="252.579" transform="translate(565.079 807.003) rotate(-135)" fill="#7c55ff"/>
      </g>
      <g id="Grupo_1157576" data-name="Grupo 1157576" transform="translate(432.378 245.977)">
        <g id="Grupo_1157575" data-name="Grupo 1157575" transform="translate(0)">
          <g id="Grupo_1157573" data-name="Grupo 1157573">
            <g id="Grupo_1157571" data-name="Grupo 1157571">
              <g id="Grupo_1157570" data-name="Grupo 1157570">
                <path id="Trazado_992790" data-name="Trazado 992790" d="M28.352,597.309l170.941-.072c15.773-.007,28.552-11.211,28.544-25.025l-.213-359.238c-.008-13.814-12.8-25.008-28.574-25l-170.941.073c-15.772.007-28.552,11.211-28.544,25.025L-.222,572.31C-.212,586.122,12.58,597.316,28.352,597.309Z" transform="translate(3.882 -184.53)" fill="#050004"/>
                <path id="Trazado_992791" data-name="Trazado 992791" d="M29.186,601.6H29.2l170.939-.068a33.986,33.986,0,0,0,22.461-8.192,26.786,26.786,0,0,0,9.531-20.281l-.212-359.238c-.011-15.69-14.371-28.445-32.01-28.445H199.9l-170.939.066A33.986,33.986,0,0,0,6.5,193.635a26.784,26.784,0,0,0-9.531,20.281l.215,359.238C-2.813,588.844,11.543,601.6,29.186,601.6ZM199.909,192.271c13.842,0,25.106,9.665,25.116,21.552l.212,359.238a19.99,19.99,0,0,1-7.182,15.1,27.046,27.046,0,0,1-17.918,6.481L29.2,594.707h-.013c-13.846,0-25.107-9.666-25.114-21.553L3.856,213.917a19.988,19.988,0,0,1,7.182-15.1,27.047,27.047,0,0,1,17.918-6.482l170.939-.066Z" transform="translate(3.036 -185.376)" fill="#050004"/>
              </g>
            </g>
            <g id="Grupo_1157572" data-name="Grupo 1157572" transform="translate(92.047 22.51)">
              <path id="Trazado_992792" data-name="Trazado 992792" d="M71.763,212.238h0l40.456-.013a4.941,4.941,0,1,0,0-9.868l-40.456.02a5.381,5.381,0,0,0-3.783,1.542,4.763,4.763,0,0,0-1.416,3.406A5.073,5.073,0,0,0,71.763,212.238Z" transform="translate(-66.56 -202.357)" fill="#fff" opacity="0.89"/>
            </g>
          </g>
          <g id="Grupo_1157574" data-name="Grupo 1157574" transform="translate(6.738 35.867)">
            <rect id="Rectángulo_409650" data-name="Rectángulo 409650" width="213.702" height="341.416" transform="translate(3.538 3.899)" fill="#ffd387"/>
            <path id="Trazado_992793" data-name="Trazado 992793" d="M6.362,561.644h0l213.7-.1a3.272,3.272,0,0,0,2.436-1.128,4.1,4.1,0,0,0,1.01-2.72l-.186-341.416a3.663,3.663,0,0,0-3.447-3.848h0l-213.7.1a3.269,3.269,0,0,0-2.436,1.128,4.086,4.086,0,0,0-1.01,2.721L2.916,557.8A3.665,3.665,0,0,0,6.362,561.644Zm210.254-7.795-206.812.1L9.63,220.228l206.809-.1Z" transform="translate(-2.734 -212.433)" fill="#050004"/>
          </g>
        </g>
        <path id="Trazado_992794" data-name="Trazado 992794" d="M68.714,494.6l49.512-.02a7.321,7.321,0,0,0,7.32-7.337l0-5.129a7.339,7.339,0,0,0-7.323-7.323l-49.517.021a7.33,7.33,0,0,0-7.32,7.323l.007,5.155A7.331,7.331,0,0,0,68.714,494.6Zm49.506-12.917.435,5.566v.007a.416.416,0,0,1-.125.3l-49.815.147-.437-5.58Zm3.88,5.566h0Z" transform="translate(24.227 -91.137)" fill="#fff"/>
      </g>
      <g id="Grupo_1157702" data-name="Grupo 1157702" transform="translate(332.332 352.64)">
        <g id="Grupo_1157591" data-name="Grupo 1157591" transform="translate(126.968 67.681)">
          <g id="Grupo_1157590" data-name="Grupo 1157590">
            <g id="Grupo_1157589" data-name="Grupo 1157589">
              <g id="Grupo_1157578" data-name="Grupo 1157578" transform="translate(0.192)">
                <g id="Grupo_1157577" data-name="Grupo 1157577">
                  <path id="Trazado_992795" data-name="Trazado 992795" d="M43.278,350.007l26.054-22.1,52.9,39.179,61.756-49.7,5.542,94.349c-31.946,20.293-78.775,30.036-94.573,20.4-18.231-11.122-45.176-68.781-45.176-68.781Z" transform="translate(-42.875 -316.735)" fill="#5865ff"/>
                  <path id="Trazado_992796" data-name="Trazado 992796" d="M113.37,436.387c21.52,0,53.137-9.388,76.487-24.219l.162-.1-.011-.191L184.426,316.9l-.492.4-61.562,49.546L69.466,327.655l-.2.167L43.024,350.08l6.617,13.573c.065.139,6.841,14.6,15.762,30.237,11.99,21.024,21.928,34.036,29.536,38.679C99.213,435.176,105.641,436.387,113.37,436.387Zm75.978-24.664c-31.563,19.978-78.1,30.032-94.07,20.291-7.406-4.519-17.543-17.812-29.311-38.443-8.905-15.613-15.67-30.053-15.738-30.2l-6.4-13.124L69.5,328.486l52.9,39.172,61.461-49.465Z" transform="translate(-43.024 -316.895)" fill="#121924"/>
                </g>
              </g>
              <g id="Grupo_1157586" data-name="Grupo 1157586" transform="translate(0 10.553)">
                <g id="Grupo_1157579" data-name="Grupo 1157579">
                  <path id="Trazado_992797" data-name="Trazado 992797" d="M162.94,334.184l-31.486,26.583c-4.044-7.844-6.507-13.344-6.507-13.344L151,325.326Z" transform="translate(-124.352 -324.703)" fill="#fff"/>
                  <path id="Trazado_992798" data-name="Trazado 992798" d="M131.305,361.687l32.423-27.374-12.744-9.457-26.629,22.583.15.334c.024.054,2.513,5.6,6.519,13.37Zm30.854-27.326-30.547,25.79c-3.281-6.389-5.487-11.174-6.066-12.444l25.48-21.606Z" transform="translate(-124.355 -324.856)"/>
                </g>
                <g id="Grupo_1157585" data-name="Grupo 1157585" transform="translate(4.072 2.557)">
                  <g id="Grupo_1157580" data-name="Grupo 1157580" transform="translate(19.248)">
                    <path id="Trazado_992799" data-name="Trazado 992799" d="M138.586,337.64l.671-.708-10.7-10.148-.669.708Z" transform="translate(-127.891 -326.785)"/>
                  </g>
                  <g id="Grupo_1157581" data-name="Grupo 1157581" transform="translate(14.358 4.403)">
                    <rect id="Rectángulo_409651" data-name="Rectángulo 409651" width="14.456" height="0.977" transform="translate(9.702 11.373) rotate(-132.155)"/>
                  </g>
                  <g id="Grupo_1157582" data-name="Grupo 1157582" transform="translate(8.893 9.037)">
                    <rect id="Rectángulo_409652" data-name="Rectángulo 409652" width="14.432" height="0.974" transform="matrix(-0.639, -0.769, 0.769, -0.639, 9.221, 11.725)"/>
                  </g>
                  <g id="Grupo_1157583" data-name="Grupo 1157583" transform="translate(3.909 13.431)">
                    <rect id="Rectángulo_409653" data-name="Rectángulo 409653" width="14.325" height="0.976" transform="translate(8.311 12.233) rotate(-125.464)"/>
                  </g>
                  <g id="Grupo_1157584" data-name="Grupo 1157584" transform="translate(0 16.603)">
                    <path id="Trazado_992800" data-name="Trazado 992800" d="M152.248,352.194l.827-.516-7.682-12.368-.829.516Z" transform="translate(-144.565 -339.31)"/>
                  </g>
                </g>
              </g>
              <g id="Grupo_1157588" data-name="Grupo 1157588" transform="translate(79.346 0.001)">
                <g id="Grupo_1157587" data-name="Grupo 1157587">
                  <path id="Trazado_992801" data-name="Trazado 992801" d="M43.278,367.089l61.756-49.7,5.542,94.349" transform="translate(-43.073 -316.737)" fill="#5865ff"/>
                  <path id="Trazado_992802" data-name="Trazado 992802" d="M110.213,411.913l.65-.038L105.28,316.9l-.49.4-61.758,49.7.41.505,61.265-49.306Z" transform="translate(-43.032 -316.896)" fill="#121924"/>
                </g>
              </g>
            </g>
          </g>
        </g>
        <g id="Grupo_1157609" data-name="Grupo 1157609" transform="translate(201.606 75.567)">
          <g id="Grupo_1157606" data-name="Grupo 1157606" transform="translate(1.776 167.868)">
            <g id="Grupo_1157592" data-name="Grupo 1157592">
              <path id="Trazado_992803" data-name="Trazado 992803" d="M9.624,459.6l1.9,11.973a7.862,7.862,0,0,0,6.509,6.814c9.9,1.269,31.3,3.7,49.827,3.7,18.231,0,39.506-2.779,48.84-5.488a8.38,8.38,0,0,0,6.11-6.92l1.323-9.522c.7-5.013-2.782-9.543-7.356-9.576l-99.722-.733C12.376,449.811,8.814,454.486,9.624,459.6Z" transform="translate(-9.02 -449.359)" fill="#fff"/>
              <path id="Trazado_992804" data-name="Trazado 992804" d="M67.981,482.691c18.532,0,39.852-2.859,48.975-5.508a8.869,8.869,0,0,0,6.456-7.32l1.323-9.521a9.328,9.328,0,0,0-2.11-7.4,7.584,7.584,0,0,0-5.724-2.727l-99.723-.733h-.056a7.57,7.57,0,0,0-5.785,2.739,9.327,9.327,0,0,0-2.073,7.576l1.9,11.973a8.3,8.3,0,0,0,6.929,7.222C28.89,480.37,49.729,482.691,67.981,482.691ZM17.123,450.452h.046l99.723.733a6.614,6.614,0,0,1,4.992,2.389,8.357,8.357,0,0,1,1.885,6.633l-1.323,9.522a7.906,7.906,0,0,1-5.762,6.518c-9.061,2.63-30.257,5.47-48.7,5.47-18.2,0-38.99-2.316-49.765-3.7a7.337,7.337,0,0,1-6.091-6.405l-1.9-11.973a8.362,8.362,0,0,1,1.851-6.787A6.609,6.609,0,0,1,17.123,450.452Z" transform="translate(-9.141 -449.478)"/>
            </g>
            <g id="Grupo_1157605" data-name="Grupo 1157605" transform="translate(5.968 0.449)">
              <g id="Grupo_1157593" data-name="Grupo 1157593" transform="translate(100.458 0.773)">
                <rect id="Rectángulo_409654" data-name="Rectángulo 409654" width="26.034" height="0.976" transform="translate(0.747 26.051) rotate(-91.645)"/>
              </g>
              <g id="Grupo_1157594" data-name="Grupo 1157594" transform="translate(91.873 0.773)">
                <rect id="Rectángulo_409655" data-name="Rectángulo 409655" width="27.952" height="0.976" transform="translate(0.802 27.969) rotate(-91.645)"/>
              </g>
              <g id="Grupo_1157595" data-name="Grupo 1157595" transform="translate(84.048 0.642)">
                <rect id="Rectángulo_409656" data-name="Rectángulo 409656" width="29.279" height="0.976" transform="translate(1.142 29.295) rotate(-92.235)"/>
              </g>
              <g id="Grupo_1157596" data-name="Grupo 1157596" transform="translate(75.049 0.644)">
                <rect id="Rectángulo_409657" data-name="Rectángulo 409657" width="30.349" height="0.976" transform="translate(1.345 30.363) rotate(-92.539)"/>
              </g>
              <g id="Grupo_1157597" data-name="Grupo 1157597" transform="translate(63.996 0.466)">
                <rect id="Rectángulo_409658" data-name="Rectángulo 409658" width="31.341" height="0.976" transform="translate(1.059 31.356) rotate(-91.937)"/>
              </g>
              <g id="Grupo_1157598" data-name="Grupo 1157598" transform="translate(53.547 0.393)">
                <rect id="Rectángulo_409659" data-name="Rectángulo 409659" width="31.407" height="0.976" transform="translate(0.656 31.421) rotate(-91.198)"/>
              </g>
              <g id="Grupo_1157599" data-name="Grupo 1157599" transform="translate(44.141 0.351)">
                <rect id="Rectángulo_409660" data-name="Rectángulo 409660" width="0.976" height="31.782" transform="translate(0)"/>
              </g>
              <g id="Grupo_1157600" data-name="Grupo 1157600" transform="translate(33.63 0.038)">
                <rect id="Rectángulo_409661" data-name="Rectángulo 409661" width="0.976" height="31.573" transform="translate(0)"/>
              </g>
              <g id="Grupo_1157601" data-name="Grupo 1157601" transform="translate(24.695 0.02)">
                <rect id="Rectángulo_409662" data-name="Rectángulo 409662" width="30.928" height="0.976" transform="translate(0.319 30.936) rotate(-90.59)"/>
              </g>
              <g id="Grupo_1157602" data-name="Grupo 1157602" transform="translate(16.165 0.045)">
                <rect id="Rectángulo_409663" data-name="Rectángulo 409663" width="30.203" height="0.976" transform="translate(0.867 30.219) rotate(-91.645)"/>
              </g>
              <g id="Grupo_1157603" data-name="Grupo 1157603" transform="translate(7.409 0.006)">
                <rect id="Rectángulo_409664" data-name="Rectángulo 409664" width="29.34" height="0.977" transform="translate(1.449 29.353) rotate(-92.832)"/>
              </g>
              <g id="Grupo_1157604" data-name="Grupo 1157604" transform="translate(0 0)">
                <rect id="Rectángulo_409665" data-name="Rectángulo 409665" width="28.651" height="0.974" transform="matrix(-0.089, -0.996, 0.996, -0.089, 2.538, 28.625)"/>
              </g>
            </g>
          </g>
          <g id="Grupo_1157607" data-name="Grupo 1157607" transform="translate(0.489 0.489)">
            <path id="Trazado_992805" data-name="Trazado 992805" d="M15.685,503.066c-3.537-1.748-7.109-4.091-7.068-7.181C9.78,399.92,35.676,323.213,67.451,323.213s57.672,76.707,58.836,172.672c-.836,3.639-3.429,5.656-7.068,7.181C95.345,513.065,38.888,514.535,15.685,503.066Z" transform="translate(-8.616 -323.213)" fill="#5865ff"/>
          </g>
          <g id="Grupo_1157608" data-name="Grupo 1157608" transform="translate(0)">
            <path id="Trazado_992806" data-name="Trazado 992806" d="M65.084,511.723c20.918,0,42.19-2.955,54.446-8.089,4.307-1.8,6.575-4.123,7.354-7.52a.488.488,0,1,0-.95-.219c-.713,3.1-2.741,5.146-6.781,6.839-23.355,9.78-79.672,11.608-103.133.013-4.667-2.307-6.826-4.446-6.8-6.737.563-46.446,6.925-89.833,17.913-122.173C38.1,341.583,52.456,323.82,67.572,323.82a.488.488,0,0,0,0-.976C35.485,322.844,9.426,398.9,8.248,496c-.048,3.558,4.165,6.055,7.34,7.622C26.92,509.224,45.853,511.723,65.084,511.723Z" transform="translate(-8.247 -322.844)"/>
          </g>
        </g>
        <g id="Grupo_1157675" data-name="Grupo 1157675" transform="translate(0 0.389)">
          <g id="Grupo_1157652" data-name="Grupo 1157652" transform="translate(0)">
            <g id="Grupo_1157642" data-name="Grupo 1157642" transform="translate(63.098)">
              <g id="Grupo_1157641" data-name="Grupo 1157641">
                <g id="Grupo_1157612" data-name="Grupo 1157612" transform="translate(109.567 66.347)">
                  <g id="Grupo_1157610" data-name="Grupo 1157610" transform="translate(0.607 0.606)">
                    <path id="Trazado_992807" data-name="Trazado 992807" d="M103.631,336.1l9.354,2.311a8.813,8.813,0,0,0,10.451-6.771l.453-1.835a8.814,8.814,0,0,0-6.1-10.858l-9.354-2.311Z" transform="translate(-103.631 -316.639)" fill="#000201"/>
                  </g>
                  <g id="Grupo_1157611" data-name="Grupo 1157611" transform="translate(0)">
                    <path id="Trazado_992808" data-name="Trazado 992808" d="M116.574,339.274a9.1,9.1,0,0,0,3.376-1.342,9.922,9.922,0,0,0,4.221-6l.453-1.835a9.935,9.935,0,0,0-.942-7.274,8.81,8.81,0,0,0-5.6-4.318l-9.354-2.311a.607.607,0,0,0-.733.443l-4.808,19.465a.6.6,0,0,0,.441.733l9.354,2.311A8.674,8.674,0,0,0,116.574,339.274Zm-7.544-21.755,8.766,2.166a7.61,7.61,0,0,1,4.831,3.736,8.723,8.723,0,0,1,.823,6.391L123,331.647a8.728,8.728,0,0,1-3.705,5.272,7.612,7.612,0,0,1-6.013,1.056l-8.766-2.166Z" transform="translate(-103.174 -316.182)" fill="#000201"/>
                  </g>
                </g>
                <g id="Grupo_1157615" data-name="Grupo 1157615" transform="translate(70.013 91.579)">
                  <g id="Grupo_1157613" data-name="Grupo 1157613" transform="translate(0.604 0.602)">
                    <path id="Trazado_992809" data-name="Trazado 992809" d="M133.027,405h0c4.416,1.091,9.027-2.207,10.3-7.365l12.459-50.437c1.274-5.158-1.273-10.225-5.687-11.315h0c-4.416-1.091-9.027,2.207-10.3,7.365L127.34,393.681C126.065,398.841,128.612,403.907,133.027,405Z" transform="translate(-127.011 -335.671)" fill="#000201"/>
                  </g>
                  <g id="Grupo_1157614" data-name="Grupo 1157614" transform="translate(0)">
                    <path id="Trazado_992810" data-name="Trazado 992810" d="M136.259,405.841a8.813,8.813,0,0,0,3.6-1.543,11.032,11.032,0,0,0,4.207-6.372l12.459-50.437a11.021,11.021,0,0,0-.757-7.6,8.227,8.227,0,0,0-5.373-4.447c-4.732-1.168-9.681,2.334-11.034,7.808L126.9,393.686c-1.352,5.473,1.4,10.878,6.128,12.047h0A7.827,7.827,0,0,0,136.259,405.841Zm11.121-69.314a6.557,6.557,0,0,1,2.721.089,7.035,7.035,0,0,1,4.583,3.816,9.826,9.826,0,0,1,.663,6.766l-12.459,50.437a9.824,9.824,0,0,1-3.738,5.679,7.034,7.034,0,0,1-5.831,1.243c-4.084-1.009-6.437-5.756-5.245-10.581l12.459-50.437A9.1,9.1,0,0,1,147.38,336.527Zm-14.207,68.618-.012,0Z" transform="translate(-126.553 -335.217)" fill="#000201"/>
                  </g>
                </g>
                <g id="Grupo_1157618" data-name="Grupo 1157618" transform="translate(76.416 80.52)">
                  <g id="Grupo_1157616" data-name="Grupo 1157616" transform="translate(0.605 0.604)">
                    <path id="Trazado_992811" data-name="Trazado 992811" d="M125.517,344.314l17.108,4.226a6.68,6.68,0,0,0,8.089-4.885l.943-3.814a6.681,6.681,0,0,0-4.885-8.089l-17.108-4.226a6.68,6.68,0,0,0-8.089,4.885l-.943,3.814A6.683,6.683,0,0,0,125.517,344.314Z" transform="translate(-120.436 -327.33)" fill="#fff9f3"/>
                  </g>
                  <g id="Grupo_1157617" data-name="Grupo 1157617" transform="translate(0)">
                    <path id="Trazado_992812" data-name="Trazado 992812" d="M145.637,349.383a7.3,7.3,0,0,0,5.814-5.434l.943-3.814a7.3,7.3,0,0,0-5.326-8.822l-17.108-4.226a7.3,7.3,0,0,0-8.822,5.326l-.941,3.814a7.284,7.284,0,0,0,5.326,8.822l17.107,4.226A7.256,7.256,0,0,0,145.637,349.383Zm-18.468-21.207a6.029,6.029,0,0,1,2.5.087l17.108,4.226a6.085,6.085,0,0,1,4.442,7.357l-.943,3.814a6.076,6.076,0,0,1-7.357,4.443l-17.107-4.226h0a6.084,6.084,0,0,1-4.442-7.357l.941-3.814A6.085,6.085,0,0,1,127.168,328.176Z" transform="translate(-119.98 -326.874)" fill="#000201"/>
                  </g>
                </g>
                <g id="Grupo_1157621" data-name="Grupo 1157621" transform="translate(82.3 48.363)">
                  <g id="Grupo_1157619" data-name="Grupo 1157619" transform="translate(0.605 0.605)">
                    <path id="Trazado_992813" data-name="Trazado 992813" d="M107.126,343.986l19.659,4.857c9.605,2.373,19.44-4,21.968-14.232l.953-3.858c2.528-10.232-3.209-20.452-12.815-22.824l-19.66-4.857Z" transform="translate(-107.126 -303.072)" fill="#f381d8"/>
                  </g>
                  <g id="Grupo_1157620" data-name="Grupo 1157620" transform="translate(0)">
                    <path id="Trazado_992814" data-name="Trazado 992814" d="M134.023,349.824a19.764,19.764,0,0,0,15.463-14.918l.953-3.859a20.2,20.2,0,0,0-1.917-14.8,17.86,17.86,0,0,0-11.339-8.756l-19.66-4.857a.6.6,0,0,0-.733.441l-10.105,40.914a.6.6,0,0,0,.441.733l19.659,4.857A17.507,17.507,0,0,0,134.023,349.824Zm-16.2-45.87,19.073,4.711a16.658,16.658,0,0,1,10.574,8.172,19,19,0,0,1,1.8,13.918l-.953,3.859c-2.444,9.892-11.966,16.078-21.236,13.789L108,343.692Z" transform="translate(-106.667 -302.616)" fill="#050004"/>
                  </g>
                </g>
                <g id="Grupo_1157624" data-name="Grupo 1157624" transform="translate(14.269 2.596)">
                  <g id="Grupo_1157622" data-name="Grupo 1157622" transform="translate(0.609 0.605)">
                    <path id="Trazado_992815" data-name="Trazado 992815" d="M210.207,314.315h0L200.1,355.229h0a68.724,68.724,0,0,0-45.023,4.482l-23,10.011,25.065-101.175,15.312,20.84A68.736,68.736,0,0,0,210.207,314.315Z" transform="translate(-132.073 -268.547)" fill="#f8eee2"/>
                  </g>
                  <g id="Grupo_1157623" data-name="Grupo 1157623">
                    <path id="Trazado_992816" data-name="Trazado 992816" d="M132.331,370.464a.559.559,0,0,0,.137-.041l23-10.011a67.791,67.791,0,0,1,44.637-4.449.606.606,0,0,0,.732-.443l10.105-40.914a.6.6,0,0,0-.441-.733,67.787,67.787,0,0,1-37.425-24.715l-15.3-20.825a.634.634,0,0,0-.606-.236.6.6,0,0,0-.469.448L131.636,369.721a.608.608,0,0,0,.695.744Zm40.14-16.6a72.83,72.83,0,0,0-17.49,5.448l-21.873,9.518,24.459-98.734,14.549,19.8A69.047,69.047,0,0,0,209.629,314.9l-9.816,39.745A67.41,67.41,0,0,0,172.47,353.86Z" transform="translate(-131.618 -268.09)" fill="#000201"/>
                  </g>
                </g>
                <g id="Grupo_1157627" data-name="Grupo 1157627" transform="translate(14.269 2.596)">
                  <g id="Grupo_1157625" data-name="Grupo 1157625" transform="translate(0.609 0.605)">
                    <path id="Trazado_992817" data-name="Trazado 992817" d="M210.207,314.315h0L200.1,355.229h0a68.724,68.724,0,0,0-45.023,4.482l-23,10.011,25.065-101.175,15.312,20.84A68.736,68.736,0,0,0,210.207,314.315Z" transform="translate(-132.073 -268.547)" fill="#fcfbfc"/>
                  </g>
                  <g id="Grupo_1157626" data-name="Grupo 1157626">
                    <path id="Trazado_992818" data-name="Trazado 992818" d="M132.331,370.464a.559.559,0,0,0,.137-.041l23-10.011a67.791,67.791,0,0,1,44.637-4.449.606.606,0,0,0,.732-.443l10.105-40.914a.6.6,0,0,0-.441-.733,67.787,67.787,0,0,1-37.425-24.715l-15.3-20.825a.634.634,0,0,0-.606-.236.6.6,0,0,0-.469.448L131.636,369.721a.608.608,0,0,0,.695.744Zm40.14-16.6a72.83,72.83,0,0,0-17.49,5.448l-21.873,9.518,24.459-98.734,14.549,19.8A69.047,69.047,0,0,0,209.629,314.9l-9.816,39.745A67.41,67.41,0,0,0,172.47,353.86Z" transform="translate(-131.618 -268.09)" fill="#050004"/>
                  </g>
                </g>
                <g id="Grupo_1157630" data-name="Grupo 1157630" transform="translate(0)">
                  <g id="Grupo_1157628" data-name="Grupo 1157628" transform="translate(0.59 0.607)">
                    <path id="Trazado_992819" data-name="Trazado 992819" d="M171.991,314.311c-7.288,28.714-5,53.99,5.12,56.455s24.226-18.812,31.514-47.526,5-53.99-5.12-56.455S179.279,285.6,171.991,314.311Z" transform="translate(-167.73 -266.59)" fill="#fff"/>
                  </g>
                  <g id="Grupo_1157629" data-name="Grupo 1157629">
                    <path id="Trazado_992820" data-name="Trazado 992820" d="M180.367,371.587c10.092-1.771,22.249-21.5,28.989-48.048,5.631-22.187,5.69-43.288.144-52.508a9.4,9.4,0,0,0-5.708-4.685c-10.6-2.584-24.762,18.487-32.244,47.965-5.631,22.187-5.69,43.288-.143,52.506a9.4,9.4,0,0,0,5.708,4.685A7.875,7.875,0,0,0,180.367,371.587Zm20.324-104.136a6.8,6.8,0,0,1,2.814.07,8.243,8.243,0,0,1,4.956,4.135c5.39,8.961,5.279,29.691-.28,51.585-6.529,25.72-18.5,45.492-27.972,47.157a6.8,6.8,0,0,1-2.814-.07,8.243,8.243,0,0,1-4.956-4.135c-5.39-8.96-5.279-29.691.28-51.585h0C179.25,288.889,191.224,269.114,200.692,267.451Z" transform="translate(-167.285 -266.132)" fill="#000201"/>
                  </g>
                </g>
                <g id="Grupo_1157637" data-name="Grupo 1157637" transform="translate(7.642 11.291)">
                  <path id="Trazado_992821" data-name="Trazado 992821" d="M175.432,312.527c-5.675,22.571-4.579,42.262,2.447,43.981s17.322-15.185,23-37.756,4.579-42.263-2.447-43.981S181.106,289.955,175.432,312.527Z" transform="translate(-171.8 -274.65)" fill="#000201"/>
                  <g id="XMLID_00000126304491522145456190000008302459742307831205_" clip-path="url(#clip-path-3)">
                    <path id="Trazado_992822" data-name="Trazado 992822" d="M166.332,315.037c-5.524,21.975-4.458,41.146,2.383,42.82S185.58,343.074,191.1,321.1s4.458-41.146-2.383-42.82S171.856,293.062,166.332,315.037Z" transform="translate(-149.997 -273.507)" fill="#000201"/>
                  </g>
                  <g id="Grupo_1157633" data-name="Grupo 1157633" clip-path="url(#clip-path-3)">
                    <g id="Grupo_1157631" data-name="Grupo 1157631" transform="translate(14.061 33.418)">
                      <path id="Trazado_992824" data-name="Trazado 992824" d="M192.394,303.3,179.1,300.1c-5.431-1.311-11.175,2.969-12.828,9.56h0c-1.653,6.591,1.409,13,6.84,14.306l13.3,3.208Z" transform="translate(-165.819 -299.86)" fill="#7c55ff"/>
                    </g>
                    <g id="Grupo_1157632" data-name="Grupo 1157632" transform="translate(13.457 32.814)">
                      <path id="Trazado_992825" data-name="Trazado 992825" d="M186.658,327.917a.6.6,0,0,0,.482-.449L193.13,303.6a.605.605,0,0,0-.447-.734l-13.3-3.209c-5.74-1.387-11.824,3.1-13.557,10a13.932,13.932,0,0,0,1.349,10.548,9.616,9.616,0,0,0,5.939,4.493l13.3,3.209A.612.612,0,0,0,186.658,327.917Zm5.149-24.019-5.695,22.695L173.4,323.523a8.428,8.428,0,0,1-5.187-3.942A12.726,12.726,0,0,1,167,309.953c1.571-6.26,7-10.353,12.1-9.12Z" transform="translate(-165.362 -299.404)" fill="#050004"/>
                    </g>
                  </g>
                  <g id="Grupo_1157636" data-name="Grupo 1157636" clip-path="url(#clip-path-3)">
                    <g id="Grupo_1157634" data-name="Grupo 1157634" transform="translate(13.857 39.042)">
                      <path id="Trazado_992827" data-name="Trazado 992827" d="M186.828,310.57h0a7.862,7.862,0,0,0-1.292-6.468,9.468,9.468,0,0,0-2.338,4.74h0a10.489,10.489,0,0,0,.655,6.45A6.923,6.923,0,0,0,186.828,310.57Z" transform="translate(-182.97 -304.102)" fill="#fff"/>
                    </g>
                    <g id="Grupo_1157635" data-name="Grupo 1157635" transform="translate(13.254 38.438)">
                      <path id="Trazado_992828" data-name="Trazado 992828" d="M184.1,316.038a.616.616,0,0,0,.195-.07,7.535,7.535,0,0,0,3.269-5.13h0a8.425,8.425,0,0,0-1.425-6.978.6.6,0,0,0-.44-.212.594.594,0,0,0-.453.183,10.111,10.111,0,0,0-2.5,5.044,11.12,11.12,0,0,0,.7,6.83.6.6,0,0,0,.365.317A.635.635,0,0,0,184.1,316.038Zm2.277-5.438a6.857,6.857,0,0,1-2.114,3.92,10.218,10.218,0,0,1-.33-5.41,9.315,9.315,0,0,1,1.7-3.887,7.759,7.759,0,0,1,.744,5.377Z" transform="translate(-182.513 -303.647)" fill="#050004"/>
                    </g>
                  </g>
                </g>
                <g id="Grupo_1157640" data-name="Grupo 1157640" transform="translate(78.169 47.164)">
                  <g id="Grupo_1157638" data-name="Grupo 1157638" transform="translate(0.605 0.606)">
                    <path id="Trazado_992830" data-name="Trazado 992830" d="M141.99,302.169l-9.917,41.208,4.109.769,10.129-40.779Z" transform="translate(-132.073 -302.169)" fill="#fff9f3"/>
                  </g>
                  <g id="Grupo_1157639" data-name="Grupo 1157639" transform="translate(0)">
                    <path id="Trazado_992831" data-name="Trazado 992831" d="M136.437,344.891a.605.605,0,0,0,.483-.451l10.128-40.78a.605.605,0,0,0-.426-.729l-4.319-1.2a.607.607,0,0,0-.75.443l-9.918,41.208a.607.607,0,0,0,.477.737l4.109.769A.622.622,0,0,0,136.437,344.891Zm9.294-40.95L135.883,343.6l-2.924-.546,9.623-39.98Z" transform="translate(-131.618 -301.712)" fill="#000201"/>
                  </g>
                </g>
              </g>
            </g>
            <g id="Grupo_1157645" data-name="Grupo 1157645" transform="translate(42.858 1.193)">
              <g id="Grupo_1157643" data-name="Grupo 1157643" transform="translate(0.606 0.604)">
                <path id="Trazado_992832" data-name="Trazado 992832" d="M202.162,267.488l7.492,19.5,2.828-4.9,9.416,12.739-8.471-21.744-3.052,4.359Z" transform="translate(-202.162 -267.488)" fill="#ffd387"/>
              </g>
              <g id="Grupo_1157644" data-name="Grupo 1157644" transform="translate(0)">
                <path id="Trazado_992833" data-name="Trazado 992833" d="M222.151,295.568a.639.639,0,0,0,.188-.066.607.607,0,0,0,.272-.749l-8.471-21.743a.605.605,0,0,0-1.059-.127l-2.6,3.708-7.707-9.338a.6.6,0,0,0-1.03.6l7.494,19.5a.605.605,0,0,0,1.09.086l2.365-4.1,8.867,12A.6.6,0,0,0,222.151,295.568ZM213.424,274.5l6.412,16.461-6.72-9.09a.606.606,0,0,0-1.011.058l-2.193,3.8-5.707-14.85,5.85,7.088a.606.606,0,0,0,.489.22.612.612,0,0,0,.472-.257Z" transform="translate(-201.705 -267.033)" fill="#050004"/>
              </g>
            </g>
            <g id="Grupo_1157648" data-name="Grupo 1157648" transform="translate(23.201 68.961)">
              <g id="Grupo_1157646" data-name="Grupo 1157646" transform="translate(0.605 0.605)">
                <path id="Trazado_992834" data-name="Trazado 992834" d="M209.3,329.215l19.607-1.613-3.681-3.851,14.005-5.139-21.894,1.9,3.131,3.912Z" transform="translate(-209.3 -318.611)" fill="#ffd387"/>
              </g>
              <g id="Grupo_1157647" data-name="Grupo 1157647">
                <path id="Trazado_992835" data-name="Trazado 992835" d="M229.159,328.347a.605.605,0,0,0,.334-1.014l-3.042-3.184,13.138-4.821a.605.605,0,0,0-.261-1.171l-21.894,1.9a.6.6,0,0,0-.42.981l2.635,3.292-10.438,4.477a.6.6,0,0,0,.286,1.159l19.606-1.613A.352.352,0,0,0,229.159,328.347Zm5.751-8.593-9.745,3.576a.6.6,0,0,0-.38.431.607.607,0,0,0,.151.555l2.8,2.935-14.643,1.2,7.756-3.326a.6.6,0,0,0,.233-.934l-2.425-3.029Z" transform="translate(-208.844 -318.154)" fill="#050004"/>
              </g>
            </g>
            <g id="Grupo_1157651" data-name="Grupo 1157651" transform="translate(0 27.668)">
              <g id="Grupo_1157649" data-name="Grupo 1157649" transform="translate(0.603 0.605)">
                <path id="Trazado_992836" data-name="Trazado 992836" d="M209.027,293.181l30.326,14.961-2.02-8.933,25.189,4.811-33.953-16.558L229.725,296Z" transform="translate(-209.027 -287.461)" fill="#ffd387"/>
              </g>
              <g id="Grupo_1157650" data-name="Grupo 1157650">
                <path id="Trazado_992837" data-name="Trazado 992837" d="M239.6,308.887a.6.6,0,0,0,.485-.729l-1.815-8.032,24.28,4.636a.6.6,0,0,0,.38-1.137l-33.953-16.558a.605.605,0,0,0-.866.624l1.05,7.748-19.909-2.708a.606.606,0,0,0-.35,1.143l30.326,14.961A.611.611,0,0,0,239.6,308.887Zm-2.228-10.125a.6.6,0,0,0-.485.729l1.739,7.7L212.77,294.43l17.02,2.316a.605.605,0,0,0,.683-.68l-1-7.415,28.857,14.073L237.6,298.765A.586.586,0,0,0,237.376,298.762Z" transform="translate(-208.57 -287.005)" fill="#050004"/>
              </g>
            </g>
          </g>
          <g id="Grupo_1157674" data-name="Grupo 1157674" transform="translate(122.218 79.168)">
            <g id="Grupo_1157658" data-name="Grupo 1157658" transform="translate(43.284)">
              <g id="Grupo_1157654" data-name="Grupo 1157654" transform="translate(0.491 0.487)">
                <g id="Grupo_1157653" data-name="Grupo 1157653">
                  <path id="Trazado_992838" data-name="Trazado 992838" d="M90.7,407.786,41.524,392.927l-27.627,33S26.732,466.422,81.8,476.641s86.764-40.875,77.164-87.882-36.191-62.539-36.191-62.539L92.969,381.067c-5.4,15.942-11.168,23.715-11.168,23.715" transform="translate(-13.897 -326.221)" fill="#5865ff"/>
                </g>
              </g>
              <g id="Grupo_1157657" data-name="Grupo 1157657">
                <g id="Grupo_1157655" data-name="Grupo 1157655">
                  <path id="Trazado_992839" data-name="Trazado 992839" d="M95.667,478.546c17.224,0,32.71-6.309,44.557-18.37,17.315-17.631,24.723-44.986,19.33-71.392-9.532-46.68-36.155-62.706-36.423-62.863a.488.488,0,0,0-.493.842c.264.155,26.52,15.994,35.96,62.216,5.329,26.092-1.979,53.111-19.07,70.512C124.814,474.471,104.389,480.438,82,476.28c-51.882-9.625-66.23-46.713-67.445-50.129L41.8,393.608l48.87,14.765a.488.488,0,0,0,.282-.935L41.772,392.58a.485.485,0,0,0-.514.154l-27.628,33a.486.486,0,0,0-.091.46c.13.408,13.556,40.89,68.282,51.044A75.957,75.957,0,0,0,95.667,478.546Z" transform="translate(-13.515 -325.854)" fill="#101010"/>
                </g>
                <g id="Grupo_1157656" data-name="Grupo 1157656" transform="translate(67.905 54.846)">
                  <path id="Trazado_992840" data-name="Trazado 992840" d="M65.089,391.919a.49.49,0,0,0,.391-.2c.058-.078,5.88-8.019,11.24-23.849a.488.488,0,0,0-.925-.313c-5.3,15.669-11.04,23.5-11.1,23.58a.488.488,0,0,0,.391.778Z" transform="translate(-64.602 -367.228)" fill="#101010"/>
                </g>
              </g>
            </g>
            <g id="Grupo_1157673" data-name="Grupo 1157673" transform="translate(0 30.047)">
              <g id="Grupo_1157669" data-name="Grupo 1157669" transform="translate(0)">
                <g id="Grupo_1157659" data-name="Grupo 1157659" transform="translate(0.909 0.554)">
                  <path id="Trazado_992841" data-name="Trazado 992841" d="M156.292,410.348S111.761,376.573,108,365.639c-3.151-9.169,16.149,9.811,16.149,9.811s-15.035-12.184-13.2-15.9,17.29,11.79,17.29,11.79-16.447-15.07-14.049-17.6,18.149,13.748,18.149,13.748-16.891-15.148-14.147-18.177,18.72,13.667,18.72,13.667S128.23,351.418,131.2,350.1s19.119,23.449,38.879,36.893C181.391,394.693,156.292,410.348,156.292,410.348Z" transform="translate(-107.656 -348.939)" fill="#fff"/>
                </g>
                <g id="Grupo_1157668" data-name="Grupo 1157668">
                  <g id="Grupo_1157661" data-name="Grupo 1157661" transform="translate(10.717)">
                    <g id="Grupo_1157660" data-name="Grupo 1157660">
                      <path id="Trazado_992842" data-name="Trazado 992842" d="M119.706,366.889a72.393,72.393,0,0,1-10.82-11.306c-.973-1.32-3.934-5.122-1.756-6.655,1.768-1.243,4.462.665,5.875,1.633a61.785,61.785,0,0,1,7.9,6.723c1.656,1.6,3.284,3.242,4.841,4.941l-.766.591c-1.07-1.452-2.092-2.942-3.069-4.457-1.2-1.864-2.887-4.113-3.213-6.376-.431-3,2.194-2.429,3.832-1.171a49.613,49.613,0,0,1,5.819,5.932c3.978,4.31,7.736,8.826,11.72,13.124A154.035,154.035,0,0,0,151.62,380.6c3.86,3.388,7.7,6.9,11.8,10,.494.374.009,1.221-.492.842-2.967-2.244-5.761-4.744-8.575-7.173-4.068-3.512-8.118-7.055-12.013-10.759-3.288-3.126-6.128-6.641-9.157-10.01q-3.13-3.48-6.311-6.912c-1.718-1.855-3.561-4.343-5.782-5.576-2.39-1.327-1.013,2.17-.622,2.959a39,39,0,0,0,2.093,3.6c1.034,1.62,2.121,3.211,3.262,4.758.329.447-.4,1-.766.591a101.8,101.8,0,0,0-9.336-9.033c-1.866-1.575-4.135-3.645-6.579-4.247-3.579-.882-.423,4.05.346,5.122A69.2,69.2,0,0,0,120.4,366.2c.475.414-.217,1.1-.689.689Z" transform="translate(-106.348 -348.521)" fill="#0f110e"/>
                    </g>
                  </g>
                  <g id="Grupo_1157663" data-name="Grupo 1157663" transform="translate(6.153 4.171)">
                    <g id="Grupo_1157662" data-name="Grupo 1157662">
                      <path id="Trazado_992843" data-name="Trazado 992843" d="M155.833,369.955c-3.171-2.835-6.27-5.773-9.208-8.851a26.234,26.234,0,0,1-4.43-5.41c-.718-1.353-.878-3.485.98-3.944a5.192,5.192,0,0,1,3.514.8,21.178,21.178,0,0,1,5.324,4.438c.426.46-.262,1.152-.689.689a22.417,22.417,0,0,0-4.463-3.9,5.721,5.721,0,0,0-3.13-1.125c-1.676.1-1.027,2.039-.452,2.961a32.463,32.463,0,0,0,4.368,5.145c1.819,1.886,3.7,3.709,5.613,5.5,1.078,1.011,2.162,2.018,3.264,3,.469.42-.223,1.108-.689.691Z" transform="translate(-141.694 -351.667)" fill="#0f110e"/>
                    </g>
                  </g>
                  <g id="Grupo_1157665" data-name="Grupo 1157665" transform="translate(3.43 9.804)">
                    <g id="Grupo_1157664" data-name="Grupo 1157664">
                      <path id="Trazado_992844" data-name="Trazado 992844" d="M157.294,371.925c-1.723-1.5-3.376-3.086-4.99-4.7-1.228-1.227-2.431-2.484-3.558-3.806a19.148,19.148,0,0,1-2.454-3.379c-.5-.951-1.1-2.4-.436-3.421s2.126-.726,3.078-.369c2.668,1,4.978,3.022,7.062,4.907.467.422-.225,1.11-.689.689a26.507,26.507,0,0,0-5.972-4.369,5.145,5.145,0,0,0-1.829-.585.681.681,0,0,0-.944.575,2.4,2.4,0,0,0,.016.533,5.426,5.426,0,0,0,.745,1.884,34.977,34.977,0,0,0,5.671,6.651c1.613,1.613,3.266,3.2,4.99,4.7.475.412-.217,1.1-.689.689Z" transform="translate(-145.563 -355.917)" fill="#0f110e"/>
                    </g>
                  </g>
                  <g id="Grupo_1157667" data-name="Grupo 1157667" transform="translate(0 13.571)">
                    <g id="Grupo_1157666" data-name="Grupo 1157666">
                      <path id="Trazado_992845" data-name="Trazado 992845" d="M128.661,364.861c-.769-.754-1.567-1.481-2.379-2.187-1.08-.937-2.706-2.686-4.2-2.906a.871.871,0,0,0-.96.424c-.736,1.064.172,2.83.663,3.781,1.843,3.566,4.717,6.636,7.458,9.519a116.83,116.83,0,0,0,9.832,8.838q8.087,6.791,16.269,13.471c2.918,2.37,5.846,4.728,8.827,7.018a46.036,46.036,0,0,0,5.517,3.912c.549.3.058,1.147-.492.842a43.943,43.943,0,0,1-5.21-3.676c-2.707-2.069-5.369-4.2-8.017-6.339-5.914-4.781-11.761-9.646-17.584-14.537a111.685,111.685,0,0,1-11.765-10.927c-2.313-2.581-4.821-5.41-6.159-8.659-.46-1.115-.905-2.622-.182-3.734a2.026,2.026,0,0,1,1.6-.943c1.45-.015,3.018,1.51,4.055,2.354,1.184.964,2.324,1.99,3.415,3.06.448.44-.241,1.129-.691.689Z" transform="translate(-119.899 -358.758)" fill="#0f110e"/>
                    </g>
                  </g>
                </g>
              </g>
              <g id="Grupo_1157672" data-name="Grupo 1157672" transform="translate(36.748 30.832)">
                <g id="Grupo_1157671" data-name="Grupo 1157671">
                  <g id="Grupo_1157670" data-name="Grupo 1157670">
                    <path id="Trazado_992846" data-name="Trazado 992846" d="M110.474,413.518a142.836,142.836,0,0,1-8.143-14.193l21.055-27.179,15.027,6.681Z" transform="translate(-101.843 -371.66)" fill="#fff"/>
                    <path id="Trazado_992847" data-name="Trazado 992847" d="M110.6,414.126a.486.486,0,0,0,.379-.182l27.939-34.691a.488.488,0,0,0-.182-.752L123.7,371.82a.494.494,0,0,0-.585.147l-21.055,27.179a.488.488,0,0,0-.053.509,144.779,144.779,0,0,0,8.171,14.246.487.487,0,0,0,.384.223Zm27.162-34.991L110.64,412.805a147.666,147.666,0,0,1-7.616-13.3l20.635-26.637Z" transform="translate(-101.964 -371.779)" fill="#0f110e"/>
                  </g>
                </g>
              </g>
            </g>
          </g>
        </g>
        <g id="Grupo_1157701" data-name="Grupo 1157701" transform="translate(224.908)">
          <g id="Grupo_1157700" data-name="Grupo 1157700">
            <g id="Grupo_1157697" data-name="Grupo 1157697">
              <g id="Grupo_1157689" data-name="Grupo 1157689" transform="translate(9.294 25.961)">
                <g id="Grupo_1157676" data-name="Grupo 1157676">
                  <path id="Trazado_992848" data-name="Trazado 992848" d="M58.544,285.942l9.889-.15c6.574-.1,12.046,5.944,12.159,13.428l.231,15.328c.007.432-.009.859-.037,1.282a6.1,6.1,0,0,1,.19,1.4l.141,9.331.008.52.141,9.331a6.174,6.174,0,0,1-6.063,6.249l-3.924.06a6.174,6.174,0,0,1-6.249-6.063L64.9,328.4l-5.717.086c-6.574.1-12.046-5.944-12.159-13.428L46.8,299.73C46.683,292.247,51.969,286.042,58.544,285.942Z" transform="translate(-46.308 -285.303)" fill="#fff"/>
                  <path id="Trazado_992849" data-name="Trazado 992849" d="M71.3,343.334h.1l3.923-.058a6.655,6.655,0,0,0,6.545-6.745l-.289-19.183a6.671,6.671,0,0,0-.187-1.438c.025-.411.041-.826.034-1.246L81.2,299.334c-.117-7.708-5.7-13.911-12.487-13.911h-.167l-9.888.148c-6.859.1-12.344,6.511-12.229,14.285l.232,15.329c.118,7.771,5.78,14.045,12.653,13.91l5.231-.078.117,7.769A6.652,6.652,0,0,0,71.3,343.334ZM68.708,286.4c6.254,0,11.4,5.773,11.512,12.95l.231,15.328c.007.418-.011.831-.037,1.242a.436.436,0,0,0,.015.15,5.708,5.708,0,0,1,.175,1.291l.289,19.182a5.679,5.679,0,0,1-5.585,5.754l-3.922.058H71.3a5.678,5.678,0,0,1-5.667-5.585l-.125-8.257a.492.492,0,0,0-.148-.343.414.414,0,0,0-.346-.138l-5.719.086h-.152c-6.254,0-11.4-5.773-11.51-12.95L47.4,299.842c-.107-7.235,4.947-13.2,11.269-13.295l9.888-.148Z" transform="translate(-46.424 -285.423)"/>
                </g>
                <g id="Grupo_1157688" data-name="Grupo 1157688" transform="translate(1.068 12.927)">
                  <g id="Grupo_1157687" data-name="Grupo 1157687">
                    <g id="Grupo_1157679" data-name="Grupo 1157679" transform="translate(0.879 4.017)">
                      <g id="Grupo_1157677" data-name="Grupo 1157677" transform="translate(13.945)">
                        <path id="Trazado_992850" data-name="Trazado 992850" d="M62.269,300.4a2.229,2.229,0,1,1-2.263-2.2A2.229,2.229,0,0,1,62.269,300.4Z" transform="translate(-57.811 -298.205)"/>
                      </g>
                      <g id="Grupo_1157678" data-name="Grupo 1157678" transform="translate(0 0.213)">
                        <path id="Trazado_992851" data-name="Trazado 992851" d="M72.629,300.24a1.9,1.9,0,1,1-1.933-1.874A1.9,1.9,0,0,1,72.629,300.24Z" transform="translate(-68.823 -298.366)"/>
                      </g>
                    </g>
                    <g id="Grupo_1157680" data-name="Grupo 1157680" transform="translate(6.628 13.788)">
                      <path id="Trazado_992852" data-name="Trazado 992852" d="M61.211,306.9s1.169,3.248,3.541,3.436,4.188-2.464,4.284-4.514Z" transform="translate(-60.888 -305.496)" fill="#fff"/>
                      <path id="Trazado_992853" data-name="Trazado 992853" d="M65.067,310.751a3.734,3.734,0,0,0,2.482-1.009,5.74,5.74,0,0,0,1.89-3.826.324.324,0,0,0-.369-.338l-7.826,1.078a.326.326,0,0,0-.261.433c.05.141,1.27,3.447,3.822,3.651C64.889,310.748,64.98,310.751,65.067,310.751Zm3.681-4.47a5.233,5.233,0,0,1-1.629,2.975,3.087,3.087,0,0,1-2.265.838c-1.674-.134-2.723-2.028-3.1-2.849Z" transform="translate(-60.964 -305.576)" fill="#0f110e"/>
                    </g>
                    <g id="Grupo_1157681" data-name="Grupo 1157681" transform="translate(6.54 3.808)">
                      <path id="Trazado_992854" data-name="Trazado 992854" d="M68.108,305.723a.325.325,0,0,0,.135-.62l-3.136-1.449,2.914-5.121a.326.326,0,1,0-.566-.322l-3.087,5.43a.324.324,0,0,0-.027.26.33.33,0,0,0,.174.2l3.457,1.6A.316.316,0,0,0,68.108,305.723Z" transform="translate(-64.325 -298.048)"/>
                    </g>
                    <g id="Grupo_1157686" data-name="Grupo 1157686">
                      <g id="Grupo_1157683" data-name="Grupo 1157683" transform="translate(16.154)">
                        <g id="Grupo_1157682" data-name="Grupo 1157682" transform="translate(0)">
                          <path id="Trazado_992855" data-name="Trazado 992855" d="M60.547,298.15l-3.6-1.2-.509-.17a.813.813,0,0,1,.432-1.567l3.6,1.2.509.17a.813.813,0,0,1-.432,1.567Z" transform="translate(-55.841 -295.175)"/>
                        </g>
                      </g>
                      <g id="Grupo_1157685" data-name="Grupo 1157685" transform="translate(0 0.912)">
                        <g id="Grupo_1157684" data-name="Grupo 1157684">
                          <path id="Trazado_992856" data-name="Trazado 992856" d="M72.855,297.488l-3.237.049-.467.007a.813.813,0,0,1,0-1.625l3.237-.049.465-.007a.813.813,0,0,1,0,1.625Z" transform="translate(-68.337 -295.863)"/>
                        </g>
                      </g>
                    </g>
                  </g>
                </g>
              </g>
              <g id="Grupo_1157690" data-name="Grupo 1157690">
                <path id="Trazado_992857" data-name="Trazado 992857" d="M70.761,318.87a6.15,6.15,0,0,1,3.933.439,7.4,7.4,0,0,1,.384-5,7.644,7.644,0,0,1-11.893-4.831,7.539,7.539,0,0,1-5.118-7.744,7.227,7.227,0,0,1-2.454-2.23,7.617,7.617,0,0,1-9.845.076,7.83,7.83,0,0,1-.593.761A7.632,7.632,0,0,1,32.1,296.287a7.65,7.65,0,0,1-2.918-12.493,7.765,7.765,0,0,1,1.294-1.072,7.654,7.654,0,0,1,7.414-7.83A7.616,7.616,0,0,1,48.7,271.03a7.624,7.624,0,0,1,14.144-.8c.111-.137.2-.285.323-.415a6.9,6.9,0,0,1,9.75-.219,6.793,6.793,0,0,1,1.5,2.133,7.608,7.608,0,0,1,10.79,6.291A5.9,5.9,0,0,1,90.84,286.5a7.825,7.825,0,0,1,.919,15.279,6.536,6.536,0,0,1-4.329,10.763,7.386,7.386,0,0,1-9.336,11.192,6.087,6.087,0,0,1-7.063,7.088Z" transform="translate(-27.055 -265.839)"/>
              </g>
              <g id="Grupo_1157696" data-name="Grupo 1157696" transform="translate(39.958 42.134)">
                <g id="Grupo_1157691" data-name="Grupo 1157691" transform="translate(0.488 0.487)">
                  <path id="Trazado_992858" data-name="Trazado 992858" d="M53.53,305.682a7.874,7.874,0,1,1-7.991-7.69A7.841,7.841,0,0,1,53.53,305.682Z" transform="translate(-37.783 -297.991)" fill="#fff"/>
                </g>
                <g id="Grupo_1157693" data-name="Grupo 1157693" transform="translate(3.569 4.033)">
                  <g id="Grupo_1157692" data-name="Grupo 1157692">
                    <path id="Trazado_992859" data-name="Trazado 992859" d="M42.738,306.027a5.975,5.975,0,0,1,.211-1.95,4.4,4.4,0,0,1,2.309-2.935A5.953,5.953,0,0,1,48.3,300.7a.551.551,0,0,1,.537.537.541.541,0,0,1-.537.537,5.123,5.123,0,0,0-2.413.26c-.148.056.094-.045-.048.02l-.106.049c-.076.036-.148.076-.221.117s-.126.076-.188.115c-.04.026-.231.168-.134.091a3.792,3.792,0,0,0-.308.274c-.048.048-.093.1-.138.146-.028.032-.175.215-.091.1a4.14,4.14,0,0,0-.43.713c-.013.029-.094.221-.034.072-.023.056-.045.111-.065.167-.044.119-.084.241-.119.365a5.607,5.607,0,0,0-.151.689c-.007.045-.027.221-.005.03l-.016.137c-.009.091-.017.184-.024.277a4.518,4.518,0,0,0,0,.628.541.541,0,0,1-.537.537.547.547,0,0,1-.533-.537Z" transform="translate(-42.725 -300.666)"/>
                  </g>
                </g>
                <g id="Grupo_1157694" data-name="Grupo 1157694" transform="translate(0 2.302)">
                  <path id="Trazado_992860" data-name="Trazado 992860" d="M48.054,305.961h.008a.488.488,0,0,0,.48-.5,7.235,7.235,0,0,1,2.147-5.272A.487.487,0,0,0,50,299.5a8.207,8.207,0,0,0-2.435,5.979A.488.488,0,0,0,48.054,305.961Z" transform="translate(-47.565 -299.361)" fill="#0f110e"/>
                </g>
                <g id="Grupo_1157695" data-name="Grupo 1157695" transform="translate(2.292)">
                  <path id="Trazado_992861" data-name="Trazado 992861" d="M43.483,314.218h.127a8.332,8.332,0,0,0,5.872-2.517,8.208,8.208,0,0,0,2.362-5.906,8.375,8.375,0,0,0-14.286-5.725.487.487,0,0,0,.688.691,7.389,7.389,0,0,1,5.127-2.161h.113a7.362,7.362,0,0,1,7.382,7.211,7.245,7.245,0,0,1-2.084,5.208,7.364,7.364,0,0,1-5.191,2.223,7.717,7.717,0,0,1-3.494-.81,11.544,11.544,0,0,1-1.689-1.131.487.487,0,1,0-.675.7,12.216,12.216,0,0,0,1.921,1.3A8.36,8.36,0,0,0,43.483,314.218Z" transform="translate(-37.415 -297.624)" fill="#0f110e"/>
                </g>
              </g>
            </g>
            <g id="Grupo_1157699" data-name="Grupo 1157699" transform="translate(19.404 70.351)">
              <g id="Grupo_1157698" data-name="Grupo 1157698">
                <path id="Trazado_992862" data-name="Trazado 992862" d="M43.8,335.355l26.834-.923a2.666,2.666,0,0,0,2.572-2.755l-.339-9.885a2.665,2.665,0,0,0-2.755-2.572l-26.834.923a2.666,2.666,0,0,0-2.572,2.755l.341,9.885A2.664,2.664,0,0,0,43.8,335.355Z" transform="translate(-40.298 -318.809)" fill="#fff"/>
                <path id="Trazado_992863" data-name="Trazado 992863" d="M46.027,335.867c.065,0,.129,0,.192,0l22.236-.766a5.455,5.455,0,0,0,5.264-5.637l-.182-5.287a5.453,5.453,0,0,0-5.638-5.263l-22.236.765a5.452,5.452,0,0,0-5.263,5.636l.182,5.287a5.454,5.454,0,0,0,5.444,5.267Zm.159-.977a4.328,4.328,0,0,1-3.209-1.2,4.445,4.445,0,0,1-1.418-3.119l-.182-5.287a4.474,4.474,0,0,1,4.319-4.628l22.236-.765a4.359,4.359,0,0,1,3.209,1.2,4.443,4.443,0,0,1,1.42,3.118l.182,5.287a4.474,4.474,0,0,1-4.32,4.628Z" transform="translate(-40.398 -318.91)"/>
              </g>
            </g>
          </g>
        </g>
      </g>
      <g id="Grupo_1158054" data-name="Grupo 1158054" transform="translate(282.924 464.831)">
        <g id="Grupo_1157705" data-name="Grupo 1157705" transform="translate(0)">
          <path id="Trazado_992864" data-name="Trazado 992864" d="M252.823,389.7v58.039h76.3V389.7a6.222,6.222,0,0,0-6.227-6.227H259.05A6.222,6.222,0,0,0,252.823,389.7Z" transform="translate(-252.823 -383.472)" fill="#faf0e3"/>
          <path id="Trazado_992865" data-name="Trazado 992865" d="M252.823,389.7v5.578h76.3V389.7a6.222,6.222,0,0,0-6.227-6.227H259.05A6.222,6.222,0,0,0,252.823,389.7Z" transform="translate(-252.823 -383.472)" fill="#f381d8"/>
          <g id="Grupo_1157704" data-name="Grupo 1157704" transform="translate(6.052 4.387)">
            <path id="Trazado_992866" data-name="Trazado 992866" d="M323.8,391.116a1.892,1.892,0,1,0,1.892-1.892A1.892,1.892,0,0,0,323.8,391.116Z" transform="translate(-311.475 -389.224)" fill="#f34919"/>
            <path id="Trazado_992867" data-name="Trazado 992867" d="M331.743,391.116a1.892,1.892,0,1,0,1.892-1.892A1.892,1.892,0,0,0,331.743,391.116Z" transform="translate(-325.471 -389.224)" fill="#ffb3da"/>
            <path id="Trazado_992868" data-name="Trazado 992868" d="M339.967,391.116a1.892,1.892,0,1,0,1.892-1.892A1.892,1.892,0,0,0,339.967,391.116Z" transform="translate(-339.967 -389.224)" fill="#b7b8fb"/>
          </g>
        </g>
        <g id="Grupo_1157707" data-name="Grupo 1157707" transform="translate(4.122 16.242)">
          <path id="Trazado_992869" data-name="Trazado 992869" d="M327.145,412.964v35.189H261.859" transform="translate(-261.859 -406.713)" fill="none" stroke="#0b0a10" stroke-linecap="round" stroke-linejoin="round" stroke-miterlimit="10" stroke-width="0.943"/>
          <rect id="Rectángulo_409667" data-name="Rectángulo 409667" width="8.952" height="24.077" transform="translate(45.068 14.508)" fill="#ffd387"/>
          <rect id="Rectángulo_409668" data-name="Rectángulo 409668" width="8.952" height="28.707" transform="translate(27.164 9.877)" fill="#f381d8"/>
          <rect id="Rectángulo_409669" data-name="Rectángulo 409669" width="8.952" height="33.029" transform="translate(8.643 5.556)" fill="#7c55ff"/>
          <g id="Grupo_1157706" data-name="Grupo 1157706" transform="translate(15.743 0)">
            <line id="Línea_1054" data-name="Línea 1054" x1="35.807" y1="8.026" transform="translate(1.543 1.389)" fill="none" stroke="#0b0a10" stroke-linecap="round" stroke-linejoin="round" stroke-miterlimit="10" stroke-width="0.943"/>
            <path id="Trazado_992870" data-name="Trazado 992870" d="M324.417,404.768l-7.717.926,5.71,3.7" transform="translate(-316.7 -404.768)" fill="none" stroke="#0b0a10" stroke-linecap="round" stroke-linejoin="round" stroke-miterlimit="10" stroke-width="0.943"/>
          </g>
        </g>
        <path id="Trazado_992871" data-name="Trazado 992871" d="M252.823,389.7v58.039h76.3V389.7a6.222,6.222,0,0,0-6.227-6.227H259.05A6.222,6.222,0,0,0,252.823,389.7Z" transform="translate(-252.823 -383.472)" fill="none" stroke="#020202" stroke-miterlimit="10" stroke-width="0.5"/>
      </g>
      <g id="Grupo_1157724" data-name="Grupo 1157724" transform="translate(520.081 185.875)">
        <g id="Grupo_1157714" data-name="Grupo 1157714" transform="translate(18.776)">
          <g id="Grupo_1157712" data-name="Grupo 1157712" transform="translate(0)">
            <path id="Trazado_992872" data-name="Trazado 992872" d="M30.5,88.939a1.188,1.188,0,0,0,1.189-1.189V77.226a1.189,1.189,0,1,0-2.378,0V87.75A1.188,1.188,0,0,0,30.5,88.939Z" transform="translate(-29.306 -76.037)"/>
          </g>
          <g id="Grupo_1157713" data-name="Grupo 1157713" transform="translate(0 27.027)">
            <path id="Trazado_992873" data-name="Trazado 992873" d="M30.5,109.327a1.188,1.188,0,0,0,1.189-1.189V97.614a1.189,1.189,0,1,0-2.378,0v10.524A1.188,1.188,0,0,0,30.5,109.327Z" transform="translate(-29.306 -96.425)"/>
          </g>
        </g>
        <g id="Grupo_1157717" data-name="Grupo 1157717" transform="translate(0 18.775)">
          <g id="Grupo_1157715" data-name="Grupo 1157715" transform="translate(0)">
            <path id="Trazado_992874" data-name="Trazado 992874" d="M36.719,92.578H47.244a1.189,1.189,0,0,0,0-2.378H36.719a1.189,1.189,0,0,0,0,2.378Z" transform="translate(-35.53 -90.2)"/>
          </g>
          <g id="Grupo_1157716" data-name="Grupo 1157716" transform="translate(27.029)">
            <path id="Trazado_992875" data-name="Trazado 992875" d="M16.329,92.578H26.854a1.189,1.189,0,0,0,0-2.378H16.329a1.189,1.189,0,0,0,0,2.378Z" transform="translate(-15.14 -90.2)"/>
          </g>
        </g>
        <g id="Grupo_1157720" data-name="Grupo 1157720" transform="translate(5.502 5.499)">
          <g id="Grupo_1157718" data-name="Grupo 1157718" transform="translate(19.11 19.111)">
            <line id="Línea_1055" data-name="Línea 1055" x1="7.442" y1="7.442" transform="translate(1.19 1.188)"/>
            <path id="Trazado_992876" data-name="Trazado 992876" d="M27.921,104.422a1.189,1.189,0,0,0,.84-2.03L21.319,94.95a1.189,1.189,0,1,0-1.681,1.681l7.442,7.442A1.181,1.181,0,0,0,27.921,104.422Z" transform="translate(-19.291 -94.603)"/>
          </g>
          <g id="Grupo_1157719" data-name="Grupo 1157719">
            <line id="Línea_1056" data-name="Línea 1056" x1="7.442" y1="7.442" transform="translate(1.187 1.188)"/>
            <path id="Trazado_992877" data-name="Trazado 992877" d="M42.337,90a1.189,1.189,0,0,0,.84-2.03l-7.442-7.441a1.189,1.189,0,0,0-1.681,1.681L41.5,89.655A1.179,1.179,0,0,0,42.337,90Z" transform="translate(-33.707 -80.186)"/>
          </g>
        </g>
        <g id="Grupo_1157723" data-name="Grupo 1157723" transform="translate(5.502 5.499)">
          <g id="Grupo_1157721" data-name="Grupo 1157721" transform="translate(19.11)">
            <line id="Línea_1057" data-name="Línea 1057" x1="7.442" y2="7.442" transform="translate(1.19 1.188)"/>
            <path id="Trazado_992878" data-name="Trazado 992878" d="M20.479,90a1.181,1.181,0,0,0,.84-.349l7.442-7.441a1.189,1.189,0,0,0-1.681-1.681l-7.442,7.441a1.189,1.189,0,0,0,.84,2.03Z" transform="translate(-19.291 -80.186)"/>
          </g>
          <g id="Grupo_1157722" data-name="Grupo 1157722" transform="translate(0 19.111)">
            <line id="Línea_1058" data-name="Línea 1058" x1="7.442" y2="7.442" transform="translate(1.187 1.188)"/>
            <path id="Trazado_992879" data-name="Trazado 992879" d="M34.895,104.422a1.187,1.187,0,0,0,.84-.349l7.442-7.442A1.189,1.189,0,0,0,41.5,94.95l-7.442,7.442a1.189,1.189,0,0,0,.84,2.03Z" transform="translate(-33.707 -94.603)"/>
          </g>
        </g>
      </g>
      <g id="Grupo_1157737" data-name="Grupo 1157737" transform="translate(372.536 541.956)">
        <g id="Grupo_1157727" data-name="Grupo 1157727" transform="translate(18.776)">
          <g id="Grupo_1157725" data-name="Grupo 1157725" transform="translate(0)">
            <path id="Trazado_992880" data-name="Trazado 992880" d="M204.74,421.557a1.188,1.188,0,0,0,1.189-1.189V409.842a1.189,1.189,0,1,0-2.378,0v10.525A1.188,1.188,0,0,0,204.74,421.557Z" transform="translate(-203.551 -408.653)"/>
          </g>
          <g id="Grupo_1157726" data-name="Grupo 1157726" transform="translate(0 27.029)">
            <path id="Trazado_992881" data-name="Trazado 992881" d="M204.74,441.945a1.188,1.188,0,0,0,1.189-1.189V430.232a1.189,1.189,0,1,0-2.378,0v10.524A1.188,1.188,0,0,0,204.74,441.945Z" transform="translate(-203.551 -429.043)"/>
          </g>
        </g>
        <g id="Grupo_1157730" data-name="Grupo 1157730" transform="translate(0 18.777)">
          <g id="Grupo_1157728" data-name="Grupo 1157728">
            <path id="Trazado_992882" data-name="Trazado 992882" d="M210.964,425.2h10.525a1.189,1.189,0,0,0,0-2.378H210.964a1.189,1.189,0,1,0,0,2.378Z" transform="translate(-209.775 -422.818)"/>
          </g>
          <g id="Grupo_1157729" data-name="Grupo 1157729" transform="translate(27.028)">
            <path id="Trazado_992883" data-name="Trazado 992883" d="M190.575,425.2H201.1a1.189,1.189,0,0,0,0-2.378H190.575a1.189,1.189,0,0,0,0,2.378Z" transform="translate(-189.386 -422.818)"/>
          </g>
        </g>
        <g id="Grupo_1157733" data-name="Grupo 1157733" transform="translate(5.502 5.502)">
          <g id="Grupo_1157731" data-name="Grupo 1157731" transform="translate(19.11 19.111)">
            <line id="Línea_1059" data-name="Línea 1059" x1="7.442" y1="7.442" transform="translate(1.188 1.188)"/>
            <path id="Trazado_992884" data-name="Trazado 992884" d="M202.166,437.04a1.189,1.189,0,0,0,.84-2.029l-7.442-7.442a1.189,1.189,0,0,0-1.681,1.681l7.442,7.442A1.184,1.184,0,0,0,202.166,437.04Z" transform="translate(-193.535 -427.22)"/>
          </g>
          <g id="Grupo_1157732" data-name="Grupo 1157732">
            <line id="Línea_1060" data-name="Línea 1060" x1="7.442" y1="7.442" transform="translate(1.187 1.187)"/>
            <path id="Trazado_992885" data-name="Trazado 992885" d="M216.582,422.622a1.189,1.189,0,0,0,.84-2.03l-7.442-7.441a1.189,1.189,0,0,0-1.681,1.681l7.442,7.441A1.184,1.184,0,0,0,216.582,422.622Z" transform="translate(-207.952 -412.803)"/>
          </g>
        </g>
        <g id="Grupo_1157736" data-name="Grupo 1157736" transform="translate(5.501 5.502)">
          <g id="Grupo_1157734" data-name="Grupo 1157734" transform="translate(19.111)">
            <line id="Línea_1061" data-name="Línea 1061" x1="7.442" y2="7.442" transform="translate(1.188 1.187)"/>
            <path id="Trazado_992886" data-name="Trazado 992886" d="M194.724,422.622a1.181,1.181,0,0,0,.84-.349l7.442-7.441a1.189,1.189,0,0,0-1.681-1.681l-7.442,7.441a1.189,1.189,0,0,0,.84,2.03Z" transform="translate(-193.535 -412.803)"/>
          </g>
          <g id="Grupo_1157735" data-name="Grupo 1157735" transform="translate(0 19.111)">
            <line id="Línea_1062" data-name="Línea 1062" x1="7.442" y2="7.442" transform="translate(1.188 1.188)"/>
            <path id="Trazado_992887" data-name="Trazado 992887" d="M209.141,437.04a1.187,1.187,0,0,0,.84-.349l7.442-7.442a1.189,1.189,0,0,0-1.681-1.681L208.3,435.01a1.189,1.189,0,0,0,.84,2.029Z" transform="translate(-207.952 -427.22)"/>
          </g>
        </g>
      </g>
      <g id="Grupo_1157776" data-name="Grupo 1157776" transform="translate(567.944 212.527)">
        <g id="Grupo_1157766" data-name="Grupo 1157766" transform="translate(13.1)">
          <g id="Grupo_1157764" data-name="Grupo 1157764" transform="translate(0)">
            <path id="Trazado_992904" data-name="Trazado 992904" d="M447.078,320.144a.829.829,0,0,0,.83-.83v-7.343a.83.83,0,0,0-1.659,0v7.343A.829.829,0,0,0,447.078,320.144Z" transform="translate(-446.248 -311.142)"/>
          </g>
          <g id="Grupo_1157765" data-name="Grupo 1157765" transform="translate(0 18.857)">
            <path id="Trazado_992905" data-name="Trazado 992905" d="M447.078,340.533a.829.829,0,0,0,.83-.83v-7.343a.83.83,0,0,0-1.659,0V339.7A.829.829,0,0,0,447.078,340.533Z" transform="translate(-446.248 -331.531)"/>
          </g>
        </g>
        <g id="Grupo_1157769" data-name="Grupo 1157769" transform="translate(0 13.1)">
          <g id="Grupo_1157767" data-name="Grupo 1157767" transform="translate(0 0)">
            <path id="Trazado_992906" data-name="Trazado 992906" d="M453.3,326.965h7.344a.83.83,0,1,0,0-1.659H453.3a.83.83,0,1,0,0,1.659Z" transform="translate(-452.472 -325.306)"/>
          </g>
          <g id="Grupo_1157768" data-name="Grupo 1157768" transform="translate(18.857 0)">
            <path id="Trazado_992907" data-name="Trazado 992907" d="M432.913,326.965h7.343a.83.83,0,1,0,0-1.659h-7.343a.83.83,0,1,0,0,1.659Z" transform="translate(-432.083 -325.306)"/>
          </g>
        </g>
        <g id="Grupo_1157772" data-name="Grupo 1157772" transform="translate(3.838 3.838)">
          <g id="Grupo_1157770" data-name="Grupo 1157770" transform="translate(13.334 13.334)">
            <line id="Línea_1071" data-name="Línea 1071" x1="5.192" y1="5.192" transform="translate(0.829 0.829)"/>
            <path id="Trazado_992908" data-name="Trazado 992908" d="M442.254,336.56a.83.83,0,0,0,.586-1.416l-5.192-5.192a.829.829,0,0,0-1.173,1.173l5.192,5.192A.823.823,0,0,0,442.254,336.56Z" transform="translate(-436.232 -329.708)"/>
          </g>
          <g id="Grupo_1157771" data-name="Grupo 1157771" transform="translate(0)">
            <line id="Línea_1072" data-name="Línea 1072" x1="5.192" y1="5.191" transform="translate(0.829 0.829)"/>
            <path id="Trazado_992909" data-name="Trazado 992909" d="M456.671,322.142a.83.83,0,0,0,.586-1.416l-5.192-5.191a.829.829,0,0,0-1.173,1.173l5.192,5.191A.826.826,0,0,0,456.671,322.142Z" transform="translate(-450.649 -315.291)"/>
          </g>
        </g>
        <g id="Grupo_1157775" data-name="Grupo 1157775" transform="translate(3.838 3.838)">
          <g id="Grupo_1157773" data-name="Grupo 1157773" transform="translate(13.334)">
            <line id="Línea_1073" data-name="Línea 1073" x1="5.192" y2="5.191" transform="translate(0.829 0.829)"/>
            <path id="Trazado_992910" data-name="Trazado 992910" d="M437.062,322.142a.824.824,0,0,0,.586-.243l5.192-5.191a.829.829,0,0,0-1.173-1.173l-5.192,5.191a.83.83,0,0,0,.586,1.416Z" transform="translate(-436.232 -315.291)"/>
          </g>
          <g id="Grupo_1157774" data-name="Grupo 1157774" transform="translate(0 13.334)">
            <line id="Línea_1074" data-name="Línea 1074" x1="5.192" y2="5.192" transform="translate(0.829 0.829)"/>
            <path id="Trazado_992911" data-name="Trazado 992911" d="M451.479,336.56a.828.828,0,0,0,.586-.243l5.192-5.192a.829.829,0,0,0-1.173-1.173l-5.192,5.192a.83.83,0,0,0,.586,1.416Z" transform="translate(-450.649 -329.708)"/>
          </g>
        </g>
      </g>
      <g id="Grupo_1158055" data-name="Grupo 1158055" transform="translate(324.478 196.179)">
        <g id="Grupo_1157778" data-name="Grupo 1157778" transform="translate(15.816 18.079)">
          <path id="Trazado_992912" data-name="Trazado 992912" d="M80.137,65.953h54.9a12.7,12.7,0,0,1,12.7,12.7v54.806L134.821,121.6H80.134a12.7,12.7,0,0,1-12.7-12.7V78.654A12.7,12.7,0,0,1,80.137,65.953Z" transform="translate(-67.435 -65.953)" fill="#fff" stroke="#000" stroke-linecap="round" stroke-linejoin="round" stroke-miterlimit="10" stroke-width="0.75"/>
        </g>
        <g id="Grupo_1157780" data-name="Grupo 1157780" transform="translate(0 0)">
          <path id="Trazado_992913" data-name="Trazado 992913" d="M92.066,52.315h54.9a12.7,12.7,0,0,1,12.7,12.7v54.806l-12.911-11.855H92.066a12.7,12.7,0,0,1-12.7-12.7V65.014A12.7,12.7,0,0,1,92.066,52.315Z" transform="translate(-79.367 -52.315)" fill="#fff" stroke="#000" stroke-linecap="round" stroke-linejoin="round" stroke-miterlimit="10" stroke-width="0.75"/>
          <g id="Grupo_1157779" data-name="Grupo 1157779" transform="translate(14.294 23.314)">
            <path id="Trazado_992914" data-name="Trazado 992914" d="M91.847,75.423A5.522,5.522,0,1,0,97.37,69.9,5.523,5.523,0,0,0,91.847,75.423Z" transform="translate(-53.431 -69.902)"/>
            <path id="Trazado_992915" data-name="Trazado 992915" d="M106.337,75.423a5.522,5.522,0,1,0,5.521-5.521A5.523,5.523,0,0,0,106.337,75.423Z" transform="translate(-87.129 -69.902)"/>
            <path id="Trazado_992916" data-name="Trazado 992916" d="M120.828,75.423a5.521,5.521,0,1,0,5.521-5.521A5.523,5.523,0,0,0,120.828,75.423Z" transform="translate(-120.828 -69.902)"/>
          </g>
        </g>
      </g>
      <ellipse id="Elipse_11664" data-name="Elipse 11664" cx="13.728" cy="13.728" rx="13.728" ry="13.728" transform="translate(321.074 418.931)" fill="#f492c8"/>
      <path id="Trazado_992789" data-name="Trazado 992789" d="M419.085,420.69a20.849,20.849,0,1,0-29.484,0A20.848,20.848,0,0,0,419.085,420.69Z" transform="translate(1.714 -83.806)" fill="#f492c8"/>
      <ellipse id="Elipse_11663" data-name="Elipse 11663" cx="12.376" cy="12.376" rx="12.376" ry="12.376" transform="translate(392.502 601.418)" fill="#f492c8"/>
    </g>
  </g>
</svg>
