<svg xmlns="http://www.w3.org/2000/svg" xmlns:xlink="http://www.w3.org/1999/xlink" width="108" height="108" viewBox="0 0 108 108">
  <defs>
    <filter id="Trazado_982547" x="0" y="0" width="108" height="108" filterUnits="userSpaceOnUse">
      <feOffset dy="3" input="SourceAlpha"/>
      <feGaussianBlur stdDeviation="3" result="blur"/>
      <feFlood flood-opacity="0.161"/>
      <feComposite operator="in" in2="blur"/>
      <feComposite in="SourceGraphic"/>
    </filter>
  </defs>
  <g id="Grupo_1158053" data-name="Grupo 1158053" transform="translate(9 6)">
    <g id="Grupo_1157111" data-name="Grupo 1157111">
      <g id="Grupo_1153117" data-name="Grupo 1153117">
        <g id="Grupo_1149598" data-name="Grupo 1149598">
          <g id="Grupo_1148770" data-name="Grupo 1148770">
            <g id="Grupo_1146954" data-name="Grupo 1146954">
              <g transform="matrix(1, 0, 0, 1, -9, -6)" filter="url(#Trazado_982547)">
                <g id="Trazado_982547-2" data-name="Trazado 982547" transform="translate(9 6)" fill="#fceaf1">
                  <path d="M 45 88.5 C 39.12687683105469 88.5 33.43022537231445 87.35007476806641 28.06830024719238 85.08217620849609 C 22.88852500915527 82.89131164550781 18.23629951477051 79.75458526611328 14.2408504486084 75.75914764404297 C 10.24541282653809 71.76370239257812 7.108687400817871 67.11147308349609 4.917825222015381 61.93170166015625 C 2.649924993515015 56.56977462768555 1.5 50.87312316894531 1.5 45 C 1.5 39.12687683105469 2.649924993515015 33.43022537231445 4.917825222015381 28.06830024719238 C 7.108687400817871 22.88852500915527 10.24541282653809 18.23629951477051 14.2408504486084 14.2408504486084 C 18.23629951477051 10.24541282653809 22.88852500915527 7.108687400817871 28.06830024719238 4.917825222015381 C 33.43022537231445 2.649924993515015 39.12687683105469 1.5 45 1.5 C 50.87312316894531 1.5 56.56977462768555 2.649924993515015 61.93170166015625 4.917825222015381 C 67.11147308349609 7.108687400817871 71.76370239257812 10.24541282653809 75.75914764404297 14.2408504486084 C 79.75458526611328 18.23629951477051 82.89131164550781 22.88852500915527 85.08217620849609 28.06830024719238 C 87.35007476806641 33.43022537231445 88.5 39.12687683105469 88.5 45 C 88.5 50.87312316894531 87.35007476806641 56.56977462768555 85.08217620849609 61.93170166015625 C 82.89131164550781 67.11147308349609 79.75458526611328 71.76370239257812 75.75914764404297 75.75914764404297 C 71.76370239257812 79.75458526611328 67.11147308349609 82.89131164550781 61.93170166015625 85.08217620849609 C 56.56977462768555 87.35007476806641 50.87312316894531 88.5 45 88.5 Z" stroke="none"/>
                  <path d="M 45 3 C 39.32871246337891 3 33.82865524291992 4.110054016113281 28.65262985229492 6.299339294433594 C 23.65165710449219 8.414573669433594 19.15968322753906 11.44334411621094 15.301513671875 15.301513671875 C 11.44334411621094 19.15968322753906 8.414573669433594 23.65165710449219 6.299339294433594 28.65262985229492 C 4.110054016113281 33.82865524291992 3 39.32871246337891 3 45 C 3 50.67128753662109 4.110054016113281 56.17134475708008 6.299339294433594 61.34737396240234 C 8.414573669433594 66.34834289550781 11.44334411621094 70.84031677246094 15.301513671875 74.698486328125 C 19.15968322753906 78.55665588378906 23.65165710449219 81.58542633056641 28.65262985229492 83.70066070556641 C 33.82865524291992 85.88994598388672 39.32871246337891 87 45 87 C 50.67128753662109 87 56.17134475708008 85.88994598388672 61.34737396240234 83.70066070556641 C 66.34834289550781 81.58542633056641 70.84031677246094 78.55665588378906 74.698486328125 74.698486328125 C 78.55665588378906 70.84031677246094 81.58542633056641 66.34834289550781 83.70066070556641 61.34737396240234 C 85.88994598388672 56.17134475708008 87 50.67128753662109 87 45 C 87 39.32871246337891 85.88994598388672 33.82865524291992 83.70066070556641 28.65262985229492 C 81.58542633056641 23.65165710449219 78.55665588378906 19.15968322753906 74.698486328125 15.301513671875 C 70.84031677246094 11.44334411621094 66.34834289550781 8.414573669433594 61.34737396240234 6.299339294433594 C 56.17134475708008 4.110054016113281 50.67128753662109 3 45 3 M 45 0 C 69.85281372070312 0 90 20.14718627929688 90 45 C 90 69.85281372070312 69.85281372070312 90 45 90 C 20.14718627929688 90 0 69.85281372070312 0 45 C 0 20.14718627929688 20.14718627929688 0 45 0 Z" stroke="none" fill="#e93b81"/>
                </g>
              </g>
            </g>
          </g>
        </g>
      </g>
    </g>
    <g id="relaciones-publicas" transform="translate(16 16)">
      <path id="Trazado_993343" data-name="Trazado 993343" d="M22.514,10.361a10.351,10.351,0,1,0-13.1,11.913l2.933,4.192,2.933-4.192a10.38,10.38,0,0,0,6.665-6.052Z" transform="translate(-1.05 -1.053)" fill="#e73844"/>
      <path id="Trazado_993344" data-name="Trazado 993344" d="M22.632,10.361A10.342,10.342,0,0,0,4.913,5.293,10.341,10.341,0,0,0,21.89,16.606c.059-.129.128-.252.182-.384Z" transform="translate(-1.167 -1.053)" fill="#ff4d55"/>
      <path id="Trazado_993345" data-name="Trazado 993345" d="M42.375,19.425a10.351,10.351,0,1,0-15.611,2.911v6.131l5.377-3.84a10.47,10.47,0,0,0,1.21.076A10.309,10.309,0,0,0,38.47,23.35" transform="translate(-2.288 -1.171)" fill="#8dbf00"/>
      <path id="Trazado_993346" data-name="Trazado 993346" d="M33.469,4a10.313,10.313,0,0,0-7.557,3.294A10.341,10.341,0,0,0,42.889,18.607,10.322,10.322,0,0,0,33.469,4Z" transform="translate(-2.406 -1.171)" fill="#a2cc06"/>
      <path id="Trazado_993347" data-name="Trazado 993347" d="M51.988,38.949a10.351,10.351,0,1,0-14.224-9.6,10.467,10.467,0,0,0,.076,1.21L34,35.938h6.131a10.343,10.343,0,0,0,6,3.576Z" transform="translate(-2.937 -2.056)" fill="#66c3e9"/>
      <path id="Trazado_993348" data-name="Trazado 993348" d="M51.351,37.82a10.3,10.3,0,0,0,4.265-.927A10.345,10.345,0,0,0,44.294,19.913,10.342,10.342,0,0,0,51.351,37.82Z" transform="translate(-3.35 -2.056)" fill="#8adef9"/>
      <path id="Trazado_993349" data-name="Trazado 993349" d="M50.115,60.7A10.351,10.351,0,1,0,40.084,47.839L36,50.351l4.084,2.512A10.351,10.351,0,0,0,50.115,60.7Z" transform="translate(-3.055 -3.295)" fill="#0059be"/>
      <path id="Trazado_993350" data-name="Trazado 993350" d="M50.528,40a10.283,10.283,0,0,0-4.223.9A10.341,10.341,0,0,0,57.586,57.907,10.342,10.342,0,0,0,50.528,40Z" transform="translate(-3.468 -3.295)" fill="#006bdb"/>
      <rect id="Rect치ngulo_409691" data-name="Rect치ngulo 409691" width="3.993" height="7.985" transform="translate(11.302 51.761) rotate(-45)" fill="#ccc"/>
      <path id="Trazado_993351" data-name="Trazado 993351" d="M14,54.882l1.882,1.882a3.98,3.98,0,0,0,4.532.768L15.882,53Z" transform="translate(-1.757 -4.062)" fill="#e6e6e6"/>
      <path id="Trazado_993352" data-name="Trazado 993352" d="M24.326,47.823l-7.975,3.323-4.705,4.705L6,50.205,10.705,45.5l3.323-7.975" transform="translate(-1.285 -3.149)" fill="#e6e6e6"/>
      <path id="Trazado_993353" data-name="Trazado 993353" d="M22.422,45.83l-8.305-8.305L10.794,45.5,7.5,48.794l.974.974a4.611,4.611,0,0,0,6.521,0h0a10.326,10.326,0,0,1,3.326-2.23Z" transform="translate(-1.374 -3.149)" fill="#f2f2f2"/>
      <path id="Trazado_993354" data-name="Trazado 993354" d="M27.531,44.708a2,2,0,0,1,.584,1.412h0a2,2,0,0,1-2,2h0a2,2,0,0,1-1.412-.584L14.584,37.407A2,2,0,0,1,14,36h0a2,2,0,0,1,2-2h0a2,2,0,0,1,1.412.584Z" transform="translate(-1.757 -2.941)" fill="#e73844"/>
      <path id="Trazado_993355" data-name="Trazado 993355" d="M6.882,52l-1.1,1.1A2.661,2.661,0,0,0,5,54.985H5a2.661,2.661,0,0,0,2.661,2.661h0a2.662,2.662,0,0,0,1.882-.78l1.1-1.1" transform="translate(-1.226 -4.003)" fill="#ccc"/>
      <path id="Trazado_993356" data-name="Trazado 993356" d="M17.423,34.584a1.986,1.986,0,0,0-3.161.471,2,2,0,0,0,.338.471L24.723,45.649a1.986,1.986,0,0,0,3.161-.471,1.976,1.976,0,0,0-.338-.471Z" transform="translate(-1.773 -2.941)" fill="#ff4d55"/>
      <rect id="Rect치ngulo_409692" data-name="Rect치ngulo 409692" width="6.654" height="7.985" transform="translate(4.714 47.057) rotate(-45)" fill="#e73844"/>
      <path id="Trazado_993357" data-name="Trazado 993357" d="M15,50.267c.01-.011.024-.021.035-.031L10.794,46,7.5,49.294l.974.974a4.611,4.611,0,0,0,6.521,0Z" transform="translate(-1.374 -3.649)" fill="#ff4d55"/>
      <path id="Trazado_993358" data-name="Trazado 993358" d="M5.79,53.1a2.647,2.647,0,0,0-.6.941,2.654,2.654,0,0,0,4.363.941l.162-.162L6.893,52Z" transform="translate(-1.238 -4.003)" fill="#e6e6e6"/>
      <circle id="Elipse_11682" data-name="Elipse 11682" cx="6.587" cy="6.587" r="6.587" transform="translate(4.715 4.711)" fill="#006bdb"/>
      <circle id="Elipse_11683" data-name="Elipse 11683" cx="2.823" cy="2.823" r="2.823" transform="translate(44.237 41.41)" fill="#8adef9"/>
      <path id="Trazado_993359" data-name="Trazado 993359" d="M33.646,16.469l-4.705,2.823,1.882-4.705L28,11.764h3.764L33.646,8l1.882,3.764h3.764l-2.823,2.823,1.882,4.705Z" transform="translate(-2.583 -1.407)" fill="#f9cb5d"/>
      <path id="Trazado_993360" data-name="Trazado 993360" d="M48.587,36.292l-2.94-1.68A7.239,7.239,0,0,1,42,28.327h0A3.327,3.327,0,0,1,45.327,25h0a3.326,3.326,0,0,1,2.352.975l.907.907.907-.907A3.325,3.325,0,0,1,51.847,25h0a3.327,3.327,0,0,1,3.327,3.327h0a7.239,7.239,0,0,1-3.647,6.285Z" transform="translate(-3.409 -2.41)" fill="#e73844"/>
      <path id="Trazado_993361" data-name="Trazado 993361" d="M50.705,51A4.705,4.705,0,0,0,46,55.705v4.5a10.28,10.28,0,0,0,9.41,0v-4.5A4.705,4.705,0,0,0,50.705,51Z" transform="translate(-3.645 -3.944)" fill="#66c3e9"/>
      <path id="Trazado_993362" data-name="Trazado 993362" d="M50.705,51A4.705,4.705,0,0,0,46,55.705v.5a10.313,10.313,0,0,0,7.528,3.262,10.162,10.162,0,0,0,1.882-.188V55.705A4.705,4.705,0,0,0,50.705,51Z" transform="translate(-3.645 -3.944)" fill="#8adef9"/>
      <path id="Trazado_993363" data-name="Trazado 993363" d="M51.906,25a3.326,3.326,0,0,0-2.352.975l-.907.907-.907-.907a3.324,3.324,0,0,0-4.69-.013,3.279,3.279,0,0,0-.049.484,7.239,7.239,0,0,0,3.647,6.285,5.928,5.928,0,0,0,5.88,0,7.22,7.22,0,0,0,2.33-2.146,7.206,7.206,0,0,0,.376-2.258A3.327,3.327,0,0,0,51.906,25Z" transform="translate(-3.468 -2.41)" fill="#ff4d55"/>
      <path id="Trazado_993364" data-name="Trazado 993364" d="M39.646,11.764H35.882L34,8v8.469l4.705,2.823-1.882-4.705Z" transform="translate(-2.937 -1.407)" fill="#ffd98c"/>
      <path id="Trazado_993365" data-name="Trazado 993365" d="M12.528,5a7.528,7.528,0,1,0,7.528,7.528A7.528,7.528,0,0,0,12.528,5Zm.941,1.967a5.6,5.6,0,0,1,2.174.856H13.469Zm-1.882.856H9.413a5.6,5.6,0,0,1,2.174-.856Zm0,1.882v1.882H6.967a5.614,5.614,0,0,1,.679-1.882Zm0,3.764v1.882H7.646a5.614,5.614,0,0,1-.679-1.882Zm0,3.764v.856a5.6,5.6,0,0,1-2.174-.856Zm1.882,0h2.174a5.6,5.6,0,0,1-2.174.856Zm0-1.882V13.469h4.62a5.614,5.614,0,0,1-.679,1.882Zm0-3.764V9.705H17.41a5.614,5.614,0,0,1,.679,1.882Z" transform="translate(-1.226 -1.23)" fill="#004c9d"/>
      <path id="Trazado_993366" data-name="Trazado 993366" d="M17.483,33.859a2.926,2.926,0,0,0-4.632,3.494L9.79,44.7,5.217,49.272a.941.941,0,0,0,0,1.331l.276.276-.438.438a3.6,3.6,0,1,0,5.095,5.095l.438-.438.276.276a.941.941,0,0,0,1.331,0l.276-.276,4.981,4.981a.941.941,0,0,0,1.331,0L21.6,58.131a.941.941,0,0,0,0-1.331l-4.981-4.981.144-.144,7.346-3.061a2.928,2.928,0,0,0,3.494-4.632ZM11.7,45.012l2.541-6.092,8.309,8.309L16.455,49.77ZM8.819,55.081a1.721,1.721,0,1,1-2.434-2.434l.438-.438,2.433,2.433ZM7.213,49.937l3.374-3.374L14.9,50.878l-3.374,3.374Zm12.4,7.528-1.492,1.492L13.8,54.642l1.492-1.492Zm5.922-10.351a1.062,1.062,0,0,1-.746-.309L14.66,36.682a1.055,1.055,0,0,1,1.492-1.492L26.276,45.313a1.055,1.055,0,0,1-.746,1.8Z" transform="translate(-1.167 -2.881)"/>
      <path id="Trazado_993367" data-name="Trazado 993367" d="M12.528,5a7.528,7.528,0,1,0,7.528,7.528A7.528,7.528,0,0,0,12.528,5Zm-.941,2.823H9.413a5.6,5.6,0,0,1,2.174-.856Zm0,1.882v1.882H6.967a5.614,5.614,0,0,1,.679-1.882Zm0,3.764v1.882H7.646a5.614,5.614,0,0,1-.679-1.882Zm0,3.764v.856a5.6,5.6,0,0,1-2.174-.856Zm1.882,0h2.174a5.6,5.6,0,0,1-2.174.856Zm0-1.882V13.469h4.62a5.614,5.614,0,0,1-.679,1.882Zm0-3.764V9.705H17.41a5.614,5.614,0,0,1,.679,1.882Zm0-3.764V6.967a5.6,5.6,0,0,1,2.174.856Z" transform="translate(-1.226 -1.23)"/>
      <path id="Trazado_993368" data-name="Trazado 993368" d="M52.473,37.66A11.292,11.292,0,0,0,42.827,17.5,11.279,11.279,0,0,0,22.68,7.883,11.292,11.292,0,1,0,8.771,23.019l2.75,3.93a.941.941,0,0,0,1.541,0l2.75-3.93a11.4,11.4,0,0,0,5.849-4.441,11.255,11.255,0,0,0,2.863,4.012v5.7a.941.941,0,0,0,.941.941.93.93,0,0,0,.547-.176L31.1,25.421c.339.03.653.045.953.045a11.306,11.306,0,0,0,3.329-.522,11.264,11.264,0,0,0-.506,3.345c0,.3.015.614.045.953l-3.633,5.087a.941.941,0,0,0,.765,1.488h5.7a11.335,11.335,0,0,0,4.012,2.861,11.256,11.256,0,0,0-4.555,6.255l-3.764,2.316a.941.941,0,0,0,0,1.6l3.764,2.316a11.287,11.287,0,1,0,15.265-13.5ZM14.958,21.312a.941.941,0,0,0-.5.363l-2.162,3.09-2.164-3.09a.941.941,0,0,0-.5-.363A9.41,9.41,0,1,1,21.475,10.259a10.822,10.822,0,0,0-.549,5.753A9.487,9.487,0,0,1,14.958,21.312Zm17.094,2.272a9.636,9.636,0,0,1-1.1-.07.918.918,0,0,0-.659.168l-3.884,2.778v-4.3a.941.941,0,0,0-.342-.726,9.418,9.418,0,1,1,14.26-2.788,11.344,11.344,0,0,0-3.8,3.8A9.4,9.4,0,0,1,32.053,23.584Zm6.855,10.693a.941.941,0,0,0-.725-.342h-4.3l2.783-3.889a.935.935,0,0,0,.168-.659,9.638,9.638,0,0,1-.074-1.1A9.41,9.41,0,1,1,49.9,36.924a10.946,10.946,0,0,0-5.777.545A9.428,9.428,0,0,1,38.908,34.277Zm5.378,22.4V52.755a3.764,3.764,0,0,1,7.528,0v3.914a9.373,9.373,0,0,1-7.528,0Zm1.882-11.446a1.882,1.882,0,1,1,1.882,1.882A1.882,1.882,0,0,1,46.168,45.227ZM53.7,55.56V52.755a5.646,5.646,0,0,0-2.924-4.943,3.764,3.764,0,1,0-5.445,0A5.646,5.646,0,0,0,42.4,52.755v2.816a9.391,9.391,0,0,1-3.472-5.236.941.941,0,0,0-.42-.574L35.73,48.05l2.782-1.711a.941.941,0,0,0,.42-.574A9.4,9.4,0,1,1,53.7,55.56Z" transform="translate(-0.99 -0.994)"/>
      <path id="Trazado_993369" data-name="Trazado 993369" d="M37.515,14.758,39.9,12.373a.941.941,0,0,0-.665-1.606H36.051L34.434,7.523a.981.981,0,0,0-1.684,0l-1.626,3.244H27.941a.941.941,0,0,0-.665,1.606l2.384,2.385-1.651,4.129a.941.941,0,0,0,1.359,1.156l4.22-2.532,4.22,2.532a.941.941,0,0,0,1.359-1.156Zm-1.976.122.847,2.112-2.309-1.385a.941.941,0,0,0-.969,0L30.8,16.991l.847-2.112a.941.941,0,0,0-.209-1.014l-1.223-1.217h1.492a.941.941,0,0,0,.847-.52l1.035-2.081,1.035,2.081a.941.941,0,0,0,.847.52h1.492l-1.217,1.217a.941.941,0,0,0-.209,1.014Z" transform="translate(-2.524 -1.351)"/>
      <path id="Trazado_993370" data-name="Trazado 993370" d="M56.056,28.267a4.267,4.267,0,0,0-7.285-3.018l-.243.243-.243-.243A4.267,4.267,0,0,0,41,28.267a8.2,8.2,0,0,0,4.122,7.1l2.936,1.68a.941.941,0,0,0,.933,0l2.94-1.68a8.2,8.2,0,0,0,4.125-7.1ZM48.528,35.15l-2.473-1.412a6.312,6.312,0,0,1-3.173-5.471,2.386,2.386,0,0,1,4.073-1.687l.908.908a.941.941,0,0,0,1.331,0l.908-.908a2.386,2.386,0,0,1,4.073,1.687A6.312,6.312,0,0,1,51,33.737Z" transform="translate(-3.35 -2.351)"/>
    </g>
  </g>
</svg>
