<svg xmlns="http://www.w3.org/2000/svg" xmlns:xlink="http://www.w3.org/1999/xlink" width="108" height="108" viewBox="0 0 108 108">
  <defs>
    <filter id="Trazado_982547" x="0" y="0" width="108" height="108" filterUnits="userSpaceOnUse">
      <feOffset dy="3" input="SourceAlpha"/>
      <feGaussianBlur stdDeviation="3" result="blur"/>
      <feFlood flood-opacity="0.161"/>
      <feComposite operator="in" in2="blur"/>
      <feComposite in="SourceGraphic"/>
    </filter>
  </defs>
  <g id="Grupo_1157403" data-name="Grupo 1157403" transform="translate(-161 -1452)">
    <g id="Grupo_1153117" data-name="Grupo 1153117" transform="translate(-93 939)">
      <g id="Grupo_1149598" data-name="Grupo 1149598" transform="translate(80 315)">
        <g id="Grupo_1148770" data-name="Grupo 1148770" transform="translate(-27 -2583)">
          <g id="Grupo_1146954" data-name="Grupo 1146954" transform="translate(-415 -1202)">
            <g transform="matrix(1, 0, 0, 1, 616, 3983)" filter="url(#Trazado_982547)">
              <g id="Trazado_982547-2" data-name="Trazado 982547" transform="translate(9 6)" fill="#fdf5e4">
                <path d="M 45 88.5 C 39.12687683105469 88.5 33.43022537231445 87.35007476806641 28.06830024719238 85.08217620849609 C 22.88852500915527 82.89131164550781 18.23629951477051 79.75458526611328 14.2408504486084 75.75914764404297 C 10.24541282653809 71.76370239257812 7.108687400817871 67.11147308349609 4.917825222015381 61.93170166015625 C 2.649924993515015 56.56977462768555 1.5 50.87312316894531 1.5 45 C 1.5 39.12687683105469 2.649924993515015 33.43022537231445 4.917825222015381 28.06830024719238 C 7.108687400817871 22.88852500915527 10.24541282653809 18.23629951477051 14.2408504486084 14.2408504486084 C 18.23629951477051 10.24541282653809 22.88852500915527 7.108687400817871 28.06830024719238 4.917825222015381 C 33.43022537231445 2.649924993515015 39.12687683105469 1.5 45 1.5 C 50.87312316894531 1.5 56.56977462768555 2.649924993515015 61.93170166015625 4.917825222015381 C 67.11147308349609 7.108687400817871 71.76370239257812 10.24541282653809 75.75914764404297 14.2408504486084 C 79.75458526611328 18.23629951477051 82.89131164550781 22.88852500915527 85.08217620849609 28.06830024719238 C 87.35007476806641 33.43022537231445 88.5 39.12687683105469 88.5 45 C 88.5 50.87312316894531 87.35007476806641 56.56977462768555 85.08217620849609 61.93170166015625 C 82.89131164550781 67.11147308349609 79.75458526611328 71.76370239257812 75.75914764404297 75.75914764404297 C 71.76370239257812 79.75458526611328 67.11147308349609 82.89131164550781 61.93170166015625 85.08217620849609 C 56.56977462768555 87.35007476806641 50.87312316894531 88.5 45 88.5 Z" stroke="none"/>
                <path d="M 45 3 C 39.32871246337891 3 33.82865524291992 4.110054016113281 28.65262985229492 6.299339294433594 C 23.65165710449219 8.414573669433594 19.15968322753906 11.44334411621094 15.301513671875 15.301513671875 C 11.44334411621094 19.15968322753906 8.414573669433594 23.65165710449219 6.299339294433594 28.65262985229492 C 4.110054016113281 33.82865524291992 3 39.32871246337891 3 45 C 3 50.67128753662109 4.110054016113281 56.17134475708008 6.299339294433594 61.34737396240234 C 8.414573669433594 66.34834289550781 11.44334411621094 70.84031677246094 15.301513671875 74.698486328125 C 19.15968322753906 78.55665588378906 23.65165710449219 81.58542633056641 28.65262985229492 83.70066070556641 C 33.82865524291992 85.88994598388672 39.32871246337891 87 45 87 C 50.67128753662109 87 56.17134475708008 85.88994598388672 61.34737396240234 83.70066070556641 C 66.34834289550781 81.58542633056641 70.84031677246094 78.55665588378906 74.698486328125 74.698486328125 C 78.55665588378906 70.84031677246094 81.58542633056641 66.34834289550781 83.70066070556641 61.34737396240234 C 85.88994598388672 56.17134475708008 87 50.67128753662109 87 45 C 87 39.32871246337891 85.88994598388672 33.82865524291992 83.70066070556641 28.65262985229492 C 81.58542633056641 23.65165710449219 78.55665588378906 19.15968322753906 74.698486328125 15.301513671875 C 70.84031677246094 11.44334411621094 66.34834289550781 8.414573669433594 61.34737396240234 6.299339294433594 C 56.17134475708008 4.110054016113281 50.67128753662109 3 45 3 M 45 0 C 69.85281372070312 0 90 20.14718627929688 90 45 C 90 69.85281372070312 69.85281372070312 90 45 90 C 20.14718627929688 90 0 69.85281372070312 0 45 C 0 20.14718627929688 20.14718627929688 0 45 0 Z" stroke="none" fill="#f1a607"/>
              </g>
            </g>
          </g>
        </g>
      </g>
    </g>
    <g id="Filled_outline" data-name="Filled outline" transform="translate(171.437 1459.437)">
      <path id="Trazado_994157" data-name="Trazado 994157" d="M173.656,52.515l-.3,2.728-.2,1.838H147.422l-.2-1.838-.3-2.728a14.137,14.137,0,0,1,1.057-7.129,14.15,14.15,0,0,0,1.126-6.274l-.16-3.179a11.362,11.362,0,1,1,22.7,0l-.16,3.179a14.15,14.15,0,0,0,1.126,6.274A14.129,14.129,0,0,1,173.656,52.515Z" transform="translate(-115.803 -7.086)" fill="#8f4d2e"/>
      <path id="Trazado_994158" data-name="Trazado 994158" d="M255.472,52.51l-.3,2.728H244.858V45.131l1.838-3.675v-7.35a10.117,10.117,0,0,0-7.435-9.749,11.375,11.375,0,0,1,14.189,11.572l-.16,3.179a14.15,14.15,0,0,0,1.125,6.274A14.129,14.129,0,0,1,255.472,52.51Z" transform="translate(-197.619 -7.08)" fill="#82462a"/>
      <path id="Trazado_994159" data-name="Trazado 994159" d="M219.393,223.35a1.286,1.286,0,0,1-1.286-1.286V216h-7.35v6.064a1.286,1.286,0,0,1-1.286,1.286H208v5.513h12.863V223.35Z" transform="translate(-169.949 -177.03)" fill="#fec9a3"/>
      <path id="Trazado_994160" data-name="Trazado 994160" d="M236.229,220.594a5.041,5.041,0,0,0,3.121-1.126V216H232v3.467a5.041,5.041,0,0,0,3.121,1.127Z" transform="translate(-191.193 -177.03)" fill="#feb784"/>
      <path id="Trazado_994161" data-name="Trazado 994161" d="M208.538,85.513v4.594a8.269,8.269,0,1,1-16.538,0V85.513a12.465,12.465,0,0,0,4.238-4.8l.356-.712.521.435a22.94,22.94,0,0,0,11.423,5.077Z" transform="translate(-155.787 -56.65)" fill="#fec9a3"/>
      <path id="Trazado_994162" data-name="Trazado 994162" d="M284.445,121.53v4.594a8.273,8.273,0,0,1-6.689,8.118,10.07,10.07,0,0,0,3.014-7.2V120.69A22.914,22.914,0,0,0,284.445,121.53Z" transform="translate(-231.693 -92.667)" fill="#fec093"/>
      <path id="Trazado_994163" data-name="Trazado 994163" d="M224,312h9.188v6.432H224Z" transform="translate(-184.112 -262.005)" fill="#e0e0de"/>
      <path id="Trazado_994164" data-name="Trazado 994164" d="M119.792,303.85a2.789,2.789,0,0,1-3.1-1.85l-6.069-11.385a7.155,7.155,0,0,1-1.282,6.841v7.35H92.806v-7.35a7.167,7.167,0,0,1-1.268-6.926L85.371,302a2.788,2.788,0,1,1-5.293-1.75l6.746-16.792A5.511,5.511,0,0,1,91.939,280h3.623l5.513,10.107L106.588,280h3.61a5.517,5.517,0,0,1,5.122,3.476l6.669,16.773a2.789,2.789,0,0,1-2.2,3.6Z" transform="translate(-56.593 -233.68)" fill="#ec8c8c"/>
      <path id="Trazado_994165" data-name="Trazado 994165" d="M74.16,392.615,74.822,384h5.513v8.852a3.092,3.092,0,1,1-6.175-.237Z" transform="translate(-51.472 -325.736)" fill="#f59898"/>
      <path id="Trazado_994166" data-name="Trazado 994166" d="M32.593,266.886a1.787,1.787,0,0,0-1.165,2.533l.841,1.682H28.976a5.513,5.513,0,0,1-2.465-.582l-.915-.458a1.1,1.1,0,0,0-1.6.986v2.593a1.838,1.838,0,0,0,1.016,1.644l1.5.748a5.512,5.512,0,0,0,2.465.582h6.968V271.1l-1.258-3.145A1.787,1.787,0,0,0,32.593,266.886Z" transform="translate(-7.081 -222.025)" fill="#fec9a3"/>
      <path id="Trazado_994167" data-name="Trazado 994167" d="M80,352h5.513v3.675H80Z" transform="translate(-56.65 -297.411)" fill="#e0e0de"/>
      <path id="Trazado_994168" data-name="Trazado 994168" d="M221.314,307.6a2.789,2.789,0,0,1-3.1-1.85l-6.069-11.385a7.155,7.155,0,0,1-1.282,6.841v7.35H194.63c7.583-4.952,13.982-11.237,19.352-24.32a5.5,5.5,0,0,1,2.86,2.99L223.511,304a2.789,2.789,0,0,1-2.2,3.6Z" transform="translate(-158.115 -237.433)" fill="#e07f7f"/>
      <path id="Trazado_994169" data-name="Trazado 994169" d="M305.188,350.7,296,348.863V336l9.188,1.838Z" transform="translate(-247.843 -283.249)" fill="#a36548"/>
      <path id="Trazado_994170" data-name="Trazado 994170" d="M408,350.7l9.188-1.838V336L408,337.838Z" transform="translate(-346.98 -283.249)" fill="#8f4d2e"/>
      <path id="Trazado_994171" data-name="Trazado 994171" d="M376,352h3.675v12.863H376Z" transform="translate(-318.655 -297.411)" fill="#95573a"/>
      <path id="Trazado_994172" data-name="Trazado 994172" d="M307.025,316.594a3.254,3.254,0,0,0-2.719-3.21L296,312v2.756l9.188,1.838h1.838a3.254,3.254,0,0,1,2.719-3.21L318.051,312v2.756l-9.188,1.838Z" transform="translate(-247.843 -262.005)" fill="#d4bd81"/>
      <path id="Trazado_994173" data-name="Trazado 994173" d="M436.745,421.427l-3.675.613a.919.919,0,0,1-1.07-.906v-3.415a1.2,1.2,0,0,1,1-1.18l3.121-.52a1.2,1.2,0,0,1,1.393,1.18v3.322a.919.919,0,0,1-.768.906Z" transform="translate(-368.223 -354.063)" fill="#fec9a3"/>
      <path id="Trazado_994174" data-name="Trazado 994174" d="M217.378,136a1.378,1.378,0,1,0,1.378,1.378A1.378,1.378,0,0,0,217.378,136Z" transform="translate(-177.031 -106.218)"/>
      <path id="Trazado_994175" data-name="Trazado 994175" d="M289.378,136a1.378,1.378,0,1,0,1.378,1.378A1.378,1.378,0,0,0,289.378,136Z" transform="translate(-240.762 -106.218)"/>
      <path id="Trazado_994176" data-name="Trazado 994176" d="M242.756,176.919a.92.92,0,0,1-.919-.919H240a2.756,2.756,0,1,0,5.513,0h-1.838A.92.92,0,0,1,242.756,176.919Z" transform="translate(-198.274 -141.624)"/>
      <path id="Trazado_994177" data-name="Trazado 994177" d="M70.8,49.294a.92.92,0,0,0-.745-.205L61.75,50.473a4.181,4.181,0,0,0-1.539.583l-.633-1.6a6.119,6.119,0,0,0-1.054-1.76l.24-2.173a15.914,15.914,0,0,0,.1-1.667,15,15,0,0,0-1.223-5.92,13.271,13.271,0,0,1-1.048-5.869l.156-3.18c.01-.2.019-.408.019-.613a12.282,12.282,0,1,0-24.548.614l.156,3.17c.009.237.018.46.018.681a13.1,13.1,0,0,1-1.065,5.2A15.013,15.013,0,0,0,30.2,45.531l.239,2.143a6.238,6.238,0,0,0-.728,1.052L28.458,45.59a2.706,2.706,0,1,0-4.933,2.215l.177.352H21.9a4.617,4.617,0,0,1-2.054-.485l-.916-.458A2.021,2.021,0,0,0,16,49.022v2.593a2.741,2.741,0,0,0,1.524,2.465l1.5.748a6.464,6.464,0,0,0,2.876.679h.536v2.721l-.66,8.58a4.011,4.011,0,0,0,4,4.318q.1,0,.2-.005c.059,0,.117.005.175.005a3.7,3.7,0,0,0,3.474-2.43l4.194-7.8a8.037,8.037,0,0,0,1.477,3.2v7.029h1.838v-7.35a.919.919,0,0,0-.213-.588,6.264,6.264,0,0,1,.8-8.813l-1.176-1.412A8.1,8.1,0,0,0,35.4,54.129a.945.945,0,0,0-.095.115h0l-.016.029-.011.02a8.045,8.045,0,0,0-1.194,2.233l-4.3,8V53.361l1.306-3.251a4.4,4.4,0,0,1,.967-1.483,4.65,4.65,0,0,1,3.3-1.388h3.075l5.252,9.628a.919.919,0,0,0,1.613,0l1.95-3.575V65.614a.919.919,0,0,0,.739.9l3.855.771v3.841H53.67V67.654l3.515.7c.023,0,.129.015.16.015h1.738l.176.329a3.722,3.722,0,0,0,3.488,2.428,3.459,3.459,0,0,0,.606-.05,3.724,3.724,0,0,0,2.876-2.4l2.444-.407A1.83,1.83,0,0,0,70.2,66.552l.184-.037a.919.919,0,0,0,.739-.9V49.995a.919.919,0,0,0-.325-.7ZM40.413,47.048a2.207,2.207,0,0,0,1.313-2.015V42.222a9.192,9.192,0,0,0,5.513,0v2.812a2.207,2.207,0,0,0,1.312,2.015l-1.106,2.028H41.519Zm4.069-6.241a7.359,7.359,0,0,1-7.35-7.35V29.343a13.422,13.422,0,0,0,3.976-4.552,23.8,23.8,0,0,0,10.724,4.855v3.811a7.359,7.359,0,0,1-7.35,7.35ZM56.9,48.643l.017.017a4.258,4.258,0,0,1,.953,1.471l.395,1a4.179,4.179,0,0,0-1.649-.655l-7.186-1.2,1.111-2.037h3.065A4.552,4.552,0,0,1,56.9,48.643Zm.537,5.027-4.18-.836L49.075,52v-.919l7.237,1.206a2.327,2.327,0,0,1,1.765,1.385Zm4.617-1.384,7.236-1.206V52l-4.321.864-4.039.807h-.641a2.327,2.327,0,0,1,1.765-1.384Zm-42.212.9-1.5-.748a.914.914,0,0,1-.508-.822V49.022a.184.184,0,0,1,.266-.164l.916.458a6.464,6.464,0,0,0,2.876.679h3.293a.919.919,0,0,0,.822-1.33l-.841-1.682a.868.868,0,1,1,1.583-.711l1.193,2.981V53.67H21.9a4.617,4.617,0,0,1-2.054-.485Zm8.1,2.323v1.838H24.269V55.508ZM23.6,66.949l.6-7.766h3.743v7.933a2.175,2.175,0,0,1-2.016,2.166.937.937,0,0,0-.1.005l-.054,0a2.173,2.173,0,0,1-2.167-2.34Zm11.705-12.7q.027-.037.058-.071l-.056.072Zm-3.177-7.976-.105-.944a13.173,13.173,0,0,1,.988-6.664,14.924,14.924,0,0,0,1.214-5.921c0-.257-.01-.508-.02-.762L34.053,28.8a10.444,10.444,0,1,1,20.876-.524c0,.162-.008.339-.017.525l-.156,3.177a15.115,15.115,0,0,0,1.194,6.683,13.168,13.168,0,0,1,1.075,5.2,14.077,14.077,0,0,1-.086,1.47l-.1.947a6.426,6.426,0,0,0-3.227-.873H49.444a.372.372,0,0,1-.368-.368V41.409a9.191,9.191,0,0,0,4.594-7.952V28.863a.919.919,0,0,0-.789-.91,21.967,21.967,0,0,1-10.964-4.874l-.522-.435a.919.919,0,0,0-1.41.295l-.356.712A11.575,11.575,0,0,1,35.7,28.1a.919.919,0,0,0-.409.765v4.594a9.191,9.191,0,0,0,4.594,7.952v3.625a.372.372,0,0,1-.368.368H35.349a6.473,6.473,0,0,0-3.217.868Zm12.35,8.239-1.96-3.594h3.921Zm4.594-.636,7.35,1.47V66.331l-7.35-1.47Zm9.188,1.636H60.1V66.533H58.264Zm4.774,13.759a1.643,1.643,0,0,1-.29.023,1.882,1.882,0,0,1-1.619-.926l.052-.008.02,0h.008l1.889-.378a1.813,1.813,0,0,0,.925.806A1.915,1.915,0,0,1,63.038,69.266Zm5.333-2.808L64.7,67.07V63.655a.277.277,0,0,1,.232-.273l3.121-.52a.3.3,0,0,1,.047,0,.277.277,0,0,1,.276.277v3.322Zm-.625-5.409-3.121.52a2.108,2.108,0,0,0-1.767,2.086v2.492l-.919.184V55.342l7.35-1.47v7.52a2.109,2.109,0,0,0-1.544-.343Z"/>
    </g>
  </g>
</svg>
